<?xml version="1.0" encoding="utf-8"?>
<!-- Generator: Adobe Illustrator 15.1.0, SVG Export Plug-In . SVG Version: 6.00 Build 0)  -->
<!DOCTYPE svg PUBLIC "-//W3C//DTD SVG 1.1//EN" "http://www.w3.org/Graphics/SVG/1.1/DTD/svg11.dtd">
<svg version="1.1" id="Layer_1" xmlns="http://www.w3.org/2000/svg" xmlns:xlink="http://www.w3.org/1999/xlink" x="0px" y="0px"
	 width="35px" height="35px" viewBox="0 0 35 35" enable-background="new 0 0 35 35" xml:space="preserve">
<g>
	
		<radialGradient id="SVGID_1_" cx="4568.5518" cy="-111.1724" r="33.9616" fx="4571.1343" fy="-105.9711" gradientTransform="matrix(-1 0.0081 0.0081 1 4587.0254 85.6417)" gradientUnits="userSpaceOnUse">
		<stop  offset="0" style="stop-color:#FFF100"/>
		<stop  offset="0.143" style="stop-color:#FFEE01"/>
		<stop  offset="0.2395" style="stop-color:#FEE504"/>
		<stop  offset="0.3223" style="stop-color:#FCD609"/>
		<stop  offset="0.3974" style="stop-color:#FAC110"/>
		<stop  offset="0.4672" style="stop-color:#F7A519"/>
		<stop  offset="0.5323" style="stop-color:#F48324"/>
		<stop  offset="0.5495" style="stop-color:#F37927"/>
		<stop  offset="0.7143" style="stop-color:#FFF100"/>
	</radialGradient>
	<circle fill="url(#SVGID_1_)" cx="17.5" cy="17.5" r="17.5"/>
	
		<linearGradient id="SVGID_2_" gradientUnits="userSpaceOnUse" x1="4569.0332" y1="-117.8921" x2="4569.0332" y2="-102.9699" gradientTransform="matrix(-1 0.0081 0.0081 1 4587.0254 85.6417)">
		<stop  offset="0" style="stop-color:#FFF4CB"/>
		<stop  offset="1" style="stop-color:#FFF100"/>
	</linearGradient>
	<path fill="url(#SVGID_2_)" d="M5.11,10.915c-0.041-5,5.355-9.096,12.051-9.15c6.696-0.055,12.156,3.955,12.198,8.954
		c0.04,4.999-5.355,9.096-12.052,9.15C10.611,19.923,5.15,15.913,5.11,10.915z"/>
	<g>
		<linearGradient id="SVGID_3_" gradientUnits="userSpaceOnUse" x1="17.2246" y1="25.2656" x2="22.071" y2="16.454">
			<stop  offset="0" style="stop-color:#FFF100"/>
			<stop  offset="0.2753" style="stop-color:#FEDC0B"/>
			<stop  offset="0.6813" style="stop-color:#FCB61F"/>
			<stop  offset="1" style="stop-color:#DC5A26"/>
		</linearGradient>
		<path fill="url(#SVGID_3_)" d="M25.106,26.888c0,0-1.57-3.025-3.861-0.474c-4.625,5.149-5.421-5.875-9.631-1.134
			c-1.848,2.082-2.88-0.532-2.88-0.532l0,0c0,0,0.797,3.205,2.789,1.229c4.324-4.288,4.608,6.735,10.111,0.998
			C23.776,24.742,25.106,26.888,25.106,26.888L25.106,26.888z"/>
		<path d="M25.106,26.888c0,0-1.728-3.199-3.817-0.917c-4.675,5.104-5.225-5.539-9.841-0.923c-1.968,1.969-2.722-0.394-2.722-0.394
			l0,0c0,0,0.849,2.855,2.841,0.879c4.324-4.289,4.608,6.735,10.112,0.998C23.82,24.299,25.106,26.888,25.106,26.888L25.106,26.888z
			"/>
		<path d="M8.513,25.646c0,0-0.199-0.995,0.1-1.227c0.298-0.231,0.928,0.198,0.928,0.198s-0.709-1.009-1.26-0.496
			C7.816,24.552,8.513,25.646,8.513,25.646z"/>
		<path d="M25.443,26.037c0,0,0.233,0.986-0.056,1.229c-0.29,0.242-0.936-0.167-0.936-0.167s0.744,0.984,1.276,0.453
			C26.177,27.106,25.443,26.037,25.443,26.037z"/>
	</g>
	<g>
		
			<linearGradient id="SVGID_4_" gradientUnits="userSpaceOnUse" x1="2948.0986" y1="140.8486" x2="2943.6064" y2="116.6329" gradientTransform="matrix(-0.9951 -0.0994 -0.0994 0.9951 2966.8135 182.827)">
			<stop  offset="0" style="stop-color:#FFF100"/>
			<stop  offset="0.2753" style="stop-color:#FEDC0B"/>
			<stop  offset="0.6813" style="stop-color:#FCB61F"/>
			<stop  offset="1" style="stop-color:#DC5A26"/>
		</linearGradient>
		<path fill="url(#SVGID_4_)" d="M18.011,13.618c-0.836,4.155,1.057,8.042,4.225,8.68c3.17,0.638,6.418-2.215,7.255-6.372
			c0.835-4.156-1.056-8.042-4.227-8.68C22.094,6.609,18.848,9.461,18.011,13.618z"/>
		
			<radialGradient id="SVGID_5_" cx="3408.3086" cy="407.5479" r="12.7818" gradientTransform="matrix(-0.9804 -0.1972 -0.1972 0.9804 3442.9062 292.5516)" gradientUnits="userSpaceOnUse">
			<stop  offset="0" style="stop-color:#FFFFFF"/>
			<stop  offset="0.3734" style="stop-color:#FDFEFF"/>
			<stop  offset="0.5079" style="stop-color:#F6FCFE"/>
			<stop  offset="0.6038" style="stop-color:#EBF8FC"/>
			<stop  offset="0.6813" style="stop-color:#DAF2FA"/>
			<stop  offset="0.7477" style="stop-color:#C4EAF7"/>
			<stop  offset="0.8064" style="stop-color:#A8E0F3"/>
			<stop  offset="0.8583" style="stop-color:#89D5EE"/>
			<stop  offset="0.8791" style="stop-color:#7AD0EC"/>
		</radialGradient>
		<path fill="url(#SVGID_5_)" d="M18.273,14.688c-0.743,3.697,0.939,7.152,3.757,7.719c2.819,0.567,5.708-1.97,6.451-5.666
			s-0.938-7.152-3.758-7.72C21.905,8.455,19.017,10.991,18.273,14.688z"/>
		
			<linearGradient id="SVGID_6_" gradientUnits="userSpaceOnUse" x1="-1712.7227" y1="-96.9062" x2="-1707.9065" y2="-105.5196" gradientTransform="matrix(1 0.0042 -0.0042 1 1735.3781 118.9119)">
			<stop  offset="0" style="stop-color:#FFFFFF"/>
			<stop  offset="0.2964" style="stop-color:#FDFEFF"/>
			<stop  offset="0.4031" style="stop-color:#F6FCFE"/>
			<stop  offset="0.4792" style="stop-color:#EBF8FC"/>
			<stop  offset="0.5408" style="stop-color:#DAF2FA"/>
			<stop  offset="0.5935" style="stop-color:#C4EAF7"/>
			<stop  offset="0.6401" style="stop-color:#A8E0F3"/>
			<stop  offset="0.6813" style="stop-color:#89D5EE"/>
			<stop  offset="0.6978" style="stop-color:#7AD0EC"/>
		</linearGradient>
		<path fill="url(#SVGID_6_)" d="M27.615,13.129c0.01-2.052-1.571-3.722-3.529-3.73s-3.552,1.649-3.561,3.701
			c-0.009,2.052,1.572,3.722,3.529,3.731C26.014,16.839,27.607,15.182,27.615,13.129z"/>
		<g>
			
				<ellipse transform="matrix(0.9873 0.1588 -0.1588 0.9873 2.7792 -2.9682)" fill="#231F20" cx="19.962" cy="15.906" rx="1.316" ry="1.923"/>
			
				<ellipse transform="matrix(-0.9658 -0.2593 0.2593 -0.9658 34.6802 35.4838)" fill="#FFFFFF" cx="19.681" cy="15.454" rx="0.573" ry="0.82"/>
		</g>
		
			<linearGradient id="SVGID_7_" gradientUnits="userSpaceOnUse" x1="2956.293" y1="135.0518" x2="2959.5171" y2="120.1989" gradientTransform="matrix(-0.9951 -0.0994 -0.0994 0.9951 2966.8135 182.827)">
			<stop  offset="0" style="stop-color:#FFF100"/>
			<stop  offset="0.2753" style="stop-color:#FEDC0B"/>
			<stop  offset="0.6813" style="stop-color:#FCB61F"/>
			<stop  offset="1" style="stop-color:#DC5A26"/>
		</linearGradient>
		<path fill="url(#SVGID_7_)" d="M16.517,13.855c0.401,4.221-1.882,7.891-5.101,8.195c-3.219,0.307-6.153-2.867-6.555-7.087
			c-0.401-4.221,1.882-7.89,5.101-8.196C13.182,6.461,16.116,9.635,16.517,13.855z"/>
		
			<radialGradient id="SVGID_8_" cx="-1217.1338" cy="-275.4448" r="12.7793" gradientTransform="matrix(0.9955 -0.0947 0.0947 0.9955 1250.4777 178.7954)" gradientUnits="userSpaceOnUse">
			<stop  offset="0" style="stop-color:#FFFFFF"/>
			<stop  offset="0.3734" style="stop-color:#FDFEFF"/>
			<stop  offset="0.5079" style="stop-color:#F6FCFE"/>
			<stop  offset="0.6038" style="stop-color:#EBF8FC"/>
			<stop  offset="0.6813" style="stop-color:#DAF2FA"/>
			<stop  offset="0.7477" style="stop-color:#C4EAF7"/>
			<stop  offset="0.8064" style="stop-color:#A8E0F3"/>
			<stop  offset="0.8583" style="stop-color:#89D5EE"/>
			<stop  offset="0.8791" style="stop-color:#7AD0EC"/>
		</radialGradient>
		<path fill="url(#SVGID_8_)" d="M16.146,14.893c0.356,3.752-1.675,7.017-4.536,7.289c-2.863,0.271-5.473-2.55-5.83-6.303
			c-0.357-3.753,1.674-7.016,4.537-7.289C13.179,8.317,15.788,11.139,16.146,14.893z"/>
		
			<linearGradient id="SVGID_9_" gradientUnits="userSpaceOnUse" x1="2957.5508" y1="126.25" x2="2962.3667" y2="117.6371" gradientTransform="matrix(-0.9951 -0.0994 -0.0994 0.9951 2966.8135 182.827)">
			<stop  offset="0" style="stop-color:#FFFFFF"/>
			<stop  offset="0.2964" style="stop-color:#FDFEFF"/>
			<stop  offset="0.4031" style="stop-color:#F6FCFE"/>
			<stop  offset="0.4792" style="stop-color:#EBF8FC"/>
			<stop  offset="0.5408" style="stop-color:#DAF2FA"/>
			<stop  offset="0.5935" style="stop-color:#C4EAF7"/>
			<stop  offset="0.6401" style="stop-color:#A8E0F3"/>
			<stop  offset="0.6813" style="stop-color:#89D5EE"/>
			<stop  offset="0.6978" style="stop-color:#7AD0EC"/>
		</linearGradient>
		<path fill="url(#SVGID_9_)" d="M7.015,12.375c0.203-2.042,1.948-3.539,3.896-3.345s3.362,2.007,3.158,4.05
			c-0.203,2.042-1.948,3.539-3.896,3.345S6.811,14.417,7.015,12.375z"/>
		<g>
			
				<ellipse transform="matrix(0.9939 -0.1106 0.1106 0.9939 -1.5893 1.6045)" fill="#231F20" cx="13.665" cy="15.125" rx="2.117" ry="3.092"/>
			
				<linearGradient id="SVGID_10_" gradientUnits="userSpaceOnUse" x1="3110.1943" y1="-240.4585" x2="3112.5942" y2="-243.1933" gradientTransform="matrix(-1 0.0077 0.0077 1 3126.0859 232.3286)">
				<stop  offset="0" style="stop-color:#231F20"/>
				<stop  offset="0.3762" style="stop-color:#363335"/>
				<stop  offset="1" style="stop-color:#5C5D60"/>
			</linearGradient>
			<path fill="url(#SVGID_10_)" d="M12.117,15.017c0.006,0.982,0.57,1.776,1.258,1.771c0.688-0.005,1.24-0.808,1.232-1.791
				c-0.008-0.984-0.571-1.777-1.26-1.771C12.66,13.231,12.108,14.033,12.117,15.017z"/>
			
				<ellipse transform="matrix(-0.9919 0.1267 -0.1267 -0.9919 29.0741 26.8875)" fill="#FFFFFF" cx="13.682" cy="14.368" rx="0.798" ry="1.141"/>
		</g>
		
			<linearGradient id="SVGID_11_" gradientUnits="userSpaceOnUse" x1="-139.1855" y1="236.9756" x2="-140.2168" y2="242.3544" gradientTransform="matrix(0.9942 0.1074 -0.1074 0.9942 187.0235 -203.6227)">
			<stop  offset="0" style="stop-color:#FFF100"/>
			<stop  offset="0.2753" style="stop-color:#FEDC0B"/>
			<stop  offset="0.6813" style="stop-color:#FCB61F"/>
			<stop  offset="1" style="stop-color:#DC5A26"/>
		</linearGradient>
		<path fill="url(#SVGID_11_)" d="M18.117,17.104c0,0,4.904-0.387,9.078,3.345c0,0-2.362,3.121-5.521,1.951
			C18.198,21.199,18.117,17.104,18.117,17.104z"/>
		
			<linearGradient id="SVGID_12_" gradientUnits="userSpaceOnUse" x1="1667.1582" y1="415.707" x2="1676.4979" y2="411.4008" gradientTransform="matrix(-0.9589 -0.2837 -0.2837 0.9589 1746.9609 100.1386)">
			<stop  offset="0" style="stop-color:#FFF100"/>
			<stop  offset="0.2753" style="stop-color:#FEDC0B"/>
			<stop  offset="0.6813" style="stop-color:#FCB61F"/>
			<stop  offset="1" style="stop-color:#DC5A26"/>
		</linearGradient>
		<path fill="url(#SVGID_12_)" d="M26.908,20.158c0,0-3.147-3.179-8.81-3.397c0,0,0.017,0.67,0.115,0.879
			C18.214,17.64,21.522,16.789,26.908,20.158z"/>
		<g>
			<linearGradient id="SVGID_13_" gradientUnits="userSpaceOnUse" x1="9.0732" y1="10.0869" x2="13.0533" y2="22.2039">
				<stop  offset="0" style="stop-color:#FFF100"/>
				<stop  offset="0.2753" style="stop-color:#FEDC0B"/>
				<stop  offset="0.6813" style="stop-color:#FCB61F"/>
				<stop  offset="1" style="stop-color:#DC5A26"/>
			</linearGradient>
			<path fill="url(#SVGID_13_)" d="M15.891,14.546c-4.605,0.926-7.682,2.94-9.467,4.163c1.037,2.281,3.002,3.753,5.105,3.553
				c2.862-0.272,4.996-3.506,4.64-7.259C16.162,14.937,15.898,14.611,15.891,14.546z"/>
		</g>
		
			<linearGradient id="SVGID_14_" gradientUnits="userSpaceOnUse" x1="3065.2246" y1="243.4072" x2="3055.2617" y2="236.4209" gradientTransform="matrix(-0.9942 -0.1074 -0.1074 0.9942 3076.4956 108.5448)">
			<stop  offset="0" style="stop-color:#FFF100"/>
			<stop  offset="0.2753" style="stop-color:#FEDC0B"/>
			<stop  offset="0.6813" style="stop-color:#FCB61F"/>
			<stop  offset="1" style="stop-color:#DC5A26"/>
		</linearGradient>
		<path fill="url(#SVGID_14_)" d="M6.503,18.629c0,0,4.294-2.614,9.665-3.626c0,0-0.047-0.754-0.165-1.015
			C16.003,13.988,10.706,15.246,6.503,18.629z"/>
	</g>
</g>
</svg>
