<?xml version="1.0" encoding="utf-8"?>
<!-- Generator: Adobe Illustrator 15.1.0, SVG Export Plug-In . SVG Version: 6.00 Build 0)  -->
<!DOCTYPE svg PUBLIC "-//W3C//DTD SVG 1.1//EN" "http://www.w3.org/Graphics/SVG/1.1/DTD/svg11.dtd">
<svg version="1.1" id="Layer_1" xmlns="http://www.w3.org/2000/svg" xmlns:xlink="http://www.w3.org/1999/xlink" x="0px" y="0px"
	 width="35px" height="35px" viewBox="0 0 35 35" enable-background="new 0 0 35 35" xml:space="preserve">
<g>
	<radialGradient id="SVGID_1_" cx="17.2295" cy="11.4434" r="33.9615" fx="19.8122" fy="16.6446" gradientUnits="userSpaceOnUse">
		<stop  offset="0" style="stop-color:#FFF100"/>
		<stop  offset="0.143" style="stop-color:#FFEE01"/>
		<stop  offset="0.2395" style="stop-color:#FEE504"/>
		<stop  offset="0.3223" style="stop-color:#FCD609"/>
		<stop  offset="0.3974" style="stop-color:#FAC110"/>
		<stop  offset="0.4672" style="stop-color:#F7A519"/>
		<stop  offset="0.5323" style="stop-color:#F48324"/>
		<stop  offset="0.5495" style="stop-color:#F37927"/>
		<stop  offset="0.7143" style="stop-color:#FFF100"/>
	</radialGradient>
	<circle fill="url(#SVGID_1_)" cx="17.5" cy="17.5" r="17.5"/>
	<linearGradient id="SVGID_2_" gradientUnits="userSpaceOnUse" x1="17.7534" y1="4.7559" x2="17.7534" y2="19.6783">
		<stop  offset="0" style="stop-color:#FFF4CB"/>
		<stop  offset="1" style="stop-color:#FFF100"/>
	</linearGradient>
	<ellipse fill="url(#SVGID_2_)" cx="17.754" cy="10.846" rx="12.124" ry="9.052"/>
	
		<linearGradient id="SVGID_3_" gradientUnits="userSpaceOnUse" x1="70.7129" y1="-667.1562" x2="66.573" y2="-689.4726" gradientTransform="matrix(0.9859 -0.1673 0.1673 0.9859 58.5975 702.3566)">
		<stop  offset="0" style="stop-color:#FFF7AB"/>
		<stop  offset="0.062" style="stop-color:#FFF696"/>
		<stop  offset="0.1905" style="stop-color:#FFF45F"/>
		<stop  offset="0.3729" style="stop-color:#FFF109"/>
		<stop  offset="0.3901" style="stop-color:#FFF100"/>
		<stop  offset="0.5078" style="stop-color:#FEDC0B"/>
		<stop  offset="0.6813" style="stop-color:#FCB61F"/>
		<stop  offset="1" style="stop-color:#DC5A26"/>
	</linearGradient>
	<path fill="url(#SVGID_3_)" d="M16.712,18.259c1.021,3.802-0.328,6.915-3.117,7.509c-3.277,0.699-5.84-2.02-6.828-5.625
		c-0.986-3.607,0.801-7.41,3.551-8.162L16.712,18.259z"/>
	
		<radialGradient id="SVGID_4_" cx="624.4902" cy="-680.4209" r="10.5446" gradientTransform="matrix(0.9645 -0.2639 0.2639 0.9645 -408.867 844.4479)" gradientUnits="userSpaceOnUse">
		<stop  offset="0" style="stop-color:#FFFFFF"/>
		<stop  offset="0.3734" style="stop-color:#FDFEFF"/>
		<stop  offset="0.5079" style="stop-color:#F6FCFE"/>
		<stop  offset="0.6038" style="stop-color:#EBF8FC"/>
		<stop  offset="0.6813" style="stop-color:#DAF2FA"/>
		<stop  offset="0.7477" style="stop-color:#C4EAF7"/>
		<stop  offset="0.8064" style="stop-color:#A8E0F3"/>
		<stop  offset="0.8583" style="stop-color:#89D5EE"/>
		<stop  offset="0.8791" style="stop-color:#7AD0EC"/>
	</radialGradient>
	<path fill="url(#SVGID_4_)" d="M16.134,19.584c0.454,2.677,0.033,5.141-2.413,5.81c-2.445,0.669-5.14-1.388-6.018-4.597
		c-0.877-3.206,0.168-6.026,2.614-6.695L16.134,19.584z"/>
	<g>
		
			<linearGradient id="SVGID_5_" gradientUnits="userSpaceOnUse" x1="65.5742" y1="-678.8535" x2="72.5863" y2="-691.3943" gradientTransform="matrix(0.9859 -0.1673 0.1673 0.9859 58.5975 702.3571)">
			<stop  offset="0" style="stop-color:#FFFFFF"/>
			<stop  offset="0.2964" style="stop-color:#FDFEFF"/>
			<stop  offset="0.4031" style="stop-color:#F6FCFE"/>
			<stop  offset="0.4792" style="stop-color:#EBF8FC"/>
			<stop  offset="0.5408" style="stop-color:#DAF2FA"/>
			<stop  offset="0.5935" style="stop-color:#C4EAF7"/>
			<stop  offset="0.6401" style="stop-color:#A8E0F3"/>
			<stop  offset="0.6813" style="stop-color:#89D5EE"/>
			<stop  offset="0.6978" style="stop-color:#7AD0EC"/>
		</linearGradient>
		<path fill="url(#SVGID_5_)" d="M14.436,17.984l-4.006-3.775c-1.358,0.436-2.296,1.808-2.183,3.359
			c0.131,1.805,1.634,3.167,3.355,3.042C13.04,20.505,14.176,19.396,14.436,17.984z"/>
	</g>
	
		<ellipse transform="matrix(-0.9873 0.1591 -0.1591 -0.9873 28.7002 38.6471)" fill="#231F20" cx="12.803" cy="20.473" rx="1.804" ry="2.637"/>
	
		<ellipse transform="matrix(0.9655 -0.2605 0.2605 0.9655 -4.7159 4.1206)" fill="#FFFFFF" cx="13.188" cy="19.852" rx="0.785" ry="1.124"/>
	<linearGradient id="SVGID_6_" gradientUnits="userSpaceOnUse" x1="21.7021" y1="27.2871" x2="24.6761" y2="12.0289">
		<stop  offset="0.0769" style="stop-color:#FFF100"/>
		<stop  offset="0.3211" style="stop-color:#FEDC0B"/>
		<stop  offset="0.6813" style="stop-color:#FCB61F"/>
		<stop  offset="1" style="stop-color:#DC5A26"/>
	</linearGradient>
	<path fill="url(#SVGID_6_)" d="M18.305,18.357c-0.693,3.674,0.609,6.873,3.672,7.303c2.823,0.396,5.694-2.041,6.392-6.224
		c0.616-3.688-1.39-7.321-4.191-7.851L18.305,18.357z"/>
	
		<radialGradient id="SVGID_7_" cx="5455.8916" cy="419.0811" r="10.5461" gradientTransform="matrix(-0.9826 -0.1857 -0.1857 0.9826 5460.3174 624.6328)" gradientUnits="userSpaceOnUse">
		<stop  offset="0" style="stop-color:#FFFFFF"/>
		<stop  offset="0.3734" style="stop-color:#FDFEFF"/>
		<stop  offset="0.5079" style="stop-color:#F6FCFE"/>
		<stop  offset="0.6038" style="stop-color:#EBF8FC"/>
		<stop  offset="0.6813" style="stop-color:#DAF2FA"/>
		<stop  offset="0.7477" style="stop-color:#C4EAF7"/>
		<stop  offset="0.8064" style="stop-color:#A8E0F3"/>
		<stop  offset="0.8583" style="stop-color:#89D5EE"/>
		<stop  offset="0.8791" style="stop-color:#7AD0EC"/>
	</radialGradient>
	<path fill="url(#SVGID_7_)" d="M18.987,19.632c-0.237,2.704,0.379,5.126,2.871,5.597c2.493,0.471,5.012-1.796,5.63-5.063
		c0.617-3.267-0.649-5.995-3.142-6.465L18.987,19.632z"/>
	<g>
		
			<linearGradient id="SVGID_8_" gradientUnits="userSpaceOnUse" x1="4981.9775" y1="-62.1802" x2="4988.9897" y2="-74.7214" gradientTransform="matrix(-0.9961 -0.0877 -0.0877 0.9961 4982.9609 520.4791)">
			<stop  offset="0" style="stop-color:#FFFFFF"/>
			<stop  offset="0.2964" style="stop-color:#FDFEFF"/>
			<stop  offset="0.4031" style="stop-color:#F6FCFE"/>
			<stop  offset="0.4792" style="stop-color:#EBF8FC"/>
			<stop  offset="0.5408" style="stop-color:#DAF2FA"/>
			<stop  offset="0.5935" style="stop-color:#C4EAF7"/>
			<stop  offset="0.6401" style="stop-color:#A8E0F3"/>
			<stop  offset="0.6813" style="stop-color:#89D5EE"/>
			<stop  offset="0.6978" style="stop-color:#7AD0EC"/>
		</linearGradient>
		<path fill="url(#SVGID_8_)" d="M20.554,17.9l3.688-4.084c1.39,0.325,2.434,1.619,2.446,3.174c0.013,1.81-1.376,3.288-3.103,3.301
			C22.145,20.301,20.925,19.287,20.554,17.9z"/>
	</g>
	
		<ellipse transform="matrix(0.9968 0.0801 -0.0801 0.9968 1.6942 -1.7278)" fill="#231F20" cx="22.379" cy="20.25" rx="1.804" ry="2.637"/>
	
		<ellipse transform="matrix(-0.9832 -0.1827 0.1827 -0.9832 39.9285 43.0049)" fill="#FFFFFF" cx="21.945" cy="19.663" rx="0.786" ry="1.123"/>
	<g>
		
			<linearGradient id="SVGID_9_" gradientUnits="userSpaceOnUse" x1="189.3291" y1="-155.584" x2="182.433" y2="-164.6395" gradientTransform="matrix(0.9958 -0.092 0.092 0.9958 -153.8356 203.0214)">
			<stop  offset="0" style="stop-color:#FFF100"/>
			<stop  offset="0.2753" style="stop-color:#FEDC0B"/>
			<stop  offset="0.6813" style="stop-color:#FCB61F"/>
			<stop  offset="1" style="stop-color:#DC5A26"/>
		</linearGradient>
		<path fill="url(#SVGID_9_)" d="M19.766,30.611c-1.967,0.627-5.835,0.302-7.478-3.031c0,0,5.437,3.788,10.784-0.023
			C23.072,27.557,21.984,29.904,19.766,30.611z"/>
		<path fill="#231F20" d="M19.713,29.991c-1.966,0.627-5.222,0.425-7.429-2.46c0,0,5.437,3.788,10.783-0.023
			C23.067,27.508,21.931,29.283,19.713,29.991z"/>
		<path d="M23.263,28.722c0,0,0.141-1.328-1.425-1.184C21.838,27.538,23.949,26.404,23.263,28.722z"/>
		<path d="M13.424,27.255c0,0-1.327-0.143-1.186,1.423C12.238,28.678,11.107,26.564,13.424,27.255z"/>
	</g>
	<linearGradient id="SVGID_10_" gradientUnits="userSpaceOnUse" x1="11.8672" y1="28.5947" x2="14.3096" y2="9.8933">
		<stop  offset="0" style="stop-color:#FFF100"/>
		<stop  offset="0.2753" style="stop-color:#FEDC0B"/>
		<stop  offset="0.6813" style="stop-color:#FCB61F"/>
		<stop  offset="1" style="stop-color:#DC5A26"/>
	</linearGradient>
	<path fill="url(#SVGID_10_)" d="M16.881,21.895c0,0-5.763-0.376-8.383,0.814c0,0,1.416,3.049,4.268,2.864
		C15.751,25.681,16.881,21.895,16.881,21.895z"/>
	<linearGradient id="SVGID_11_" gradientUnits="userSpaceOnUse" x1="4.7764" y1="26.2119" x2="12.6713" y2="22.5718">
		<stop  offset="0" style="stop-color:#FFF100"/>
		<stop  offset="0.2753" style="stop-color:#FEDC0B"/>
		<stop  offset="0.6813" style="stop-color:#FCB61F"/>
		<stop  offset="1" style="stop-color:#DC5A26"/>
	</linearGradient>
	<path fill="url(#SVGID_11_)" d="M8.92,22.522c0,0,3.028-1.163,7.961-0.628c0,0-0.101,0.48-0.231,0.622
		C16.649,22.517,13.548,21.711,8.92,22.522z"/>
	
		<linearGradient id="SVGID_12_" gradientUnits="userSpaceOnUse" x1="2152.3457" y1="28.2051" x2="2154.6567" y2="10.5088" gradientTransform="matrix(-1 0 0 1 2176.3164 0)">
		<stop  offset="0" style="stop-color:#FFF100"/>
		<stop  offset="0.2753" style="stop-color:#FEDC0B"/>
		<stop  offset="0.6813" style="stop-color:#FCB61F"/>
		<stop  offset="1" style="stop-color:#DC5A26"/>
	</linearGradient>
	<path fill="url(#SVGID_12_)" d="M19.009,21.895c0,0,5.764-0.376,8.382,0.814c0,0-1.847,2.841-4.506,2.667
		C19.23,25.649,19.009,21.895,19.009,21.895z"/>
	
		<linearGradient id="SVGID_13_" gradientUnits="userSpaceOnUse" x1="2145.2344" y1="26.2803" x2="2153.1292" y2="22.6403" gradientTransform="matrix(-1 0 0 1 2176.3164 0)">
		<stop  offset="0" style="stop-color:#FFF100"/>
		<stop  offset="0.2753" style="stop-color:#FEDC0B"/>
		<stop  offset="0.6813" style="stop-color:#FCB61F"/>
		<stop  offset="1" style="stop-color:#DC5A26"/>
	</linearGradient>
	<path fill="url(#SVGID_13_)" d="M26.97,22.522c0,0-3.029-1.163-7.961-0.628c0,0,0.022,0.474,0.146,0.746
		C19.155,22.641,22.341,21.711,26.97,22.522z"/>
</g>
</svg>
