<?xml version="1.0" encoding="utf-8"?>
<!-- Generator: Adobe Illustrator 15.1.0, SVG Export Plug-In . SVG Version: 6.00 Build 0)  -->
<!DOCTYPE svg PUBLIC "-//W3C//DTD SVG 1.1//EN" "http://www.w3.org/Graphics/SVG/1.1/DTD/svg11.dtd">
<svg version="1.1" id="Layer_1" xmlns="http://www.w3.org/2000/svg" xmlns:xlink="http://www.w3.org/1999/xlink" x="0px" y="0px"
	 width="35px" height="35px" viewBox="0 0 35 35" enable-background="new 0 0 35 35" xml:space="preserve">
<g>
	<radialGradient id="SVGID_1_" cx="16.708" cy="13.9199" r="30.3911" fx="19.0192" fy="18.5744" gradientUnits="userSpaceOnUse">
		<stop  offset="0" style="stop-color:#FFF100"/>
		<stop  offset="0.143" style="stop-color:#FFEE01"/>
		<stop  offset="0.2395" style="stop-color:#FEE504"/>
		<stop  offset="0.3223" style="stop-color:#FCD609"/>
		<stop  offset="0.3974" style="stop-color:#FAC110"/>
		<stop  offset="0.4672" style="stop-color:#F7A519"/>
		<stop  offset="0.5323" style="stop-color:#F48324"/>
		<stop  offset="0.5495" style="stop-color:#F37927"/>
		<stop  offset="0.7143" style="stop-color:#FFF100"/>
	</radialGradient>
	<circle fill="url(#SVGID_1_)" cx="16.95" cy="19.34" r="15.66"/>
	<linearGradient id="SVGID_2_" gradientUnits="userSpaceOnUse" x1="17.1763" y1="7.9351" x2="17.1763" y2="21.2895">
		<stop  offset="0" style="stop-color:#FFF4CB"/>
		<stop  offset="1" style="stop-color:#FFF100"/>
	</linearGradient>
	<ellipse fill="url(#SVGID_2_)" cx="17.177" cy="13.384" rx="10.851" ry="8.101"/>
	<polygon points="30.504,17.086 32.528,12.964 32.265,12.096 29.723,13.787 	"/>
	<g>
		
			<linearGradient id="SVGID_3_" gradientUnits="userSpaceOnUse" x1="8.041" y1="-133.0928" x2="4.8911" y2="-150.0724" gradientTransform="matrix(0.9977 -0.0676 0.0676 0.9977 14.6873 160.4508)">
			<stop  offset="0" style="stop-color:#FFF100"/>
			<stop  offset="0.2753" style="stop-color:#FEDC0B"/>
			<stop  offset="0.6813" style="stop-color:#FCB61F"/>
			<stop  offset="1" style="stop-color:#DC5A26"/>
		</linearGradient>
		<path fill="url(#SVGID_3_)" d="M14.982,15.63c0.492,2.931-0.92,5.612-3.155,5.989c-2.235,0.375-4.447-1.696-4.94-4.627
			s0.919-5.612,3.154-5.989C12.277,10.627,14.488,12.698,14.982,15.63z"/>
		
			<radialGradient id="SVGID_4_" cx="509.6689" cy="-152.5381" r="8.9603" gradientTransform="matrix(0.9861 -0.1659 0.1659 0.9861 -464.6641 254.9772)" gradientUnits="userSpaceOnUse">
			<stop  offset="0" style="stop-color:#FFFFFF"/>
			<stop  offset="0.3734" style="stop-color:#FDFEFF"/>
			<stop  offset="0.5079" style="stop-color:#F6FCFE"/>
			<stop  offset="0.6038" style="stop-color:#EBF8FC"/>
			<stop  offset="0.6813" style="stop-color:#DAF2FA"/>
			<stop  offset="0.7477" style="stop-color:#C4EAF7"/>
			<stop  offset="0.8064" style="stop-color:#A8E0F3"/>
			<stop  offset="0.8583" style="stop-color:#89D5EE"/>
			<stop  offset="0.8791" style="stop-color:#7AD0EC"/>
		</radialGradient>
		<path fill="url(#SVGID_4_)" d="M14.774,16.374c0.438,2.607-0.817,4.992-2.806,5.326c-1.988,0.335-3.955-1.508-4.394-4.114
			c-0.438-2.607,0.817-4.992,2.806-5.326C12.368,11.926,14.336,13.767,14.774,16.374z"/>
		
			<linearGradient id="SVGID_5_" gradientUnits="userSpaceOnUse" x1="1238.9473" y1="-85.1221" x2="1242.3235" y2="-91.1603" gradientTransform="matrix(-0.9996 -0.0277 -0.0277 0.9996 1247.5231 135.7697)">
			<stop  offset="0" style="stop-color:#FFFFFF"/>
			<stop  offset="0.2964" style="stop-color:#FDFEFF"/>
			<stop  offset="0.4031" style="stop-color:#F6FCFE"/>
			<stop  offset="0.4792" style="stop-color:#EBF8FC"/>
			<stop  offset="0.5408" style="stop-color:#DAF2FA"/>
			<stop  offset="0.5935" style="stop-color:#C4EAF7"/>
			<stop  offset="0.6401" style="stop-color:#A8E0F3"/>
			<stop  offset="0.6813" style="stop-color:#89D5EE"/>
			<stop  offset="0.6978" style="stop-color:#7AD0EC"/>
		</linearGradient>
		<path fill="url(#SVGID_5_)" d="M8.262,15.073c0.04-1.438,1.186-2.573,2.558-2.535c1.372,0.037,2.451,1.234,2.412,2.672
			c-0.04,1.438-1.185,2.573-2.557,2.536C9.303,17.709,8.223,16.512,8.262,15.073z"/>
		
			<ellipse transform="matrix(-0.9982 0.0597 -0.0597 -0.9982 24.307 34.7417)" fill="#231F20" cx="11.634" cy="17.734" rx="1.435" ry="2.097"/>
		
			<ellipse transform="matrix(0.9867 -0.1625 0.1625 0.9867 -2.6477 2.1778)" fill="#FFFFFF" cx="11.989" cy="17.274" rx="0.625" ry="0.894"/>
	</g>
	<g>
		
			<linearGradient id="SVGID_6_" gradientUnits="userSpaceOnUse" x1="16.8379" y1="-137.1914" x2="19.0988" y2="-147.6066" gradientTransform="matrix(0.9977 -0.0676 0.0676 0.9977 14.6873 160.4508)">
			<stop  offset="0" style="stop-color:#FFF100"/>
			<stop  offset="0.2753" style="stop-color:#FEDC0B"/>
			<stop  offset="0.6813" style="stop-color:#FCB61F"/>
			<stop  offset="1" style="stop-color:#DC5A26"/>
		</linearGradient>
		<path fill="url(#SVGID_6_)" d="M19.065,15.587c-0.375,2.949,1.143,5.571,3.391,5.858c2.25,0.286,4.376-1.872,4.752-4.82
			c0.375-2.949-1.143-5.571-3.393-5.858C21.567,10.481,19.44,12.639,19.065,15.587z"/>
		
			<radialGradient id="SVGID_7_" cx="1719.1572" cy="26.1709" r="8.9638" gradientTransform="matrix(-0.992 -0.1263 -0.1263 0.992 1730.2786 211.0548)" gradientUnits="userSpaceOnUse">
			<stop  offset="0" style="stop-color:#FFFFFF"/>
			<stop  offset="0.3734" style="stop-color:#FDFEFF"/>
			<stop  offset="0.5079" style="stop-color:#F6FCFE"/>
			<stop  offset="0.6038" style="stop-color:#EBF8FC"/>
			<stop  offset="0.6813" style="stop-color:#DAF2FA"/>
			<stop  offset="0.7477" style="stop-color:#C4EAF7"/>
			<stop  offset="0.8064" style="stop-color:#A8E0F3"/>
			<stop  offset="0.8583" style="stop-color:#89D5EE"/>
			<stop  offset="0.8791" style="stop-color:#7AD0EC"/>
		</radialGradient>
		<path fill="url(#SVGID_7_)" d="M19.302,16.323c-0.334,2.623,1.018,4.955,3.017,5.208c2,0.256,3.892-1.664,4.227-4.286
			c0.333-2.622-1.018-4.955-3.017-5.209C21.528,11.781,19.637,13.701,19.302,16.323z"/>
		
			<linearGradient id="SVGID_8_" gradientUnits="userSpaceOnUse" x1="17.7197" y1="-143.3643" x2="21.0964" y2="-149.4032" gradientTransform="matrix(0.9977 -0.0676 0.0676 0.9977 14.6873 160.4508)">
			<stop  offset="0" style="stop-color:#FFFFFF"/>
			<stop  offset="0.2964" style="stop-color:#FDFEFF"/>
			<stop  offset="0.4031" style="stop-color:#F6FCFE"/>
			<stop  offset="0.4792" style="stop-color:#EBF8FC"/>
			<stop  offset="0.5408" style="stop-color:#DAF2FA"/>
			<stop  offset="0.5935" style="stop-color:#C4EAF7"/>
			<stop  offset="0.6401" style="stop-color:#A8E0F3"/>
			<stop  offset="0.6813" style="stop-color:#89D5EE"/>
			<stop  offset="0.6978" style="stop-color:#7AD0EC"/>
		</linearGradient>
		<path fill="url(#SVGID_8_)" d="M25.757,14.763c-0.097-1.436-1.286-2.524-2.656-2.431c-1.369,0.093-2.4,1.332-2.304,2.768
			c0.098,1.436,1.287,2.523,2.656,2.431C24.823,17.438,25.854,16.199,25.757,14.763z"/>
		
			<ellipse transform="matrix(-0.9994 -0.0354 0.0354 -0.9994 43.6916 35.7709)" fill="#231F20" cx="22.163" cy="17.499" rx="1.434" ry="2.096"/>
		
			<linearGradient id="SVGID_9_" gradientUnits="userSpaceOnUse" x1="16.3506" y1="-141.9219" x2="17.9775" y2="-143.7758" gradientTransform="matrix(0.9977 -0.0676 0.0676 0.9977 14.6873 160.4508)">
			<stop  offset="0" style="stop-color:#231F20"/>
			<stop  offset="0.3762" style="stop-color:#363335"/>
			<stop  offset="1" style="stop-color:#5C5D60"/>
		</linearGradient>
		<path fill="url(#SVGID_9_)" d="M22.716,17.073c0.045,0.665-0.296,1.23-0.762,1.261c-0.465,0.031-0.877-0.482-0.923-1.147
			c-0.045-0.666,0.296-1.23,0.761-1.262C22.257,15.894,22.671,16.408,22.716,17.073z"/>
		
			<ellipse transform="matrix(0.9987 0.0519 -0.0519 0.9987 0.9109 -1.1242)" fill="#FFFFFF" cx="22.113" cy="16.988" rx="0.541" ry="0.774"/>
	</g>
	<g>
		<path d="M3.427,16.354c0-3.592,2.911-6.502,6.503-6.503l0,0c3.591,0.001,6.501,2.912,6.503,6.503l0,0
			c-0.002,3.591-2.912,6.501-6.503,6.503l0,0C6.338,22.855,3.427,19.945,3.427,16.354L3.427,16.354z M4.695,16.354
			c0.005,2.89,2.343,5.229,5.234,5.234l0,0c2.891-0.005,5.229-2.344,5.234-5.234l0,0c-0.006-2.891-2.344-5.229-5.234-5.234l0,0
			C7.038,11.125,4.7,13.463,4.695,16.354L4.695,16.354z"/>
	</g>
	<g>
		<path d="M17.726,16.354c0.001-3.592,2.911-6.502,6.503-6.502l0,0c3.592,0,6.502,2.911,6.504,6.502l0,0
			c-0.002,3.591-2.912,6.501-6.504,6.502l0,0C20.637,22.855,17.727,19.945,17.726,16.354L17.726,16.354z M18.994,16.354
			c0.005,2.89,2.344,5.229,5.234,5.234l0,0c2.891-0.005,5.229-2.344,5.234-5.234l0,0c-0.005-2.891-2.344-5.229-5.234-5.234l0,0
			C21.338,11.125,18.999,13.463,18.994,16.354L18.994,16.354z"/>
	</g>
	<g>
		
			<linearGradient id="SVGID_10_" gradientUnits="userSpaceOnUse" x1="189.4043" y1="-157.5679" x2="182.346" y2="-166.8363" gradientTransform="matrix(0.9958 -0.092 0.092 0.9958 -153.8356 203.0214)">
			<stop  offset="0" style="stop-color:#FFF100"/>
			<stop  offset="0.2753" style="stop-color:#FEDC0B"/>
			<stop  offset="0.6813" style="stop-color:#FCB61F"/>
			<stop  offset="1" style="stop-color:#DC5A26"/>
		</linearGradient>
		<path fill="url(#SVGID_10_)" d="M19.645,28.629c-2.013,0.642-5.974,0.309-7.654-3.104c0,0,5.564,3.877,11.038-0.023
			C23.028,25.502,21.914,27.903,19.645,28.629z"/>
		<path fill="#231F20" d="M19.59,27.992c-2.014,0.644-5.345,0.437-7.604-2.517c0,0,5.564,3.876,11.037-0.024
			C23.022,25.451,21.859,27.27,19.59,27.992z"/>
		<path d="M23.222,26.693c0,0,0.145-1.359-1.456-1.211C21.766,25.482,23.926,24.321,23.222,26.693z"/>
		<path d="M13.152,25.193c0,0-1.358-0.146-1.213,1.455C11.939,26.648,10.782,24.486,13.152,25.193z"/>
	</g>
	<polygon points="3.47,17.086 1.396,13.053 1.709,12.096 4.251,13.787 	"/>
	<path d="M15.798,16.354c0,0,1.213-1.167,2.562,0l-0.04-1.613c0,0-0.868-0.955-2.519-0.173L15.798,16.354z"/>
	<g>
		<path d="M27.641,6.316c-0.089,0-0.178,0.009-0.263,0.025c0.126-0.244,0.199-0.521,0.199-0.814c0-0.978-0.793-1.771-1.771-1.771
			c-0.179,0-0.352,0.027-0.515,0.077c-0.04-0.047-0.082-0.092-0.125-0.137c0-0.011,0.002-0.022,0.002-0.033
			c0-1.078-0.873-1.951-1.951-1.951c-0.467,0-0.896,0.165-1.231,0.438c-0.364-0.844-1.205-1.436-2.183-1.436
			c-0.316,0-0.617,0.062-0.892,0.175C18.586,0.357,18.002,0,17.333,0c-0.783,0-1.451,0.489-1.72,1.176
			c-0.03-0.001-0.06-0.004-0.09-0.004c-0.336,0-0.649,0.091-0.92,0.247C14.35,1.022,13.906,0.758,13.4,0.758
			c-0.676,0-1.24,0.47-1.388,1.1c-0.37-0.182-0.797-0.259-1.236-0.198C9.612,1.822,8.8,2.893,8.952,4.055
			C8.675,3.941,8.371,3.878,8.053,3.878c-1.312,0-2.377,1.064-2.377,2.376c0,0.293,0.056,0.573,0.153,0.833
			c-0.054-0.006-0.108-0.01-0.163-0.01c-0.788,0-1.427,0.639-1.427,1.426S4.878,9.93,5.666,9.93c0.787,0,1.426-0.639,1.426-1.427
			c0-0.026-0.002-0.052-0.004-0.078c0.295,0.131,0.621,0.206,0.965,0.206c0.873,0,1.635-0.473,2.048-1.175
			c0.57,0.625,1.389,1.021,2.302,1.021c1.346,0,2.49-0.856,2.924-2.053c0.637,1.16,1.87,1.947,3.287,1.947
			c1.043,0,1.985-0.426,2.665-1.114c0.483,0.552,1.192,0.903,1.983,0.903c0.358,0,0.699-0.072,1.01-0.201
			c0.251,0.411,0.702,0.687,1.218,0.687c0.326,0,0.624-0.109,0.865-0.293c0.229,0.481,0.717,0.816,1.286,0.816
			c0.788,0,1.427-0.638,1.427-1.426C29.067,6.955,28.429,6.316,27.641,6.316z"/>
	</g>
	<linearGradient id="SVGID_11_" gradientUnits="userSpaceOnUse" x1="24.8008" y1="5.9448" x2="27.3687" y2="4.4179">
		<stop  offset="0" style="stop-color:#000000"/>
		<stop  offset="0.1201" style="stop-color:#181818"/>
		<stop  offset="0.3748" style="stop-color:#575757"/>
		<stop  offset="0.7398" style="stop-color:#B9B9B9"/>
		<stop  offset="0.9835" style="stop-color:#FFFFFF"/>
	</linearGradient>
	<circle fill="url(#SVGID_11_)" cx="25.799" cy="5.35" r="1.051"/>
	<linearGradient id="SVGID_12_" gradientUnits="userSpaceOnUse" x1="26.7666" y1="8.272" x2="29.3347" y2="6.745">
		<stop  offset="0" style="stop-color:#000000"/>
		<stop  offset="0.1201" style="stop-color:#181818"/>
		<stop  offset="0.3748" style="stop-color:#575757"/>
		<stop  offset="0.7398" style="stop-color:#B9B9B9"/>
		<stop  offset="0.9835" style="stop-color:#FFFFFF"/>
	</linearGradient>
	<circle fill="url(#SVGID_12_)" cx="27.634" cy="7.755" r="0.978"/>
	<linearGradient id="SVGID_13_" gradientUnits="userSpaceOnUse" x1="6.4072" y1="8.1499" x2="4.0478" y2="9.2602">
		<stop  offset="0" style="stop-color:#000000"/>
		<stop  offset="0.1201" style="stop-color:#181818"/>
		<stop  offset="0.3748" style="stop-color:#575757"/>
		<stop  offset="0.7398" style="stop-color:#B9B9B9"/>
		<stop  offset="0.9835" style="stop-color:#FFFFFF"/>
	</linearGradient>
	<circle fill="url(#SVGID_13_)" cx="5.65" cy="8.507" r="1.051"/>
	<linearGradient id="SVGID_14_" gradientUnits="userSpaceOnUse" x1="19.752" y1="4.3042" x2="-2.274" y2="6.025">
		<stop  offset="0" style="stop-color:#000000"/>
		<stop  offset="0.1201" style="stop-color:#181818"/>
		<stop  offset="0.3748" style="stop-color:#575757"/>
		<stop  offset="0.7398" style="stop-color:#B9B9B9"/>
		<stop  offset="0.9835" style="stop-color:#FFFFFF"/>
	</linearGradient>
	<path fill="url(#SVGID_14_)" d="M12.367,2.502c0,0-2.352-0.715-2.793,1.342C9.193,5.62,10.75,5.608,10.75,5.608
		s-0.742,1.336,1.271,2.168c1.947,0.806,3.054-2.359,3.054-2.359s1.249,2.082,2.706,2.013c1.458-0.069,2.43-2.36-0.069-3.123
		c0,0,0.625-1.735-1.18-1.735c0,0-0.773-1.357-2.122-0.366C14.409,2.205,13.616,0.975,12.367,2.502z"/>
	<linearGradient id="SVGID_15_" gradientUnits="userSpaceOnUse" x1="21.4746" y1="2.7383" x2="14.168" y2="3.3091">
		<stop  offset="0" style="stop-color:#000000"/>
		<stop  offset="0.1201" style="stop-color:#181818"/>
		<stop  offset="0.3748" style="stop-color:#575757"/>
		<stop  offset="0.7398" style="stop-color:#B9B9B9"/>
		<stop  offset="0.9835" style="stop-color:#FFFFFF"/>
	</linearGradient>
	<path fill="url(#SVGID_15_)" d="M18.54,1.787c0,0,0.808-0.955,1.91-0.294c1.103,0.662,0.955,1.764,0.367,2.646
		C20.23,5.021,16.923,4.138,18.54,1.787z"/>
	<radialGradient id="SVGID_16_" cx="14.6606" cy="19.6455" r="4.615" gradientUnits="userSpaceOnUse">
		<stop  offset="0" style="stop-color:#3E3E3F"/>
		<stop  offset="0.2262" style="stop-color:#373738"/>
		<stop  offset="0.555" style="stop-color:#242425"/>
		<stop  offset="0.9448" style="stop-color:#050505"/>
		<stop  offset="1" style="stop-color:#000000"/>
	</radialGradient>
	<path fill="url(#SVGID_16_)" d="M15.536,16.368c0,0,0.04,4.528-4.729,5.569c0,0,4.93-0.119,5.29-5.569H15.536z"/>
	
		<radialGradient id="SVGID_17_" cx="3593.9141" cy="-516.7676" r="4.6158" gradientTransform="matrix(-1 0 0 -1 3613.3867 -503.8047)" gradientUnits="userSpaceOnUse">
		<stop  offset="0" style="stop-color:#838587"/>
		<stop  offset="0.1353" style="stop-color:#7C7E80"/>
		<stop  offset="0.3321" style="stop-color:#696B6D"/>
		<stop  offset="0.5664" style="stop-color:#4B4C4D"/>
		<stop  offset="0.8275" style="stop-color:#202121"/>
		<stop  offset="1" style="stop-color:#000000"/>
	</radialGradient>
	<path fill="url(#SVGID_17_)" d="M18.598,16.241c0,0-0.04-4.529,4.729-5.571c0,0-4.93,0.121-5.29,5.571H18.598z"/>
</g>
</svg>
