<?xml version="1.0" encoding="utf-8"?>
<!-- Generator: Adobe Illustrator 15.1.0, SVG Export Plug-In . SVG Version: 6.00 Build 0)  -->
<!DOCTYPE svg PUBLIC "-//W3C//DTD SVG 1.1//EN" "http://www.w3.org/Graphics/SVG/1.1/DTD/svg11.dtd">
<svg version="1.1" id="Layer_1" xmlns="http://www.w3.org/2000/svg" xmlns:xlink="http://www.w3.org/1999/xlink" x="0px" y="0px"
	 width="35px" height="35px" viewBox="0 0 35 35" enable-background="new 0 0 35 35" xml:space="preserve">
<g>
	
		<radialGradient id="SVGID_1_" cx="2787.8027" cy="-96.7671" r="33.6573" fx="2790.3623" fy="-91.6124" gradientTransform="matrix(-1 0.0081 0.0081 1 2806.2163 85.6376)" gradientUnits="userSpaceOnUse">
		<stop  offset="0" style="stop-color:#FFF100"/>
		<stop  offset="0.143" style="stop-color:#FFEE01"/>
		<stop  offset="0.2395" style="stop-color:#FEE504"/>
		<stop  offset="0.3223" style="stop-color:#FCD609"/>
		<stop  offset="0.3974" style="stop-color:#FAC110"/>
		<stop  offset="0.4672" style="stop-color:#F7A519"/>
		<stop  offset="0.5323" style="stop-color:#F48324"/>
		<stop  offset="0.5495" style="stop-color:#F37927"/>
		<stop  offset="0.7143" style="stop-color:#FFF100"/>
	</radialGradient>
	<circle fill="url(#SVGID_1_)" cx="17.5" cy="17.436" r="17.343"/>
	
		<linearGradient id="SVGID_2_" gradientUnits="userSpaceOnUse" x1="2788.3232" y1="-103.396" x2="2788.3232" y2="-88.6076" gradientTransform="matrix(-1 0.0081 0.0081 1 2806.2163 85.6376)">
		<stop  offset="0" style="stop-color:#FFF4CB"/>
		<stop  offset="1" style="stop-color:#FFF100"/>
	</linearGradient>
	<path fill="url(#SVGID_2_)" d="M5.179,10.94c-0.04-4.955,5.307-9.015,11.943-9.069c6.635-0.054,12.048,3.92,12.088,8.874
		c0.042,4.955-5.307,9.016-11.942,9.068C10.631,19.867,5.219,15.894,5.179,10.94z"/>
	
		<linearGradient id="SVGID_3_" gradientUnits="userSpaceOnUse" x1="2783.9697" y1="-79.0918" x2="2779.5154" y2="-103.1027" gradientTransform="matrix(-1 0.0081 0.0081 1 2806.2163 85.6376)">
		<stop  offset="0" style="stop-color:#FFF100"/>
		<stop  offset="0.2753" style="stop-color:#FEDC0B"/>
		<stop  offset="0.6813" style="stop-color:#FCB61F"/>
		<stop  offset="1" style="stop-color:#DC5A26"/>
	</linearGradient>
	<path fill="url(#SVGID_3_)" d="M18.668,13.012c-0.382,4.187,1.897,7.816,5.089,8.106c3.193,0.293,6.091-2.867,6.473-7.053
		c0.381-4.187-1.897-7.816-5.09-8.107S19.05,8.825,18.668,13.012z"/>
	
		<radialGradient id="SVGID_4_" cx="3266.7666" cy="172.5078" r="12.6708" gradientTransform="matrix(-0.9959 -0.0908 -0.0908 0.9959 3291.3843 143.6418)" gradientUnits="userSpaceOnUse">
		<stop  offset="0" style="stop-color:#FFFFFF"/>
		<stop  offset="0.3734" style="stop-color:#FDFEFF"/>
		<stop  offset="0.5079" style="stop-color:#F6FCFE"/>
		<stop  offset="0.6038" style="stop-color:#EBF8FC"/>
		<stop  offset="0.6813" style="stop-color:#DAF2FA"/>
		<stop  offset="0.7477" style="stop-color:#C4EAF7"/>
		<stop  offset="0.8064" style="stop-color:#A8E0F3"/>
		<stop  offset="0.8583" style="stop-color:#89D5EE"/>
		<stop  offset="0.8791" style="stop-color:#7AD0EC"/>
	</radialGradient>
	<path fill="url(#SVGID_4_)" d="M19.04,14.039c-0.339,3.723,1.687,6.951,4.526,7.21c2.84,0.259,5.417-2.55,5.756-6.273
		c0.34-3.723-1.688-6.952-4.526-7.21C21.956,7.507,19.38,10.315,19.04,14.039z"/>
	
		<linearGradient id="SVGID_5_" gradientUnits="userSpaceOnUse" x1="-1527.3828" y1="-300.0391" x2="-1522.6074" y2="-308.5797" gradientTransform="matrix(0.9947 -0.1033 0.1033 0.9947 1573.9932 154.4188)">
		<stop  offset="0" style="stop-color:#FFFFFF"/>
		<stop  offset="0.2964" style="stop-color:#FDFEFF"/>
		<stop  offset="0.4031" style="stop-color:#F6FCFE"/>
		<stop  offset="0.4792" style="stop-color:#EBF8FC"/>
		<stop  offset="0.5408" style="stop-color:#DAF2FA"/>
		<stop  offset="0.5935" style="stop-color:#C4EAF7"/>
		<stop  offset="0.6401" style="stop-color:#A8E0F3"/>
		<stop  offset="0.6813" style="stop-color:#89D5EE"/>
		<stop  offset="0.6978" style="stop-color:#7AD0EC"/>
	</linearGradient>
	<path fill="url(#SVGID_5_)" d="M28.084,11.508c-0.21-2.024-1.946-3.503-3.877-3.302c-1.931,0.2-3.325,2.004-3.115,4.028
		c0.209,2.024,1.945,3.502,3.875,3.302C26.898,15.335,28.295,13.532,28.084,11.508z"/>
	<g>
		
			<ellipse transform="matrix(0.9886 -0.1506 0.1506 0.9886 -2.1176 3.2434)" fill="#231F20" cx="20.362" cy="15.607" rx="1.305" ry="1.908"/>
		
			<ellipse transform="matrix(-0.9988 0.0482 -0.0482 -0.9988 40.6293 29.5529)" fill="#FFFFFF" cx="19.958" cy="15.266" rx="0.568" ry="0.813"/>
	</g>
	
		<linearGradient id="SVGID_6_" gradientUnits="userSpaceOnUse" x1="2792.7422" y1="-84.9829" x2="2795.9395" y2="-99.712" gradientTransform="matrix(-1 0.0081 0.0081 1 2806.2163 85.6376)">
		<stop  offset="0" style="stop-color:#FFF100"/>
		<stop  offset="0.2753" style="stop-color:#FEDC0B"/>
		<stop  offset="0.6813" style="stop-color:#FCB61F"/>
		<stop  offset="1" style="stop-color:#DC5A26"/>
	</linearGradient>
	<path fill="url(#SVGID_6_)" d="M16.572,13.264c0.845,4.118-1.015,7.979-4.156,8.624c-3.141,0.644-6.372-2.172-7.217-6.29
		C4.354,11.48,6.214,7.62,9.355,6.975C12.496,6.33,15.727,9.146,16.572,13.264z"/>
	
		<radialGradient id="SVGID_7_" cx="-1013.0913" cy="-459.6123" r="12.6736" gradientTransform="matrix(0.9796 -0.2011 0.2011 0.9796 1098.2864 266.0884)" gradientUnits="userSpaceOnUse">
		<stop  offset="0" style="stop-color:#FFFFFF"/>
		<stop  offset="0.3734" style="stop-color:#FDFEFF"/>
		<stop  offset="0.5079" style="stop-color:#F6FCFE"/>
		<stop  offset="0.6038" style="stop-color:#EBF8FC"/>
		<stop  offset="0.6813" style="stop-color:#DAF2FA"/>
		<stop  offset="0.7477" style="stop-color:#C4EAF7"/>
		<stop  offset="0.8064" style="stop-color:#A8E0F3"/>
		<stop  offset="0.8583" style="stop-color:#89D5EE"/>
		<stop  offset="0.8791" style="stop-color:#7AD0EC"/>
	</radialGradient>
	<path fill="url(#SVGID_7_)" d="M16.316,14.326c0.751,3.661-0.904,7.095-3.696,7.669c-2.793,0.573-5.667-1.931-6.418-5.593
		C5.451,12.74,7.105,9.307,9.898,8.733C12.691,8.16,15.564,10.664,16.316,14.326z"/>
	
		<linearGradient id="SVGID_8_" gradientUnits="userSpaceOnUse" x1="2793.9893" y1="-93.7134" x2="2798.7651" y2="-102.2547" gradientTransform="matrix(-1 0.0081 0.0081 1 2806.2163 85.6376)">
		<stop  offset="0" style="stop-color:#FFFFFF"/>
		<stop  offset="0.2964" style="stop-color:#FDFEFF"/>
		<stop  offset="0.4031" style="stop-color:#F6FCFE"/>
		<stop  offset="0.4792" style="stop-color:#EBF8FC"/>
		<stop  offset="0.5408" style="stop-color:#DAF2FA"/>
		<stop  offset="0.5935" style="stop-color:#C4EAF7"/>
		<stop  offset="0.6401" style="stop-color:#A8E0F3"/>
		<stop  offset="0.6813" style="stop-color:#89D5EE"/>
		<stop  offset="0.6978" style="stop-color:#7AD0EC"/>
	</linearGradient>
	<path fill="url(#SVGID_8_)" d="M7.046,12.817C7.029,10.782,8.59,9.12,10.532,9.104c1.941-0.016,3.528,1.621,3.545,3.656
		c0.017,2.035-1.544,3.697-3.485,3.712C8.649,16.489,7.062,14.852,7.046,12.817z"/>
	<g>
		
			<ellipse transform="matrix(0.8828 -0.4698 0.4698 0.8828 -3.9845 7.9271)" fill="#231F20" cx="13.892" cy="11.948" rx="1.289" ry="1.882"/>
		
			<linearGradient id="SVGID_9_" gradientUnits="userSpaceOnUse" x1="2366.125" y1="-843.4229" x2="2367.5859" y2="-845.0878" gradientTransform="matrix(-0.9264 0.3765 0.3765 0.9264 2523.8865 -97.2496)">
			<stop  offset="0" style="stop-color:#231F20"/>
			<stop  offset="0.3762" style="stop-color:#363335"/>
			<stop  offset="1" style="stop-color:#5C5D60"/>
		</linearGradient>
		<path fill="url(#SVGID_9_)" d="M12.992,12.235c0.225,0.554,0.722,0.876,1.109,0.719c0.388-0.158,0.52-0.735,0.294-1.29
			c-0.226-0.555-0.723-0.877-1.111-0.72C12.898,11.102,12.766,11.68,12.992,12.235z"/>
		
			<ellipse transform="matrix(-0.875 0.4842 -0.4842 -0.875 31.3208 14.9429)" fill="#FFFFFF" cx="13.731" cy="11.516" rx="0.486" ry="0.695"/>
	</g>
	
		<linearGradient id="SVGID_10_" gradientUnits="userSpaceOnUse" x1="2801.1797" y1="-50.3193" x2="2790.8916" y2="-63.8291" gradientTransform="matrix(-1 -0.0058 -0.0058 1 2815.8594 93.9616)">
		<stop  offset="0" style="stop-color:#FFF100"/>
		<stop  offset="0.2753" style="stop-color:#FEDC0B"/>
		<stop  offset="0.6813" style="stop-color:#FCB61F"/>
		<stop  offset="1" style="stop-color:#DC5A26"/>
	</linearGradient>
	<path fill="url(#SVGID_10_)" d="M15.295,26.384c3.15,0.712,8.983,0.561,11.676-4.264c0,0-7.963,6.637-16.811,1.418
		C10.16,23.538,11.744,25.581,15.295,26.384z"/>
	<path d="M15.375,26.113c3.007-0.081,7.639-0.291,11.595-4.07c0,0-4.726,4.288-16.458,0.742
		C10.513,22.785,11.734,26.211,15.375,26.113z"/>
	<path d="M9.554,24.646c0,0-0.397-2.05,2.06-2.036C11.614,22.609,8.17,21.127,9.554,24.646z"/>
	<path d="M25.156,21.765c0,0,2.05-0.399,2.04,2.058C27.196,23.822,28.674,20.377,25.156,21.765z"/>
	
		<radialGradient id="SVGID_11_" cx="2889.0566" cy="33.3242" r="11.9729" gradientTransform="matrix(-1 0 0 1 2907.2852 0)" gradientUnits="userSpaceOnUse">
		<stop  offset="0" style="stop-color:#F27D80"/>
		<stop  offset="0.1515" style="stop-color:#F27D80"/>
		<stop  offset="0.1765" style="stop-color:#F27D80"/>
		<stop  offset="0.4024" style="stop-color:#F07B7E"/>
		<stop  offset="0.4838" style="stop-color:#EA7477"/>
		<stop  offset="0.5418" style="stop-color:#E0696C"/>
		<stop  offset="0.5887" style="stop-color:#D1585B"/>
		<stop  offset="0.6289" style="stop-color:#BE4245"/>
		<stop  offset="0.6639" style="stop-color:#A7272B"/>
		<stop  offset="0.6758" style="stop-color:#9D1C20"/>
		<stop  offset="0.7533" style="stop-color:#91171B"/>
		<stop  offset="0.8927" style="stop-color:#720B0D"/>
		<stop  offset="1" style="stop-color:#550000"/>
	</radialGradient>
	<path fill="url(#SVGID_11_)" d="M14.868,24.271c-1.79-0.546-2.985-0.906-3.859-0.469c-0.874,0.437-4.282,6.51-1.491,7.803
		c2.467,1.144,4.339-5.126,7.954-5.661C17.471,25.944,18.028,25.234,14.868,24.271z"/>
	<linearGradient id="SVGID_12_" gradientUnits="userSpaceOnUse" x1="24.1758" y1="15.8984" x2="23.1649" y2="21.1711">
		<stop  offset="0" style="stop-color:#FFF100"/>
		<stop  offset="0.2753" style="stop-color:#FEDC0B"/>
		<stop  offset="0.6813" style="stop-color:#FCB61F"/>
		<stop  offset="1" style="stop-color:#DC5A26"/>
	</linearGradient>
	<path fill="url(#SVGID_12_)" d="M19.089,16.536c0,0,4.979-0.95,9.491,2.283c0,0-2.126,3.277-5.365,2.461
		C19.659,20.467,19.089,16.536,19.089,16.536z"/>
	
		<linearGradient id="SVGID_13_" gradientUnits="userSpaceOnUse" x1="1547.2559" y1="168.9619" x2="1556.5294" y2="164.6861" gradientTransform="matrix(-0.9838 -0.1791 -0.1791 0.9838 1584.6287 134.5507)">
		<stop  offset="0" style="stop-color:#FFF100"/>
		<stop  offset="0.2753" style="stop-color:#FEDC0B"/>
		<stop  offset="0.6813" style="stop-color:#FCB61F"/>
		<stop  offset="1" style="stop-color:#DC5A26"/>
	</linearGradient>
	<path fill="url(#SVGID_13_)" d="M28.136,18.512c0,0-3.487-2.752-9.093-2.364c0,0,0.041,0.628,0.16,0.822
		C19.203,16.97,22.467,15.763,28.136,18.512z"/>
	<g>
		<linearGradient id="SVGID_14_" gradientUnits="userSpaceOnUse" x1="9.3931" y1="11.2944" x2="13.4846" y2="20.2216">
			<stop  offset="0" style="stop-color:#FFF100"/>
			<stop  offset="0.2753" style="stop-color:#FEDC0B"/>
			<stop  offset="0.6813" style="stop-color:#FCB61F"/>
			<stop  offset="1" style="stop-color:#DC5A26"/>
		</linearGradient>
		<path fill="url(#SVGID_14_)" d="M6.202,16.402c-0.053-0.259-0.092-0.515-0.122-0.771c3.256-2.771,7.095-3.68,9.207-3.977
			c0.468,0.782,0.826,1.684,1.029,2.671c0.751,3.661-0.904,7.095-3.696,7.669C9.827,22.568,6.953,20.064,6.202,16.402z"/>
	</g>
	
		<linearGradient id="SVGID_15_" gradientUnits="userSpaceOnUse" x1="2904.0332" y1="19.2314" x2="2894.635" y2="12.6412" gradientTransform="matrix(-1 0 0 1 2907.2852 0)">
		<stop  offset="0" style="stop-color:#FFF100"/>
		<stop  offset="0.2753" style="stop-color:#FEDC0B"/>
		<stop  offset="0.6813" style="stop-color:#FCB61F"/>
		<stop  offset="1" style="stop-color:#DC5A26"/>
	</linearGradient>
	<path fill="url(#SVGID_15_)" d="M6.022,15.81c0,0,5.272-3.897,9.571-3.497c0,0,0.018-0.28-0.563-0.971
		C15.03,11.342,9.805,12.027,6.022,15.81z"/>
</g>
</svg>
