<?xml version="1.0" encoding="utf-8"?>
<!-- Generator: Adobe Illustrator 15.1.0, SVG Export Plug-In . SVG Version: 6.00 Build 0)  -->
<!DOCTYPE svg PUBLIC "-//W3C//DTD SVG 1.1//EN" "http://www.w3.org/Graphics/SVG/1.1/DTD/svg11.dtd">
<svg version="1.1" id="Layer_1" xmlns="http://www.w3.org/2000/svg" xmlns:xlink="http://www.w3.org/1999/xlink" x="0px" y="0px"
	 width="35px" height="35px" viewBox="0 0 35 35" enable-background="new 0 0 35 35" xml:space="preserve">
<g>
	
		<radialGradient id="SVGID_1_" cx="1455.3936" cy="11.4434" r="33.9615" fx="1457.9763" fy="16.6446" gradientTransform="matrix(-1 0 0 1 1473.1641 0)" gradientUnits="userSpaceOnUse">
		<stop  offset="0" style="stop-color:#FFF100"/>
		<stop  offset="0.143" style="stop-color:#FFEE01"/>
		<stop  offset="0.2395" style="stop-color:#FEE504"/>
		<stop  offset="0.3223" style="stop-color:#FCD609"/>
		<stop  offset="0.3974" style="stop-color:#FAC110"/>
		<stop  offset="0.4672" style="stop-color:#F7A519"/>
		<stop  offset="0.5323" style="stop-color:#F48324"/>
		<stop  offset="0.5495" style="stop-color:#F37927"/>
		<stop  offset="0.7143" style="stop-color:#FFF100"/>
	</radialGradient>
	<circle fill="url(#SVGID_1_)" cx="17.5" cy="17.5" r="17.5"/>
	
		<linearGradient id="SVGID_2_" gradientUnits="userSpaceOnUse" x1="1455.918" y1="4.7563" x2="1455.918" y2="19.6792" gradientTransform="matrix(-1 0 0 1 1473.1641 0)">
		<stop  offset="0" style="stop-color:#FFF4CB"/>
		<stop  offset="1" style="stop-color:#FFF100"/>
	</linearGradient>
	<ellipse fill="url(#SVGID_2_)" cx="17.246" cy="10.846" rx="12.125" ry="9.053"/>
	<linearGradient id="SVGID_3_" gradientUnits="userSpaceOnUse" x1="12.3818" y1="18.7695" x2="10.0993" y2="9.6397">
		<stop  offset="0" style="stop-color:#FFF7AB"/>
		<stop  offset="0.1291" style="stop-color:#FFED96"/>
		<stop  offset="0.3962" style="stop-color:#FDD45F"/>
		<stop  offset="0.6813" style="stop-color:#FCB61F"/>
		<stop  offset="1" style="stop-color:#DC5A26"/>
	</linearGradient>
	<path fill="url(#SVGID_3_)" d="M17.498,13.673c0.633,4.47-1.618,8.483-5.027,8.966c-3.408,0.482-6.685-2.75-7.317-7.22
		c-0.633-4.47,1.618-8.484,5.028-8.967C13.591,5.97,16.866,9.203,17.498,13.673z"/>
	
		<radialGradient id="SVGID_4_" cx="204.1758" cy="-19.6606" r="13.6098" gradientTransform="matrix(0.9896 -0.1301 0.1427 0.9399 -185.4566 64.6579)" gradientUnits="userSpaceOnUse">
		<stop  offset="0" style="stop-color:#FFFFFF"/>
		<stop  offset="0.3734" style="stop-color:#FDFEFF"/>
		<stop  offset="0.5079" style="stop-color:#F6FCFE"/>
		<stop  offset="0.6038" style="stop-color:#EBF8FC"/>
		<stop  offset="0.6813" style="stop-color:#DAF2FA"/>
		<stop  offset="0.7477" style="stop-color:#C4EAF7"/>
		<stop  offset="0.8064" style="stop-color:#A8E0F3"/>
		<stop  offset="0.8583" style="stop-color:#89D5EE"/>
		<stop  offset="0.8791" style="stop-color:#7AD0EC"/>
	</radialGradient>
	<path fill="url(#SVGID_4_)" d="M17.171,14.479c0.572,3.774-1.419,7.155-4.449,7.554c-3.03,0.399-5.951-2.338-6.523-6.11
		c-0.573-3.774,1.418-7.156,4.448-7.555S16.597,10.706,17.171,14.479z"/>
	
		<linearGradient id="SVGID_5_" gradientUnits="userSpaceOnUse" x1="1513.7217" y1="146.1396" x2="1518.8501" y2="136.9676" gradientTransform="matrix(-0.9985 -0.0538 -0.0538 0.9985 1531.4341 -49.7349)">
		<stop  offset="0" style="stop-color:#FFFFFF"/>
		<stop  offset="0.2964" style="stop-color:#FDFEFF"/>
		<stop  offset="0.4031" style="stop-color:#F6FCFE"/>
		<stop  offset="0.4792" style="stop-color:#EBF8FC"/>
		<stop  offset="0.5408" style="stop-color:#DAF2FA"/>
		<stop  offset="0.5935" style="stop-color:#C4EAF7"/>
		<stop  offset="0.6401" style="stop-color:#A8E0F3"/>
		<stop  offset="0.6813" style="stop-color:#89D5EE"/>
		<stop  offset="0.6978" style="stop-color:#7AD0EC"/>
	</linearGradient>
	<path fill="url(#SVGID_5_)" d="M7.318,12.561c0.118-2.182,1.9-3.86,3.982-3.748c2.081,0.112,3.675,1.972,3.557,4.154
		c-0.117,2.182-1.901,3.86-3.982,3.748C8.793,16.603,7.2,14.743,7.318,12.561z"/>
	<linearGradient id="SVGID_6_" gradientUnits="userSpaceOnUse" x1="22.7627" y1="18.9912" x2="24.5517" y2="11.5269">
		<stop  offset="0" style="stop-color:#FFF7AB"/>
		<stop  offset="0.1291" style="stop-color:#FFED96"/>
		<stop  offset="0.3962" style="stop-color:#FDD45F"/>
		<stop  offset="0.6813" style="stop-color:#FCB61F"/>
		<stop  offset="1" style="stop-color:#DC5A26"/>
	</linearGradient>
	<path fill="url(#SVGID_6_)" d="M17.747,13.258c-0.688,4.462,1.514,8.504,4.915,9.027c3.405,0.524,6.72-2.668,7.407-7.129
		c0.688-4.462-1.515-8.504-4.917-9.028C21.751,5.604,18.434,8.796,17.747,13.258z"/>
	
		<radialGradient id="SVGID_7_" cx="1974.4785" cy="242.1416" r="13.6109" gradientTransform="matrix(-0.9886 -0.1472 -0.1495 0.9373 2009.6348 82.875)" gradientUnits="userSpaceOnUse">
		<stop  offset="0" style="stop-color:#FFFFFF"/>
		<stop  offset="0.3734" style="stop-color:#FDFEFF"/>
		<stop  offset="0.5079" style="stop-color:#F6FCFE"/>
		<stop  offset="0.6038" style="stop-color:#EBF8FC"/>
		<stop  offset="0.6813" style="stop-color:#DAF2FA"/>
		<stop  offset="0.7477" style="stop-color:#C4EAF7"/>
		<stop  offset="0.8064" style="stop-color:#A8E0F3"/>
		<stop  offset="0.8583" style="stop-color:#89D5EE"/>
		<stop  offset="0.8791" style="stop-color:#7AD0EC"/>
	</radialGradient>
	<path fill="url(#SVGID_7_)" d="M18.097,14.039c-0.601,3.763,1.368,7.178,4.394,7.629c3.027,0.451,5.968-2.234,6.568-5.997
		c0.6-3.763-1.368-7.179-4.395-7.63C21.638,7.591,18.696,10.276,18.097,14.039z"/>
	
		<linearGradient id="SVGID_8_" gradientUnits="userSpaceOnUse" x1="-277.9185" y1="60.2354" x2="-272.7902" y2="51.0636" gradientTransform="matrix(0.9991 -0.0415 0.0415 0.9991 298.375 -57.3595)">
		<stop  offset="0" style="stop-color:#FFFFFF"/>
		<stop  offset="0.2964" style="stop-color:#FDFEFF"/>
		<stop  offset="0.4031" style="stop-color:#F6FCFE"/>
		<stop  offset="0.4792" style="stop-color:#EBF8FC"/>
		<stop  offset="0.5408" style="stop-color:#DAF2FA"/>
		<stop  offset="0.5935" style="stop-color:#C4EAF7"/>
		<stop  offset="0.6401" style="stop-color:#A8E0F3"/>
		<stop  offset="0.6813" style="stop-color:#89D5EE"/>
		<stop  offset="0.6978" style="stop-color:#7AD0EC"/>
	</linearGradient>
	<path fill="url(#SVGID_8_)" d="M27.939,12.272c-0.09-2.184-1.853-3.884-3.937-3.797c-2.081,0.086-3.696,1.927-3.606,4.11
		c0.091,2.184,1.853,3.883,3.936,3.797C26.416,16.295,28.03,14.456,27.939,12.272z"/>
	<g>
		
			<ellipse transform="matrix(0.9989 0.0462 -0.0462 0.9989 0.7955 -1.0447)" fill="#231F20" cx="23.02" cy="16.704" rx="1.037" ry="1.515"/>
		
			<ellipse transform="matrix(-0.989 -0.1481 0.1481 -0.989 42.8428 35.9406)" fill="#FFFFFF" cx="22.759" cy="16.375" rx="0.452" ry="0.647"/>
	</g>
	<g>
		
			<ellipse transform="matrix(0.9988 -0.0493 0.0493 0.9988 -0.8302 0.6041)" fill="#231F20" cx="11.823" cy="17.121" rx="1.044" ry="1.527"/>
		
			<linearGradient id="SVGID_9_" gradientUnits="userSpaceOnUse" x1="1513.583" y1="148.9336" x2="1514.7675" y2="147.5838" gradientTransform="matrix(-0.9985 -0.0538 -0.0538 0.9985 1531.4341 -49.7349)">
			<stop  offset="0" style="stop-color:#231F20"/>
			<stop  offset="0.3762" style="stop-color:#363335"/>
			<stop  offset="1" style="stop-color:#5C5D60"/>
		</linearGradient>
		<path fill="url(#SVGID_9_)" d="M11.064,17.021c-0.027,0.484,0.227,0.893,0.566,0.911c0.338,0.019,0.634-0.36,0.66-0.844
			c0.026-0.485-0.228-0.893-0.566-0.911C11.386,16.158,11.09,16.535,11.064,17.021z"/>
		
			<ellipse transform="matrix(-0.9979 0.0652 -0.0652 -0.9979 24.7751 32.6895)" fill="#FFFFFF" cx="11.854" cy="16.749" rx="0.393" ry="0.563"/>
	</g>
	<linearGradient id="SVGID_10_" gradientUnits="userSpaceOnUse" x1="15.1055" y1="13.0098" x2="27.0385" y2="22.4305">
		<stop  offset="0" style="stop-color:#FFF100"/>
		<stop  offset="0.2753" style="stop-color:#FEDC0B"/>
		<stop  offset="0.6813" style="stop-color:#FCB61F"/>
		<stop  offset="1" style="stop-color:#DC5A26"/>
	</linearGradient>
	<path fill="url(#SVGID_10_)" d="M18.143,16.975c0,0,5.024-0.958,9.578,2.304c0,0-2.146,3.307-5.415,2.483
		C18.72,20.941,18.143,16.975,18.143,16.975z"/>
	
		<linearGradient id="SVGID_11_" gradientUnits="userSpaceOnUse" x1="3274.8535" y1="484.0625" x2="3284.2104" y2="479.7483" gradientTransform="matrix(-0.9838 -0.1791 -0.1791 0.9838 3339.8992 134.4531)">
		<stop  offset="0" style="stop-color:#FFF100"/>
		<stop  offset="0.2753" style="stop-color:#FEDC0B"/>
		<stop  offset="0.6813" style="stop-color:#FCB61F"/>
		<stop  offset="1" style="stop-color:#DC5A26"/>
	</linearGradient>
	<path fill="url(#SVGID_11_)" d="M27.272,18.969c0,0-3.52-2.777-9.176-2.385c0,0,0.042,0.633,0.161,0.83
		C18.258,17.413,21.552,16.196,27.272,18.969z"/>
	<linearGradient id="SVGID_12_" gradientUnits="userSpaceOnUse" x1="21.4893" y1="14.4834" x2="6.7933" y2="22.899">
		<stop  offset="0" style="stop-color:#FFF100"/>
		<stop  offset="0.2753" style="stop-color:#FEDC0B"/>
		<stop  offset="0.6813" style="stop-color:#FCB61F"/>
		<stop  offset="1" style="stop-color:#DC5A26"/>
	</linearGradient>
	<path fill="url(#SVGID_12_)" d="M17.142,17.272c0,0-5.025-0.959-9.578,2.304c0,0,2.146,3.306,5.414,2.482
		C16.564,21.237,17.142,17.272,17.142,17.272z"/>
	
		<linearGradient id="SVGID_13_" gradientUnits="userSpaceOnUse" x1="-1277.7354" y1="-344.3838" x2="-1268.3785" y2="-348.6979" gradientTransform="matrix(0.9838 -0.1791 0.1791 0.9838 1322.7375 134.4531)">
		<stop  offset="0" style="stop-color:#FFF100"/>
		<stop  offset="0.2753" style="stop-color:#FEDC0B"/>
		<stop  offset="0.6813" style="stop-color:#FCB61F"/>
		<stop  offset="1" style="stop-color:#DC5A26"/>
	</linearGradient>
	<path fill="url(#SVGID_13_)" d="M8.012,19.264c0,0,3.518-2.775,9.176-2.384c0,0-0.042,0.634-0.162,0.83
		C17.025,17.709,13.731,16.492,8.012,19.264z"/>
	<path d="M11.774,26.449c0,0-0.298,1.505,1.507,1.5C13.281,27.949,10.749,29.029,11.774,26.449z"/>
	<linearGradient id="SVGID_14_" gradientUnits="userSpaceOnUse" x1="19.2842" y1="26.4434" x2="25.0763" y2="28.2132">
		<stop  offset="0" style="stop-color:#FFF100"/>
		<stop  offset="0.2753" style="stop-color:#FEDC0B"/>
		<stop  offset="0.6813" style="stop-color:#FCB61F"/>
		<stop  offset="1" style="stop-color:#DC5A26"/>
	</linearGradient>
	<path fill="url(#SVGID_14_)" d="M22.286,24.609c0,0-5.104,0.221-9.768,2.545c0,0,1.756-1.932,4.657-2.745
		C20.076,23.598,22.286,24.609,22.286,24.609z"/>
	<path fill="#231F20" d="M12.519,27.154c0,0,3.687-5.43,9.768-2.545C22.286,24.609,17.406,23.443,12.519,27.154z"/>
</g>
</svg>
