<?xml version="1.0" encoding="utf-8"?>
<!-- Generator: Adobe Illustrator 15.1.0, SVG Export Plug-In . SVG Version: 6.00 Build 0)  -->
<!DOCTYPE svg PUBLIC "-//W3C//DTD SVG 1.1//EN" "http://www.w3.org/Graphics/SVG/1.1/DTD/svg11.dtd">
<svg version="1.1" id="Layer_1" xmlns="http://www.w3.org/2000/svg" xmlns:xlink="http://www.w3.org/1999/xlink" x="0px" y="0px"
	 width="35px" height="35px" viewBox="0 0 35 35" enable-background="new 0 0 35 35" xml:space="preserve">
<g>
	
		<radialGradient id="SVGID_1_" cx="4568.5498" cy="-111.3164" r="33.9606" fx="4571.1323" fy="-106.1153" gradientTransform="matrix(-1 0.0081 0.0081 1 4587.0254 85.6417)" gradientUnits="userSpaceOnUse">
		<stop  offset="0" style="stop-color:#CBD231"/>
		<stop  offset="0.1378" style="stop-color:#C8D131"/>
		<stop  offset="0.2308" style="stop-color:#BFCC32"/>
		<stop  offset="0.3107" style="stop-color:#B0C334"/>
		<stop  offset="0.383" style="stop-color:#9BB837"/>
		<stop  offset="0.4504" style="stop-color:#7FA93A"/>
		<stop  offset="0.5131" style="stop-color:#5D973E"/>
		<stop  offset="0.5495" style="stop-color:#468A41"/>
		<stop  offset="0.7143" style="stop-color:#CBDB29"/>
	</radialGradient>
	<circle fill="url(#SVGID_1_)" cx="17.5" cy="17.356" r="17.5"/>
	
		<linearGradient id="SVGID_2_" gradientUnits="userSpaceOnUse" x1="4569.0322" y1="-118.0366" x2="4569.0322" y2="-103.1144" gradientTransform="matrix(-1 0.0081 0.0081 1 4587.0254 85.6417)">
		<stop  offset="0" style="stop-color:#ECEEB9"/>
		<stop  offset="1" style="stop-color:#C8D130"/>
	</linearGradient>
	<path fill="url(#SVGID_2_)" d="M5.109,10.77c-0.041-5,5.354-9.096,12.051-9.15c6.696-0.055,12.157,3.955,12.199,8.953
		c0.039,4.999-5.356,9.097-12.053,9.15S5.15,15.769,5.109,10.77z"/>
	<linearGradient id="SVGID_3_" gradientUnits="userSpaceOnUse" x1="17.2241" y1="25.1211" x2="22.0706" y2="16.3091">
		<stop  offset="0" style="stop-color:#C9D434"/>
		<stop  offset="0.5456" style="stop-color:#B4C437"/>
		<stop  offset="0.6813" style="stop-color:#AEC038"/>
		<stop  offset="1" style="stop-color:#468B42"/>
	</linearGradient>
	<path fill="url(#SVGID_3_)" d="M25.106,26.742c0,0-1.571-3.024-3.862-0.473c-4.624,5.148-5.42-5.875-9.63-1.135
		c-1.849,2.082-2.88-0.531-2.88-0.531l0,0c0,0,0.797,3.205,2.788,1.229c4.325-4.289,4.609,6.734,10.111,0.998
		C23.775,24.597,25.106,26.742,25.106,26.742L25.106,26.742z"/>
	<path d="M25.106,26.742c0,0-1.729-3.199-3.816-0.916c-4.676,5.104-5.226-5.539-9.842-0.923C9.48,26.871,8.728,24.51,8.728,24.51
		l0,0c0,0,0.847,2.855,2.84,0.879c4.324-4.289,4.608,6.734,10.111,0.998C23.82,24.154,25.106,26.742,25.106,26.742L25.106,26.742z"
		/>
	<path d="M8.513,25.501c0,0-0.198-0.995,0.099-1.228c0.299-0.23,0.929,0.199,0.929,0.199s-0.709-1.009-1.26-0.496
		C7.815,24.407,8.513,25.501,8.513,25.501z"/>
	<path d="M25.443,25.893c0,0,0.232,0.986-0.057,1.229c-0.29,0.242-0.936-0.166-0.936-0.166s0.744,0.982,1.277,0.453
		C26.177,26.961,25.443,25.893,25.443,25.893z"/>
	
		<linearGradient id="SVGID_4_" gradientUnits="userSpaceOnUse" x1="2948.1143" y1="140.7041" x2="2943.6221" y2="116.4891" gradientTransform="matrix(-0.9951 -0.0994 -0.0994 0.9951 2966.8135 182.827)">
		<stop  offset="0" style="stop-color:#CBD535"/>
		<stop  offset="0.3482" style="stop-color:#B6C739"/>
		<stop  offset="0.6813" style="stop-color:#9EB73D"/>
		<stop  offset="1" style="stop-color:#488C42"/>
	</linearGradient>
	<path fill="url(#SVGID_4_)" d="M18.01,13.474c-0.836,4.155,1.057,8.041,4.226,8.68c3.17,0.638,6.418-2.215,7.253-6.372
		c0.837-4.156-1.056-8.042-4.226-8.681C22.093,6.465,18.847,9.317,18.01,13.474z"/>
	
		<radialGradient id="SVGID_5_" cx="3408.3379" cy="407.4072" r="12.781" gradientTransform="matrix(-0.9804 -0.1972 -0.1972 0.9804 3442.9062 292.5516)" gradientUnits="userSpaceOnUse">
		<stop  offset="0" style="stop-color:#FFFFFF"/>
		<stop  offset="0.3597" style="stop-color:#FFFDFD"/>
		<stop  offset="0.4893" style="stop-color:#FEF6F6"/>
		<stop  offset="0.5817" style="stop-color:#FDEBEB"/>
		<stop  offset="0.6564" style="stop-color:#FBDADA"/>
		<stop  offset="0.7204" style="stop-color:#F9C4C4"/>
		<stop  offset="0.777" style="stop-color:#F7A8AA"/>
		<stop  offset="0.828" style="stop-color:#F4888A"/>
		<stop  offset="0.8736" style="stop-color:#F06466"/>
		<stop  offset="0.8791" style="stop-color:#F05F61"/>
	</radialGradient>
	<path fill="url(#SVGID_5_)" d="M18.272,14.543c-0.744,3.696,0.939,7.152,3.758,7.719c2.818,0.566,5.707-1.971,6.45-5.667
		c0.744-3.696-0.938-7.152-3.757-7.719C21.903,8.31,19.017,10.847,18.272,14.543z"/>
	
		<linearGradient id="SVGID_6_" gradientUnits="userSpaceOnUse" x1="-1712.7236" y1="-97.0508" x2="-1707.9073" y2="-105.6646" gradientTransform="matrix(1 0.0042 -0.0042 1 1735.3781 118.9119)">
		<stop  offset="0" style="stop-color:#FFFFFF"/>
		<stop  offset="0.2964" style="stop-color:#FDFEFF"/>
		<stop  offset="0.4031" style="stop-color:#F6FCFE"/>
		<stop  offset="0.4792" style="stop-color:#EBF8FC"/>
		<stop  offset="0.5408" style="stop-color:#DAF2FA"/>
		<stop  offset="0.5935" style="stop-color:#C4EAF7"/>
		<stop  offset="0.6401" style="stop-color:#A8E0F3"/>
		<stop  offset="0.6813" style="stop-color:#89D5EE"/>
		<stop  offset="0.6978" style="stop-color:#7AD0EC"/>
	</linearGradient>
	<path fill="url(#SVGID_6_)" d="M27.615,12.985c0.008-2.052-1.571-3.723-3.529-3.731c-1.958-0.008-3.552,1.649-3.562,3.702
		c-0.008,2.051,1.572,3.721,3.53,3.73C26.013,16.694,27.606,15.038,27.615,12.985z"/>
	<g>
		
			<ellipse transform="matrix(0.9873 0.1589 -0.1589 0.9873 2.7585 -2.9721)" fill="#231F20" cx="19.962" cy="15.761" rx="1.317" ry="1.923"/>
		
			<ellipse transform="matrix(-0.9657 -0.2595 0.2595 -0.9657 34.7123 35.2029)" fill="#FFFFFF" cx="19.68" cy="15.31" rx="0.573" ry="0.819"/>
	</g>
	
		<linearGradient id="SVGID_7_" gradientUnits="userSpaceOnUse" x1="2956.3057" y1="134.9082" x2="2959.5298" y2="120.0551" gradientTransform="matrix(-0.9951 -0.0994 -0.0994 0.9951 2966.8135 182.827)">
		<stop  offset="0" style="stop-color:#CBD535"/>
		<stop  offset="0.3482" style="stop-color:#B6C739"/>
		<stop  offset="0.6813" style="stop-color:#9EB73D"/>
		<stop  offset="1" style="stop-color:#488C42"/>
	</linearGradient>
	<path fill="url(#SVGID_7_)" d="M16.517,13.711c0.401,4.22-1.883,7.89-5.101,8.195c-3.219,0.307-6.154-2.867-6.554-7.087
		c-0.402-4.22,1.881-7.89,5.1-8.196C13.182,6.317,16.115,9.49,16.517,13.711z"/>
	
		<radialGradient id="SVGID_8_" cx="-1217.1206" cy="-275.5889" r="12.7809" gradientTransform="matrix(0.9955 -0.0947 0.0947 0.9955 1250.4777 178.7954)" gradientUnits="userSpaceOnUse">
		<stop  offset="0" style="stop-color:#FFFFFF"/>
		<stop  offset="0.3597" style="stop-color:#FFFDFD"/>
		<stop  offset="0.4893" style="stop-color:#FEF6F6"/>
		<stop  offset="0.5817" style="stop-color:#FDEBEB"/>
		<stop  offset="0.6564" style="stop-color:#FBDADA"/>
		<stop  offset="0.7204" style="stop-color:#F9C4C4"/>
		<stop  offset="0.777" style="stop-color:#F7A8AA"/>
		<stop  offset="0.828" style="stop-color:#F4888A"/>
		<stop  offset="0.8736" style="stop-color:#F06466"/>
		<stop  offset="0.8791" style="stop-color:#F05F61"/>
	</radialGradient>
	<path fill="url(#SVGID_8_)" d="M16.146,14.749c0.356,3.751-1.675,7.015-4.537,7.289c-2.862,0.271-5.472-2.55-5.829-6.303
		c-0.356-3.753,1.675-7.017,4.537-7.289S15.788,10.994,16.146,14.749z"/>
	
		<linearGradient id="SVGID_9_" gradientUnits="userSpaceOnUse" x1="2957.5664" y1="126.1055" x2="2962.3828" y2="117.4916" gradientTransform="matrix(-0.9951 -0.0994 -0.0994 0.9951 2966.8135 182.827)">
		<stop  offset="0" style="stop-color:#FFFFFF"/>
		<stop  offset="0.2964" style="stop-color:#FDFEFF"/>
		<stop  offset="0.4031" style="stop-color:#F6FCFE"/>
		<stop  offset="0.4792" style="stop-color:#EBF8FC"/>
		<stop  offset="0.5408" style="stop-color:#DAF2FA"/>
		<stop  offset="0.5935" style="stop-color:#C4EAF7"/>
		<stop  offset="0.6401" style="stop-color:#A8E0F3"/>
		<stop  offset="0.6813" style="stop-color:#89D5EE"/>
		<stop  offset="0.6978" style="stop-color:#7AD0EC"/>
	</linearGradient>
	<path fill="url(#SVGID_9_)" d="M7.014,12.23c0.204-2.042,1.949-3.539,3.897-3.345c1.948,0.195,3.362,2.008,3.158,4.05
		c-0.203,2.042-1.949,3.54-3.896,3.345C8.225,16.085,6.811,14.272,7.014,12.23z"/>
	<g>
		
			<ellipse transform="matrix(0.9939 -0.1105 0.1105 0.9939 -1.5718 1.6017)" fill="#231F20" cx="13.664" cy="14.98" rx="2.116" ry="3.092"/>
		
			<linearGradient id="SVGID_10_" gradientUnits="userSpaceOnUse" x1="3110.1934" y1="-240.6035" x2="3112.5925" y2="-243.3375" gradientTransform="matrix(-1 0.0077 0.0077 1 3126.0859 232.3286)">
			<stop  offset="0" style="stop-color:#231F20"/>
			<stop  offset="0.3762" style="stop-color:#363335"/>
			<stop  offset="1" style="stop-color:#5C5D60"/>
		</linearGradient>
		<path fill="url(#SVGID_10_)" d="M12.116,14.873c0.007,0.982,0.571,1.775,1.258,1.771c0.688-0.005,1.241-0.808,1.232-1.791
			c-0.008-0.984-0.571-1.777-1.259-1.771C12.661,13.086,12.108,13.888,12.116,14.873z"/>
		
			<ellipse transform="matrix(-0.9919 0.127 -0.127 -0.9919 29.0595 26.5944)" fill="#FFFFFF" cx="13.682" cy="14.223" rx="0.798" ry="1.141"/>
	</g>
	
		<linearGradient id="SVGID_11_" gradientUnits="userSpaceOnUse" x1="-139.2012" y1="236.8311" x2="-140.2325" y2="242.2104" gradientTransform="matrix(0.9942 0.1074 -0.1074 0.9942 187.0235 -203.6227)">
		<stop  offset="0" style="stop-color:#CBD535"/>
		<stop  offset="0.3482" style="stop-color:#B6C739"/>
		<stop  offset="0.6813" style="stop-color:#9EB73D"/>
		<stop  offset="1" style="stop-color:#488C42"/>
	</linearGradient>
	<path fill="url(#SVGID_11_)" d="M18.117,16.96c0,0,4.903-0.387,9.078,3.345c0,0-2.362,3.12-5.521,1.951
		C18.197,21.056,18.117,16.96,18.117,16.96z"/>
	
		<linearGradient id="SVGID_12_" gradientUnits="userSpaceOnUse" x1="1667.2002" y1="415.5684" x2="1676.5392" y2="411.2624" gradientTransform="matrix(-0.9589 -0.2837 -0.2837 0.9589 1746.9609 100.1386)">
		<stop  offset="0" style="stop-color:#CBD535"/>
		<stop  offset="0.3482" style="stop-color:#B6C739"/>
		<stop  offset="0.6813" style="stop-color:#9EB73D"/>
		<stop  offset="1" style="stop-color:#488C42"/>
	</linearGradient>
	<path fill="url(#SVGID_12_)" d="M26.908,20.014c0,0-3.148-3.179-8.81-3.397c0,0,0.016,0.67,0.114,0.879
		C18.213,17.495,21.523,16.644,26.908,20.014z"/>
	<g>
		<linearGradient id="SVGID_13_" gradientUnits="userSpaceOnUse" x1="9.0732" y1="9.9424" x2="13.0533" y2="22.0593">
			<stop  offset="0" style="stop-color:#CBD535"/>
			<stop  offset="0.3482" style="stop-color:#B6C739"/>
			<stop  offset="0.6813" style="stop-color:#9EB73D"/>
			<stop  offset="1" style="stop-color:#488C42"/>
		</linearGradient>
		<path fill="url(#SVGID_13_)" d="M15.891,14.401c-4.606,0.926-7.682,2.941-9.468,4.163c1.038,2.281,3.003,3.752,5.105,3.553
			c2.862-0.273,4.996-3.507,4.64-7.259C16.162,14.792,15.897,14.467,15.891,14.401z"/>
	</g>
	
		<linearGradient id="SVGID_14_" gradientUnits="userSpaceOnUse" x1="3065.2393" y1="243.2637" x2="3055.2769" y2="236.2777" gradientTransform="matrix(-0.9942 -0.1074 -0.1074 0.9942 3076.4956 108.5448)">
		<stop  offset="0" style="stop-color:#CBD535"/>
		<stop  offset="0.3482" style="stop-color:#B6C739"/>
		<stop  offset="0.6813" style="stop-color:#9EB73D"/>
		<stop  offset="1" style="stop-color:#488C42"/>
	</linearGradient>
	<path fill="url(#SVGID_14_)" d="M6.504,18.484c0,0,4.295-2.614,9.664-3.626c0,0-0.047-0.754-0.166-1.014
		C16.002,13.844,10.706,15.102,6.504,18.484z"/>
</g>
</svg>
