<?xml version="1.0" encoding="utf-8"?>
<!-- Generator: Adobe Illustrator 15.1.0, SVG Export Plug-In . SVG Version: 6.00 Build 0)  -->
<!DOCTYPE svg PUBLIC "-//W3C//DTD SVG 1.1//EN" "http://www.w3.org/Graphics/SVG/1.1/DTD/svg11.dtd">
<svg version="1.1" id="Layer_1" xmlns="http://www.w3.org/2000/svg" xmlns:xlink="http://www.w3.org/1999/xlink" x="0px" y="0px"
	 width="35px" height="35px" viewBox="0 0 35 35" enable-background="new 0 0 35 35" xml:space="preserve">
<g>
	
		<radialGradient id="SVGID_1_" cx="214.3105" cy="-470.2612" r="68.1521" fx="219.4934" fy="-459.8237" gradientTransform="matrix(0.4237 -0.0894 0.0894 0.4237 -31.8661 232.8567)" gradientUnits="userSpaceOnUse">
		<stop  offset="0" style="stop-color:#F05D40"/>
		<stop  offset="0.1163" style="stop-color:#EF513A"/>
		<stop  offset="0.3249" style="stop-color:#ED322C"/>
		<stop  offset="0.4171" style="stop-color:#EC2224"/>
		<stop  offset="0.4502" style="stop-color:#E02122"/>
		<stop  offset="0.5096" style="stop-color:#C11D1C"/>
		<stop  offset="0.5668" style="stop-color:#9D1815"/>
		<stop  offset="0.6183" style="stop-color:#C3271F"/>
		<stop  offset="0.6694" style="stop-color:#E23328"/>
		<stop  offset="0.6978" style="stop-color:#EE382B"/>
	</radialGradient>
	<circle fill="url(#SVGID_1_)" cx="18.212" cy="19.545" r="15.207"/>
	
		<linearGradient id="SVGID_2_" gradientUnits="userSpaceOnUse" x1="214.0947" y1="-472.3052" x2="214.0947" y2="-459.3386" gradientTransform="matrix(0.9785 -0.2064 0.2064 0.9785 -95.8349 514.9971)">
		<stop  offset="0" style="stop-color:#FBE1D4"/>
		<stop  offset="0.9893" style="stop-color:#EF4E35"/>
	</linearGradient>
	<path fill="url(#SVGID_2_)" d="M27.543,11.666c-0.897-4.25-6.239-6.723-11.934-5.521c-5.693,1.201-9.582,5.621-8.685,9.872
		c0.896,4.251,6.24,6.722,11.933,5.521C24.552,20.336,28.439,15.916,27.543,11.666z"/>
	<path fill="#EA2427" d="M22.097,30.807c-1.038,0.627-3.291,0.971-4.683-0.709c0,0,3.472,1.996,6.152-1.484
		C23.566,28.613,23.266,30.102,22.097,30.807z"/>
	<path d="M21.98,30.461c-1.036,0.627-2.923,0.955-4.576-0.391c0,0,3.62,1.42,6.153-1.484C23.558,28.586,23.15,29.754,21.98,30.461z"
		/>
	<path d="M23.834,29.252c0,0-0.102-0.777-0.975-0.482C22.859,28.77,23.909,27.834,23.834,29.252z"/>
	<path d="M18.019,29.758c0,0-0.777,0.098-0.483,0.973C17.535,30.73,16.601,29.68,18.019,29.758z"/>
	<path d="M8.747,13.019c0.761-1.731,0.284-3.312-0.173-3.384c-0.906-0.144-2.558,0.276-5.11-4.293
		C2.76,4.083,1.634,11.89,6.584,14.798C6.805,14.927,7.996,14.725,8.747,13.019z"/>
	<path d="M24.192,9.63c-1.418-1.254-1.646-2.889-1.262-3.146c0.763-0.509,2.438-0.82,2.844-6.038
		c0.112-1.438,4.402,5.18,1.125,9.894C26.753,10.55,25.587,10.865,24.192,9.63z"/>
	
		<linearGradient id="SVGID_3_" gradientUnits="userSpaceOnUse" x1="327.9121" y1="-386.6055" x2="331.9407" y2="-383.8221" gradientTransform="matrix(0.9768 -0.2144 0.2144 0.9768 -212.9143 453.0104)">
		<stop  offset="0" style="stop-color:#000000"/>
		<stop  offset="0.067" style="stop-color:#181818"/>
		<stop  offset="0.2632" style="stop-color:#595A5A"/>
		<stop  offset="0.45" style="stop-color:#909090"/>
		<stop  offset="0.6221" style="stop-color:#BABBBB"/>
		<stop  offset="0.7765" style="stop-color:#D9DADA"/>
		<stop  offset="0.9077" style="stop-color:#EBECEC"/>
		<stop  offset="1" style="stop-color:#F2F3F3"/>
	</linearGradient>
	<path fill="url(#SVGID_3_)" d="M24.049,8.697c0,0,2.989-1.497,2.42-7.277c0,0,2.854,4.548,0.129,8.764
		C26.598,10.184,25.122,10.391,24.049,8.697z"/>
	
		<linearGradient id="SVGID_4_" gradientUnits="userSpaceOnUse" x1="304.4912" y1="-387.873" x2="312.418" y2="-382.3964" gradientTransform="matrix(0.9768 -0.2144 0.2144 0.9768 -212.9143 453.0104)">
		<stop  offset="0" style="stop-color:#000000"/>
		<stop  offset="0.067" style="stop-color:#181818"/>
		<stop  offset="0.2632" style="stop-color:#595A5A"/>
		<stop  offset="0.45" style="stop-color:#909090"/>
		<stop  offset="0.6221" style="stop-color:#BABBBB"/>
		<stop  offset="0.7765" style="stop-color:#D9DADA"/>
		<stop  offset="0.9077" style="stop-color:#EBECEC"/>
		<stop  offset="1" style="stop-color:#F2F3F3"/>
	</linearGradient>
	<path fill="url(#SVGID_4_)" d="M8.245,12.736c0,0-3.048-1.025-5.009-6.243c0,0-0.049,5.784,3.522,7.761
		C6.758,14.253,7.815,14.21,8.245,12.736z"/>
	<g>
		
			<linearGradient id="SVGID_5_" gradientUnits="userSpaceOnUse" x1="526.4189" y1="-435.5024" x2="526.0654" y2="-444.462" gradientTransform="matrix(0.9716 -0.2366 0.2366 0.9716 -394.339 576.3034)">
			<stop  offset="0" style="stop-color:#E42326"/>
			<stop  offset="1" style="stop-color:#110000"/>
		</linearGradient>
		<path fill="url(#SVGID_5_)" d="M7.033,17.276c-0.923,1.785-1.018,4.255-0.068,6.64c1.505,3.773,5.058,5.904,7.937,4.758
			c2.548-1.018,3.712-4.26,2.903-7.609C14.659,20.766,9.848,18.639,7.033,17.276z"/>
	</g>
	<g>
		
			<linearGradient id="SVGID_6_" gradientUnits="userSpaceOnUse" x1="538.4492" y1="-435.5352" x2="538.1417" y2="-445.2969" gradientTransform="matrix(0.9716 -0.2366 0.2366 0.9716 -394.339 576.3034)">
			<stop  offset="0" style="stop-color:#E42326"/>
			<stop  offset="1" style="stop-color:#110000"/>
		</linearGradient>
		<path fill="url(#SVGID_6_)" d="M18.573,20.965c0.888,3.121,3.283,5.277,5.893,5.053c3.089-0.268,5.309-3.764,4.961-7.813
			c-0.175-2.027-0.96-3.808-2.089-5.047C23.391,17.634,19.495,20.35,18.573,20.965z"/>
	</g>
	<g>
		
			<radialGradient id="SVGID_7_" cx="530.8926" cy="-438.2666" r="25.2437" gradientTransform="matrix(0.4207 -0.1024 0.1024 0.4207 -161.1279 259.4041)" gradientUnits="userSpaceOnUse">
			<stop  offset="0" style="stop-color:#FFFFFF"/>
			<stop  offset="0.4057" style="stop-color:#FFFDFD"/>
			<stop  offset="0.5518" style="stop-color:#FEF7F6"/>
			<stop  offset="0.6559" style="stop-color:#FDEBEB"/>
			<stop  offset="0.7401" style="stop-color:#FBDADA"/>
			<stop  offset="0.8113" style="stop-color:#F9C5C4"/>
			<stop  offset="0.8742" style="stop-color:#F6ABA9"/>
			<stop  offset="0.8791" style="stop-color:#F6A9A7"/>
		</radialGradient>
		<path fill="url(#SVGID_7_)" d="M7.947,18.826c-0.691,1.484-0.732,3.432,0.039,5.309c1.305,3.178,4.442,4.949,7.008,3.955
			c2.237-0.867,3.3-3.553,2.667-6.336C14.75,21.424,10.653,19.924,7.947,18.826z"/>
	</g>
	<g>
		
			<radialGradient id="SVGID_8_" cx="535.626" cy="-440.2383" r="22.5167" gradientTransform="matrix(0.4207 -0.1024 0.1024 0.4207 -161.1279 259.4041)" gradientUnits="userSpaceOnUse">
			<stop  offset="0" style="stop-color:#FFFFFF"/>
			<stop  offset="0.4057" style="stop-color:#FFFDFD"/>
			<stop  offset="0.5518" style="stop-color:#FEF7F6"/>
			<stop  offset="0.6559" style="stop-color:#FDEBEB"/>
			<stop  offset="0.7401" style="stop-color:#FBDADA"/>
			<stop  offset="0.8113" style="stop-color:#F9C5C4"/>
			<stop  offset="0.8742" style="stop-color:#F6ABA9"/>
			<stop  offset="0.8791" style="stop-color:#F6A9A7"/>
		</radialGradient>
		<path fill="url(#SVGID_8_)" d="M19.052,21.482c0.808,2.525,2.869,4.238,5.133,4.031c2.743-0.25,4.743-3.225,4.467-6.645
			c-0.126-1.555-0.703-2.934-1.551-3.952C23.88,18.003,20.324,20.588,19.052,21.482z"/>
	</g>
	<g>
		
			<linearGradient id="SVGID_9_" gradientUnits="userSpaceOnUse" x1="526.4834" y1="-445.1494" x2="540.0993" y2="-469.5008" gradientTransform="matrix(0.9716 -0.2366 0.2366 0.9716 -394.339 576.3034)">
			<stop  offset="0" style="stop-color:#FFFFFF"/>
			<stop  offset="0.2964" style="stop-color:#FDFEFF"/>
			<stop  offset="0.4031" style="stop-color:#F6FCFE"/>
			<stop  offset="0.4792" style="stop-color:#EBF8FC"/>
			<stop  offset="0.5408" style="stop-color:#DAF2FA"/>
			<stop  offset="0.5935" style="stop-color:#C4EAF7"/>
			<stop  offset="0.6401" style="stop-color:#A8E0F3"/>
			<stop  offset="0.6813" style="stop-color:#89D5EE"/>
			<stop  offset="0.6978" style="stop-color:#7AD0EC"/>
		</linearGradient>
		<path fill="url(#SVGID_9_)" d="M8.41,19.014c-0.219,0.596-0.289,1.262-0.161,1.943c0.361,1.932,2.15,3.221,3.995,2.875
			c1.352-0.254,2.355-1.312,2.654-2.621C12.682,20.637,10.28,19.758,8.41,19.014z"/>
	</g>
	<g>
		
			<linearGradient id="SVGID_10_" gradientUnits="userSpaceOnUse" x1="538.1201" y1="-441.8125" x2="549.4045" y2="-461.994" gradientTransform="matrix(0.9716 -0.2366 0.2366 0.9716 -394.339 576.3034)">
			<stop  offset="0" style="stop-color:#FFFFFF"/>
			<stop  offset="0.2964" style="stop-color:#FDFEFF"/>
			<stop  offset="0.4031" style="stop-color:#F6FCFE"/>
			<stop  offset="0.4792" style="stop-color:#EBF8FC"/>
			<stop  offset="0.5408" style="stop-color:#DAF2FA"/>
			<stop  offset="0.5935" style="stop-color:#C4EAF7"/>
			<stop  offset="0.6401" style="stop-color:#A8E0F3"/>
			<stop  offset="0.6813" style="stop-color:#89D5EE"/>
			<stop  offset="0.6978" style="stop-color:#7AD0EC"/>
		</linearGradient>
		<path fill="url(#SVGID_10_)" d="M21.464,19.707c0.854,0.783,2.05,1.123,3.205,0.791c1.804-0.52,2.825-2.473,2.281-4.364
			c-0.08-0.274-0.19-0.531-0.323-0.77C24.819,17.053,22.948,18.57,21.464,19.707z"/>
	</g>
	<g>
		
			<radialGradient id="SVGID_11_" cx="10.9902" cy="30.5742" r="4.4381" gradientTransform="matrix(0.433 0 0 0.433 9.633 9.8466)" gradientUnits="userSpaceOnUse">
			<stop  offset="0.0107" style="stop-color:#BE2126"/>
			<stop  offset="0.2872" style="stop-color:#971A1D"/>
			<stop  offset="0.4171" style="stop-color:#831618"/>
			<stop  offset="1" style="stop-color:#250000"/>
		</radialGradient>
		<path fill="url(#SVGID_11_)" d="M15.809,22.668c-0.34-1.145-1.248-1.883-2.031-1.652c-0.782,0.232-1.141,1.348-0.803,2.49
			c0.338,1.145,1.248,1.883,2.03,1.65C15.789,24.926,16.147,23.811,15.809,22.668z"/>
		
			<radialGradient id="SVGID_12_" cx="1028.6445" cy="-333.7656" r="6.7322" gradientTransform="matrix(-0.4256 0.0796 0.0796 0.4256 478.5468 81.5064)" gradientUnits="userSpaceOnUse">
			<stop  offset="0" style="stop-color:#E7B9A7"/>
			<stop  offset="0.0216" style="stop-color:#E5B3A2"/>
			<stop  offset="0.4209" style="stop-color:#C94B49"/>
			<stop  offset="0.5989" style="stop-color:#BE2126"/>
			<stop  offset="0.8718" style="stop-color:#971A1D"/>
			<stop  offset="1" style="stop-color:#831618"/>
		</radialGradient>
		<path fill="url(#SVGID_12_)" d="M13.313,23.203c0.126,0.674,0.612,1.15,1.083,1.062c0.473-0.09,0.753-0.707,0.626-1.383
			c-0.126-0.676-0.612-1.15-1.083-1.062C13.468,21.908,13.188,22.527,13.313,23.203z"/>
		
			<ellipse transform="matrix(-0.8626 0.506 -0.506 -0.8626 38.3859 33.932)" fill="#FFFFFF" cx="14.584" cy="22.18" rx="0.502" ry="0.718"/>
	</g>
	<g>
		
			<radialGradient id="SVGID_13_" cx="-49.3765" cy="117.5898" r="4.4404" gradientTransform="matrix(0.4327 0.0176 -0.0176 0.4327 46.7599 -29.1431)" gradientUnits="userSpaceOnUse">
			<stop  offset="0.0107" style="stop-color:#BE2126"/>
			<stop  offset="0.2872" style="stop-color:#971A1D"/>
			<stop  offset="0.4171" style="stop-color:#831618"/>
			<stop  offset="1" style="stop-color:#250000"/>
		</radialGradient>
		<path fill="url(#SVGID_13_)" d="M24.755,20.504c-0.294-1.158-1.171-1.934-1.964-1.734c-0.79,0.201-1.195,1.301-0.903,2.457
			s1.171,1.93,1.961,1.73C24.641,22.758,25.046,21.658,24.755,20.504z"/>
		
			<radialGradient id="SVGID_14_" cx="1103.9805" cy="-259.3389" r="6.7355" gradientTransform="matrix(-0.4285 0.0622 0.0622 0.4285 512.3633 61.5621)" gradientUnits="userSpaceOnUse">
			<stop  offset="0" style="stop-color:#E7B9A7"/>
			<stop  offset="0.0216" style="stop-color:#E5B3A2"/>
			<stop  offset="0.4209" style="stop-color:#C94B49"/>
			<stop  offset="0.5989" style="stop-color:#BE2126"/>
			<stop  offset="0.8718" style="stop-color:#971A1D"/>
			<stop  offset="1" style="stop-color:#831618"/>
		</radialGradient>
		<path fill="url(#SVGID_14_)" d="M22.239,20.936c0.099,0.68,0.563,1.176,1.039,1.107c0.476-0.07,0.781-0.678,0.681-1.355
			c-0.098-0.68-0.563-1.176-1.038-1.107C22.445,19.65,22.141,20.256,22.239,20.936z"/>
		
			<ellipse transform="matrix(-0.9135 0.4068 -0.4068 -0.9135 52.8599 28.7826)" fill="#FFFFFF" cx="23.37" cy="20.011" rx="0.646" ry="0.924"/>
	</g>
	<linearGradient id="SVGID_15_" gradientUnits="userSpaceOnUse" x1="24.6709" y1="20.1875" x2="22.5161" y2="25.574">
		<stop  offset="0.0107" style="stop-color:#BE2126"/>
		<stop  offset="0.467" style="stop-color:#971A1D"/>
		<stop  offset="0.6813" style="stop-color:#831618"/>
		<stop  offset="1" style="stop-color:#340000"/>
	</linearGradient>
	<path fill="url(#SVGID_15_)" d="M19.382,22.336c0,0,4.19-1.908,8.868-0.025c0,0-1.173,3.35-4.206,3.324
		C20.731,25.682,19.382,22.336,19.382,22.336z"/>
	
		<linearGradient id="SVGID_16_" gradientUnits="userSpaceOnUse" x1="2852.7061" y1="-58.4844" x2="2861.1294" y2="-62.3682" gradientTransform="matrix(-0.9983 0.0587 0.0587 0.9983 2883.6433 -83.3225)">
		<stop  offset="0" style="stop-color:#D42027"/>
		<stop  offset="0.2085" style="stop-color:#BF1D23"/>
		<stop  offset="0.6376" style="stop-color:#891719"/>
		<stop  offset="0.6813" style="stop-color:#831618"/>
		<stop  offset="1" style="stop-color:#340000"/>
	</linearGradient>
	<path fill="url(#SVGID_16_)" d="M27.792,22.135c0,0-3.67-1.68-8.533-0.133c0,0,0.171,0.545,0.317,0.691
		C19.576,22.693,22.197,20.928,27.792,22.135z"/>
	<linearGradient id="SVGID_17_" gradientUnits="userSpaceOnUse" x1="12.5366" y1="23.4746" x2="16.7465" y2="28.214">
		<stop  offset="0.0107" style="stop-color:#BE2126"/>
		<stop  offset="0.467" style="stop-color:#971A1D"/>
		<stop  offset="0.6813" style="stop-color:#831618"/>
		<stop  offset="1" style="stop-color:#340000"/>
	</linearGradient>
	<path fill="url(#SVGID_17_)" d="M17.845,22.984c0,0-4.599,0.23-7.887,4.055c0,0,2.581,2.436,5.264,1.018
		C18.322,26.521,17.845,22.984,17.845,22.984z"/>
	
		<linearGradient id="SVGID_18_" gradientUnits="userSpaceOnUse" x1="-688.376" y1="-702.8193" x2="-679.9513" y2="-706.7037" gradientTransform="matrix(0.9135 -0.4068 0.4068 0.9135 922.6004 394.1432)">
		<stop  offset="0" style="stop-color:#D42027"/>
		<stop  offset="0.2085" style="stop-color:#BF1D23"/>
		<stop  offset="0.6376" style="stop-color:#891719"/>
		<stop  offset="0.6813" style="stop-color:#831618"/>
		<stop  offset="1" style="stop-color:#340000"/>
	</linearGradient>
	<path fill="url(#SVGID_18_)" d="M10.283,26.672c0,0,2.487-3.178,7.518-4.041c0,0,0.099,0.562,0.035,0.762
		C17.836,23.393,14.696,23.027,10.283,26.672z"/>
	<path d="M17.1,18.947c0,0-4.028-0.291-7.429-4.788C9.671,14.16,11.396,20.75,17.1,18.947z"/>
	<path d="M18.902,18.686c0,0,3.645-1.739,5.172-7.168C24.074,11.517,24.871,18.283,18.902,18.686z"/>
</g>
</svg>
