<?xml version="1.0" encoding="utf-8"?>
<!-- Generator: Adobe Illustrator 15.1.0, SVG Export Plug-In . SVG Version: 6.00 Build 0)  -->
<!DOCTYPE svg PUBLIC "-//W3C//DTD SVG 1.1//EN" "http://www.w3.org/Graphics/SVG/1.1/DTD/svg11.dtd">
<svg version="1.1" id="Layer_1" xmlns="http://www.w3.org/2000/svg" xmlns:xlink="http://www.w3.org/1999/xlink" x="0px" y="0px"
	 width="35px" height="35px" viewBox="0 0 35 35" enable-background="new 0 0 35 35" xml:space="preserve">
<g>
	
		<radialGradient id="SVGID_1_" cx="1433.9668" cy="17.1333" r="78.2461" fx="1439.9174" fy="29.1168" gradientTransform="matrix(-0.434 0 0 0.434 640.4299 3.6346)" gradientUnits="userSpaceOnUse">
		<stop  offset="0" style="stop-color:#FFF100"/>
		<stop  offset="0.143" style="stop-color:#FFEE01"/>
		<stop  offset="0.2395" style="stop-color:#FEE504"/>
		<stop  offset="0.3223" style="stop-color:#FCD609"/>
		<stop  offset="0.3974" style="stop-color:#FAC110"/>
		<stop  offset="0.4672" style="stop-color:#F7A519"/>
		<stop  offset="0.5323" style="stop-color:#F48324"/>
		<stop  offset="0.5495" style="stop-color:#F37927"/>
		<stop  offset="0.7143" style="stop-color:#FFF100"/>
	</radialGradient>
	<circle fill="url(#SVGID_1_)" cx="17.775" cy="17.127" r="17.5"/>
	
		<linearGradient id="SVGID_2_" gradientUnits="userSpaceOnUse" x1="1455.6426" y1="4.3833" x2="1455.6426" y2="19.3058" gradientTransform="matrix(-1 0 0 1 1473.1641 0)">
		<stop  offset="0" style="stop-color:#FFF4CB"/>
		<stop  offset="1" style="stop-color:#FFF100"/>
	</linearGradient>
	<ellipse fill="url(#SVGID_2_)" cx="17.522" cy="10.473" rx="12.125" ry="9.052"/>
	
		<linearGradient id="SVGID_3_" gradientUnits="userSpaceOnUse" x1="1458.624" y1="23.9453" x2="1461.3428" y2="11.4205" gradientTransform="matrix(-1 0 0 1 1473.1641 0)">
		<stop  offset="0" style="stop-color:#FFF100"/>
		<stop  offset="0.2753" style="stop-color:#FEDC0B"/>
		<stop  offset="0.6813" style="stop-color:#FCB61F"/>
		<stop  offset="1" style="stop-color:#DC5A26"/>
	</linearGradient>
	<path fill="url(#SVGID_3_)" d="M17.752,15.475c0.691,3.508-0.918,6.777-3.593,7.305c-2.675,0.525-5.403-1.891-6.093-5.398
		s0.918-6.777,3.593-7.304C14.334,9.551,17.062,11.967,17.752,15.475z"/>
	
		<radialGradient id="SVGID_4_" cx="286.9199" cy="-72.9395" r="24.8276" gradientTransform="matrix(0.4259 -0.0838 0.0838 0.4259 -100.9968 75.9123)" gradientUnits="userSpaceOnUse">
		<stop  offset="0" style="stop-color:#FFFFFF"/>
		<stop  offset="0.3734" style="stop-color:#FDFEFF"/>
		<stop  offset="0.5079" style="stop-color:#F6FCFE"/>
		<stop  offset="0.6038" style="stop-color:#EBF8FC"/>
		<stop  offset="0.6813" style="stop-color:#DAF2FA"/>
		<stop  offset="0.7477" style="stop-color:#C4EAF7"/>
		<stop  offset="0.8064" style="stop-color:#A8E0F3"/>
		<stop  offset="0.8583" style="stop-color:#89D5EE"/>
		<stop  offset="0.8791" style="stop-color:#7AD0EC"/>
	</radialGradient>
	<path fill="url(#SVGID_4_)" d="M17.528,16.376c0.614,3.119-0.817,6.026-3.195,6.495c-2.379,0.469-4.805-1.68-5.419-4.799
		c-0.614-3.12,0.817-6.028,3.196-6.496C14.488,11.108,16.914,13.257,17.528,16.376z"/>
	
		<linearGradient id="SVGID_5_" gradientUnits="userSpaceOnUse" x1="1459.6846" y1="16.5225" x2="1463.7452" y2="9.2601" gradientTransform="matrix(-1 0 0 1 1473.1641 0)">
		<stop  offset="0" style="stop-color:#FFFFFF"/>
		<stop  offset="0.2964" style="stop-color:#FDFEFF"/>
		<stop  offset="0.4031" style="stop-color:#F6FCFE"/>
		<stop  offset="0.4792" style="stop-color:#EBF8FC"/>
		<stop  offset="0.5408" style="stop-color:#DAF2FA"/>
		<stop  offset="0.5935" style="stop-color:#C4EAF7"/>
		<stop  offset="0.6401" style="stop-color:#A8E0F3"/>
		<stop  offset="0.6813" style="stop-color:#89D5EE"/>
		<stop  offset="0.6978" style="stop-color:#7AD0EC"/>
	</linearGradient>
	<ellipse fill="url(#SVGID_5_)" cx="12.645" cy="15.029" rx="2.989" ry="3.133"/>
	
		<ellipse transform="matrix(0.9947 -0.1029 0.1029 0.9947 -1.7787 1.5559)" fill="#231F20" cx="14.191" cy="18.019" rx="1.725" ry="2.521"/>
	
		<linearGradient id="SVGID_6_" gradientUnits="userSpaceOnUse" x1="1458.6016" y1="18.624" x2="1460.558" y2="16.3946" gradientTransform="matrix(-1 0 0 1 1473.1641 0)">
		<stop  offset="0" style="stop-color:#231F20"/>
		<stop  offset="0.3762" style="stop-color:#363335"/>
		<stop  offset="1" style="stop-color:#5C5D60"/>
	</linearGradient>
	<ellipse fill="url(#SVGID_6_)" cx="13.945" cy="17.921" rx="1.015" ry="1.452"/>
	
		<linearGradient id="SVGID_7_" gradientUnits="userSpaceOnUse" x1="1451.8438" y1="28.6777" x2="1448.0565" y2="8.2625" gradientTransform="matrix(-1 0 0 1 1473.1641 0)">
		<stop  offset="0" style="stop-color:#FFF100"/>
		<stop  offset="0.2753" style="stop-color:#FEDC0B"/>
		<stop  offset="0.6813" style="stop-color:#FCB61F"/>
		<stop  offset="1" style="stop-color:#DC5A26"/>
	</linearGradient>
	<path fill="url(#SVGID_7_)" d="M18.855,15c-0.354,3.557,1.559,6.659,4.271,6.928s5.198-2.396,5.552-5.953
		c0.353-3.557-1.56-6.659-4.272-6.929S19.208,11.442,18.855,15z"/>
	
		<radialGradient id="SVGID_8_" cx="1902.4707" cy="164.7461" r="24.8327" gradientTransform="matrix(-0.4319 -0.0429 -0.0429 0.4319 850.7793 30.4927)" gradientUnits="userSpaceOnUse">
		<stop  offset="0" style="stop-color:#FFFFFF"/>
		<stop  offset="0.3734" style="stop-color:#FDFEFF"/>
		<stop  offset="0.5079" style="stop-color:#F6FCFE"/>
		<stop  offset="0.6038" style="stop-color:#EBF8FC"/>
		<stop  offset="0.6813" style="stop-color:#DAF2FA"/>
		<stop  offset="0.7477" style="stop-color:#C4EAF7"/>
		<stop  offset="0.8064" style="stop-color:#A8E0F3"/>
		<stop  offset="0.8583" style="stop-color:#89D5EE"/>
		<stop  offset="0.8791" style="stop-color:#7AD0EC"/>
	</radialGradient>
	<path fill="url(#SVGID_8_)" d="M19.164,15.875c-0.313,3.164,1.387,5.921,3.8,6.162s4.622-2.131,4.938-5.294
		c0.313-3.163-1.388-5.922-3.8-6.162C21.689,10.342,19.479,12.712,19.164,15.875z"/>
	
		<linearGradient id="SVGID_9_" gradientUnits="userSpaceOnUse" x1="-213.167" y1="-63.7192" x2="-209.1063" y2="-70.9816" gradientTransform="matrix(0.9955 -0.0952 0.0952 0.9955 241.474 58.767)">
		<stop  offset="0" style="stop-color:#FFFFFF"/>
		<stop  offset="0.2964" style="stop-color:#FDFEFF"/>
		<stop  offset="0.4031" style="stop-color:#F6FCFE"/>
		<stop  offset="0.4792" style="stop-color:#EBF8FC"/>
		<stop  offset="0.5408" style="stop-color:#DAF2FA"/>
		<stop  offset="0.5935" style="stop-color:#C4EAF7"/>
		<stop  offset="0.6401" style="stop-color:#A8E0F3"/>
		<stop  offset="0.6813" style="stop-color:#89D5EE"/>
		<stop  offset="0.6978" style="stop-color:#7AD0EC"/>
	</linearGradient>
	<path fill="url(#SVGID_9_)" d="M26.873,13.785c-0.166-1.722-1.631-2.991-3.275-2.834c-1.643,0.157-2.842,1.681-2.677,3.403
		c0.165,1.723,1.631,2.992,3.274,2.835C25.839,17.032,27.037,15.508,26.873,13.785z"/>
	<ellipse transform="matrix(1 -0.0076 0.0076 1 -0.1312 0.1766)" fill="#231F20" cx="23.043" cy="17.251" rx="1.725" ry="2.521"/>
	
		<ellipse transform="matrix(-0.9955 -0.0949 0.0949 -0.9955 43.4712 35.5247)" fill="#FFFFFF" cx="22.58" cy="16.729" rx="0.751" ry="1.075"/>
	
		<ellipse transform="matrix(-0.9929 0.1187 -0.1187 -0.9929 30.3847 32.9954)" fill="#FFFFFF" cx="14.21" cy="17.402" rx="0.65" ry="0.93"/>
	<linearGradient id="SVGID_10_" gradientUnits="userSpaceOnUse" x1="21.543" y1="28.2178" x2="14.1842" y2="21.5458">
		<stop  offset="0" style="stop-color:#FFF100"/>
		<stop  offset="0.2753" style="stop-color:#FEDC0B"/>
		<stop  offset="0.6813" style="stop-color:#FCB61F"/>
		<stop  offset="1" style="stop-color:#DC5A26"/>
	</linearGradient>
	<path fill="url(#SVGID_10_)" d="M22.221,26.105c-0.18-1.557-1.521-2.682-2.994-2.511c-1.475,0.17-2.523,1.569-2.344,3.126
		s1.52,2.68,2.995,2.51C21.351,29.061,22.4,27.661,22.221,26.105z"/>
	
		<ellipse transform="matrix(0.9934 -0.1145 0.1145 0.9934 -2.8561 2.3821)" fill="#231F20" cx="19.31" cy="26.055" rx="2.303" ry="2.432"/>
</g>
</svg>
