<?xml version="1.0" encoding="utf-8"?>
<!-- Generator: Adobe Illustrator 15.1.0, SVG Export Plug-In . SVG Version: 6.00 Build 0)  -->
<!DOCTYPE svg PUBLIC "-//W3C//DTD SVG 1.1//EN" "http://www.w3.org/Graphics/SVG/1.1/DTD/svg11.dtd">
<svg version="1.1" id="Layer_1" xmlns="http://www.w3.org/2000/svg" xmlns:xlink="http://www.w3.org/1999/xlink" x="0px" y="0px"
	 width="35px" height="35px" viewBox="0 0 35 35" enable-background="new 0 0 35 35" xml:space="preserve">
<g>
	<g>
		
			<linearGradient id="SVGID_1_" gradientUnits="userSpaceOnUse" x1="-139.3462" y1="1299.6494" x2="-139.4739" y2="1298.5547" gradientTransform="matrix(0.3639 0.9314 -0.9314 0.3639 1281.8525 -327.3466)">
			<stop  offset="0" style="stop-color:#FFFFFF"/>
			<stop  offset="0.1845" style="stop-color:#FCFCFC"/>
			<stop  offset="0.3439" style="stop-color:#F1F1F1"/>
			<stop  offset="0.494" style="stop-color:#DFDFE0"/>
			<stop  offset="0.6384" style="stop-color:#C6C7C8"/>
			<stop  offset="0.7789" style="stop-color:#A6A6A8"/>
			<stop  offset="0.9144" style="stop-color:#7F8082"/>
			<stop  offset="1" style="stop-color:#626366"/>
		</linearGradient>
		<path fill="url(#SVGID_1_)" d="M21.349,15.043c0,0,0.43,1.479,0.038,1.667s-0.954-1.048-0.652-2.145L21.349,15.043z"/>
		
			<linearGradient id="SVGID_2_" gradientUnits="userSpaceOnUse" x1="-175.5444" y1="1136.2773" x2="-175.6911" y2="1135.0201" gradientTransform="matrix(0.5093 0.8606 -0.8606 0.5093 1088.4078 -411.4261)">
			<stop  offset="0" style="stop-color:#FFFFFF"/>
			<stop  offset="0.1845" style="stop-color:#FCFCFC"/>
			<stop  offset="0.3439" style="stop-color:#F1F1F1"/>
			<stop  offset="0.494" style="stop-color:#DFDFE0"/>
			<stop  offset="0.6384" style="stop-color:#C6C7C8"/>
			<stop  offset="0.7789" style="stop-color:#A6A6A8"/>
			<stop  offset="0.9144" style="stop-color:#7F8082"/>
			<stop  offset="1" style="stop-color:#626366"/>
		</linearGradient>
		<path fill="url(#SVGID_2_)" d="M21.795,15.102c0,0,0.76,1.597,0.351,1.883c-0.408,0.286-1.276-1.011-1.137-2.312L21.795,15.102z"
			/>
		
			<linearGradient id="SVGID_3_" gradientUnits="userSpaceOnUse" x1="-182.5742" y1="1065.0645" x2="-182.7211" y2="1063.8053" gradientTransform="matrix(0.5672 0.8236 -0.8236 0.5672 1002.5979 -437.2027)">
			<stop  offset="0" style="stop-color:#FFFFFF"/>
			<stop  offset="0.1845" style="stop-color:#FCFCFC"/>
			<stop  offset="0.3439" style="stop-color:#F1F1F1"/>
			<stop  offset="0.494" style="stop-color:#DFDFE0"/>
			<stop  offset="0.6384" style="stop-color:#C6C7C8"/>
			<stop  offset="0.7789" style="stop-color:#A6A6A8"/>
			<stop  offset="0.9144" style="stop-color:#7F8082"/>
			<stop  offset="1" style="stop-color:#626366"/>
		</linearGradient>
		<path fill="url(#SVGID_3_)" d="M22.461,15.388c0,0,0.867,1.542,0.479,1.855c-0.388,0.313-1.343-0.921-1.292-2.228L22.461,15.388z"
			/>
		
			<linearGradient id="SVGID_4_" gradientUnits="userSpaceOnUse" x1="-181.9185" y1="1064.4395" x2="-182.2353" y2="1063.2563" gradientTransform="matrix(0.5672 0.8236 -0.8236 0.5672 1002.5979 -437.2027)">
			<stop  offset="0" style="stop-color:#FFFFFF"/>
			<stop  offset="0.1845" style="stop-color:#FCFCFC"/>
			<stop  offset="0.3439" style="stop-color:#F1F1F1"/>
			<stop  offset="0.494" style="stop-color:#DFDFE0"/>
			<stop  offset="0.6384" style="stop-color:#C6C7C8"/>
			<stop  offset="0.7789" style="stop-color:#A6A6A8"/>
			<stop  offset="0.9144" style="stop-color:#7F8082"/>
			<stop  offset="1" style="stop-color:#626366"/>
		</linearGradient>
		<path fill="url(#SVGID_4_)" d="M22.933,15.274c0,0,1.585,1.783,1.392,2.024c-0.312,0.389-2.098-0.968-2.255-2.265L22.933,15.274z"
			/>
		
			<linearGradient id="SVGID_5_" gradientUnits="userSpaceOnUse" x1="-180.2593" y1="1063.4482" x2="-181.4648" y2="1061.5765" gradientTransform="matrix(0.5672 0.8236 -0.8236 0.5672 1002.5979 -437.2027)">
			<stop  offset="0" style="stop-color:#FFFFFF"/>
			<stop  offset="0.1845" style="stop-color:#FCFCFC"/>
			<stop  offset="0.3439" style="stop-color:#F1F1F1"/>
			<stop  offset="0.494" style="stop-color:#DFDFE0"/>
			<stop  offset="0.6384" style="stop-color:#C6C7C8"/>
			<stop  offset="0.7789" style="stop-color:#A6A6A8"/>
			<stop  offset="0.9144" style="stop-color:#7F8082"/>
			<stop  offset="1" style="stop-color:#626366"/>
		</linearGradient>
		<path fill="url(#SVGID_5_)" d="M28.22,17.037c0,0-0.914,0.63-1.903,0.425c-0.987-0.206-3.283-0.743-4.125-2.859l1.104-0.914
			C23.295,13.689,25.66,17.067,28.22,17.037z"/>
		
			<linearGradient id="SVGID_6_" gradientUnits="userSpaceOnUse" x1="-179.3506" y1="1062.3574" x2="-180.5557" y2="1060.4863" gradientTransform="matrix(0.5672 0.8236 -0.8236 0.5672 1002.5979 -437.2027)">
			<stop  offset="0" style="stop-color:#FFFFFF"/>
			<stop  offset="0.1845" style="stop-color:#FCFCFC"/>
			<stop  offset="0.3439" style="stop-color:#F1F1F1"/>
			<stop  offset="0.494" style="stop-color:#DFDFE0"/>
			<stop  offset="0.6384" style="stop-color:#C6C7C8"/>
			<stop  offset="0.7789" style="stop-color:#A6A6A8"/>
			<stop  offset="0.9144" style="stop-color:#7F8082"/>
			<stop  offset="1" style="stop-color:#626366"/>
		</linearGradient>
		<path fill="url(#SVGID_6_)" d="M29.633,17.167c0,0-0.914,0.629-1.903,0.424c-0.988-0.205-3.283-0.742-4.125-2.859l1.104-0.914
			C24.708,13.819,27.073,17.197,29.633,17.167z"/>
		
			<linearGradient id="SVGID_7_" gradientUnits="userSpaceOnUse" x1="-185.2559" y1="786.6396" x2="-185.9534" y2="784.5472" gradientTransform="matrix(0.7579 0.6524 -0.6524 0.7579 680.8221 -458.385)">
			<stop  offset="0" style="stop-color:#FFFFFF"/>
			<stop  offset="0.1845" style="stop-color:#FCFCFC"/>
			<stop  offset="0.3439" style="stop-color:#F1F1F1"/>
			<stop  offset="0.494" style="stop-color:#DFDFE0"/>
			<stop  offset="0.6384" style="stop-color:#C6C7C8"/>
			<stop  offset="0.7789" style="stop-color:#A6A6A8"/>
			<stop  offset="0.9144" style="stop-color:#7F8082"/>
			<stop  offset="1" style="stop-color:#626366"/>
		</linearGradient>
		<path fill="url(#SVGID_7_)" d="M31.105,16.59c0,0-0.267,0.432-0.813,0.561s-3.775,0.307-5.676-2.864l2.146,0.145
			C26.762,14.431,28.267,16.464,31.105,16.59z"/>
		
			<linearGradient id="SVGID_8_" gradientUnits="userSpaceOnUse" x1="-183.7686" y1="785.918" x2="-185.1632" y2="782.8118" gradientTransform="matrix(0.7579 0.6524 -0.6524 0.7579 680.8221 -458.385)">
			<stop  offset="0" style="stop-color:#FFFFFF"/>
			<stop  offset="0.1845" style="stop-color:#FCFCFC"/>
			<stop  offset="0.3439" style="stop-color:#F1F1F1"/>
			<stop  offset="0.494" style="stop-color:#DFDFE0"/>
			<stop  offset="0.6384" style="stop-color:#C6C7C8"/>
			<stop  offset="0.7789" style="stop-color:#A6A6A8"/>
			<stop  offset="0.9144" style="stop-color:#7F8082"/>
			<stop  offset="1" style="stop-color:#626366"/>
		</linearGradient>
		<path fill="url(#SVGID_8_)" d="M33.288,15.453c0,0-0.943,0.92-1.801,1.196c-0.358,0.116-3.237-0.001-5.037-2.042l-0.138-1.787
			C26.312,12.82,29.903,16.254,33.288,15.453z"/>
		
			<linearGradient id="SVGID_9_" gradientUnits="userSpaceOnUse" x1="-186.125" y1="786.2305" x2="-187.266" y2="779.2577" gradientTransform="matrix(0.7579 0.6524 -0.6524 0.7579 680.8221 -458.385)">
			<stop  offset="0" style="stop-color:#FFFFFF"/>
			<stop  offset="0.1845" style="stop-color:#FCFCFC"/>
			<stop  offset="0.3439" style="stop-color:#F1F1F1"/>
			<stop  offset="0.494" style="stop-color:#DFDFE0"/>
			<stop  offset="0.6384" style="stop-color:#C6C7C8"/>
			<stop  offset="0.7789" style="stop-color:#A6A6A8"/>
			<stop  offset="0.9144" style="stop-color:#7F8082"/>
			<stop  offset="1" style="stop-color:#626366"/>
		</linearGradient>
		<path fill="url(#SVGID_9_)" d="M24.492,11.756c0.894-0.96,2.23-1.559,4.604,0.917c2.659,2.774,4.933,1.728,5.804,1.07
			c0.625-0.472-1.616,4.961-8.203-0.118c0,0,0.482,0.944-0.154,1.44c-0.638,0.496-1.361-0.388-1.361-0.388s0.289,0.714-0.341,0.926
			c-0.982,0.331-1.319-0.243-1.285-0.611c0,0-0.19,0.476-0.664,0.457c-0.475-0.019-0.574-0.583-0.574-0.583s-0.229,0.503-0.77,0.472
			c-0.539-0.032-0.655-0.7-0.655-0.7L24.492,11.756z"/>
	</g>
	<g>
		
			<linearGradient id="SVGID_10_" gradientUnits="userSpaceOnUse" x1="574.6592" y1="338.6729" x2="574.5201" y2="337.4805" gradientTransform="matrix(-0.8577 0.5141 0.5141 0.8577 329.9066 -571.1107)">
			<stop  offset="0" style="stop-color:#FFFFFF"/>
			<stop  offset="0.1845" style="stop-color:#FCFCFC"/>
			<stop  offset="0.3439" style="stop-color:#F1F1F1"/>
			<stop  offset="0.494" style="stop-color:#DFDFE0"/>
			<stop  offset="0.6384" style="stop-color:#C6C7C8"/>
			<stop  offset="0.7789" style="stop-color:#A6A6A8"/>
			<stop  offset="0.9144" style="stop-color:#7F8082"/>
			<stop  offset="1" style="stop-color:#626366"/>
		</linearGradient>
		<path fill="url(#SVGID_10_)" d="M11.062,13.627c0,0-1.353,0.988-1.141,1.41c0.211,0.422,1.519-0.267,1.989-1.411L11.062,13.627z"
			/>
		
			<linearGradient id="SVGID_11_" gradientUnits="userSpaceOnUse" x1="684.0088" y1="302.8936" x2="683.8489" y2="301.5237" gradientTransform="matrix(-0.9293 0.3692 0.3692 0.9293 534.3529 -519.2839)">
			<stop  offset="0" style="stop-color:#FFFFFF"/>
			<stop  offset="0.1845" style="stop-color:#FCFCFC"/>
			<stop  offset="0.3439" style="stop-color:#F1F1F1"/>
			<stop  offset="0.494" style="stop-color:#DFDFE0"/>
			<stop  offset="0.6384" style="stop-color:#C6C7C8"/>
			<stop  offset="0.7789" style="stop-color:#A6A6A8"/>
			<stop  offset="0.9144" style="stop-color:#7F8082"/>
			<stop  offset="1" style="stop-color:#626366"/>
		</linearGradient>
		<path fill="url(#SVGID_11_)" d="M10.641,13.38c0,0-1.718,0.87-1.556,1.387c0.162,0.518,1.772-0.021,2.518-1.232L10.641,13.38z"/>
		
			<linearGradient id="SVGID_12_" gradientUnits="userSpaceOnUse" x1="732.2568" y1="292.6328" x2="732.0972" y2="291.2643" gradientTransform="matrix(-0.9525 0.3045 0.3045 0.9525 618.0147 -487.1766)">
			<stop  offset="0" style="stop-color:#FFFFFF"/>
			<stop  offset="0.1845" style="stop-color:#FCFCFC"/>
			<stop  offset="0.3439" style="stop-color:#F1F1F1"/>
			<stop  offset="0.494" style="stop-color:#DFDFE0"/>
			<stop  offset="0.6384" style="stop-color:#C6C7C8"/>
			<stop  offset="0.7789" style="stop-color:#A6A6A8"/>
			<stop  offset="0.9144" style="stop-color:#7F8082"/>
			<stop  offset="1" style="stop-color:#626366"/>
		</linearGradient>
		<path fill="url(#SVGID_12_)" d="M9.877,13.184c0,0-1.772,0.75-1.646,1.277c0.125,0.528,1.769,0.101,2.594-1.057L9.877,13.184z"/>
		
			<linearGradient id="SVGID_13_" gradientUnits="userSpaceOnUse" x1="732.9707" y1="291.9551" x2="732.6257" y2="290.6668" gradientTransform="matrix(-0.9525 0.3045 0.3045 0.9525 618.0147 -487.1766)">
			<stop  offset="0" style="stop-color:#FFFFFF"/>
			<stop  offset="0.1845" style="stop-color:#FCFCFC"/>
			<stop  offset="0.3439" style="stop-color:#F1F1F1"/>
			<stop  offset="0.494" style="stop-color:#DFDFE0"/>
			<stop  offset="0.6384" style="stop-color:#C6C7C8"/>
			<stop  offset="0.7789" style="stop-color:#A6A6A8"/>
			<stop  offset="0.9144" style="stop-color:#7F8082"/>
			<stop  offset="1" style="stop-color:#626366"/>
		</linearGradient>
		<path fill="url(#SVGID_13_)" d="M9.547,12.772c0,0-2.551,0.48-2.545,0.816c0.01,0.542,2.449,0.564,3.447-0.449L9.547,12.772z"/>
		
			<linearGradient id="SVGID_14_" gradientUnits="userSpaceOnUse" x1="734.7754" y1="290.875" x2="733.4637" y2="288.8385" gradientTransform="matrix(-0.9525 0.3045 0.3045 0.9525 618.0147 -487.1766)">
			<stop  offset="0" style="stop-color:#FFFFFF"/>
			<stop  offset="0.1845" style="stop-color:#FCFCFC"/>
			<stop  offset="0.3439" style="stop-color:#F1F1F1"/>
			<stop  offset="0.494" style="stop-color:#DFDFE0"/>
			<stop  offset="0.6384" style="stop-color:#C6C7C8"/>
			<stop  offset="0.7789" style="stop-color:#A6A6A8"/>
			<stop  offset="0.9144" style="stop-color:#7F8082"/>
			<stop  offset="1" style="stop-color:#626366"/>
		</linearGradient>
		<path fill="url(#SVGID_14_)" d="M3.823,10.77c0,0,0.368,1.151,1.356,1.632c0.987,0.481,3.319,1.547,5.452,0.285l-0.341-1.521
			C10.29,11.167,6.006,12.5,3.823,10.77z"/>
		
			<linearGradient id="SVGID_15_" gradientUnits="userSpaceOnUse" x1="735.7637" y1="289.6885" x2="734.4528" y2="287.6534" gradientTransform="matrix(-0.9525 0.3045 0.3045 0.9525 618.0147 -487.1766)">
			<stop  offset="0" style="stop-color:#FFFFFF"/>
			<stop  offset="0.1845" style="stop-color:#FCFCFC"/>
			<stop  offset="0.3439" style="stop-color:#F1F1F1"/>
			<stop  offset="0.494" style="stop-color:#DFDFE0"/>
			<stop  offset="0.6384" style="stop-color:#C6C7C8"/>
			<stop  offset="0.7789" style="stop-color:#A6A6A8"/>
			<stop  offset="0.9144" style="stop-color:#7F8082"/>
			<stop  offset="1" style="stop-color:#626366"/>
		</linearGradient>
		<path fill="url(#SVGID_15_)" d="M2.521,9.941c0,0,0.366,1.151,1.354,1.633c0.987,0.481,3.32,1.546,5.454,0.285l-0.342-1.521
			C8.987,10.338,4.704,11.671,2.521,9.941z"/>
		
			<linearGradient id="SVGID_16_" gradientUnits="userSpaceOnUse" x1="896.2568" y1="271.8467" x2="895.4985" y2="269.572" gradientTransform="matrix(-0.9986 0.0524 0.0524 0.9986 885.5068 -307.073)">
			<stop  offset="0" style="stop-color:#FFFFFF"/>
			<stop  offset="0.1845" style="stop-color:#FCFCFC"/>
			<stop  offset="0.3439" style="stop-color:#F1F1F1"/>
			<stop  offset="0.494" style="stop-color:#DFDFE0"/>
			<stop  offset="0.6384" style="stop-color:#C6C7C8"/>
			<stop  offset="0.7789" style="stop-color:#A6A6A8"/>
			<stop  offset="0.9144" style="stop-color:#7F8082"/>
			<stop  offset="1" style="stop-color:#626366"/>
		</linearGradient>
		<path fill="url(#SVGID_16_)" d="M1.638,8.465c0,0-0.058,0.549,0.326,1.024c0.385,0.474,3.044,2.776,6.792,1.312L6.812,9.499
			C6.812,9.499,4.164,10.245,1.638,8.465z"/>
		
			<linearGradient id="SVGID_17_" gradientUnits="userSpaceOnUse" x1="897.8789" y1="271.0654" x2="896.3613" y2="267.6855" gradientTransform="matrix(-0.9986 0.0524 0.0524 0.9986 885.5068 -307.073)">
			<stop  offset="0" style="stop-color:#FFFFFF"/>
			<stop  offset="0.1845" style="stop-color:#FCFCFC"/>
			<stop  offset="0.3439" style="stop-color:#F1F1F1"/>
			<stop  offset="0.494" style="stop-color:#DFDFE0"/>
			<stop  offset="0.6384" style="stop-color:#C6C7C8"/>
			<stop  offset="0.7789" style="stop-color:#A6A6A8"/>
			<stop  offset="0.9144" style="stop-color:#7F8082"/>
			<stop  offset="1" style="stop-color:#626366"/>
		</linearGradient>
		<path fill="url(#SVGID_17_)" d="M0.517,6.034c0,0,0.199,1.419,0.753,2.228C1.5,8.6,4.056,10.416,6.964,9.857L8.271,8.41
			C8.271,8.41,2.897,8.976,0.517,6.034z"/>
		
			<linearGradient id="SVGID_18_" gradientUnits="userSpaceOnUse" x1="895.3145" y1="271.4062" x2="894.0732" y2="263.8209" gradientTransform="matrix(-0.9986 0.0524 0.0524 0.9986 885.5068 -307.073)">
			<stop  offset="0" style="stop-color:#FFFFFF"/>
			<stop  offset="0.1845" style="stop-color:#FCFCFC"/>
			<stop  offset="0.3439" style="stop-color:#F1F1F1"/>
			<stop  offset="0.494" style="stop-color:#DFDFE0"/>
			<stop  offset="0.6384" style="stop-color:#C6C7C8"/>
			<stop  offset="0.7789" style="stop-color:#A6A6A8"/>
			<stop  offset="0.9144" style="stop-color:#7F8082"/>
			<stop  offset="1" style="stop-color:#626366"/>
		</linearGradient>
		<path fill="url(#SVGID_18_)" d="M10.546,8.707c-0.13-1.421-0.882-2.827-4.573-2.275C1.838,7.049,0.579,4.636,0.267,3.49
			C0.043,2.669-1.645,8.835,7.405,8.849c0,0-1.044,0.491-0.826,1.342c0.218,0.852,1.43,0.572,1.43,0.572s-0.725,0.423-0.323,1.024
			c0.625,0.938,1.297,0.669,1.513,0.329c0,0-0.153,0.536,0.268,0.835s0.883-0.119,0.883-0.119s-0.139,0.585,0.347,0.917
			c0.486,0.333,1.03-0.167,1.03-0.167L10.546,8.707z"/>
	</g>
	
		<radialGradient id="SVGID_19_" cx="77.6201" cy="281.0332" r="19.8028" fx="79.1261" fy="284.066" gradientTransform="matrix(0.9867 0.1625 -0.1625 0.9867 -16.07 -272.0389)" gradientUnits="userSpaceOnUse">
		<stop  offset="0" style="stop-color:#FFF100"/>
		<stop  offset="0.143" style="stop-color:#FFEE01"/>
		<stop  offset="0.2395" style="stop-color:#FEE504"/>
		<stop  offset="0.3223" style="stop-color:#FCD609"/>
		<stop  offset="0.3974" style="stop-color:#FAC110"/>
		<stop  offset="0.4672" style="stop-color:#F7A519"/>
		<stop  offset="0.5323" style="stop-color:#F48324"/>
		<stop  offset="0.5495" style="stop-color:#F37927"/>
		<stop  offset="0.7143" style="stop-color:#FFF100"/>
	</radialGradient>
	<circle fill="url(#SVGID_19_)" cx="14.442" cy="21.379" r="10.204"/>
	
		<linearGradient id="SVGID_20_" gradientUnits="userSpaceOnUse" x1="77.9258" y1="277.1328" x2="77.9258" y2="285.8354" gradientTransform="matrix(0.9867 0.1625 -0.1625 0.9867 -16.07 -272.0389)">
		<stop  offset="0" style="stop-color:#FFF4CB"/>
		<stop  offset="1" style="stop-color:#FFF100"/>
	</linearGradient>
	<path fill="url(#SVGID_20_)" d="M22.194,18.723c0.474-2.876-2.266-5.723-6.118-6.357c-3.854-0.634-7.359,1.184-7.834,4.06
		c-0.474,2.876,2.266,5.723,6.118,6.358C18.214,23.417,21.721,21.6,22.194,18.723z"/>
	
		<linearGradient id="SVGID_21_" gradientUnits="userSpaceOnUse" x1="65.4766" y1="323.0391" x2="67.4768" y2="313.8243" gradientTransform="matrix(0.9792 0.2029 -0.2029 0.9792 17 -301.3689)">
		<stop  offset="0" style="stop-color:#FFF100"/>
		<stop  offset="0.2753" style="stop-color:#FEDC0B"/>
		<stop  offset="0.6813" style="stop-color:#FCB61F"/>
		<stop  offset="1" style="stop-color:#DC5A26"/>
	</linearGradient>
	<path fill="url(#SVGID_21_)" d="M14.404,21.631c-1.039,2.416-0.326,5.017,1.592,5.808c1.918,0.792,4.314-0.525,5.354-2.94
		c1.039-2.416,0.326-5.016-1.593-5.808C17.84,17.899,15.443,19.215,14.404,21.631z"/>
	
		<radialGradient id="SVGID_22_" cx="1501.2119" cy="479.0068" r="7.3689" gradientTransform="matrix(-1.0289 -0.4247 -0.425 0.9883 1763.8384 190.0259)" gradientUnits="userSpaceOnUse">
		<stop  offset="0" style="stop-color:#FFFFFF"/>
		<stop  offset="0.3734" style="stop-color:#FDFEFF"/>
		<stop  offset="0.5079" style="stop-color:#F6FCFE"/>
		<stop  offset="0.6038" style="stop-color:#EBF8FC"/>
		<stop  offset="0.6813" style="stop-color:#DAF2FA"/>
		<stop  offset="0.7477" style="stop-color:#C4EAF7"/>
		<stop  offset="0.8064" style="stop-color:#A8E0F3"/>
		<stop  offset="0.8583" style="stop-color:#89D5EE"/>
		<stop  offset="0.8791" style="stop-color:#7AD0EC"/>
	</radialGradient>
	<path fill="url(#SVGID_22_)" d="M14.438,22.314c-0.924,2.148-0.29,4.461,1.416,5.164c1.705,0.704,3.837-0.467,4.761-2.614
		c0.924-2.149,0.29-4.46-1.416-5.165C17.492,18.995,15.361,20.166,14.438,22.314z"/>
	
		<linearGradient id="SVGID_23_" gradientUnits="userSpaceOnUse" x1="66.2617" y1="317.5879" x2="69.2704" y2="312.2069" gradientTransform="matrix(0.9792 0.2029 -0.2029 0.9792 17 -301.3689)">
		<stop  offset="0" style="stop-color:#FFFFFF"/>
		<stop  offset="0.2964" style="stop-color:#FDFEFF"/>
		<stop  offset="0.4031" style="stop-color:#F6FCFE"/>
		<stop  offset="0.4792" style="stop-color:#EBF8FC"/>
		<stop  offset="0.5408" style="stop-color:#DAF2FA"/>
		<stop  offset="0.5935" style="stop-color:#C4EAF7"/>
		<stop  offset="0.6401" style="stop-color:#A8E0F3"/>
		<stop  offset="0.6813" style="stop-color:#89D5EE"/>
		<stop  offset="0.6978" style="stop-color:#7AD0EC"/>
	</linearGradient>
	<path fill="url(#SVGID_23_)" d="M20.515,22.562c0.258-1.244-0.531-2.46-1.765-2.715c-1.231-0.255-2.44,0.547-2.699,1.792
		c-0.258,1.244,0.533,2.46,1.765,2.715C19.048,24.608,20.256,23.806,20.515,22.562z"/>
	<g>
		<path fill="#231F20" d="M18.018,21.398c0.124-0.973,0.783-1.688,1.474-1.596c0.688,0.09,1.148,0.952,1.025,1.925
			c-0.124,0.972-0.782,1.687-1.473,1.595C18.355,23.232,17.896,22.37,18.018,21.398z"/>
		
			<linearGradient id="SVGID_24_" gradientUnits="userSpaceOnUse" x1="133.8701" y1="163.2227" x2="135.2539" y2="161.6458" gradientTransform="matrix(0.9997 0.0254 -0.0254 0.9997 -110.6785 -144.5903)">
			<stop  offset="0" style="stop-color:#231F20"/>
			<stop  offset="0.3762" style="stop-color:#363335"/>
			<stop  offset="1" style="stop-color:#5C5D60"/>
		</linearGradient>
		<path fill="url(#SVGID_24_)" d="M20.188,21.522c-0.01,0.564-0.35,1.012-0.759,0.999c-0.409-0.012-0.731-0.481-0.721-1.046
			c0.011-0.565,0.351-1.013,0.76-1C19.876,20.488,20.199,20.957,20.188,21.522z"/>
		
			<ellipse transform="matrix(0.9893 0.146 -0.146 0.9893 3.2917 -2.5863)" fill="#FFFFFF" cx="19.262" cy="21.128" rx="0.475" ry="0.654"/>
	</g>
	
		<linearGradient id="SVGID_25_" gradientUnits="userSpaceOnUse" x1="75.2148" y1="294.5039" x2="72.4765" y2="279.7429" gradientTransform="matrix(0.9867 0.1625 -0.1625 0.9867 -16.07 -272.0389)">
		<stop  offset="0" style="stop-color:#FFF100"/>
		<stop  offset="0.2753" style="stop-color:#FEDC0B"/>
		<stop  offset="0.6813" style="stop-color:#FCB61F"/>
		<stop  offset="1" style="stop-color:#DC5A26"/>
	</linearGradient>
	<path fill="url(#SVGID_25_)" d="M13.568,21.286c-0.173,2.58-1.864,4.575-3.778,4.457s-3.327-2.305-3.154-4.885
		c0.172-2.58,1.864-4.575,3.779-4.458C12.328,16.52,13.74,18.707,13.568,21.286z"/>
	
		<radialGradient id="SVGID_26_" cx="571.5264" cy="317.626" r="7.1623" gradientTransform="matrix(1.0563 0.0652 -0.0725 1.0855 -569.883 -357.5193)" gradientUnits="userSpaceOnUse">
		<stop  offset="0" style="stop-color:#FFFFFF"/>
		<stop  offset="0.3734" style="stop-color:#FDFEFF"/>
		<stop  offset="0.5079" style="stop-color:#F6FCFE"/>
		<stop  offset="0.6038" style="stop-color:#EBF8FC"/>
		<stop  offset="0.6813" style="stop-color:#DAF2FA"/>
		<stop  offset="0.7477" style="stop-color:#C4EAF7"/>
		<stop  offset="0.8064" style="stop-color:#A8E0F3"/>
		<stop  offset="0.8583" style="stop-color:#89D5EE"/>
		<stop  offset="0.8791" style="stop-color:#7AD0EC"/>
	</radialGradient>
	<path fill="url(#SVGID_26_)" d="M12.87,19.501c0.295,0.688,0.438,1.507,0.38,2.375c-0.152,2.294-1.658,4.068-3.359,3.964
		c-1.702-0.105-2.959-2.051-2.806-4.345s1.658-4.068,3.361-3.963C11.504,17.597,12.389,18.373,12.87,19.501L12.87,19.501z"/>
	
		<linearGradient id="SVGID_27_" gradientUnits="userSpaceOnUse" x1="1131.0225" y1="335.5293" x2="1133.9491" y2="330.2952" gradientTransform="matrix(-0.9668 -0.2557 -0.2557 0.9668 1189.7037 -13.9543)">
		<stop  offset="0" style="stop-color:#FFFFFF"/>
		<stop  offset="0.2964" style="stop-color:#FDFEFF"/>
		<stop  offset="0.4031" style="stop-color:#F6FCFE"/>
		<stop  offset="0.4792" style="stop-color:#EBF8FC"/>
		<stop  offset="0.5408" style="stop-color:#DAF2FA"/>
		<stop  offset="0.5935" style="stop-color:#C4EAF7"/>
		<stop  offset="0.6401" style="stop-color:#A8E0F3"/>
		<stop  offset="0.6813" style="stop-color:#89D5EE"/>
		<stop  offset="0.6978" style="stop-color:#7AD0EC"/>
	</linearGradient>
	<path fill="url(#SVGID_27_)" d="M8.147,19.502c0.315-1.211,1.482-1.949,2.604-1.648c1.123,0.301,1.775,1.525,1.459,2.736
		c-0.317,1.211-1.483,1.948-2.604,1.648C8.483,21.938,7.83,20.713,8.147,19.502z"/>
	<g>
		
			<ellipse transform="matrix(-0.9927 -0.1209 0.1209 -0.9927 20.3129 40.8968)" fill="#231F20" cx="11.397" cy="19.832" rx="1.163" ry="1.748"/>
		
			<linearGradient id="SVGID_28_" gradientUnits="userSpaceOnUse" x1="129.6533" y1="170.6318" x2="131.004" y2="169.0927" gradientTransform="matrix(0.9998 0.0192 -0.0192 0.9998 -115.2232 -152.8441)">
			<stop  offset="0" style="stop-color:#231F20"/>
			<stop  offset="0.3762" style="stop-color:#363335"/>
			<stop  offset="1" style="stop-color:#5C5D60"/>
		</linearGradient>
		<path fill="url(#SVGID_28_)" d="M12.249,19.777c-0.012,0.555-0.329,1-0.707,0.996c-0.378-0.007-0.674-0.462-0.661-1.018
			c0.012-0.555,0.329-1.001,0.708-0.995C11.966,18.767,12.263,19.223,12.249,19.777z"/>
		
			<ellipse transform="matrix(0.9904 0.1381 -0.1381 0.9904 2.7899 -1.388)" fill="#FFFFFF" cx="11.394" cy="19.404" rx="0.438" ry="0.645"/>
	</g>
	
		<linearGradient id="SVGID_29_" gradientUnits="userSpaceOnUse" x1="2021.748" y1="253.0967" x2="2021.3455" y2="251.049" gradientTransform="matrix(0.9239 0.3825 -0.2266 0.5474 -1798.4232 -882.7889)">
		<stop  offset="0" style="stop-color:#FFF8B7"/>
		<stop  offset="0.095" style="stop-color:#FFEFA2"/>
		<stop  offset="0.2915" style="stop-color:#FED76B"/>
		<stop  offset="0.5385" style="stop-color:#FCB61F"/>
		<stop  offset="0.8077" style="stop-color:#DC5A26"/>
		<stop  offset="1" style="stop-color:#DC5A26"/>
	</linearGradient>
	<path fill="url(#SVGID_29_)" d="M10.204,26.767c0,0,2.175,1.299,4.224,1.349c0,0-0.036,0.908-0.602,1.269
		c-0.365,0.233-0.941,0.625-1.921,0.21C9.831,28.716,10.204,26.767,10.204,26.767z"/>
	
		<linearGradient id="SVGID_30_" gradientUnits="userSpaceOnUse" x1="217.5137" y1="204.5059" x2="217.5137" y2="203.1426" gradientTransform="matrix(0.9654 0.2091 -0.061 0.7623 -185.2408 -172.8844)">
		<stop  offset="0" style="stop-color:#FFFFFF"/>
		<stop  offset="0.2824" style="stop-color:#FDFDFD"/>
		<stop  offset="0.4329" style="stop-color:#F5F5F5"/>
		<stop  offset="0.5523" style="stop-color:#E7E7E7"/>
		<stop  offset="0.6554" style="stop-color:#D4D4D4"/>
		<stop  offset="0.7479" style="stop-color:#BBBBBC"/>
		<stop  offset="0.833" style="stop-color:#9C9C9D"/>
		<stop  offset="0.9122" style="stop-color:#787879"/>
		<stop  offset="0.9849" style="stop-color:#4F4F50"/>
		<stop  offset="1" style="stop-color:#454547"/>
	</linearGradient>
	<path fill="url(#SVGID_30_)" d="M10.245,26.953c0,0,2.72,1.535,4.183,1.162c0,0-0.139,0.679-0.702,1.038
		c-0.366,0.233-0.988,0.331-1.612,0.117C10.394,28.681,10.245,26.953,10.245,26.953z"/>
	
		<linearGradient id="SVGID_31_" gradientUnits="userSpaceOnUse" x1="2020.3105" y1="252.0781" x2="2022.9532" y2="251.6435" gradientTransform="matrix(0.9239 0.3825 -0.2266 0.5474 -1798.4232 -882.7889)">
		<stop  offset="0" style="stop-color:#A6A8AB"/>
		<stop  offset="0.522" style="stop-color:#DBDCDD"/>
		<stop  offset="0.7342" style="stop-color:#C6C7C9"/>
		<stop  offset="1" style="stop-color:#A6A8AB"/>
	</linearGradient>
	<path fill="url(#SVGID_31_)" d="M10.521,27.864c0,0,2.003,1.136,3.57,0.964l0.03-0.055c-1.774,0.248-3.652-1.021-3.652-1.021
		L10.521,27.864z"/>
	<g>
		
			<radialGradient id="SVGID_32_" cx="216.4658" cy="331.7773" r="7.9695" gradientTransform="matrix(0.9938 0.1116 -0.1116 0.9938 -158.9142 -349.4171)" gradientUnits="userSpaceOnUse">
			<stop  offset="0" style="stop-color:#FFFFFF"/>
			<stop  offset="0.0777" style="stop-color:#FFFEEC"/>
			<stop  offset="0.235" style="stop-color:#FFFBBC"/>
			<stop  offset="0.4578" style="stop-color:#FFF76D"/>
			<stop  offset="0.7355" style="stop-color:#FFF102"/>
			<stop  offset="0.7418" style="stop-color:#FFF100"/>
			<stop  offset="1" style="stop-color:#EF4B23"/>
		</radialGradient>
		<path fill="url(#SVGID_32_)" d="M18.689,5.375c-3.066-0.759-5.58-0.48-5.892,0.937c-0.362,1.648,1.854,2.992,4.92,3.751
			c3.067,0.759,5.488,0.603,5.812-1.245C23.723,7.714,21.756,6.134,18.689,5.375z M17.991,8.744
			c-2.399-0.594-4.222-1.671-4.069-2.407c0.151-0.735,2.222-0.849,4.621-0.255c2.399,0.594,4.222,1.672,4.069,2.407
			S20.392,9.338,17.991,8.744z"/>
	</g>
	
		<radialGradient id="SVGID_33_" cx="210.9629" cy="333.8066" r="10.2739" gradientTransform="matrix(0.9938 0.1116 -0.1116 0.9938 -158.9142 -349.4171)" gradientUnits="userSpaceOnUse">
		<stop  offset="0" style="stop-color:#FFFFFF"/>
		<stop  offset="0.0777" style="stop-color:#FFFEEC"/>
		<stop  offset="0.235" style="stop-color:#FFFBBC"/>
		<stop  offset="0.4578" style="stop-color:#FFF76D"/>
		<stop  offset="0.7355" style="stop-color:#FFF102"/>
		<stop  offset="0.7418" style="stop-color:#FFF100"/>
		<stop  offset="1" style="stop-color:#EF4B23"/>
	</radialGradient>
	<path fill="url(#SVGID_33_)" d="M13.485,5.712c0,0-1.43,1.762,2.101,3.229c0.948,0.394,2.221,0.693,2.221,0.693l0.083-0.658
		C17.89,8.975,12.964,8.029,13.485,5.712z"/>
	
		<radialGradient id="SVGID_34_" cx="220.5264" cy="335.7285" r="2.2537" gradientTransform="matrix(0.9938 0.1116 -0.1116 0.9938 -158.9142 -349.4171)" gradientUnits="userSpaceOnUse">
		<stop  offset="0" style="stop-color:#FFFFFF"/>
		<stop  offset="0.1291" style="stop-color:#FFFDEC"/>
		<stop  offset="0.3902" style="stop-color:#FDF9BC"/>
		<stop  offset="0.756" style="stop-color:#FBF26E"/>
		<stop  offset="1" style="stop-color:#FAED37"/>
	</radialGradient>
	<path fill="url(#SVGID_34_)" d="M20.364,9.541c0,0,2.397,0.388,2.87-1.167c0,0,0.03,1.85-3.008,1.598L20.364,9.541z"/>
</g>
</svg>
