<?xml version="1.0" encoding="utf-8"?>
<!-- Generator: Adobe Illustrator 15.1.0, SVG Export Plug-In . SVG Version: 6.00 Build 0)  -->
<!DOCTYPE svg PUBLIC "-//W3C//DTD SVG 1.1//EN" "http://www.w3.org/Graphics/SVG/1.1/DTD/svg11.dtd">
<svg version="1.1" id="Layer_1" xmlns="http://www.w3.org/2000/svg" xmlns:xlink="http://www.w3.org/1999/xlink" x="0px" y="0px"
	 width="35px" height="35px" viewBox="0 0 35 35" enable-background="new 0 0 35 35" xml:space="preserve">
<g>
	
		<radialGradient id="SVGID_1_" cx="4568.4209" cy="-111.1831" r="33.9616" fx="4571.0034" fy="-105.9818" gradientTransform="matrix(-1 0.0081 0.0081 1 4587.0254 85.6416)" gradientUnits="userSpaceOnUse">
		<stop  offset="0" style="stop-color:#FFF100"/>
		<stop  offset="0.143" style="stop-color:#FFEE01"/>
		<stop  offset="0.2395" style="stop-color:#FEE504"/>
		<stop  offset="0.3223" style="stop-color:#FCD609"/>
		<stop  offset="0.3974" style="stop-color:#FAC110"/>
		<stop  offset="0.4672" style="stop-color:#F7A519"/>
		<stop  offset="0.5323" style="stop-color:#F48324"/>
		<stop  offset="0.5495" style="stop-color:#F37927"/>
		<stop  offset="0.7143" style="stop-color:#FFF100"/>
	</radialGradient>
	<circle fill="url(#SVGID_1_)" cx="17.63" cy="17.488" r="17.5"/>
	
		<linearGradient id="SVGID_2_" gradientUnits="userSpaceOnUse" x1="4568.9033" y1="-117.9028" x2="4568.9033" y2="-102.9807" gradientTransform="matrix(-1 0.0081 0.0081 1 4587.0254 85.6416)">
		<stop  offset="0" style="stop-color:#FFF4CB"/>
		<stop  offset="1" style="stop-color:#FFF100"/>
	</linearGradient>
	<path fill="url(#SVGID_2_)" d="M5.24,10.902c-0.041-4.999,5.354-9.096,12.051-9.149c6.697-0.055,12.158,3.954,12.199,8.954
		c0.04,4.999-5.355,9.097-12.052,9.15C10.741,19.91,5.28,15.901,5.24,10.902z"/>
	<g>
		<linearGradient id="SVGID_3_" gradientUnits="userSpaceOnUse" x1="22.9258" y1="22.6777" x2="25.8385" y2="9.2597">
			<stop  offset="0" style="stop-color:#FFF100"/>
			<stop  offset="0.2753" style="stop-color:#FEDC0B"/>
			<stop  offset="0.6813" style="stop-color:#FCB61F"/>
			<stop  offset="1" style="stop-color:#DC5A26"/>
		</linearGradient>
		<path fill="url(#SVGID_3_)" d="M20.003,13.6c-0.666,3.774,0.885,7.292,3.465,7.859s5.211-2.033,5.876-5.808
			c0.666-3.773-0.885-7.292-3.465-7.859C23.299,7.225,20.669,9.826,20.003,13.6z"/>
		
			<radialGradient id="SVGID_4_" cx="1915.4893" cy="227.0107" r="11.5954" gradientTransform="matrix(-0.8793 -0.1931 -0.1731 0.9812 1746.2256 166.5273)" gradientUnits="userSpaceOnUse">
			<stop  offset="0" style="stop-color:#FFFFFF"/>
			<stop  offset="0.3734" style="stop-color:#FDFEFF"/>
			<stop  offset="0.5079" style="stop-color:#F6FCFE"/>
			<stop  offset="0.6038" style="stop-color:#EBF8FC"/>
			<stop  offset="0.6813" style="stop-color:#DAF2FA"/>
			<stop  offset="0.7477" style="stop-color:#C4EAF7"/>
			<stop  offset="0.8064" style="stop-color:#A8E0F3"/>
			<stop  offset="0.8583" style="stop-color:#89D5EE"/>
			<stop  offset="0.8791" style="stop-color:#7AD0EC"/>
		</radialGradient>
		<path fill="url(#SVGID_4_)" d="M20.22,14.57c-0.592,3.356,0.788,6.486,3.081,6.99c2.295,0.504,4.634-1.809,5.227-5.165
			c0.592-3.356-0.788-6.486-3.082-6.99S20.812,11.213,20.22,14.57z"/>
		<linearGradient id="SVGID_5_" gradientUnits="userSpaceOnUse" x1="24.0508" y1="14.6914" x2="28.3245" y2="7.0481">
			<stop  offset="0" style="stop-color:#FFFFFF"/>
			<stop  offset="0.2964" style="stop-color:#FDFEFF"/>
			<stop  offset="0.4031" style="stop-color:#F6FCFE"/>
			<stop  offset="0.4792" style="stop-color:#EBF8FC"/>
			<stop  offset="0.5408" style="stop-color:#DAF2FA"/>
			<stop  offset="0.5935" style="stop-color:#C4EAF7"/>
			<stop  offset="0.6401" style="stop-color:#A8E0F3"/>
			<stop  offset="0.6813" style="stop-color:#89D5EE"/>
			<stop  offset="0.6978" style="stop-color:#7AD0EC"/>
		</linearGradient>
		<ellipse fill="url(#SVGID_5_)" cx="24.928" cy="13.121" rx="2.883" ry="3.372"/>
		<path fill="#231F20" d="M21.783,16.147c0.138-1.491,0.991-2.613,1.904-2.507c0.914,0.105,1.543,1.399,1.404,2.889
			c-0.138,1.489-0.991,2.612-1.904,2.507C22.273,18.931,21.645,17.637,21.783,16.147z"/>
		<linearGradient id="SVGID_6_" gradientUnits="userSpaceOnUse" x1="23.0293" y1="16.9683" x2="25.0776" y2="14.6342">
			<stop  offset="0" style="stop-color:#231F20"/>
			<stop  offset="0.3762" style="stop-color:#363335"/>
			<stop  offset="1" style="stop-color:#5C5D60"/>
		</linearGradient>
		<ellipse fill="url(#SVGID_6_)" cx="23.675" cy="16.232" rx="0.979" ry="1.562"/>
		<path fill="#FFFFFF" d="M24.041,15.756c-0.059,0.549-0.384,0.958-0.729,0.911c-0.344-0.045-0.574-0.528-0.516-1.077
			s0.386-0.957,0.729-0.91C23.869,14.726,24.101,15.208,24.041,15.756z"/>
	</g>
	<g>
		
			<linearGradient id="SVGID_7_" gradientUnits="userSpaceOnUse" x1="-200.8091" y1="290.5811" x2="-181.2636" y2="296.9945" gradientTransform="matrix(0.9911 0.133 -0.133 0.9911 238.0132 -250.126)">
			<stop  offset="0" style="stop-color:#FDDF00"/>
			<stop  offset="0.0902" style="stop-color:#FDD00C"/>
			<stop  offset="0.2355" style="stop-color:#FCBD1A"/>
			<stop  offset="0.3369" style="stop-color:#FCB61F"/>
			<stop  offset="0.6417" style="stop-color:#DC5A26"/>
			<stop  offset="1" style="stop-color:#732900"/>
		</linearGradient>
		<path fill="url(#SVGID_7_)" d="M4.475,14.685c0,0,6.95,0.037,14.618,6.787C19.093,21.472,14.931,13.093,4.475,14.685z"/>
		
			<linearGradient id="SVGID_8_" gradientUnits="userSpaceOnUse" x1="-201.3916" y1="292.3574" x2="-181.8463" y2="298.7708" gradientTransform="matrix(0.9911 0.133 -0.133 0.9911 238.0132 -250.126)">
			<stop  offset="0" style="stop-color:#FDDF00"/>
			<stop  offset="0.0902" style="stop-color:#FDD00C"/>
			<stop  offset="0.2355" style="stop-color:#FCBD1A"/>
			<stop  offset="0.3369" style="stop-color:#FCB61F"/>
			<stop  offset="0.6417" style="stop-color:#DC5A26"/>
			<stop  offset="1" style="stop-color:#732900"/>
		</linearGradient>
		<path fill="url(#SVGID_8_)" d="M19.093,21.472c0,0-3.783-5.868-11.673-2.784C7.419,18.688,13.965,17.343,19.093,21.472z"/>
	</g>
	<linearGradient id="SVGID_9_" gradientUnits="userSpaceOnUse" x1="7.8672" y1="24.2832" x2="17.4575" y2="17.2926">
		<stop  offset="0" style="stop-color:#FDD501"/>
		<stop  offset="0.2663" style="stop-color:#FDD104"/>
		<stop  offset="0.506" style="stop-color:#FDC60F"/>
		<stop  offset="0.7166" style="stop-color:#FCB61F"/>
		<stop  offset="0.8049" style="stop-color:#F39D21"/>
		<stop  offset="0.9919" style="stop-color:#DD5D26"/>
		<stop  offset="1" style="stop-color:#DC5A26"/>
	</linearGradient>
	<path fill="url(#SVGID_9_)" d="M8.664,18.529c2.728-0.636,7.518-0.763,10.429,2.942c0,0-4.916,5.78-9.207,2.769
		c-1.181-0.828-2.314-2.323-3.285-4.787C6.601,19.453,7.385,18.827,8.664,18.529z"/>
	<g>
		
			<linearGradient id="SVGID_10_" gradientUnits="userSpaceOnUse" x1="225.3643" y1="16.7061" x2="217.8911" y2="6.8929" gradientTransform="matrix(0.9995 0.0329 -0.0329 0.9995 -203.1665 6.6572)">
			<stop  offset="0" style="stop-color:#FFF100"/>
			<stop  offset="0.2753" style="stop-color:#FEDC0B"/>
			<stop  offset="0.6813" style="stop-color:#FCB61F"/>
			<stop  offset="1" style="stop-color:#DC5A26"/>
		</linearGradient>
		<path fill="url(#SVGID_10_)" d="M21.71,30.319c-0.24,0.077-0.494,0.137-0.763,0.174c-2.083,0.279-6.052-0.718-7.476-4.312
			c0,0,4.814,6.313,11.14,1.855C24.611,28.036,23.579,29.716,21.71,30.319L21.71,30.319z"/>
		<path d="M20.943,29.867c-2.083,0.28-5.428-0.486-7.472-3.736c0,0,4.881,5.589,11.139,1.855
			C24.61,27.986,23.291,29.551,20.943,29.867z"/>
		<path d="M24.713,29.225c0,0,0.254-1.293-1.374-1.423C23.339,27.802,25.612,27.043,24.713,29.225z"/>
		<path d="M14.671,26.056c0,0-1.359-0.373-1.34,1.205C13.331,27.261,12.336,24.967,14.671,26.056z"/>
	</g>
</g>
</svg>
