<?xml version="1.0" encoding="utf-8"?>
<!-- Generator: Adobe Illustrator 15.1.0, SVG Export Plug-In . SVG Version: 6.00 Build 0)  -->
<!DOCTYPE svg PUBLIC "-//W3C//DTD SVG 1.1//EN" "http://www.w3.org/Graphics/SVG/1.1/DTD/svg11.dtd">
<svg version="1.1" id="Layer_1" xmlns="http://www.w3.org/2000/svg" xmlns:xlink="http://www.w3.org/1999/xlink" x="0px" y="0px"
	 width="35px" height="35px" viewBox="0 0 35 35" enable-background="new 0 0 35 35" xml:space="preserve">
<g>
	<radialGradient id="SVGID_1_" cx="18.4834" cy="13.6641" r="27.3313" fx="20.5619" fy="17.8499" gradientUnits="userSpaceOnUse">
		<stop  offset="0" style="stop-color:#FFF100"/>
		<stop  offset="0.143" style="stop-color:#FFEE01"/>
		<stop  offset="0.2395" style="stop-color:#FEE504"/>
		<stop  offset="0.3223" style="stop-color:#FCD609"/>
		<stop  offset="0.3974" style="stop-color:#FAC110"/>
		<stop  offset="0.4672" style="stop-color:#F7A519"/>
		<stop  offset="0.5323" style="stop-color:#F48324"/>
		<stop  offset="0.5495" style="stop-color:#F37927"/>
		<stop  offset="0.7143" style="stop-color:#FFF100"/>
	</radialGradient>
	<circle fill="url(#SVGID_1_)" cx="18.701" cy="18.539" r="14.083"/>
	<linearGradient id="SVGID_2_" gradientUnits="userSpaceOnUse" x1="18.9053" y1="8.2822" x2="18.9053" y2="20.2917">
		<stop  offset="0" style="stop-color:#FFF4CB"/>
		<stop  offset="1" style="stop-color:#FFF100"/>
	</linearGradient>
	<ellipse fill="url(#SVGID_2_)" cx="18.905" cy="13.183" rx="9.758" ry="7.285"/>
	<linearGradient id="SVGID_3_" gradientUnits="userSpaceOnUse" x1="20.5645" y1="21.7275" x2="9.117" y2="21.7275">
		<stop  offset="0" style="stop-color:#FFF8B5"/>
		<stop  offset="0.1514" style="stop-color:#FFF7A0"/>
		<stop  offset="0.4646" style="stop-color:#FFF569"/>
		<stop  offset="0.9094" style="stop-color:#FFF213"/>
		<stop  offset="1" style="stop-color:#FFF100"/>
	</linearGradient>
	<path fill="url(#SVGID_3_)" d="M8.455,25.062c0,0,2.796-4.088,8.311-2.566c4.933,1.361,5.255,0.096,8.436-1.875
		c3.315-2.053,5.857,0.352,5.857,0.352s-2.46-4.92-7.967-1.171C17.585,23.551,11.743,17.083,8.455,25.062z"/>
	<linearGradient id="SVGID_4_" gradientUnits="userSpaceOnUse" x1="21.9541" y1="28.8672" x2="19.4425" y2="21.6222">
		<stop  offset="0.0053" style="stop-color:#FCB61F"/>
		<stop  offset="0.5294" style="stop-color:#DC5A26"/>
		<stop  offset="1" style="stop-color:#863409"/>
	</linearGradient>
	<path fill="url(#SVGID_4_)" d="M13.016,21.559c-4.216,1.109-4.561,3.504-4.561,3.504s-1.891-3.149,0.35-5.293
		c2.694-2.577,1.74-4.042,3.252-6.016c1.87-2.442,4.257-1.688,6.513-1.946c2.779-0.318,5.951-1.938,9.017,2.75
		c1.146,1.753,3.503,2.708,3.473,6.415c0,0-0.905-2.225-4.452-1.757c-1.344,0.177-4.106,2.55-6.098,2.808
		C18.021,22.346,15.559,20.89,13.016,21.559z"/>
	<radialGradient id="SVGID_5_" cx="21.0469" cy="33.2705" r="20.918" gradientUnits="userSpaceOnUse">
		<stop  offset="0" style="stop-color:#C83829"/>
		<stop  offset="1" style="stop-color:#000000"/>
	</radialGradient>
	<path fill="url(#SVGID_5_)" d="M13.016,21.559c-4.216,1.109-4.561,3.504-4.561,3.504s-1.546-2.884,0.694-5.027
		c2.694-2.577,1.539-4.222,3.197-6.075c1.831-2.047,4.154-1.399,6.41-1.657c2.779-0.318,5.155-1.758,8.318,2.343
		c1.279,1.659,4.014,2.621,3.983,6.327c0,0-0.905-2.225-4.452-1.757c-1.344,0.177-4.106,2.55-6.098,2.808
		C18.021,22.346,15.559,20.89,13.016,21.559z"/>
	<g>
		<radialGradient id="SVGID_6_" cx="19.4453" cy="15.9185" r="8.9299" gradientUnits="userSpaceOnUse">
			<stop  offset="0" style="stop-color:#F27D80"/>
			<stop  offset="0.2788" style="stop-color:#F07B7E"/>
			<stop  offset="0.3939" style="stop-color:#EA7477"/>
			<stop  offset="0.4788" style="stop-color:#DF686B"/>
			<stop  offset="0.5489" style="stop-color:#D05659"/>
			<stop  offset="0.6098" style="stop-color:#BC3F43"/>
			<stop  offset="0.6634" style="stop-color:#A42427"/>
			<stop  offset="0.6758" style="stop-color:#9D1C20"/>
			<stop  offset="0.7533" style="stop-color:#91171B"/>
			<stop  offset="0.8927" style="stop-color:#720B0D"/>
			<stop  offset="1" style="stop-color:#550000"/>
		</radialGradient>
		<path fill="url(#SVGID_6_)" d="M19.411,20.236c-1.73-0.406-2.972,0.205-3.66,1.247c1.594,0.229,3.171,0.746,4.758,0.54
			c1.005-0.13,2.207-0.799,3.323-1.452C21.4,18.497,21.42,20.71,19.411,20.236z"/>
	</g>
	<g>
		
			<radialGradient id="SVGID_7_" cx="350.4717" cy="-153.0093" r="17.178" gradientTransform="matrix(0.9874 -0.158 0.158 0.9874 -313.1622 240.9902)" gradientUnits="userSpaceOnUse">
			<stop  offset="0" style="stop-color:#FFFFFF"/>
			<stop  offset="0.1171" style="stop-color:#B2EAF7"/>
			<stop  offset="0.2259" style="stop-color:#73D9F0"/>
			<stop  offset="0.3241" style="stop-color:#41CBEB"/>
			<stop  offset="0.4096" style="stop-color:#1EC1E7"/>
			<stop  offset="0.4791" style="stop-color:#08BBE5"/>
			<stop  offset="0.5241" style="stop-color:#00B9E4"/>
			<stop  offset="0.5827" style="stop-color:#00B0D9"/>
			<stop  offset="0.685" style="stop-color:#0097BC"/>
			<stop  offset="0.8189" style="stop-color:#006F8E"/>
			<stop  offset="0.9775" style="stop-color:#00384E"/>
			<stop  offset="1" style="stop-color:#003044"/>
		</radialGradient>
		<path fill="url(#SVGID_7_)" d="M4.118,16.7c0,0-0.597,2.155-0.856,5.587C2.966,26.218-4.428,23.395,4.118,16.7z"/>
		
			<radialGradient id="SVGID_8_" cx="349.0195" cy="-164.7363" r="6.1159" gradientTransform="matrix(0.9874 -0.158 0.158 0.9874 -313.1622 240.9902)" gradientUnits="userSpaceOnUse">
			<stop  offset="0" style="stop-color:#FFFFFF"/>
			<stop  offset="0.1171" style="stop-color:#B2EAF7"/>
			<stop  offset="0.2259" style="stop-color:#73D9F0"/>
			<stop  offset="0.3241" style="stop-color:#41CBEB"/>
			<stop  offset="0.4096" style="stop-color:#1EC1E7"/>
			<stop  offset="0.4791" style="stop-color:#08BBE5"/>
			<stop  offset="0.5241" style="stop-color:#00B9E4"/>
			<stop  offset="0.5827" style="stop-color:#00B0D9"/>
			<stop  offset="0.685" style="stop-color:#0097BC"/>
			<stop  offset="0.8189" style="stop-color:#006F8E"/>
			<stop  offset="0.9775" style="stop-color:#00384E"/>
			<stop  offset="1" style="stop-color:#003044"/>
		</radialGradient>
		<path fill="url(#SVGID_8_)" d="M4.118,16.7c0,0-0.915,1.778-1.173,5.211C2.648,25.842-4.23,23.373,4.118,16.7z"/>
		
			<radialGradient id="SVGID_9_" cx="342.8135" cy="-170.4121" r="10.3508" gradientTransform="matrix(0.9874 -0.158 0.158 0.9874 -313.1622 240.9902)" gradientUnits="userSpaceOnUse">
			<stop  offset="0" style="stop-color:#FFFFFF"/>
			<stop  offset="0.1171" style="stop-color:#B2EAF7"/>
			<stop  offset="0.2259" style="stop-color:#73D9F0"/>
			<stop  offset="0.3241" style="stop-color:#41CBEB"/>
			<stop  offset="0.4096" style="stop-color:#1EC1E7"/>
			<stop  offset="0.4791" style="stop-color:#08BBE5"/>
			<stop  offset="0.5241" style="stop-color:#00B9E4"/>
			<stop  offset="0.5827" style="stop-color:#00B0D9"/>
			<stop  offset="0.685" style="stop-color:#0097BC"/>
			<stop  offset="0.8189" style="stop-color:#006F8E"/>
			<stop  offset="0.9775" style="stop-color:#00384E"/>
			<stop  offset="1" style="stop-color:#003044"/>
		</radialGradient>
		<path fill="url(#SVGID_9_)" d="M3.191,17.796c0,0-2.409,2.147-2.747,3.792c-0.339,1.646,1.045,2.079,1.076,0.216
			C1.558,19.289,3.191,17.796,3.191,17.796z"/>
	</g>
	<g>
		
			<radialGradient id="SVGID_10_" cx="70.542" cy="-18.2964" r="10.6913" gradientTransform="matrix(0.9995 -0.0323 0.0323 0.9995 -59.7401 47.1379)" gradientUnits="userSpaceOnUse">
			<stop  offset="0" style="stop-color:#FFFFFF"/>
			<stop  offset="0.1171" style="stop-color:#B2EAF7"/>
			<stop  offset="0.2259" style="stop-color:#73D9F0"/>
			<stop  offset="0.3241" style="stop-color:#41CBEB"/>
			<stop  offset="0.4096" style="stop-color:#1EC1E7"/>
			<stop  offset="0.4791" style="stop-color:#08BBE5"/>
			<stop  offset="0.5241" style="stop-color:#00B9E4"/>
			<stop  offset="0.5827" style="stop-color:#00B0D9"/>
			<stop  offset="0.685" style="stop-color:#0097BC"/>
			<stop  offset="0.8189" style="stop-color:#006F8E"/>
			<stop  offset="0.9775" style="stop-color:#00384E"/>
			<stop  offset="1" style="stop-color:#003044"/>
		</radialGradient>
		<path fill="url(#SVGID_10_)" d="M8.719,15.195c0,0-0.537,1.283-0.966,3.382C7.262,20.98,2.917,18.657,8.719,15.195z"/>
		
			<radialGradient id="SVGID_11_" cx="69.6387" cy="-25.5967" r="3.7941" gradientTransform="matrix(0.9995 -0.0323 0.0323 0.9995 -59.7401 47.1379)" gradientUnits="userSpaceOnUse">
			<stop  offset="0" style="stop-color:#FFFFFF"/>
			<stop  offset="0.1171" style="stop-color:#B2EAF7"/>
			<stop  offset="0.2259" style="stop-color:#73D9F0"/>
			<stop  offset="0.3241" style="stop-color:#41CBEB"/>
			<stop  offset="0.4096" style="stop-color:#1EC1E7"/>
			<stop  offset="0.4791" style="stop-color:#08BBE5"/>
			<stop  offset="0.5241" style="stop-color:#00B9E4"/>
			<stop  offset="0.5827" style="stop-color:#00B0D9"/>
			<stop  offset="0.685" style="stop-color:#0097BC"/>
			<stop  offset="0.8189" style="stop-color:#006F8E"/>
			<stop  offset="0.9775" style="stop-color:#00384E"/>
			<stop  offset="1" style="stop-color:#003044"/>
		</radialGradient>
		<path fill="url(#SVGID_11_)" d="M8.719,15.195c0,0-0.704,1.025-1.133,3.125C7.095,20.723,3.042,18.66,8.719,15.195z"/>
		
			<radialGradient id="SVGID_12_" cx="65.7773" cy="-29.1299" r="6.4436" gradientTransform="matrix(0.9995 -0.0323 0.0323 0.9995 -59.7401 47.1379)" gradientUnits="userSpaceOnUse">
			<stop  offset="0" style="stop-color:#FFFFFF"/>
			<stop  offset="0.1171" style="stop-color:#B2EAF7"/>
			<stop  offset="0.2259" style="stop-color:#73D9F0"/>
			<stop  offset="0.3241" style="stop-color:#41CBEB"/>
			<stop  offset="0.4096" style="stop-color:#1EC1E7"/>
			<stop  offset="0.4791" style="stop-color:#08BBE5"/>
			<stop  offset="0.5241" style="stop-color:#00B9E4"/>
			<stop  offset="0.5827" style="stop-color:#00B0D9"/>
			<stop  offset="0.685" style="stop-color:#0097BC"/>
			<stop  offset="0.8189" style="stop-color:#006F8E"/>
			<stop  offset="0.9775" style="stop-color:#00384E"/>
			<stop  offset="1" style="stop-color:#003044"/>
		</radialGradient>
		<path fill="url(#SVGID_12_)" d="M8.061,15.798c0,0-1.656,1.137-1.993,2.126c-0.339,0.99,0.481,1.366,0.646,0.218
			C6.936,16.591,8.061,15.798,8.061,15.798z"/>
	</g>
	<linearGradient id="SVGID_13_" gradientUnits="userSpaceOnUse" x1="10.2671" y1="14.0459" x2="14.5273" y2="9.5048">
		<stop  offset="0.0053" style="stop-color:#FCB61F"/>
		<stop  offset="0.5294" style="stop-color:#DC5A26"/>
		<stop  offset="1" style="stop-color:#863409"/>
	</linearGradient>
	<path fill="url(#SVGID_13_)" d="M10.136,15.191c0,0,0.264-6.849,5.578-5.236C15.714,9.955,12.312,9.687,10.136,15.191z"/>
	
		<linearGradient id="SVGID_14_" gradientUnits="userSpaceOnUse" x1="31.3945" y1="669.6143" x2="25.3721" y2="666.1276" gradientTransform="matrix(1.061 0.4249 -0.5331 0.9067 350.5524 -604.239)">
		<stop  offset="0" style="stop-color:#FFF100"/>
		<stop  offset="0.2753" style="stop-color:#FEDC0B"/>
		<stop  offset="0.6813" style="stop-color:#FCB61F"/>
		<stop  offset="1" style="stop-color:#DC5A26"/>
	</linearGradient>
	<path fill="url(#SVGID_14_)" d="M25.479,11.412c0,0-2.614-4.93-6.487-1.906C18.992,9.505,21.667,7.991,25.479,11.412z"/>
	<radialGradient id="SVGID_15_" cx="8.7051" cy="20.4863" r="6.335" gradientUnits="userSpaceOnUse">
		<stop  offset="0" style="stop-color:#00B9E4"/>
		<stop  offset="0.5241" style="stop-color:#00B9E4"/>
		<stop  offset="0.5827" style="stop-color:#00B0D9"/>
		<stop  offset="0.685" style="stop-color:#0097BC"/>
		<stop  offset="0.8189" style="stop-color:#006F8E"/>
		<stop  offset="0.9775" style="stop-color:#00384E"/>
		<stop  offset="1" style="stop-color:#003044"/>
	</radialGradient>
	<path fill="url(#SVGID_15_)" d="M14.335,21.021c-1.547,0.729-5.05,0.137-5.906,3.331c-0.117,0.437-0.083,0.538,0.026,0.71
		c0,0,1.67-1.786,1.227,0.404c-0.65,3.223,1.634,3.593,1.307,0.328c-0.326-3.267,0.609-3.502,1.784-3.045
		c1.176,0.458,2.382-0.728,2.069-1.396C14.842,21.354,14.842,20.783,14.335,21.021z"/>
	<radialGradient id="SVGID_16_" cx="9.9058" cy="22.3184" r="5.872" gradientUnits="userSpaceOnUse">
		<stop  offset="0" style="stop-color:#FFFFFF"/>
		<stop  offset="0.1171" style="stop-color:#B2EAF7"/>
		<stop  offset="0.2259" style="stop-color:#73D9F0"/>
		<stop  offset="0.3241" style="stop-color:#41CBEB"/>
		<stop  offset="0.4096" style="stop-color:#1EC1E7"/>
		<stop  offset="0.4791" style="stop-color:#08BBE5"/>
		<stop  offset="0.5241" style="stop-color:#00B9E4"/>
		<stop  offset="0.5827" style="stop-color:#00B0D9"/>
		<stop  offset="0.685" style="stop-color:#0097BC"/>
		<stop  offset="0.8189" style="stop-color:#006F8E"/>
		<stop  offset="0.9775" style="stop-color:#00384E"/>
		<stop  offset="1" style="stop-color:#003044"/>
	</radialGradient>
	<path fill="url(#SVGID_16_)" d="M9.138,24.23c0,0,1.189-0.743,0.833,1.25c-0.357,1.992,0.208,2.2,0.386,1.813
		c0.179-0.387-0.208-0.536-0.089-1.755S10.208,23.457,9.138,24.23z"/>
	<radialGradient id="SVGID_17_" cx="13.4956" cy="21.5918" r="5.4565" gradientUnits="userSpaceOnUse">
		<stop  offset="0" style="stop-color:#FFFFFF"/>
		<stop  offset="0.1171" style="stop-color:#B2EAF7"/>
		<stop  offset="0.2259" style="stop-color:#73D9F0"/>
		<stop  offset="0.3241" style="stop-color:#41CBEB"/>
		<stop  offset="0.4096" style="stop-color:#1EC1E7"/>
		<stop  offset="0.4791" style="stop-color:#08BBE5"/>
		<stop  offset="0.5241" style="stop-color:#00B9E4"/>
		<stop  offset="0.5827" style="stop-color:#00B0D9"/>
		<stop  offset="0.685" style="stop-color:#0097BC"/>
		<stop  offset="0.8189" style="stop-color:#006F8E"/>
		<stop  offset="0.9775" style="stop-color:#00384E"/>
		<stop  offset="1" style="stop-color:#003044"/>
	</radialGradient>
	<path fill="url(#SVGID_17_)" d="M11.448,22.396c0,0,0.515-0.363,1.271,0s1.754-0.12,1.814-0.725c0,0-0.726,0.756-1.543,0.453
		C12.174,21.822,11.448,22.396,11.448,22.396z"/>
	<g>
		
			<radialGradient id="SVGID_18_" cx="2391.9395" cy="-248.4365" r="8.299" gradientTransform="matrix(-0.9672 0.2539 0.2539 0.9672 2404.636 -346.2893)" gradientUnits="userSpaceOnUse">
			<stop  offset="0" style="stop-color:#FFFFFF"/>
			<stop  offset="0.1171" style="stop-color:#B2EAF7"/>
			<stop  offset="0.2259" style="stop-color:#73D9F0"/>
			<stop  offset="0.3241" style="stop-color:#41CBEB"/>
			<stop  offset="0.4096" style="stop-color:#1EC1E7"/>
			<stop  offset="0.4791" style="stop-color:#08BBE5"/>
			<stop  offset="0.5241" style="stop-color:#00B9E4"/>
			<stop  offset="0.5827" style="stop-color:#00B0D9"/>
			<stop  offset="0.685" style="stop-color:#0097BC"/>
			<stop  offset="0.8189" style="stop-color:#006F8E"/>
			<stop  offset="0.9775" style="stop-color:#00384E"/>
			<stop  offset="1" style="stop-color:#003044"/>
		</radialGradient>
		<path fill="url(#SVGID_18_)" d="M26.58,12.015c0,0,0.684,0.836,1.467,2.303C28.944,15.999,31.663,13.309,26.58,12.015z"/>
		
			<radialGradient id="SVGID_19_" cx="2391.2373" cy="-254.1021" r="2.9427" gradientTransform="matrix(-0.9672 0.2539 0.2539 0.9672 2404.636 -346.2893)" gradientUnits="userSpaceOnUse">
			<stop  offset="0" style="stop-color:#FFFFFF"/>
			<stop  offset="0.1171" style="stop-color:#B2EAF7"/>
			<stop  offset="0.2259" style="stop-color:#73D9F0"/>
			<stop  offset="0.3241" style="stop-color:#41CBEB"/>
			<stop  offset="0.4096" style="stop-color:#1EC1E7"/>
			<stop  offset="0.4791" style="stop-color:#08BBE5"/>
			<stop  offset="0.5241" style="stop-color:#00B9E4"/>
			<stop  offset="0.5827" style="stop-color:#00B0D9"/>
			<stop  offset="0.685" style="stop-color:#0097BC"/>
			<stop  offset="0.8189" style="stop-color:#006F8E"/>
			<stop  offset="0.9775" style="stop-color:#00384E"/>
			<stop  offset="1" style="stop-color:#003044"/>
		</radialGradient>
		<path fill="url(#SVGID_19_)" d="M26.58,12.015c0,0,0.751,0.608,1.534,2.074C29.012,15.77,31.571,13.338,26.58,12.015z"/>
		
			<radialGradient id="SVGID_20_" cx="2388.2393" cy="-256.8452" r="5.0019" gradientTransform="matrix(-0.9672 0.2539 0.2539 0.9672 2404.636 -346.2893)" gradientUnits="userSpaceOnUse">
			<stop  offset="0" style="stop-color:#FFFFFF"/>
			<stop  offset="0.1171" style="stop-color:#B2EAF7"/>
			<stop  offset="0.2259" style="stop-color:#73D9F0"/>
			<stop  offset="0.3241" style="stop-color:#41CBEB"/>
			<stop  offset="0.4096" style="stop-color:#1EC1E7"/>
			<stop  offset="0.4791" style="stop-color:#08BBE5"/>
			<stop  offset="0.5241" style="stop-color:#00B9E4"/>
			<stop  offset="0.5827" style="stop-color:#00B0D9"/>
			<stop  offset="0.685" style="stop-color:#0097BC"/>
			<stop  offset="0.8189" style="stop-color:#006F8E"/>
			<stop  offset="0.9775" style="stop-color:#00384E"/>
			<stop  offset="1" style="stop-color:#003044"/>
		</radialGradient>
		<path fill="url(#SVGID_20_)" d="M27.203,12.319c0,0,1.484,0.479,1.954,1.141c0.471,0.662-0.057,1.124-0.434,0.306
			C28.215,12.66,27.203,12.319,27.203,12.319z"/>
	</g>
	<g>
		
			<radialGradient id="SVGID_21_" cx="2832.6562" cy="-11.8906" r="14.3359" gradientTransform="matrix(-0.9987 0.0518 0.0518 0.9987 2859.4329 -107.6132)" gradientUnits="userSpaceOnUse">
			<stop  offset="0" style="stop-color:#FFFFFF"/>
			<stop  offset="0.1171" style="stop-color:#B2EAF7"/>
			<stop  offset="0.2259" style="stop-color:#73D9F0"/>
			<stop  offset="0.3241" style="stop-color:#41CBEB"/>
			<stop  offset="0.4096" style="stop-color:#1EC1E7"/>
			<stop  offset="0.4791" style="stop-color:#08BBE5"/>
			<stop  offset="0.5241" style="stop-color:#00B9E4"/>
			<stop  offset="0.5827" style="stop-color:#00B0D9"/>
			<stop  offset="0.685" style="stop-color:#0097BC"/>
			<stop  offset="0.8189" style="stop-color:#006F8E"/>
			<stop  offset="0.9775" style="stop-color:#00384E"/>
			<stop  offset="1" style="stop-color:#003044"/>
		</radialGradient>
		<path fill="url(#SVGID_21_)" d="M30.624,11.812c0,0,0.862,1.654,1.671,4.41C33.222,19.379,38.766,15.785,30.624,11.812z"/>
		
			<radialGradient id="SVGID_22_" cx="2831.4443" cy="-21.6797" r="5.1047" gradientTransform="matrix(-0.9987 0.0518 0.0518 0.9987 2859.4329 -107.6132)" gradientUnits="userSpaceOnUse">
			<stop  offset="0" style="stop-color:#FFFFFF"/>
			<stop  offset="0.1171" style="stop-color:#B2EAF7"/>
			<stop  offset="0.2259" style="stop-color:#73D9F0"/>
			<stop  offset="0.3241" style="stop-color:#41CBEB"/>
			<stop  offset="0.4096" style="stop-color:#1EC1E7"/>
			<stop  offset="0.4791" style="stop-color:#08BBE5"/>
			<stop  offset="0.5241" style="stop-color:#00B9E4"/>
			<stop  offset="0.5827" style="stop-color:#00B0D9"/>
			<stop  offset="0.685" style="stop-color:#0097BC"/>
			<stop  offset="0.8189" style="stop-color:#006F8E"/>
			<stop  offset="0.9775" style="stop-color:#00384E"/>
			<stop  offset="1" style="stop-color:#003044"/>
		</radialGradient>
		<path fill="url(#SVGID_22_)" d="M30.624,11.812c0,0,1.057,1.292,1.865,4.047C33.416,19.014,38.601,15.803,30.624,11.812z"/>
		
			<radialGradient id="SVGID_23_" cx="2826.2646" cy="-26.4141" r="8.6386" gradientTransform="matrix(-0.9987 0.0518 0.0518 0.9987 2859.4329 -107.6132)" gradientUnits="userSpaceOnUse">
			<stop  offset="0" style="stop-color:#FFFFFF"/>
			<stop  offset="0.1171" style="stop-color:#B2EAF7"/>
			<stop  offset="0.2259" style="stop-color:#73D9F0"/>
			<stop  offset="0.3241" style="stop-color:#41CBEB"/>
			<stop  offset="0.4096" style="stop-color:#1EC1E7"/>
			<stop  offset="0.4791" style="stop-color:#08BBE5"/>
			<stop  offset="0.5241" style="stop-color:#00B9E4"/>
			<stop  offset="0.5827" style="stop-color:#00B0D9"/>
			<stop  offset="0.685" style="stop-color:#0097BC"/>
			<stop  offset="0.8189" style="stop-color:#006F8E"/>
			<stop  offset="0.9775" style="stop-color:#00384E"/>
			<stop  offset="1" style="stop-color:#003044"/>
		</radialGradient>
		<path fill="url(#SVGID_23_)" d="M31.571,12.544c0,0,2.341,1.332,2.903,2.616c0.562,1.284-0.49,1.879-0.84,0.364
			C33.163,13.477,31.571,12.544,31.571,12.544z"/>
	</g>
	<g>
		
			<radialGradient id="SVGID_24_" cx="1287.9238" cy="-426.4146" r="7.1939" gradientTransform="matrix(-0.7471 0.6647 0.6647 0.7471 1276.2448 -521.7147)" gradientUnits="userSpaceOnUse">
			<stop  offset="0" style="stop-color:#FFFFFF"/>
			<stop  offset="0.1171" style="stop-color:#B2EAF7"/>
			<stop  offset="0.2259" style="stop-color:#73D9F0"/>
			<stop  offset="0.3241" style="stop-color:#41CBEB"/>
			<stop  offset="0.4096" style="stop-color:#1EC1E7"/>
			<stop  offset="0.4791" style="stop-color:#08BBE5"/>
			<stop  offset="0.5241" style="stop-color:#00B9E4"/>
			<stop  offset="0.5827" style="stop-color:#00B0D9"/>
			<stop  offset="0.685" style="stop-color:#0097BC"/>
			<stop  offset="0.8189" style="stop-color:#006F8E"/>
			<stop  offset="0.9775" style="stop-color:#00384E"/>
			<stop  offset="1" style="stop-color:#003044"/>
		</radialGradient>
		<path fill="url(#SVGID_24_)" d="M26.015,9.539c0,0,0.857,0.377,2.039,1.203C29.407,11.688,30.451,8.54,26.015,9.539z"/>
		
			<radialGradient id="SVGID_25_" cx="1287.3164" cy="-431.3262" r="2.5739" gradientTransform="matrix(-0.7471 0.6647 0.6647 0.7471 1276.2448 -521.7147)" gradientUnits="userSpaceOnUse">
			<stop  offset="0" style="stop-color:#FFFFFF"/>
			<stop  offset="0.1171" style="stop-color:#B2EAF7"/>
			<stop  offset="0.2259" style="stop-color:#73D9F0"/>
			<stop  offset="0.3241" style="stop-color:#41CBEB"/>
			<stop  offset="0.4096" style="stop-color:#1EC1E7"/>
			<stop  offset="0.4791" style="stop-color:#08BBE5"/>
			<stop  offset="0.5241" style="stop-color:#00B9E4"/>
			<stop  offset="0.5827" style="stop-color:#00B0D9"/>
			<stop  offset="0.685" style="stop-color:#0097BC"/>
			<stop  offset="0.8189" style="stop-color:#006F8E"/>
			<stop  offset="0.9775" style="stop-color:#00384E"/>
			<stop  offset="1" style="stop-color:#003044"/>
		</radialGradient>
		<path fill="url(#SVGID_25_)" d="M26.015,9.539c0,0,0.819,0.174,2.001,1C29.369,11.484,30.393,8.6,26.015,9.539z"/>
		
			<radialGradient id="SVGID_26_" cx="1284.7148" cy="-433.7046" r="4.34" gradientTransform="matrix(-0.7471 0.6647 0.6647 0.7471 1276.2448 -521.7147)" gradientUnits="userSpaceOnUse">
			<stop  offset="0" style="stop-color:#FFFFFF"/>
			<stop  offset="0.1171" style="stop-color:#B2EAF7"/>
			<stop  offset="0.2259" style="stop-color:#73D9F0"/>
			<stop  offset="0.3241" style="stop-color:#41CBEB"/>
			<stop  offset="0.4096" style="stop-color:#1EC1E7"/>
			<stop  offset="0.4791" style="stop-color:#08BBE5"/>
			<stop  offset="0.5241" style="stop-color:#00B9E4"/>
			<stop  offset="0.5827" style="stop-color:#00B0D9"/>
			<stop  offset="0.685" style="stop-color:#0097BC"/>
			<stop  offset="0.8189" style="stop-color:#006F8E"/>
			<stop  offset="0.9775" style="stop-color:#00384E"/>
			<stop  offset="1" style="stop-color:#003044"/>
		</radialGradient>
		<path fill="url(#SVGID_26_)" d="M26.615,9.528c0,0,1.336-0.212,1.959,0.114c0.624,0.326,0.397,0.89-0.215,0.406
			C27.532,9.394,26.615,9.528,26.615,9.528z"/>
	</g>
	<g>
		
			<radialGradient id="SVGID_27_" cx="-332.4014" cy="807.7637" r="8.2507" gradientTransform="matrix(0.8951 0.4458 -0.4458 0.8951 664.2088 -555.6388)" gradientUnits="userSpaceOnUse">
			<stop  offset="0" style="stop-color:#FFFFFF"/>
			<stop  offset="0.1171" style="stop-color:#B2EAF7"/>
			<stop  offset="0.2259" style="stop-color:#73D9F0"/>
			<stop  offset="0.3241" style="stop-color:#41CBEB"/>
			<stop  offset="0.4096" style="stop-color:#1EC1E7"/>
			<stop  offset="0.4791" style="stop-color:#08BBE5"/>
			<stop  offset="0.5241" style="stop-color:#00B9E4"/>
			<stop  offset="0.5827" style="stop-color:#00B0D9"/>
			<stop  offset="0.685" style="stop-color:#0097BC"/>
			<stop  offset="0.8189" style="stop-color:#006F8E"/>
			<stop  offset="0.9775" style="stop-color:#00384E"/>
			<stop  offset="1" style="stop-color:#003044"/>
		</radialGradient>
		<path fill="url(#SVGID_27_)" d="M9.761,10.991c0,0-0.835,0.675-1.895,1.945C6.651,14.389,4.549,11.219,9.761,10.991z"/>
		
			<radialGradient id="SVGID_28_" cx="-333.0986" cy="802.1318" r="2.9484" gradientTransform="matrix(0.8951 0.4458 -0.4458 0.8951 664.2088 -555.6388)" gradientUnits="userSpaceOnUse">
			<stop  offset="0" style="stop-color:#FFFFFF"/>
			<stop  offset="0.1171" style="stop-color:#B2EAF7"/>
			<stop  offset="0.2259" style="stop-color:#73D9F0"/>
			<stop  offset="0.3241" style="stop-color:#41CBEB"/>
			<stop  offset="0.4096" style="stop-color:#1EC1E7"/>
			<stop  offset="0.4791" style="stop-color:#08BBE5"/>
			<stop  offset="0.5241" style="stop-color:#00B9E4"/>
			<stop  offset="0.5827" style="stop-color:#00B0D9"/>
			<stop  offset="0.685" style="stop-color:#0097BC"/>
			<stop  offset="0.8189" style="stop-color:#006F8E"/>
			<stop  offset="0.9775" style="stop-color:#00384E"/>
			<stop  offset="1" style="stop-color:#003044"/>
		</radialGradient>
		<path fill="url(#SVGID_28_)" d="M9.761,10.991c0,0-0.854,0.439-1.914,1.708C6.633,14.153,4.632,11.267,9.761,10.991z"/>
		
			<radialGradient id="SVGID_29_" cx="-336.0815" cy="799.4033" r="4.9746" gradientTransform="matrix(0.8951 0.4458 -0.4458 0.8951 664.2088 -555.6388)" gradientUnits="userSpaceOnUse">
			<stop  offset="0" style="stop-color:#FFFFFF"/>
			<stop  offset="0.1171" style="stop-color:#B2EAF7"/>
			<stop  offset="0.2259" style="stop-color:#73D9F0"/>
			<stop  offset="0.3241" style="stop-color:#41CBEB"/>
			<stop  offset="0.4096" style="stop-color:#1EC1E7"/>
			<stop  offset="0.4791" style="stop-color:#08BBE5"/>
			<stop  offset="0.5241" style="stop-color:#00B9E4"/>
			<stop  offset="0.5827" style="stop-color:#00B0D9"/>
			<stop  offset="0.685" style="stop-color:#0097BC"/>
			<stop  offset="0.8189" style="stop-color:#006F8E"/>
			<stop  offset="0.9775" style="stop-color:#00384E"/>
			<stop  offset="1" style="stop-color:#003044"/>
		</radialGradient>
		<path fill="url(#SVGID_29_)" d="M9.093,11.16c0,0-1.542,0.166-2.134,0.715c-0.593,0.549-0.173,1.105,0.359,0.385
			C8.038,11.287,9.093,11.16,9.093,11.16z"/>
	</g>
	<radialGradient id="SVGID_30_" cx="20.5693" cy="19.7627" r="8.2648" gradientUnits="userSpaceOnUse">
		<stop  offset="0" style="stop-color:#FFFFFF"/>
		<stop  offset="0.1171" style="stop-color:#B2EAF7"/>
		<stop  offset="0.2259" style="stop-color:#73D9F0"/>
		<stop  offset="0.3241" style="stop-color:#41CBEB"/>
		<stop  offset="0.4096" style="stop-color:#1EC1E7"/>
		<stop  offset="0.4791" style="stop-color:#08BBE5"/>
		<stop  offset="0.5241" style="stop-color:#00B9E4"/>
		<stop  offset="0.5827" style="stop-color:#00B0D9"/>
		<stop  offset="0.685" style="stop-color:#0097BC"/>
		<stop  offset="0.8189" style="stop-color:#006F8E"/>
		<stop  offset="0.9775" style="stop-color:#00384E"/>
		<stop  offset="1" style="stop-color:#003044"/>
	</radialGradient>
	<path fill="url(#SVGID_30_)" d="M22.939,21.174c1.674,1.172,2.104,1.297,1.711,3.37c-0.505,2.667,1.87,2.379,1.275-0.197
		c-0.811-3.515-0.01-4.583,1.453-3.799c1.462,0.783,1.933-1.044,1.671-1.566c-0.261-0.522-2.872-0.575-4.125,0.47
		C23.671,20.496,22.418,20.81,22.939,21.174z"/>
	<radialGradient id="SVGID_31_" cx="32.1592" cy="16.2803" r="15.9636" gradientUnits="userSpaceOnUse">
		<stop  offset="0" style="stop-color:#FFFFFF"/>
		<stop  offset="0.1171" style="stop-color:#B2EAF7"/>
		<stop  offset="0.2259" style="stop-color:#73D9F0"/>
		<stop  offset="0.3241" style="stop-color:#41CBEB"/>
		<stop  offset="0.4096" style="stop-color:#1EC1E7"/>
		<stop  offset="0.4791" style="stop-color:#08BBE5"/>
		<stop  offset="0.5241" style="stop-color:#00B9E4"/>
		<stop  offset="0.5827" style="stop-color:#00B0D9"/>
		<stop  offset="0.685" style="stop-color:#0097BC"/>
		<stop  offset="0.8189" style="stop-color:#006F8E"/>
		<stop  offset="0.9775" style="stop-color:#00384E"/>
		<stop  offset="1" style="stop-color:#003044"/>
	</radialGradient>
	<path fill="url(#SVGID_31_)" d="M28.811,19.129c0,0,0.264,1.805-1.256,1.166c-1.519-0.639-2.201,0-2.201,1.41
		c0,0-0.3-3.125,2.224-1.784C28.282,20.295,28.767,19.811,28.811,19.129z"/>
	<radialGradient id="SVGID_32_" cx="25.7725" cy="27.6777" r="5.7907" gradientUnits="userSpaceOnUse">
		<stop  offset="0" style="stop-color:#FFFFFF"/>
		<stop  offset="0.1171" style="stop-color:#B2EAF7"/>
		<stop  offset="0.2259" style="stop-color:#73D9F0"/>
		<stop  offset="0.3241" style="stop-color:#41CBEB"/>
		<stop  offset="0.4096" style="stop-color:#1EC1E7"/>
		<stop  offset="0.4791" style="stop-color:#08BBE5"/>
		<stop  offset="0.5241" style="stop-color:#00B9E4"/>
		<stop  offset="0.5827" style="stop-color:#00B0D9"/>
		<stop  offset="0.685" style="stop-color:#0097BC"/>
		<stop  offset="0.8189" style="stop-color:#006F8E"/>
		<stop  offset="0.9775" style="stop-color:#00384E"/>
		<stop  offset="1" style="stop-color:#003044"/>
	</radialGradient>
	<path fill="url(#SVGID_32_)" d="M25.492,23.284c0,0,0.394,1.435,0.275,2.202c-0.118,0.767-0.629,0.884-0.865,0.314
		c0,0,0.573,0.371,0.629-0.648C25.591,24.07,25.492,23.284,25.492,23.284z"/>
	<radialGradient id="SVGID_33_" cx="23.3623" cy="20.3447" r="4.8692" gradientUnits="userSpaceOnUse">
		<stop  offset="0" style="stop-color:#FFFFFF"/>
		<stop  offset="0.1171" style="stop-color:#B2EAF7"/>
		<stop  offset="0.2259" style="stop-color:#73D9F0"/>
		<stop  offset="0.3241" style="stop-color:#41CBEB"/>
		<stop  offset="0.4096" style="stop-color:#1EC1E7"/>
		<stop  offset="0.4791" style="stop-color:#08BBE5"/>
		<stop  offset="0.5241" style="stop-color:#00B9E4"/>
		<stop  offset="0.5827" style="stop-color:#00B0D9"/>
		<stop  offset="0.685" style="stop-color:#0097BC"/>
		<stop  offset="0.8189" style="stop-color:#006F8E"/>
		<stop  offset="0.9775" style="stop-color:#00384E"/>
		<stop  offset="1" style="stop-color:#003044"/>
	</radialGradient>
	<path fill="url(#SVGID_33_)" d="M23.135,21.01c0,0,0.869,0.547,1.256,0.934c0.386,0.387,0.676,0.838,0.562,1.723
		c0,0,0.499-1.062-0.418-1.899C23.795,21.091,23.135,21.01,23.135,21.01z"/>
	<radialGradient id="SVGID_34_" cx="12.4331" cy="10.979" r="6.5141" gradientUnits="userSpaceOnUse">
		<stop  offset="0" style="stop-color:#00B9E4"/>
		<stop  offset="0.5241" style="stop-color:#00B9E4"/>
		<stop  offset="0.5827" style="stop-color:#00B0D9"/>
		<stop  offset="0.685" style="stop-color:#0097BC"/>
		<stop  offset="0.8189" style="stop-color:#006F8E"/>
		<stop  offset="0.9775" style="stop-color:#00384E"/>
		<stop  offset="1" style="stop-color:#003044"/>
	</radialGradient>
	<path fill="url(#SVGID_34_)" d="M10.136,15.191c0,0,1.44-1.368,0.668,1.359c-0.773,2.727,1.018,3.256,0.977,0.285
		c-0.041-2.971,0.407-5.168,1.79-6.227C13.57,10.608,11.381,11.512,10.136,15.191z"/>
	<radialGradient id="SVGID_35_" cx="11.5957" cy="13.0967" r="5.2217" gradientUnits="userSpaceOnUse">
		<stop  offset="0" style="stop-color:#FFFFFF"/>
		<stop  offset="0.1171" style="stop-color:#B2EAF7"/>
		<stop  offset="0.2259" style="stop-color:#73D9F0"/>
		<stop  offset="0.3241" style="stop-color:#41CBEB"/>
		<stop  offset="0.4096" style="stop-color:#1EC1E7"/>
		<stop  offset="0.4791" style="stop-color:#08BBE5"/>
		<stop  offset="0.5241" style="stop-color:#00B9E4"/>
		<stop  offset="0.5827" style="stop-color:#00B0D9"/>
		<stop  offset="0.685" style="stop-color:#0097BC"/>
		<stop  offset="0.8189" style="stop-color:#006F8E"/>
		<stop  offset="0.9775" style="stop-color:#00384E"/>
		<stop  offset="1" style="stop-color:#003044"/>
	</radialGradient>
	<path fill="url(#SVGID_35_)" d="M11.56,14.732c0,0-0.106,1.119-0.08,2.344c0.026,1.226-0.427,1.758-0.56,1.04
		c0,0,0.237-0.002,0.293-0.906C11.293,15.93,11.56,14.732,11.56,14.732z"/>
</g>
</svg>
