<?xml version="1.0" encoding="utf-8"?>
<!-- Generator: Adobe Illustrator 15.1.0, SVG Export Plug-In . SVG Version: 6.00 Build 0)  -->
<!DOCTYPE svg PUBLIC "-//W3C//DTD SVG 1.1//EN" "http://www.w3.org/Graphics/SVG/1.1/DTD/svg11.dtd">
<svg version="1.1" id="Layer_1" xmlns="http://www.w3.org/2000/svg" xmlns:xlink="http://www.w3.org/1999/xlink" x="0px" y="0px"
	 width="35px" height="35px" viewBox="0 0 35 35" enable-background="new 0 0 35 35" xml:space="preserve">
<g>
	
		<radialGradient id="SVGID_1_" cx="2298.9609" cy="-84.9312" r="24.0332" fx="2300.7886" fy="-81.2504" gradientTransform="matrix(0.9594 -0.282 0.282 0.9594 -2166.3511 748.3188)" gradientUnits="userSpaceOnUse">
		<stop  offset="0" style="stop-color:#FFF100"/>
		<stop  offset="0.143" style="stop-color:#FFEE01"/>
		<stop  offset="0.2395" style="stop-color:#FEE504"/>
		<stop  offset="0.3223" style="stop-color:#FCD609"/>
		<stop  offset="0.3974" style="stop-color:#FAC110"/>
		<stop  offset="0.4672" style="stop-color:#F7A519"/>
		<stop  offset="0.5323" style="stop-color:#F48324"/>
		<stop  offset="0.5495" style="stop-color:#F37927"/>
		<stop  offset="0.7143" style="stop-color:#FFF100"/>
	</radialGradient>
	<circle fill="url(#SVGID_1_)" cx="16.756" cy="22.613" r="12.384"/>
	<linearGradient id="SVGID_2_" gradientUnits="userSpaceOnUse" x1="15.3164" y1="14.7822" x2="17.3008" y2="21.728">
		<stop  offset="0" style="stop-color:#FFF4CB"/>
		<stop  offset="1" style="stop-color:#FFF100"/>
	</linearGradient>
	<path fill="url(#SVGID_2_)" d="M24.574,16.255c-0.492-3.504-4.695-5.81-9.388-5.151c-4.692,0.659-8.099,4.034-7.605,7.537
		c0.491,3.504,4.694,5.81,9.387,5.151C21.661,23.134,25.066,19.76,24.574,16.255z"/>
	<path d="M9.076,16.407c0,0,2.043-2.485,6.457-1.554C15.533,14.853,10.837,11.881,9.076,16.407z"/>
	<path d="M22.992,13.097c0,0-1.206-2.982-5.698-3.415C17.294,9.682,22.666,8.252,22.992,13.097z"/>
	
		<radialGradient id="SVGID_3_" cx="-119.3003" cy="319.6172" r="2.6908" gradientTransform="matrix(0.9119 0.4104 -0.4104 0.9119 261.7867 -218.7816)" gradientUnits="userSpaceOnUse">
		<stop  offset="0" style="stop-color:#F37B60"/>
		<stop  offset="0.1083" style="stop-color:#EE6653"/>
		<stop  offset="0.331" style="stop-color:#E03031"/>
		<stop  offset="0.3956" style="stop-color:#DC1F26"/>
		<stop  offset="1" style="stop-color:#390000"/>
	</radialGradient>
	<path fill="url(#SVGID_3_)" d="M20.115,23.7c0,0-0.022-1.036-1.662-2.603c-1.638-1.566-3.475-4.695-0.781-6.624
		c1.038-0.744,3.724-0.721,4.242,1.821c0,0,2.288-2.168,4.072,0.493c0.795,1.185,2.013,4.229-3.626,5.543
		C21.066,22.633,20.115,23.7,20.115,23.7z"/>
	
		<radialGradient id="SVGID_4_" cx="-120.5576" cy="311.3779" r="12.2312" gradientTransform="matrix(0.9119 0.4104 -0.4104 0.9119 261.7867 -218.7816)" gradientUnits="userSpaceOnUse">
		<stop  offset="0" style="stop-color:#F37B60"/>
		<stop  offset="0.1083" style="stop-color:#EE6653"/>
		<stop  offset="0.331" style="stop-color:#E03031"/>
		<stop  offset="0.3956" style="stop-color:#DC1F26"/>
		<stop  offset="1" style="stop-color:#390000"/>
	</radialGradient>
	<path fill="url(#SVGID_4_)" d="M20.213,24.092c0,0,0.099-0.814-1.539-2.382c-1.64-1.567-3.477-4.694-0.783-6.624
		c1.038-0.744,3.724-0.721,4.243,1.821c0,0,2.287-2.168,4.071,0.494c0.795,1.185,0.901,4.294-3.979,5.451
		C20.934,23.158,20.213,24.092,20.213,24.092z"/>
	
		<radialGradient id="SVGID_5_" cx="-119.958" cy="312.3438" r="16.5153" gradientTransform="matrix(0.9119 0.4104 -0.4104 0.9119 261.7867 -218.7816)" gradientUnits="userSpaceOnUse">
		<stop  offset="0" style="stop-color:#FFFFFF"/>
		<stop  offset="0.0497" style="stop-color:#FCEAEB"/>
		<stop  offset="0.1526" style="stop-color:#F3B3B6"/>
		<stop  offset="0.2984" style="stop-color:#E65D62"/>
		<stop  offset="0.3956" style="stop-color:#DC1F26"/>
		<stop  offset="1" style="stop-color:#390000"/>
	</radialGradient>
	<path fill="url(#SVGID_5_)" d="M22.266,17.271c0,0-0.104,1.235-1.826,1.945s-1.936,1.761-1.936,1.761s1.833,1.604,1.935,2.348
		c0,0,0.468-0.67,1.596-0.889c1.626-0.316,3.447-1.005,4.067-2.729C26.796,17.779,24.598,15.354,22.266,17.271z"/>
	
		<radialGradient id="SVGID_6_" cx="72.0117" cy="-19.7739" r="4.85" gradientTransform="matrix(0.9952 -0.0978 0.0978 0.9952 -52.3628 37.5657)" gradientUnits="userSpaceOnUse">
		<stop  offset="0" style="stop-color:#F37B60"/>
		<stop  offset="0.1083" style="stop-color:#EE6653"/>
		<stop  offset="0.331" style="stop-color:#E03031"/>
		<stop  offset="0.3956" style="stop-color:#DC1F26"/>
		<stop  offset="1" style="stop-color:#390000"/>
	</radialGradient>
	<path fill="url(#SVGID_6_)" d="M13.007,24.725c0,0-0.416-0.726-1.996-1.116c-1.58-0.39-3.839-1.681-2.853-3.843
		c0.382-0.834,2.062-1.779,3.291-0.383c0,0,0.651-2.166,2.712-1.146c0.917,0.454,2.303,2.281-0.323,4.743
		C13.143,23.632,13.007,24.725,13.007,24.725z"/>
	
		<radialGradient id="SVGID_7_" cx="66.666" cy="-13.0972" r="7.9468" gradientTransform="matrix(0.9952 -0.0978 0.0978 0.9952 -52.3628 37.5657)" gradientUnits="userSpaceOnUse">
		<stop  offset="0" style="stop-color:#F37B60"/>
		<stop  offset="0.1083" style="stop-color:#EE6653"/>
		<stop  offset="0.331" style="stop-color:#E03031"/>
		<stop  offset="0.3956" style="stop-color:#DC1F26"/>
		<stop  offset="1" style="stop-color:#390000"/>
	</radialGradient>
	<path fill="url(#SVGID_7_)" d="M12.778,24.084c0,0-0.23-0.543-1.809-0.933c-1.58-0.39-3.84-1.681-2.853-3.843
		c0.381-0.834,2.061-1.779,3.291-0.383c0,0,0.649-2.166,2.711-1.146c0.917,0.454,2.095,2.352-0.531,4.814
		C12.894,23.246,12.778,24.084,12.778,24.084z"/>
	
		<radialGradient id="SVGID_8_" cx="-78.6353" cy="254.1992" r="10.4282" gradientTransform="matrix(0.9368 0.3498 -0.3498 0.9368 178.4108 -208.9321)" gradientUnits="userSpaceOnUse">
		<stop  offset="0" style="stop-color:#F37B60"/>
		<stop  offset="0.1083" style="stop-color:#EE6653"/>
		<stop  offset="0.331" style="stop-color:#E03031"/>
		<stop  offset="0.3956" style="stop-color:#DC1F26"/>
		<stop  offset="1" style="stop-color:#390000"/>
	</radialGradient>
	<path fill="url(#SVGID_8_)" d="M13.496,5.462c0,0,0.025-0.478-0.987-1.327c-1.014-0.849-2.202-2.6-0.709-3.826
		c0.576-0.473,2.141-0.562,2.54,0.898c0,0,1.248-1.35,2.39,0.131c0.506,0.66,0.688,2.465-2.109,3.325
		C13.879,4.891,13.496,5.462,13.496,5.462z"/>
	
		<radialGradient id="SVGID_9_" cx="-94.7422" cy="457.7051" r="5.3377" gradientTransform="matrix(0.8237 0.567 -0.567 0.8237 357.6305 -316.9995)" gradientUnits="userSpaceOnUse">
		<stop  offset="0" style="stop-color:#F37B60"/>
		<stop  offset="0.1083" style="stop-color:#EE6653"/>
		<stop  offset="0.331" style="stop-color:#E03031"/>
		<stop  offset="0.3956" style="stop-color:#DC1F26"/>
		<stop  offset="1" style="stop-color:#390000"/>
	</radialGradient>
	<path fill="url(#SVGID_9_)" d="M18.45,7.882c0,0,0.072-0.234-0.325-0.782c-0.397-0.547-0.77-1.564,0.124-1.987
		c0.345-0.163,1.132-0.013,1.149,0.762c0,0,0.788-0.515,1.169,0.362c0.17,0.39,0.035,1.31-1.46,1.388
		C18.712,7.646,18.45,7.882,18.45,7.882z"/>
	
		<radialGradient id="SVGID_10_" cx="67.5488" cy="-12.8584" r="9.6282" gradientTransform="matrix(0.9952 -0.0978 0.0978 0.9952 -52.3628 37.5657)" gradientUnits="userSpaceOnUse">
		<stop  offset="0" style="stop-color:#FFFFFF"/>
		<stop  offset="0.0497" style="stop-color:#FCEAEB"/>
		<stop  offset="0.1526" style="stop-color:#F3B3B6"/>
		<stop  offset="0.2984" style="stop-color:#E65D62"/>
		<stop  offset="0.3956" style="stop-color:#DC1F26"/>
		<stop  offset="1" style="stop-color:#390000"/>
	</radialGradient>
	<path fill="url(#SVGID_10_)" d="M11.621,19.105c0,0,0.376,0.805-0.442,1.863c-0.819,1.057-0.576,1.787-0.576,1.787
		s1.713,0.342,2.042,0.77c0,0,0.052-0.584,0.676-1.123c0.899-0.777,1.788-1.857,1.559-3.15
		C14.622,17.804,12.387,17.08,11.621,19.105z"/>
	<linearGradient id="SVGID_11_" gradientUnits="userSpaceOnUse" x1="18.4844" y1="30.3359" x2="16.7277" y2="22.0214">
		<stop  offset="0" style="stop-color:#FFF100"/>
		<stop  offset="0.2753" style="stop-color:#FEDC0B"/>
		<stop  offset="0.6813" style="stop-color:#FCB61F"/>
		<stop  offset="1" style="stop-color:#DC5A26"/>
	</linearGradient>
	<path fill="url(#SVGID_11_)" d="M10.448,25.957c0,0,7.257,3.28,13.718-2.385c0,0,0.798,6.741-4.161,8.253
		C15.204,33.289,10.448,25.957,10.448,25.957z"/>
	<radialGradient id="SVGID_12_" cx="11.3325" cy="32.9609" r="10.492" gradientUnits="userSpaceOnUse">
		<stop  offset="0" style="stop-color:#C83829"/>
		<stop  offset="1" style="stop-color:#000000"/>
	</radialGradient>
	<path fill="url(#SVGID_12_)" d="M10.448,25.957c0,0,7.257,3.28,13.718-2.385c0,0,0.099,6.261-4.374,7.553
		C15.319,32.418,10.448,25.957,10.448,25.957z"/>
	<radialGradient id="SVGID_13_" cx="25.1445" cy="32.5723" r="10.3733" gradientUnits="userSpaceOnUse">
		<stop  offset="0" style="stop-color:#F27D80"/>
		<stop  offset="0.2788" style="stop-color:#F07B7E"/>
		<stop  offset="0.3939" style="stop-color:#EA7477"/>
		<stop  offset="0.4788" style="stop-color:#DF686B"/>
		<stop  offset="0.5489" style="stop-color:#D05659"/>
		<stop  offset="0.6098" style="stop-color:#BC3F43"/>
		<stop  offset="0.6634" style="stop-color:#A42427"/>
		<stop  offset="0.6758" style="stop-color:#9D1C20"/>
		<stop  offset="0.7533" style="stop-color:#91171B"/>
		<stop  offset="0.8927" style="stop-color:#720B0D"/>
		<stop  offset="1" style="stop-color:#550000"/>
	</radialGradient>
	<path fill="url(#SVGID_13_)" d="M19.546,31.184c0,0,5.837-10.619,11.197-6.898c3.388,2.352,1.492,4.428-0.59,4.72
		c-0.774,0.109-2.468-0.379-3.729-1.36c-0.676-0.526-1.4-0.639-1.997-0.526c-0.521,0.098-0.895,0.399-1.301,1.106
		C22.75,28.879,21.829,30.863,19.546,31.184z"/>
	<radialGradient id="SVGID_14_" cx="13.7554" cy="18.2383" r="12.3672" gradientUnits="userSpaceOnUse">
		<stop  offset="0" style="stop-color:#FFFFFF"/>
		<stop  offset="0.0497" style="stop-color:#FCEAEB"/>
		<stop  offset="0.1526" style="stop-color:#F3B3B6"/>
		<stop  offset="0.2984" style="stop-color:#E65D62"/>
		<stop  offset="0.3956" style="stop-color:#DC1F26"/>
		<stop  offset="1" style="stop-color:#390000"/>
	</radialGradient>
	<circle fill="url(#SVGID_14_)" cx="13.49" cy="19.553" r="1.159"/>
	<circle cx="13.49" cy="19.553" r="0.545"/>
	<radialGradient id="SVGID_15_" cx="20.0137" cy="16.6265" r="6.8534" gradientUnits="userSpaceOnUse">
		<stop  offset="0" style="stop-color:#F37B60"/>
		<stop  offset="0.1083" style="stop-color:#EE6653"/>
		<stop  offset="0.331" style="stop-color:#E03031"/>
		<stop  offset="0.3956" style="stop-color:#DC1F26"/>
		<stop  offset="1" style="stop-color:#390000"/>
	</radialGradient>
	<circle fill="url(#SVGID_15_)" cx="19.075" cy="17.416" r="1.385"/>
	<circle cx="19.075" cy="17.416" r="0.895"/>
	<circle fill="#FFFFFF" cx="19.542" cy="18.14" r="0.379"/>
	<circle fill="#FFFFFF" cx="13.216" cy="19.268" r="0.245"/>
</g>
</svg>
