<?xml version="1.0" encoding="utf-8"?>
<!-- Generator: Adobe Illustrator 15.1.0, SVG Export Plug-In . SVG Version: 6.00 Build 0)  -->
<!DOCTYPE svg PUBLIC "-//W3C//DTD SVG 1.1//EN" "http://www.w3.org/Graphics/SVG/1.1/DTD/svg11.dtd">
<svg version="1.1" id="Layer_1" xmlns="http://www.w3.org/2000/svg" xmlns:xlink="http://www.w3.org/1999/xlink" x="0px" y="0px"
	 width="35px" height="35px" viewBox="0 0 35 35" enable-background="new 0 0 35 35" xml:space="preserve">
<g>
	
		<radialGradient id="SVGID_1_" cx="2301.0381" cy="-91.3955" r="33.9528" fx="2303.6201" fy="-86.1956" gradientTransform="matrix(0.9594 -0.282 0.282 0.9594 -2166.3511 748.3188)" gradientUnits="userSpaceOnUse">
		<stop  offset="0" style="stop-color:#FFF100"/>
		<stop  offset="0.143" style="stop-color:#FFEE01"/>
		<stop  offset="0.2395" style="stop-color:#FEE504"/>
		<stop  offset="0.3223" style="stop-color:#FCD609"/>
		<stop  offset="0.3974" style="stop-color:#FAC110"/>
		<stop  offset="0.4672" style="stop-color:#F7A519"/>
		<stop  offset="0.5323" style="stop-color:#F48324"/>
		<stop  offset="0.5495" style="stop-color:#F37927"/>
		<stop  offset="0.7143" style="stop-color:#FFF100"/>
	</radialGradient>
	<circle fill="url(#SVGID_1_)" cx="17.5" cy="17.5" r="17.496"/>
	<linearGradient id="SVGID_2_" gradientUnits="userSpaceOnUse" x1="14.6797" y1="2.1411" x2="18.4084" y2="18.2997">
		<stop  offset="0" style="stop-color:#FFF4CB"/>
		<stop  offset="1" style="stop-color:#FFF100"/>
	</linearGradient>
	<path fill="url(#SVGID_2_)" d="M28.545,8.519c-0.695-4.95-6.633-8.208-13.263-7.276C8.652,2.173,3.842,6.94,4.537,11.89
		c0.695,4.95,6.633,8.208,13.263,7.276C24.429,18.236,29.239,13.469,28.545,8.519z"/>
	
		<linearGradient id="SVGID_3_" gradientUnits="userSpaceOnUse" x1="36.4434" y1="-4.48" x2="22.0746" y2="-17.5077" gradientTransform="matrix(0.9984 -0.0567 0.0567 0.9984 -11.9609 33.8116)">
		<stop  offset="0" style="stop-color:#FFF100"/>
		<stop  offset="0.2753" style="stop-color:#FEDC0B"/>
		<stop  offset="0.6813" style="stop-color:#FCB61F"/>
		<stop  offset="1" style="stop-color:#DC5A26"/>
	</linearGradient>
	<path fill="url(#SVGID_3_)" d="M25.257,23.08c-0.522-3.014-3.258-5.057-6.113-4.562c-2.854,0.496-4.744,3.338-4.223,6.352
		s3.259,5.056,6.113,4.561C23.888,28.937,25.778,26.093,25.257,23.08z"/>
	<radialGradient id="SVGID_4_" cx="14.8115" cy="28.5498" r="12.426" gradientUnits="userSpaceOnUse">
		<stop  offset="0" style="stop-color:#C83829"/>
		<stop  offset="1" style="stop-color:#000000"/>
	</radialGradient>
	<path fill="url(#SVGID_4_)" d="M24.635,22.729c-0.475-2.743-2.968-4.603-5.567-4.153s-4.32,3.039-3.846,5.785
		c0.476,2.743,2.968,4.604,5.567,4.153S25.11,25.475,24.635,22.729z"/>
	
		<linearGradient id="SVGID_5_" gradientUnits="userSpaceOnUse" x1="57.6875" y1="-99.3804" x2="55.561" y2="-107.8863" gradientTransform="matrix(0.9795 -0.2016 0.1986 0.9648 -23.6686 124.0943)">
		<stop  offset="0" style="stop-color:#FCED11"/>
		<stop  offset="0.2927" style="stop-color:#FCD816"/>
		<stop  offset="0.6813" style="stop-color:#FCB61F"/>
		<stop  offset="1" style="stop-color:#DC5A26"/>
	</linearGradient>
	<path fill="url(#SVGID_5_)" d="M16.828,11.041c1.404,3.899,0.093,7.93-2.929,9.005c-3.021,1.073-6.609-1.218-8.013-5.116
		c-1.404-3.899-0.093-7.931,2.929-9.004C11.838,4.853,15.425,7.142,16.828,11.041z"/>
	
		<radialGradient id="SVGID_6_" cx="264.8369" cy="-135.1123" r="3.8227" gradientTransform="matrix(0.9431 -0.327 0.3293 0.8919 -192.9282 221.7075)" gradientUnits="userSpaceOnUse">
		<stop  offset="0" style="stop-color:#FFFFFF"/>
		<stop  offset="0.0903" style="stop-color:#F9FDFE"/>
		<stop  offset="0.2118" style="stop-color:#E8F7FC"/>
		<stop  offset="0.3511" style="stop-color:#CCEDF8"/>
		<stop  offset="0.5024" style="stop-color:#A5DFF2"/>
		<stop  offset="0.6429" style="stop-color:#7AD0EC"/>
	</radialGradient>
	<path fill="url(#SVGID_6_)" d="M16.584,11.442c1.276,3.459,0.051,7.048-2.738,8.015c-2.79,0.969-6.087-1.053-7.364-4.512
		C5.205,11.486,6.431,7.898,9.22,6.93C12.01,5.963,15.307,7.983,16.584,11.442z"/>
	
		<linearGradient id="SVGID_7_" gradientUnits="userSpaceOnUse" x1="1474.7617" y1="30.334" x2="1479.7168" y2="21.4722" gradientTransform="matrix(-0.9889 0.1486 0.1486 0.9889 1465.6615 -236.4417)">
		<stop  offset="0" style="stop-color:#FFFFFF"/>
		<stop  offset="0.2964" style="stop-color:#FDFEFF"/>
		<stop  offset="0.4031" style="stop-color:#F6FCFE"/>
		<stop  offset="0.4792" style="stop-color:#EBF8FC"/>
		<stop  offset="0.5408" style="stop-color:#DAF2FA"/>
		<stop  offset="0.5935" style="stop-color:#C4EAF7"/>
		<stop  offset="0.6401" style="stop-color:#A8E0F3"/>
		<stop  offset="0.6813" style="stop-color:#89D5EE"/>
		<stop  offset="0.6978" style="stop-color:#7AD0EC"/>
	</linearGradient>
	<path fill="url(#SVGID_7_)" d="M6.887,11.546C6.573,9.458,7.934,7.523,9.926,7.224c1.992-0.3,3.861,1.151,4.175,3.238
		c0.313,2.088-1.047,4.023-3.039,4.322C9.07,15.083,7.201,13.633,6.887,11.546z"/>
	
		<linearGradient id="SVGID_8_" gradientUnits="userSpaceOnUse" x1="23.7773" y1="7.3242" x2="20.3846" y2="0.8475" gradientTransform="matrix(0.9991 -0.0041 -0.0041 0.9799 1.3618 6.645)">
		<stop  offset="0" style="stop-color:#FCED11"/>
		<stop  offset="0.2927" style="stop-color:#FCD816"/>
		<stop  offset="0.6813" style="stop-color:#FCB61F"/>
		<stop  offset="1" style="stop-color:#DC5A26"/>
	</linearGradient>
	<path fill="url(#SVGID_8_)" d="M17.521,10.591c0.191,4.076,2.918,7.245,6.088,7.075c3.172-0.169,5.588-3.611,5.396-7.688
		c-0.192-4.076-2.918-7.244-6.089-7.075C19.745,3.072,17.329,6.514,17.521,10.591z"/>
	
		<radialGradient id="SVGID_9_" cx="1946.0488" cy="113.6201" r="4.5013" gradientTransform="matrix(-0.998 0.0551 0.0425 0.9482 1960.7743 -202.9639)" gradientUnits="userSpaceOnUse">
		<stop  offset="0" style="stop-color:#FFFFFF"/>
		<stop  offset="0.0903" style="stop-color:#F9FDFE"/>
		<stop  offset="0.2118" style="stop-color:#E8F7FC"/>
		<stop  offset="0.3511" style="stop-color:#CCEDF8"/>
		<stop  offset="0.5024" style="stop-color:#A5DFF2"/>
		<stop  offset="0.6429" style="stop-color:#7AD0EC"/>
	</radialGradient>
	<path fill="url(#SVGID_9_)" d="M17.895,10.705c0.164,3.677,2.691,6.527,5.644,6.364c2.952-0.164,5.212-3.277,5.047-6.955
		c-0.165-3.677-2.692-6.527-5.644-6.364C19.989,3.914,17.729,7.027,17.895,10.705z"/>
	
		<linearGradient id="SVGID_10_" gradientUnits="userSpaceOnUse" x1="-227.9429" y1="-51.3428" x2="-222.9885" y2="-60.2034" gradientTransform="matrix(0.9703 -0.2421 0.2421 0.9703 256.3709 4.6536)">
		<stop  offset="0" style="stop-color:#FFFFFF"/>
		<stop  offset="0.2964" style="stop-color:#FDFEFF"/>
		<stop  offset="0.4031" style="stop-color:#F6FCFE"/>
		<stop  offset="0.4792" style="stop-color:#EBF8FC"/>
		<stop  offset="0.5408" style="stop-color:#DAF2FA"/>
		<stop  offset="0.5935" style="stop-color:#C4EAF7"/>
		<stop  offset="0.6401" style="stop-color:#A8E0F3"/>
		<stop  offset="0.6813" style="stop-color:#89D5EE"/>
		<stop  offset="0.6978" style="stop-color:#7AD0EC"/>
	</linearGradient>
	<path fill="url(#SVGID_10_)" d="M26.865,7.116c-0.512-2.048-2.51-3.314-4.465-2.826c-1.953,0.487-3.124,2.542-2.613,4.592
		c0.511,2.048,2.511,3.313,4.465,2.826C26.206,11.22,27.376,9.164,26.865,7.116z"/>
	<g>
		
			<ellipse transform="matrix(0.9877 -0.1567 0.1567 0.9877 -1.4655 3.7951)" fill="#231F20" cx="23.344" cy="11.195" rx="1.002" ry="1.464"/>
		
			<ellipse transform="matrix(-0.9986 0.0537 -0.0537 -0.9986 46.6207 20.6157)" fill="#FFFFFF" cx="23.033" cy="10.935" rx="0.436" ry="0.624"/>
	</g>
	<g>
		
			<ellipse transform="matrix(0.9684 -0.2495 0.2495 0.9684 -3.1203 3.4983)" fill="#231F20" cx="12.241" cy="14.059" rx="1.009" ry="1.475"/>
		
			<linearGradient id="SVGID_11_" gradientUnits="userSpaceOnUse" x1="1474.29" y1="32.1484" x2="1475.4337" y2="30.8452" gradientTransform="matrix(-0.9889 0.1486 0.1486 0.9889 1465.6615 -236.4417)">
			<stop  offset="0" style="stop-color:#231F20"/>
			<stop  offset="0.3762" style="stop-color:#363335"/>
			<stop  offset="1" style="stop-color:#5C5D60"/>
		</linearGradient>
		<path fill="url(#SVGID_11_)" d="M11.502,14.111c0.069,0.464,0.389,0.8,0.713,0.752c0.324-0.049,0.531-0.464,0.462-0.927
			c-0.07-0.464-0.39-0.801-0.714-0.752C11.639,13.232,11.433,13.647,11.502,14.111z"/>
		
			<ellipse transform="matrix(-0.964 0.2661 -0.2661 -0.964 27.6 23.6625)" fill="#FFFFFF" cx="12.197" cy="13.701" rx="0.38" ry="0.544"/>
	</g>
	<linearGradient id="SVGID_12_" gradientUnits="userSpaceOnUse" x1="22.9014" y1="17.6777" x2="23.3402" y2="12.8113">
		<stop  offset="0" style="stop-color:#FFF100"/>
		<stop  offset="0.1954" style="stop-color:#FEDC0B"/>
		<stop  offset="0.4835" style="stop-color:#FCB61F"/>
		<stop  offset="1" style="stop-color:#DC5A26"/>
	</linearGradient>
	<path fill="url(#SVGID_12_)" d="M18.51,13.474c0,0,4.567-1.886,9.512,0.315c0,0-1.387,3.546-4.64,3.403
		C19.827,17.114,18.51,13.474,18.51,13.474z"/>
	<linearGradient id="SVGID_13_" gradientUnits="userSpaceOnUse" x1="15.0264" y1="19.6953" x2="12.8869" y2="15.9437">
		<stop  offset="0" style="stop-color:#FFF100"/>
		<stop  offset="0.2753" style="stop-color:#FEDC0B"/>
		<stop  offset="0.6813" style="stop-color:#FCB61F"/>
		<stop  offset="1" style="stop-color:#DC5A26"/>
	</linearGradient>
	<path fill="url(#SVGID_13_)" d="M17.078,13.828c0,0-4.144,0.34-8.235,4.489c0,0,2.454,2.399,5.249,1.115
		C17.637,17.773,17.078,13.828,17.078,13.828z"/>
	<g>
		<linearGradient id="SVGID_14_" gradientUnits="userSpaceOnUse" x1="6.6597" y1="6.105" x2="11.8088" y2="13.5589">
			<stop  offset="0" style="stop-color:#FFF100"/>
			<stop  offset="0.2753" style="stop-color:#FEDC0B"/>
			<stop  offset="0.6813" style="stop-color:#FCB61F"/>
			<stop  offset="1" style="stop-color:#DC5A26"/>
		</linearGradient>
		<path fill="url(#SVGID_14_)" d="M16.812,12.167c-0.08-0.359-0.097-0.365-0.229-0.724C15.307,7.983,12.01,5.963,9.22,6.93
			c-2.789,0.968-4.015,4.556-2.738,8.015c0.403,1.091,1.222,2.238,1.948,2.995C9.414,15.998,12.101,13.186,16.812,12.167z"/>
	</g>
	<g>
		<linearGradient id="SVGID_15_" gradientUnits="userSpaceOnUse" x1="24.5029" y1="2.0732" x2="22.9987" y2="12.0007">
			<stop  offset="0" style="stop-color:#FFF100"/>
			<stop  offset="0.2753" style="stop-color:#FEDC0B"/>
			<stop  offset="0.6813" style="stop-color:#FCB61F"/>
			<stop  offset="1" style="stop-color:#DC5A26"/>
		</linearGradient>
		<path fill="url(#SVGID_15_)" d="M18.085,12.016c2.727-0.474,6.748-0.419,9.945,1.583c0.426-1.028,0.601-2.463,0.555-3.485
			c-0.165-3.677-2.692-6.527-5.644-6.364c-2.952,0.164-5.212,3.276-5.047,6.955C17.918,11.238,17.969,11.525,18.085,12.016z"/>
	</g>
	<linearGradient id="SVGID_16_" gradientUnits="userSpaceOnUse" x1="7.1436" y1="17.5107" x2="20.7623" y2="10.429">
		<stop  offset="0" style="stop-color:#FFF100"/>
		<stop  offset="0.2753" style="stop-color:#FEDC0B"/>
		<stop  offset="0.6813" style="stop-color:#FCB61F"/>
		<stop  offset="1" style="stop-color:#DC5A26"/>
	</linearGradient>
	<path fill="url(#SVGID_16_)" d="M16.817,12c0,0-6.467,1.212-8.388,5.941c0,0,2.298-4.351,8.549-5.132L16.817,12z"/>
	<linearGradient id="SVGID_17_" gradientUnits="userSpaceOnUse" x1="18.501" y1="9.2461" x2="29.9164" y2="18.7449">
		<stop  offset="0" style="stop-color:#FFF100"/>
		<stop  offset="0.2753" style="stop-color:#FEDC0B"/>
		<stop  offset="0.6813" style="stop-color:#FCB61F"/>
		<stop  offset="1" style="stop-color:#DC5A26"/>
	</linearGradient>
	<path fill="url(#SVGID_17_)" d="M18.077,11.891c0,0,6.327-1.552,9.953,1.709c0,0-3.069-2.584-9.794-0.992L18.077,11.891z"/>
</g>
</svg>
