<?xml version="1.0" encoding="utf-8"?>
<!-- Generator: Adobe Illustrator 15.1.0, SVG Export Plug-In . SVG Version: 6.00 Build 0)  -->
<!DOCTYPE svg PUBLIC "-//W3C//DTD SVG 1.1//EN" "http://www.w3.org/Graphics/SVG/1.1/DTD/svg11.dtd">
<svg version="1.1" id="Layer_1" xmlns="http://www.w3.org/2000/svg" xmlns:xlink="http://www.w3.org/1999/xlink" x="0px" y="0px"
	 width="35px" height="35px" viewBox="0 0 35 35" enable-background="new 0 0 35 35" xml:space="preserve">
<g>
	
		<radialGradient id="SVGID_1_" cx="4568.0322" cy="-111.1689" r="33.9626" fx="4570.6152" fy="-105.9675" gradientTransform="matrix(-1 0.0081 0.0081 1 4587.0254 85.6417)" gradientUnits="userSpaceOnUse">
		<stop  offset="0" style="stop-color:#FFF100"/>
		<stop  offset="0.143" style="stop-color:#FFEE01"/>
		<stop  offset="0.2395" style="stop-color:#FEE504"/>
		<stop  offset="0.3223" style="stop-color:#FCD609"/>
		<stop  offset="0.3974" style="stop-color:#FAC110"/>
		<stop  offset="0.4672" style="stop-color:#F7A519"/>
		<stop  offset="0.5323" style="stop-color:#F48324"/>
		<stop  offset="0.5495" style="stop-color:#F37927"/>
		<stop  offset="0.7143" style="stop-color:#FFF100"/>
	</radialGradient>
	<circle fill="url(#SVGID_1_)" cx="18.018" cy="17.5" r="17.5"/>
	
		<linearGradient id="SVGID_2_" gradientUnits="userSpaceOnUse" x1="4568.5156" y1="-117.8872" x2="4568.5156" y2="-102.9652" gradientTransform="matrix(-1 0.0081 0.0081 1 4587.0254 85.6417)">
		<stop  offset="0" style="stop-color:#FFF4CB"/>
		<stop  offset="1" style="stop-color:#FFF100"/>
	</linearGradient>
	<path fill="url(#SVGID_2_)" d="M5.628,10.915c-0.041-4.999,5.354-9.096,12.051-9.15c6.696-0.055,12.157,3.955,12.198,8.953
		c0.04,5-5.356,9.097-12.052,9.151C11.129,19.923,5.668,15.914,5.628,10.915z"/>
	<linearGradient id="SVGID_3_" gradientUnits="userSpaceOnUse" x1="12.833" y1="17.4863" x2="10.5517" y2="8.3614">
		<stop  offset="0.6813" style="stop-color:#FCB61F"/>
		<stop  offset="1" style="stop-color:#DC5A26"/>
	</linearGradient>
	<path fill="url(#SVGID_3_)" d="M17.946,12.392c0.632,4.468-1.618,8.479-5.024,8.961c-3.407,0.482-6.681-2.749-7.313-7.217
		C4.977,9.67,7.227,5.657,10.634,5.176C14.04,4.694,17.314,7.924,17.946,12.392z"/>
	
		<radialGradient id="SVGID_4_" cx="204.8145" cy="-20.938" r="13.6037" gradientTransform="matrix(0.9896 -0.1301 0.1427 0.9399 -185.4566 64.6579)" gradientUnits="userSpaceOnUse">
		<stop  offset="0" style="stop-color:#FFFFFF"/>
		<stop  offset="0.3734" style="stop-color:#FDFEFF"/>
		<stop  offset="0.5079" style="stop-color:#F6FCFE"/>
		<stop  offset="0.6038" style="stop-color:#EBF8FC"/>
		<stop  offset="0.6813" style="stop-color:#DAF2FA"/>
		<stop  offset="0.7477" style="stop-color:#C4EAF7"/>
		<stop  offset="0.8064" style="stop-color:#A8E0F3"/>
		<stop  offset="0.8583" style="stop-color:#89D5EE"/>
		<stop  offset="0.8791" style="stop-color:#7AD0EC"/>
	</radialGradient>
	<path fill="url(#SVGID_4_)" d="M17.619,13.199c0.572,3.772-1.419,7.152-4.446,7.549c-3.028,0.398-5.947-2.335-6.521-6.107
		c-0.572-3.772,1.418-7.152,4.446-7.55C14.127,6.693,17.046,9.428,17.619,13.199z"/>
	
		<linearGradient id="SVGID_5_" gradientUnits="userSpaceOnUse" x1="1449.3379" y1="37.4199" x2="1454.4631" y2="28.2536" gradientTransform="matrix(-1 -0.0059 -0.0059 1 1462.1154 -15.5106)">
		<stop  offset="0" style="stop-color:#FFFFFF"/>
		<stop  offset="0.2964" style="stop-color:#FDFEFF"/>
		<stop  offset="0.4031" style="stop-color:#F6FCFE"/>
		<stop  offset="0.4792" style="stop-color:#EBF8FC"/>
		<stop  offset="0.5408" style="stop-color:#DAF2FA"/>
		<stop  offset="0.5935" style="stop-color:#C4EAF7"/>
		<stop  offset="0.6401" style="stop-color:#A8E0F3"/>
		<stop  offset="0.6813" style="stop-color:#89D5EE"/>
		<stop  offset="0.6978" style="stop-color:#7AD0EC"/>
	</linearGradient>
	<path fill="url(#SVGID_5_)" d="M7.767,11.462c0.013-2.184,1.713-3.944,3.796-3.932c2.084,0.011,3.763,1.792,3.75,3.976
		c-0.013,2.184-1.713,3.945-3.797,3.933C9.433,15.426,7.754,13.646,7.767,11.462z"/>
	<linearGradient id="SVGID_6_" gradientUnits="userSpaceOnUse" x1="23.2061" y1="17.709" x2="24.994" y2="10.2488">
		<stop  offset="0.6813" style="stop-color:#FCB61F"/>
		<stop  offset="1" style="stop-color:#DC5A26"/>
	</linearGradient>
	<path fill="url(#SVGID_6_)" d="M18.194,11.978c-0.687,4.459,1.514,8.499,4.914,9.023c3.4,0.523,6.715-2.667,7.402-7.126
		c0.687-4.46-1.514-8.499-4.915-9.023C22.196,4.329,18.882,7.518,18.194,11.978z"/>
	
		<radialGradient id="SVGID_7_" cx="1974.2412" cy="240.7363" r="13.6022" gradientTransform="matrix(-0.9886 -0.1472 -0.1495 0.9373 2009.6348 82.875)" gradientUnits="userSpaceOnUse">
		<stop  offset="0" style="stop-color:#FFFFFF"/>
		<stop  offset="0.3734" style="stop-color:#FDFEFF"/>
		<stop  offset="0.5079" style="stop-color:#F6FCFE"/>
		<stop  offset="0.6038" style="stop-color:#EBF8FC"/>
		<stop  offset="0.6813" style="stop-color:#DAF2FA"/>
		<stop  offset="0.7477" style="stop-color:#C4EAF7"/>
		<stop  offset="0.8064" style="stop-color:#A8E0F3"/>
		<stop  offset="0.8583" style="stop-color:#89D5EE"/>
		<stop  offset="0.8791" style="stop-color:#7AD0EC"/>
	</radialGradient>
	<path fill="url(#SVGID_7_)" d="M18.544,12.758c-0.6,3.761,1.367,7.175,4.392,7.625c3.025,0.45,5.964-2.233,6.564-5.995
		c0.6-3.76-1.367-7.174-4.392-7.625C22.082,6.314,19.145,8.998,18.544,12.758z"/>
	
		<linearGradient id="SVGID_8_" gradientUnits="userSpaceOnUse" x1="-277.4219" y1="58.9736" x2="-272.2968" y2="49.8076" gradientTransform="matrix(0.9991 -0.0415 0.0415 0.9991 298.375 -57.3595)">
		<stop  offset="0" style="stop-color:#FFFFFF"/>
		<stop  offset="0.2964" style="stop-color:#FDFEFF"/>
		<stop  offset="0.4031" style="stop-color:#F6FCFE"/>
		<stop  offset="0.4792" style="stop-color:#EBF8FC"/>
		<stop  offset="0.5408" style="stop-color:#DAF2FA"/>
		<stop  offset="0.5935" style="stop-color:#C4EAF7"/>
		<stop  offset="0.6401" style="stop-color:#A8E0F3"/>
		<stop  offset="0.6813" style="stop-color:#89D5EE"/>
		<stop  offset="0.6978" style="stop-color:#7AD0EC"/>
	</linearGradient>
	<path fill="url(#SVGID_8_)" d="M28.382,10.992c-0.09-2.182-1.852-3.881-3.934-3.794c-2.081,0.085-3.696,1.925-3.605,4.107
		c0.091,2.182,1.853,3.88,3.934,3.793C26.858,15.014,28.473,13.175,28.382,10.992z"/>
	<g>
		
			<ellipse transform="matrix(0.9988 -0.0491 0.0491 0.9988 -0.6931 0.7935)" fill="#231F20" cx="15.817" cy="14.516" rx="1.533" ry="2.239"/>
		
			<linearGradient id="SVGID_9_" gradientUnits="userSpaceOnUse" x1="1509.6309" y1="146.2881" x2="1511.3691" y2="144.3073" gradientTransform="matrix(-0.9985 -0.0538 -0.0538 0.9985 1531.4341 -49.7349)">
			<stop  offset="0" style="stop-color:#231F20"/>
			<stop  offset="0.3762" style="stop-color:#363335"/>
			<stop  offset="1" style="stop-color:#5C5D60"/>
		</linearGradient>
		<path fill="url(#SVGID_9_)" d="M14.702,14.369c-0.038,0.71,0.333,1.309,0.831,1.336c0.498,0.026,0.932-0.528,0.97-1.239
			c0.039-0.711-0.333-1.31-0.831-1.337C15.175,13.103,14.741,13.657,14.702,14.369z"/>
		
			<ellipse transform="matrix(-0.9978 0.0659 -0.0659 -0.9978 32.6117 26.8637)" fill="#FFFFFF" cx="15.863" cy="13.97" rx="0.578" ry="0.826"/>
	</g>
	<g>
		
			<ellipse transform="matrix(-0.9988 -0.0489 0.0489 -0.9988 39.8026 29.7725)" fill="#231F20" cx="20.266" cy="14.399" rx="1.532" ry="2.239"/>
		
			<linearGradient id="SVGID_10_" gradientUnits="userSpaceOnUse" x1="-2948.0195" y1="-94.1543" x2="-2946.282" y2="-96.1343" gradientTransform="matrix(0.9985 -0.0538 0.0538 0.9985 2968.7788 -49.7349)">
			<stop  offset="0" style="stop-color:#231F20"/>
			<stop  offset="0.3762" style="stop-color:#363335"/>
			<stop  offset="1" style="stop-color:#5C5D60"/>
		</linearGradient>
		<path fill="url(#SVGID_10_)" d="M21.379,14.252c0.039,0.71-0.333,1.309-0.83,1.336c-0.498,0.026-0.932-0.528-0.97-1.24
			c-0.039-0.711,0.333-1.309,0.831-1.336C20.906,12.985,21.341,13.541,21.379,14.252z"/>
		
			<ellipse transform="matrix(0.9979 0.0651 -0.0651 0.9979 0.9441 -1.2861)" fill="#FFFFFF" cx="20.219" cy="13.853" rx="0.578" ry="0.826"/>
	</g>
	<path d="M17.187,21.525c0,0,1.269-2.428,2.925,0.111C20.111,21.637,18.896,20.367,17.187,21.525z"/>
	<g>
		<linearGradient id="SVGID_11_" gradientUnits="userSpaceOnUse" x1="12.1851" y1="16.8442" x2="12.1851" y2="10.5629">
			<stop  offset="0" style="stop-color:#FFFFFF"/>
			<stop  offset="0.1171" style="stop-color:#B2EAF7"/>
			<stop  offset="0.2259" style="stop-color:#73D9F0"/>
			<stop  offset="0.3241" style="stop-color:#41CBEB"/>
			<stop  offset="0.4096" style="stop-color:#1EC1E7"/>
			<stop  offset="0.4791" style="stop-color:#08BBE5"/>
			<stop  offset="0.5241" style="stop-color:#00B9E4"/>
			<stop  offset="0.5827" style="stop-color:#00B0D9"/>
			<stop  offset="0.685" style="stop-color:#0097BC"/>
			<stop  offset="0.8189" style="stop-color:#006F8E"/>
			<stop  offset="0.9775" style="stop-color:#00384E"/>
			<stop  offset="1" style="stop-color:#003044"/>
		</linearGradient>
		<path fill="url(#SVGID_11_)" d="M17.712,14.211c-1.624,1.198-2.493-0.713-4.283,0.104c-1.888,0.863-2.914-1.025-4.598,0.042
			c-0.947,0.601-1.7,0.5-2.177,0.295c0.577,3.766,3.493,6.495,6.519,6.096C15.927,20.387,17.821,17.558,17.712,14.211z"/>
	</g>
	<g>
		<linearGradient id="SVGID_12_" gradientUnits="userSpaceOnUse" x1="23.9824" y1="17.5576" x2="23.9824" y2="10.5627">
			<stop  offset="0" style="stop-color:#FFFFFF"/>
			<stop  offset="0.1171" style="stop-color:#B2EAF7"/>
			<stop  offset="0.2259" style="stop-color:#73D9F0"/>
			<stop  offset="0.3241" style="stop-color:#41CBEB"/>
			<stop  offset="0.4096" style="stop-color:#1EC1E7"/>
			<stop  offset="0.4791" style="stop-color:#08BBE5"/>
			<stop  offset="0.5241" style="stop-color:#00B9E4"/>
			<stop  offset="0.5827" style="stop-color:#00B0D9"/>
			<stop  offset="0.685" style="stop-color:#0097BC"/>
			<stop  offset="0.8189" style="stop-color:#006F8E"/>
			<stop  offset="0.9775" style="stop-color:#00384E"/>
			<stop  offset="1" style="stop-color:#003044"/>
		</linearGradient>
		<path fill="url(#SVGID_12_)" d="M29.525,14.203c-1.698-0.385-2.445,1.294-4.226,0.404c-2.145-1.072-2.444,0.986-4.289,0.043
			c-1.497-0.766-2.316-0.514-2.571-0.393c0.041,2.229,0.977,4.192,2.457,5.279c1.866,0.413,4.394,0.057,6.131-0.483
			c1.238-1.085,2.164-2.731,2.473-4.664C29.51,14.327,29.517,14.265,29.525,14.203z"/>
	</g>
	<radialGradient id="SVGID_13_" cx="27.7334" cy="10.562" r="7.521" gradientUnits="userSpaceOnUse">
		<stop  offset="0" style="stop-color:#FFFFFF"/>
		<stop  offset="0.1171" style="stop-color:#B2EAF7"/>
		<stop  offset="0.2259" style="stop-color:#73D9F0"/>
		<stop  offset="0.3241" style="stop-color:#41CBEB"/>
		<stop  offset="0.4096" style="stop-color:#1EC1E7"/>
		<stop  offset="0.4791" style="stop-color:#08BBE5"/>
		<stop  offset="0.5241" style="stop-color:#00B9E4"/>
		<stop  offset="0.5827" style="stop-color:#00B0D9"/>
		<stop  offset="0.685" style="stop-color:#0097BC"/>
		<stop  offset="0.8189" style="stop-color:#006F8E"/>
		<stop  offset="0.9775" style="stop-color:#00384E"/>
		<stop  offset="1" style="stop-color:#003044"/>
	</radialGradient>
	<path fill="url(#SVGID_13_)" d="M18.439,14.257c0,0,1.079-0.719,2.813,0.209c1.733,0.929,1.538-1.155,3.993-0.093
		c2.074,0.898,1.842-0.774,4.279-0.17c0,0-0.767-0.287-1.928,0.379c-1.14,0.655-1.671,0.503-2.6,0.07
		c-0.928-0.433-1.485-0.186-2.197,0.217c-0.712,0.402-1.053,0.355-2.484-0.41C19.204,13.864,18.439,14.257,18.439,14.257z"/>
	<linearGradient id="SVGID_14_" gradientUnits="userSpaceOnUse" x1="29.998" y1="28.3623" x2="23.4637" y2="16.8804">
		<stop  offset="0" style="stop-color:#FCB61F"/>
		<stop  offset="0.6417" style="stop-color:#DC5A26"/>
		<stop  offset="1" style="stop-color:#732900"/>
	</linearGradient>
	<circle fill="url(#SVGID_14_)" cx="25.958" cy="21.264" r="6.322"/>
	
		<radialGradient id="SVGID_15_" cx="4416.0312" cy="16.8691" r="11.8941" gradientTransform="matrix(-1 0 0 1 4436.1328 0)" gradientUnits="userSpaceOnUse">
		<stop  offset="0" style="stop-color:#A3CD39"/>
		<stop  offset="0.2069" style="stop-color:#AFD134"/>
		<stop  offset="0.5755" style="stop-color:#CDDB27"/>
		<stop  offset="0.6684" style="stop-color:#D6DE23"/>
		<stop  offset="0.7393" style="stop-color:#D9D923"/>
		<stop  offset="0.8292" style="stop-color:#E0C924"/>
		<stop  offset="0.9289" style="stop-color:#ECAF25"/>
		<stop  offset="1" style="stop-color:#F79826"/>
	</radialGradient>
	<circle fill="url(#SVGID_15_)" cx="25.295" cy="21.572" r="6.322"/>
	<radialGradient id="SVGID_16_" cx="20.1221" cy="9.3467" r="15.0166" gradientUnits="userSpaceOnUse">
		<stop  offset="0" style="stop-color:#FFFFFF"/>
		<stop  offset="0.1171" style="stop-color:#B2EAF7"/>
		<stop  offset="0.2259" style="stop-color:#73D9F0"/>
		<stop  offset="0.3241" style="stop-color:#41CBEB"/>
		<stop  offset="0.4096" style="stop-color:#1EC1E7"/>
		<stop  offset="0.4791" style="stop-color:#08BBE5"/>
		<stop  offset="0.5241" style="stop-color:#00B9E4"/>
		<stop  offset="0.5827" style="stop-color:#00B0D9"/>
		<stop  offset="0.685" style="stop-color:#0097BC"/>
		<stop  offset="0.8189" style="stop-color:#006F8E"/>
		<stop  offset="0.9775" style="stop-color:#00384E"/>
		<stop  offset="1" style="stop-color:#003044"/>
	</radialGradient>
	<path fill="url(#SVGID_16_)" d="M17.712,14.211c-1.563,1.442-2.493-0.476-4.283,0.341c-1.888,0.862-2.914-1.026-4.598,0.041
		c-0.947,0.602-1.702,0.252-2.179,0.048l0,0c0.477,0.204,1.231,0.081,2.179-0.52c1.684-1.067,2.71,0.821,4.598-0.042
		C15.219,13.263,16.088,15.41,17.712,14.211L17.712,14.211z"/>
	<linearGradient id="SVGID_17_" gradientUnits="userSpaceOnUse" x1="4.1641" y1="26.7725" x2="15.5313" y2="16.175">
		<stop  offset="0" style="stop-color:#FCB61F"/>
		<stop  offset="0.6417" style="stop-color:#DC5A26"/>
		<stop  offset="1" style="stop-color:#732900"/>
	</linearGradient>
	<ellipse fill="url(#SVGID_17_)" cx="10.311" cy="21.041" rx="6.656" ry="6.631"/>
	
		<radialGradient id="SVGID_18_" cx="4428.0742" cy="17.1411" r="10.9816" gradientTransform="matrix(-1 0 0 1 4436.1328 0)" gradientUnits="userSpaceOnUse">
		<stop  offset="0.0107" style="stop-color:#D6DE23"/>
		<stop  offset="0.2221" style="stop-color:#D9D923"/>
		<stop  offset="0.4904" style="stop-color:#E0C924"/>
		<stop  offset="0.7879" style="stop-color:#ECAF25"/>
		<stop  offset="1" style="stop-color:#F79826"/>
	</radialGradient>
	<circle fill="url(#SVGID_18_)" cx="11.25" cy="22.07" r="6.486"/>
	
		<radialGradient id="SVGID_19_" cx="4421.6211" cy="16.6724" r="11.462" gradientTransform="matrix(-1 0 0 1 4436.1328 0)" gradientUnits="userSpaceOnUse">
		<stop  offset="0" style="stop-color:#A3CD39"/>
		<stop  offset="0.2069" style="stop-color:#AFD134"/>
		<stop  offset="0.5755" style="stop-color:#CDDB27"/>
		<stop  offset="0.6684" style="stop-color:#D6DE23"/>
		<stop  offset="0.7393" style="stop-color:#D9D923"/>
		<stop  offset="0.8292" style="stop-color:#E0C924"/>
		<stop  offset="0.9289" style="stop-color:#ECAF25"/>
		<stop  offset="1" style="stop-color:#F79826"/>
	</radialGradient>
	<circle fill="url(#SVGID_19_)" cx="10.801" cy="21.686" r="6.487"/>
	
		<radialGradient id="SVGID_20_" cx="-223.2993" cy="18.2207" r="4.9312" gradientTransform="matrix(0.9807 0.1954 -0.133 0.6677 233.6584 47.4026)" gradientUnits="userSpaceOnUse">
		<stop  offset="0" style="stop-color:#FFFFFF"/>
		<stop  offset="0.0952" style="stop-color:#FDFEF5"/>
		<stop  offset="0.2564" style="stop-color:#F8FADA"/>
		<stop  offset="0.4641" style="stop-color:#F0F3AF"/>
		<stop  offset="0.7101" style="stop-color:#E5EA73"/>
		<stop  offset="0.9859" style="stop-color:#D7DF27"/>
		<stop  offset="1" style="stop-color:#D6DE23"/>
	</radialGradient>
	<path fill="url(#SVGID_20_)" d="M15.05,18.844c0.282-0.74-1.208-2.472-2.811-2.901c-1.858-0.499-3.803,0.211-3.897,0.997
		c-0.085,0.706,1.001,0.301,3.218,0.907C13.554,18.389,14.687,19.795,15.05,18.844z"/>
</g>
</svg>
