<?xml version="1.0" encoding="utf-8"?>
<!-- Generator: Adobe Illustrator 15.1.0, SVG Export Plug-In . SVG Version: 6.00 Build 0)  -->
<!DOCTYPE svg PUBLIC "-//W3C//DTD SVG 1.1//EN" "http://www.w3.org/Graphics/SVG/1.1/DTD/svg11.dtd">
<svg version="1.1" id="Layer_1" xmlns="http://www.w3.org/2000/svg" xmlns:xlink="http://www.w3.org/1999/xlink" x="0px" y="0px"
	 width="35px" height="35px" viewBox="0 0 35 35" enable-background="new 0 0 35 35" xml:space="preserve">
<g>
	
		<radialGradient id="SVGID_1_" cx="1487.8018" cy="-308.0171" r="33.9509" fx="1490.3837" fy="-302.8175" gradientTransform="matrix(0.9414 -0.3373 0.3373 0.9414 -1281.2661 803.6483)" gradientUnits="userSpaceOnUse">
		<stop  offset="0" style="stop-color:#FFF100"/>
		<stop  offset="0.143" style="stop-color:#FFEE01"/>
		<stop  offset="0.2395" style="stop-color:#FEE504"/>
		<stop  offset="0.3223" style="stop-color:#FCD609"/>
		<stop  offset="0.3974" style="stop-color:#FAC110"/>
		<stop  offset="0.4672" style="stop-color:#F7A519"/>
		<stop  offset="0.5323" style="stop-color:#F48324"/>
		<stop  offset="0.5495" style="stop-color:#F37927"/>
		<stop  offset="0.7143" style="stop-color:#FFF100"/>
	</radialGradient>
	<circle fill="url(#SVGID_1_)" cx="17.711" cy="17.389" r="17.495"/>
	
		<linearGradient id="SVGID_2_" gradientUnits="userSpaceOnUse" x1="1488.3262" y1="-314.7036" x2="1488.3262" y2="-299.7853" gradientTransform="matrix(0.9414 -0.3373 0.3373 0.9414 -1281.2661 803.6483)">
		<stop  offset="0" style="stop-color:#FFF4CB"/>
		<stop  offset="1" style="stop-color:#FFF100"/>
	</linearGradient>
	<path fill="url(#SVGID_2_)" d="M27.116,6.951c-1.686-4.705-8.162-6.689-14.463-4.43C6.351,4.779,2.609,10.425,4.295,15.129
		c1.686,4.705,8.162,6.689,14.464,4.43C25.062,17.301,28.802,11.656,27.116,6.951z"/>
	
		<linearGradient id="SVGID_3_" gradientUnits="userSpaceOnUse" x1="1504.2402" y1="-279.3965" x2="1493.8604" y2="-293.0267" gradientTransform="matrix(0.9366 -0.3504 0.3504 0.9366 -1287.4401 814.7701)">
		<stop  offset="0" style="stop-color:#FFF100"/>
		<stop  offset="0.2753" style="stop-color:#FEDC0B"/>
		<stop  offset="0.6813" style="stop-color:#FCB61F"/>
		<stop  offset="1" style="stop-color:#DC5A26"/>
	</linearGradient>
	<path fill="url(#SVGID_3_)" d="M22.912,25.094c-2.735,1.771-8.311,3.658-12.539,0.025c0,0,9.85,3.514,16.411-4.506
		C26.784,20.613,25.996,23.098,22.912,25.094z"/>
	<path d="M22.742,24.866c-2.876,0.97-7.335,2.382-12.395,0.181c0,0,5.965,2.416,15.84-5.025
		C26.188,20.021,26.223,23.691,22.742,24.866z"/>
	<path d="M27.743,21.451c0,0-0.338-2.08-2.658-1.211C25.085,20.24,27.83,17.638,27.743,21.451z"/>
	<path d="M11.968,24.153c0,0-2.08,0.333-1.215,2.655C10.753,26.809,8.154,24.062,11.968,24.153z"/>
	
		<radialGradient id="SVGID_4_" cx="1590.8008" cy="-188.2422" r="12.0788" gradientTransform="matrix(0.9386 -0.345 0.345 0.9386 -1405.6749 758.1259)" gradientUnits="userSpaceOnUse">
		<stop  offset="0" style="stop-color:#F27D80"/>
		<stop  offset="0.1515" style="stop-color:#F27D80"/>
		<stop  offset="0.1765" style="stop-color:#F27D80"/>
		<stop  offset="0.4024" style="stop-color:#F07B7E"/>
		<stop  offset="0.4838" style="stop-color:#EA7477"/>
		<stop  offset="0.5418" style="stop-color:#E0696C"/>
		<stop  offset="0.5887" style="stop-color:#D1585B"/>
		<stop  offset="0.6289" style="stop-color:#BE4245"/>
		<stop  offset="0.6639" style="stop-color:#A7272B"/>
		<stop  offset="0.6758" style="stop-color:#9D1C20"/>
		<stop  offset="0.7533" style="stop-color:#91171B"/>
		<stop  offset="0.8927" style="stop-color:#720B0D"/>
		<stop  offset="1" style="stop-color:#550000"/>
	</radialGradient>
	<path fill="url(#SVGID_4_)" d="M22.583,22.945c1.504-1.139,2.511-1.896,3.49-1.786c0.979,0.108,6.319,4.674,4.127,6.868
		c-1.938,1.941-5.892-3.343-9.502-2.592C20.698,25.436,19.925,24.957,22.583,22.945z"/>
	
		<linearGradient id="SVGID_5_" gradientUnits="userSpaceOnUse" x1="530.5391" y1="-184.2407" x2="528.2571" y2="-193.3686" gradientTransform="matrix(0.9554 -0.2953 0.2953 0.9554 -440.3858 351.7007)">
		<stop  offset="0" style="stop-color:#FFF7AB"/>
		<stop  offset="0.1291" style="stop-color:#FFED96"/>
		<stop  offset="0.3962" style="stop-color:#FDD45F"/>
		<stop  offset="0.6813" style="stop-color:#FCB61F"/>
		<stop  offset="1" style="stop-color:#DC5A26"/>
	</linearGradient>
	<path fill="url(#SVGID_5_)" d="M15.465,12.622c1.923,4.083,0.959,8.581-2.155,10.049c-3.113,1.466-7.197-0.653-9.12-4.737
		C2.265,13.851,3.23,9.352,6.344,7.885C9.457,6.418,13.541,8.539,15.465,12.622z"/>
	
		<radialGradient id="SVGID_6_" cx="748.0625" cy="-160.3291" r="13.6055" gradientTransform="matrix(0.907 -0.4166 0.4139 0.8559 -598.4823 468.2379)" gradientUnits="userSpaceOnUse">
		<stop  offset="0" style="stop-color:#FFFFFF"/>
		<stop  offset="0.3734" style="stop-color:#FDFEFF"/>
		<stop  offset="0.5079" style="stop-color:#F6FCFE"/>
		<stop  offset="0.6038" style="stop-color:#EBF8FC"/>
		<stop  offset="0.6813" style="stop-color:#DAF2FA"/>
		<stop  offset="0.7477" style="stop-color:#C4EAF7"/>
		<stop  offset="0.8064" style="stop-color:#A8E0F3"/>
		<stop  offset="0.8583" style="stop-color:#89D5EE"/>
		<stop  offset="0.8791" style="stop-color:#7AD0EC"/>
	</radialGradient>
	<path fill="url(#SVGID_6_)" d="M15.39,13.49c1.662,3.435,0.758,7.254-2.019,8.528c-2.776,1.277-6.374-0.475-8.035-3.91
		c-1.662-3.435-0.758-7.254,2.019-8.529S13.729,10.054,15.39,13.49z"/>
	
		<linearGradient id="SVGID_7_" gradientUnits="userSpaceOnUse" x1="1007.2461" y1="-84.4712" x2="1012.3735" y2="-93.6414" gradientTransform="matrix(-0.9699 0.2435 0.2435 0.9699 1008.0602 -148.069)">
		<stop  offset="0" style="stop-color:#FFFFFF"/>
		<stop  offset="0.2964" style="stop-color:#FDFEFF"/>
		<stop  offset="0.4031" style="stop-color:#F6FCFE"/>
		<stop  offset="0.4792" style="stop-color:#EBF8FC"/>
		<stop  offset="0.5408" style="stop-color:#DAF2FA"/>
		<stop  offset="0.5935" style="stop-color:#C4EAF7"/>
		<stop  offset="0.6401" style="stop-color:#A8E0F3"/>
		<stop  offset="0.6813" style="stop-color:#89D5EE"/>
		<stop  offset="0.6978" style="stop-color:#7AD0EC"/>
	</linearGradient>
	<path fill="url(#SVGID_7_)" d="M5.413,14.566c-0.532-2.12,0.676-4.248,2.697-4.756c2.021-0.507,4.093,0.799,4.624,2.918
		c0.532,2.119-0.676,4.248-2.697,4.755C8.015,17.991,5.945,16.685,5.413,14.566z"/>
	
		<linearGradient id="SVGID_8_" gradientUnits="userSpaceOnUse" x1="540.916" y1="-184.019" x2="542.7046" y2="-191.4818" gradientTransform="matrix(0.9554 -0.2953 0.2953 0.9554 -440.3858 351.7007)">
		<stop  offset="0" style="stop-color:#FFF7AB"/>
		<stop  offset="0.1291" style="stop-color:#FFED96"/>
		<stop  offset="0.3962" style="stop-color:#FDD45F"/>
		<stop  offset="0.6813" style="stop-color:#FCB61F"/>
		<stop  offset="1" style="stop-color:#DC5A26"/>
	</linearGradient>
	<path fill="url(#SVGID_8_)" d="M15.58,12.153c0.66,4.464,3.957,7.675,7.361,7.171c3.405-0.505,5.629-4.532,4.969-8.997
		c-0.661-4.464-3.957-7.675-7.362-7.171C17.145,3.661,14.92,7.688,15.58,12.153z"/>
	
		<radialGradient id="SVGID_9_" cx="1494.5088" cy="-49.8286" r="13.6094" gradientTransform="matrix(-0.988 0.1513 0.134 0.9396 1504.0967 -162.5954)" gradientUnits="userSpaceOnUse">
		<stop  offset="0" style="stop-color:#FFFFFF"/>
		<stop  offset="0.3734" style="stop-color:#FDFEFF"/>
		<stop  offset="0.5079" style="stop-color:#F6FCFE"/>
		<stop  offset="0.6038" style="stop-color:#EBF8FC"/>
		<stop  offset="0.6813" style="stop-color:#DAF2FA"/>
		<stop  offset="0.7477" style="stop-color:#C4EAF7"/>
		<stop  offset="0.8064" style="stop-color:#A8E0F3"/>
		<stop  offset="0.8583" style="stop-color:#89D5EE"/>
		<stop  offset="0.8791" style="stop-color:#7AD0EC"/>
	</radialGradient>
	<path fill="url(#SVGID_9_)" d="M16.145,12.796c0.538,3.771,3.425,6.452,6.449,5.989c3.023-0.463,5.04-3.896,4.503-7.668
		c-0.538-3.771-3.427-6.452-6.45-5.989C17.622,5.592,15.607,9.024,16.145,12.796z"/>
	
		<linearGradient id="SVGID_10_" gradientUnits="userSpaceOnUse" x1="248.2188" y1="-121.0957" x2="253.3453" y2="-130.2643" gradientTransform="matrix(0.9423 -0.3347 0.3347 0.9423 -172.2634 208.7823)">
		<stop  offset="0" style="stop-color:#FFFFFF"/>
		<stop  offset="0.2964" style="stop-color:#FDFEFF"/>
		<stop  offset="0.4031" style="stop-color:#F6FCFE"/>
		<stop  offset="0.4792" style="stop-color:#EBF8FC"/>
		<stop  offset="0.5408" style="stop-color:#DAF2FA"/>
		<stop  offset="0.5935" style="stop-color:#C4EAF7"/>
		<stop  offset="0.6401" style="stop-color:#A8E0F3"/>
		<stop  offset="0.6813" style="stop-color:#89D5EE"/>
		<stop  offset="0.6978" style="stop-color:#7AD0EC"/>
	</linearGradient>
	<path fill="url(#SVGID_10_)" d="M25.025,8.202c-0.731-2.059-2.918-3.162-4.882-2.464c-1.963,0.698-2.963,2.932-2.231,4.99
		c0.73,2.059,2.916,3.162,4.88,2.464C24.756,12.495,25.757,10.26,25.025,8.202z"/>
	<g>
		
			<ellipse transform="matrix(0.9923 -0.1237 0.1237 0.9923 -1.1446 2.2581)" fill="#231F20" cx="17.618" cy="10.35" rx="1.457" ry="2.129"/>
		
			<ellipse transform="matrix(-0.9998 0.0208 -0.0208 -0.9998 34.5588 19.5556)" fill="#FFFFFF" cx="17.178" cy="9.958" rx="0.634" ry="0.907"/>
	</g>
	<g>
		
			<ellipse transform="matrix(0.9876 -0.1573 0.1573 0.9876 -2.0903 1.1522)" fill="#231F20" cx="6.235" cy="13.785" rx="1.555" ry="2.273"/>
		
			<linearGradient id="SVGID_11_" gradientUnits="userSpaceOnUse" x1="1391.9209" y1="50.6855" x2="1393.6852" y2="48.675" gradientTransform="matrix(-0.9985 0.0549 0.0549 0.9985 1393.6429 -112.6768)">
			<stop  offset="0" style="stop-color:#231F20"/>
			<stop  offset="0.3762" style="stop-color:#363335"/>
			<stop  offset="1" style="stop-color:#5C5D60"/>
		</linearGradient>
		<path fill="url(#SVGID_11_)" d="M5.095,13.759c0.039,0.722,0.48,1.285,0.985,1.257c0.506-0.028,0.882-0.635,0.844-1.357
			c-0.041-0.723-0.482-1.285-0.988-1.258C5.432,12.429,5.055,13.036,5.095,13.759z"/>
		
			<ellipse transform="matrix(-0.9848 0.1739 -0.1739 -0.9848 14.6494 25.1725)" fill="#FFFFFF" cx="6.222" cy="13.228" rx="0.587" ry="0.838"/>
	</g>
	
		<linearGradient id="SVGID_12_" gradientUnits="userSpaceOnUse" x1="533.2617" y1="-190" x2="545.1933" y2="-180.5804" gradientTransform="matrix(0.9554 -0.2953 0.2953 0.9554 -440.3858 351.7007)">
		<stop  offset="0" style="stop-color:#FFF100"/>
		<stop  offset="0.2753" style="stop-color:#FEDC0B"/>
		<stop  offset="0.6813" style="stop-color:#FCB61F"/>
		<stop  offset="1" style="stop-color:#DC5A26"/>
	</linearGradient>
	<path fill="url(#SVGID_12_)" d="M17.055,15.586c0,0,4.517-2.4,9.829-0.627c0,0-1.073,3.793-4.438,3.971
		C18.777,19.203,17.055,15.586,17.055,15.586z"/>
	
		<linearGradient id="SVGID_13_" gradientUnits="userSpaceOnUse" x1="2801.4424" y1="191.5381" x2="2810.7974" y2="187.2248" gradientTransform="matrix(-0.9928 0.1194 0.1194 0.9928 2790.2642 -506.1684)">
		<stop  offset="0" style="stop-color:#FFF100"/>
		<stop  offset="0.2753" style="stop-color:#FEDC0B"/>
		<stop  offset="0.6813" style="stop-color:#FCB61F"/>
		<stop  offset="1" style="stop-color:#DC5A26"/>
	</linearGradient>
	<path fill="url(#SVGID_13_)" d="M26.364,14.795c0,0-4.181-1.614-9.469,0.43c0,0,0.227,0.592,0.399,0.745
		C17.295,15.97,20.082,13.835,26.364,14.795z"/>
	
		<linearGradient id="SVGID_14_" gradientUnits="userSpaceOnUse" x1="539.6445" y1="-188.5273" x2="524.9522" y2="-180.1138" gradientTransform="matrix(0.9554 -0.2953 0.2953 0.9554 -440.3858 351.7007)">
		<stop  offset="0" style="stop-color:#FFF100"/>
		<stop  offset="0.2753" style="stop-color:#FEDC0B"/>
		<stop  offset="0.6813" style="stop-color:#FCB61F"/>
		<stop  offset="1" style="stop-color:#DC5A26"/>
	</linearGradient>
	<path fill="url(#SVGID_14_)" d="M16.187,16.165c0,0-5.081,0.568-8.468,5.029c0,0,3.025,2.525,5.904,0.773
		C16.806,20.123,16.187,16.165,16.187,16.165z"/>
	
		<linearGradient id="SVGID_15_" gradientUnits="userSpaceOnUse" x1="-731.5981" y1="-451.313" x2="-722.2434" y2="-455.6262" gradientTransform="matrix(0.8871 -0.4616 0.4616 0.8871 863.0699 89.5333)">
		<stop  offset="0" style="stop-color:#FFF100"/>
		<stop  offset="0.2753" style="stop-color:#FEDC0B"/>
		<stop  offset="0.6813" style="stop-color:#FCB61F"/>
		<stop  offset="1" style="stop-color:#DC5A26"/>
	</linearGradient>
	<path fill="url(#SVGID_15_)" d="M8.055,20.764c0,0,2.542-3.69,8.061-4.986c0,0,0.146,0.617,0.09,0.84
		C16.205,16.617,12.7,16.427,8.055,20.764z"/>
</g>
</svg>
