<?xml version="1.0" encoding="utf-8"?>
<!-- Generator: Adobe Illustrator 15.1.0, SVG Export Plug-In . SVG Version: 6.00 Build 0)  -->
<!DOCTYPE svg PUBLIC "-//W3C//DTD SVG 1.1//EN" "http://www.w3.org/Graphics/SVG/1.1/DTD/svg11.dtd">
<svg version="1.1" id="Layer_1" xmlns="http://www.w3.org/2000/svg" xmlns:xlink="http://www.w3.org/1999/xlink" x="0px" y="0px"
	 width="35px" height="35px" viewBox="0 0 35 35" enable-background="new 0 0 35 35" xml:space="preserve">
<g>
	<radialGradient id="SVGID_1_" cx="17.334" cy="11.3794" r="33.9611" fx="19.9167" fy="16.5806" gradientUnits="userSpaceOnUse">
		<stop  offset="0" style="stop-color:#FFF100"/>
		<stop  offset="0.143" style="stop-color:#FFEE01"/>
		<stop  offset="0.2395" style="stop-color:#FEE504"/>
		<stop  offset="0.3223" style="stop-color:#FCD609"/>
		<stop  offset="0.3974" style="stop-color:#FAC110"/>
		<stop  offset="0.4672" style="stop-color:#F7A519"/>
		<stop  offset="0.5323" style="stop-color:#F48324"/>
		<stop  offset="0.5495" style="stop-color:#F37927"/>
		<stop  offset="0.7143" style="stop-color:#FFF100"/>
	</radialGradient>
	<circle fill="url(#SVGID_1_)" cx="17.604" cy="17.436" r="17.5"/>
	<linearGradient id="SVGID_2_" gradientUnits="userSpaceOnUse" x1="17.8579" y1="4.6914" x2="17.8579" y2="19.6139">
		<stop  offset="0" style="stop-color:#FFF4CB"/>
		<stop  offset="1" style="stop-color:#FFF100"/>
	</linearGradient>
	<ellipse fill="url(#SVGID_2_)" cx="17.858" cy="10.781" rx="12.125" ry="9.052"/>
	<g>
		<g>
			<linearGradient id="SVGID_3_" gradientUnits="userSpaceOnUse" x1="16.1973" y1="28.8594" x2="10.1298" y2="18.002">
				<stop  offset="0" style="stop-color:#FFF7AB"/>
				<stop  offset="0.1291" style="stop-color:#FFED96"/>
				<stop  offset="0.3962" style="stop-color:#FDD45F"/>
				<stop  offset="0.6813" style="stop-color:#FCB61F"/>
				<stop  offset="1" style="stop-color:#DC5A26"/>
			</linearGradient>
			<path fill="url(#SVGID_3_)" d="M6.271,11.226c-1.491,1.711-2.254,4.395-1.848,7.264c0.642,4.544,3.97,7.827,7.435,7.339
				c3.066-0.435,5.209-3.682,5.215-7.572C13.703,17.088,8.994,13.471,6.271,11.226z"/>
		</g>
		<g>
			<linearGradient id="SVGID_4_" gradientUnits="userSpaceOnUse" x1="24.584" y1="25.5332" x2="24.2368" y2="14.5143">
				<stop  offset="0" style="stop-color:#FFF7AB"/>
				<stop  offset="0.1291" style="stop-color:#FFED96"/>
				<stop  offset="0.3962" style="stop-color:#FDD45F"/>
				<stop  offset="0.6813" style="stop-color:#FCB61F"/>
				<stop  offset="1" style="stop-color:#DC5A26"/>
			</linearGradient>
			<path fill="url(#SVGID_4_)" d="M17.942,18.354c0.142,3.658,2.192,6.664,5.115,7.114c3.459,0.532,6.827-2.71,7.526-7.245
				c0.35-2.269-0.037-4.431-0.943-6.091C24.115,15.986,19.119,17.925,17.942,18.354z"/>
		</g>
		<g>
			<radialGradient id="SVGID_5_" cx="16.687" cy="17.6509" r="12.3406" gradientUnits="userSpaceOnUse">
				<stop  offset="0" style="stop-color:#FFFFFF"/>
				<stop  offset="0.4057" style="stop-color:#FFFDFD"/>
				<stop  offset="0.5518" style="stop-color:#FEF7F6"/>
				<stop  offset="0.6559" style="stop-color:#FDEBEB"/>
				<stop  offset="0.7401" style="stop-color:#FBDADA"/>
				<stop  offset="0.8113" style="stop-color:#F9C5C4"/>
				<stop  offset="0.8742" style="stop-color:#F6ABA9"/>
				<stop  offset="0.8791" style="stop-color:#F6A9A7"/>
			</radialGradient>
			<path fill="url(#SVGID_5_)" d="M6.858,13.169c-1.153,1.445-1.718,3.569-1.375,5.833c0.582,3.834,3.55,6.615,6.629,6.211
				c2.687-0.354,4.57-3.016,4.619-6.237C13.627,17.836,9.534,15.097,6.858,13.169z"/>
		</g>
		<g>
			<radialGradient id="SVGID_6_" cx="19" cy="16.686" r="11.0067" gradientUnits="userSpaceOnUse">
				<stop  offset="0" style="stop-color:#FFFFFF"/>
				<stop  offset="0.4057" style="stop-color:#FFFDFD"/>
				<stop  offset="0.5518" style="stop-color:#FEF7F6"/>
				<stop  offset="0.6559" style="stop-color:#FDEBEB"/>
				<stop  offset="0.7401" style="stop-color:#FBDADA"/>
				<stop  offset="0.8113" style="stop-color:#F9C5C4"/>
				<stop  offset="0.8742" style="stop-color:#F6ABA9"/>
				<stop  offset="0.8791" style="stop-color:#F6A9A7"/>
			</radialGradient>
			<path fill="url(#SVGID_6_)" d="M18.33,19.049c0.212,2.984,2.015,5.414,4.552,5.792c3.076,0.458,6.064-2.271,6.674-6.095
				c0.277-1.739,0.014-3.406-0.645-4.749C24.555,16.521,19.963,18.406,18.33,19.049z"/>
		</g>
		<g>
			<linearGradient id="SVGID_7_" gradientUnits="userSpaceOnUse" x1="11.0752" y1="14.6777" x2="26.4489" y2="-12.8174">
				<stop  offset="0" style="stop-color:#FFFFFF"/>
				<stop  offset="0.2964" style="stop-color:#FDFEFF"/>
				<stop  offset="0.4031" style="stop-color:#F6FCFE"/>
				<stop  offset="0.4792" style="stop-color:#EBF8FC"/>
				<stop  offset="0.5408" style="stop-color:#DAF2FA"/>
				<stop  offset="0.5935" style="stop-color:#C4EAF7"/>
				<stop  offset="0.6401" style="stop-color:#A8E0F3"/>
				<stop  offset="0.6813" style="stop-color:#89D5EE"/>
				<stop  offset="0.6978" style="stop-color:#7AD0EC"/>
			</linearGradient>
			<path fill="url(#SVGID_7_)" d="M7.318,13.498c-0.399,0.597-0.654,1.31-0.696,2.088c-0.119,2.217,1.499,4.108,3.614,4.221
				c1.549,0.084,2.933-0.811,3.61-2.165C11.569,16.42,9.169,14.814,7.318,13.498z"/>
		</g>
		<g>
			<linearGradient id="SVGID_8_" gradientUnits="userSpaceOnUse" x1="24.2119" y1="18.4473" x2="36.9532" y2="-4.3399">
				<stop  offset="0" style="stop-color:#FFFFFF"/>
				<stop  offset="0.2964" style="stop-color:#FDFEFF"/>
				<stop  offset="0.4031" style="stop-color:#F6FCFE"/>
				<stop  offset="0.4792" style="stop-color:#EBF8FC"/>
				<stop  offset="0.5408" style="stop-color:#DAF2FA"/>
				<stop  offset="0.5935" style="stop-color:#C4EAF7"/>
				<stop  offset="0.6401" style="stop-color:#A8E0F3"/>
				<stop  offset="0.6813" style="stop-color:#89D5EE"/>
				<stop  offset="0.6978" style="stop-color:#7AD0EC"/>
			</linearGradient>
			<path fill="url(#SVGID_8_)" d="M21.448,17.745c0.728,1.088,1.948,1.78,3.306,1.724c2.116-0.088,3.758-1.958,3.666-4.176
				c-0.014-0.323-0.066-0.633-0.147-0.932C25.839,15.73,23.381,16.894,21.448,17.745z"/>
		</g>
		<g>
			
				<ellipse transform="matrix(0.9988 -0.0492 0.0492 0.9988 -0.9818 0.5758)" fill="#231F20" cx="11.2" cy="20.22" rx="1.061" ry="1.55"/>
			
				<linearGradient id="SVGID_9_" gradientUnits="userSpaceOnUse" x1="1514.0361" y1="152.0684" x2="1515.2394" y2="150.6973" gradientTransform="matrix(-0.9985 -0.0538 -0.0538 0.9985 1531.4341 -49.7349)">
				<stop  offset="0" style="stop-color:#231F20"/>
				<stop  offset="0.3762" style="stop-color:#363335"/>
				<stop  offset="1" style="stop-color:#5C5D60"/>
			</linearGradient>
			<path fill="url(#SVGID_9_)" d="M10.429,20.118c-0.027,0.492,0.23,0.907,0.575,0.925c0.345,0.02,0.646-0.365,0.671-0.857
				c0.027-0.492-0.23-0.906-0.575-0.926C10.756,19.241,10.456,19.625,10.429,20.118z"/>
			
				<ellipse transform="matrix(-0.9978 0.066 -0.066 -0.9978 23.748 38.8996)" fill="#FFFFFF" cx="11.232" cy="19.842" rx="0.4" ry="0.572"/>
		</g>
		<g>
			
				<ellipse transform="matrix(0.9989 0.0463 -0.0463 0.9989 0.9419 -1.0634)" fill="#231F20" cx="23.42" cy="19.797" rx="1.054" ry="1.541"/>
			
				<ellipse transform="matrix(-0.989 -0.1478 0.1478 -0.989 43.1792 42.1338)" fill="#FFFFFF" cx="23.155" cy="19.462" rx="0.459" ry="0.656"/>
		</g>
		<linearGradient id="SVGID_10_" gradientUnits="userSpaceOnUse" x1="15.3794" y1="16.0435" x2="27.5036" y2="25.6152">
			<stop  offset="0" style="stop-color:#FFF100"/>
			<stop  offset="0.2753" style="stop-color:#FEDC0B"/>
			<stop  offset="0.6813" style="stop-color:#FCB61F"/>
			<stop  offset="1" style="stop-color:#DC5A26"/>
		</linearGradient>
		<path fill="url(#SVGID_10_)" d="M18.464,20.072c0,0,5.105-0.976,9.732,2.341c0,0-2.181,3.36-5.501,2.523
			C19.05,24.102,18.464,20.072,18.464,20.072z"/>
		
			<linearGradient id="SVGID_11_" gradientUnits="userSpaceOnUse" x1="3273.751" y1="487.1279" x2="3283.2595" y2="482.7439" gradientTransform="matrix(-0.9838 -0.1791 -0.1791 0.9838 3339.8992 134.4531)">
			<stop  offset="0" style="stop-color:#FFF100"/>
			<stop  offset="0.2753" style="stop-color:#FEDC0B"/>
			<stop  offset="0.6813" style="stop-color:#FCB61F"/>
			<stop  offset="1" style="stop-color:#DC5A26"/>
		</linearGradient>
		<path fill="url(#SVGID_11_)" d="M27.741,22.098c0,0-3.576-2.822-9.324-2.424c0,0,0.042,0.643,0.164,0.843
			C18.581,20.517,21.929,19.279,27.741,22.098z"/>
		<linearGradient id="SVGID_12_" gradientUnits="userSpaceOnUse" x1="21.0225" y1="17.5391" x2="6.0886" y2="26.0909">
			<stop  offset="0" style="stop-color:#FFF100"/>
			<stop  offset="0.2753" style="stop-color:#FEDC0B"/>
			<stop  offset="0.6813" style="stop-color:#FCB61F"/>
			<stop  offset="1" style="stop-color:#DC5A26"/>
		</linearGradient>
		<path fill="url(#SVGID_12_)" d="M16.604,20.373c0,0-5.105-0.975-9.732,2.342c0,0,2.181,3.359,5.501,2.522
			C16.019,24.404,16.604,20.373,16.604,20.373z"/>
		
			<linearGradient id="SVGID_13_" gradientUnits="userSpaceOnUse" x1="-1279.0498" y1="-341.3501" x2="-1269.5417" y2="-345.734" gradientTransform="matrix(0.9838 -0.1791 0.1791 0.9838 1322.7375 134.4531)">
			<stop  offset="0" style="stop-color:#FFF100"/>
			<stop  offset="0.2753" style="stop-color:#FEDC0B"/>
			<stop  offset="0.6813" style="stop-color:#FCB61F"/>
			<stop  offset="1" style="stop-color:#DC5A26"/>
		</linearGradient>
		<path fill="url(#SVGID_13_)" d="M7.327,22.398c0,0,3.576-2.822,9.323-2.424c0,0-0.042,0.644-0.163,0.844
			C16.487,20.818,13.139,19.58,7.327,22.398z"/>
	</g>
	<path d="M13.471,29.059c0,0-0.223,1.125,1.127,1.121C14.598,30.18,12.703,30.988,13.471,29.059z"/>
	<linearGradient id="SVGID_14_" gradientUnits="userSpaceOnUse" x1="19.0898" y1="29.0527" x2="23.4243" y2="30.3772">
		<stop  offset="0" style="stop-color:#FFF100"/>
		<stop  offset="0.2753" style="stop-color:#FEDC0B"/>
		<stop  offset="0.6813" style="stop-color:#FCB61F"/>
		<stop  offset="1" style="stop-color:#DC5A26"/>
	</linearGradient>
	<path fill="url(#SVGID_14_)" d="M21.336,27.68c0,0-3.818,0.168-7.31,1.906c0,0,1.315-1.447,3.485-2.055
		C19.683,26.924,21.336,27.68,21.336,27.68z"/>
	<path fill="#231F20" d="M14.026,29.586c0,0,2.76-4.063,7.31-1.906C21.336,27.68,17.685,26.809,14.026,29.586z"/>
</g>
</svg>
