<?xml version="1.0" encoding="utf-8"?>
<!-- Generator: Adobe Illustrator 15.1.0, SVG Export Plug-In . SVG Version: 6.00 Build 0)  -->
<!DOCTYPE svg PUBLIC "-//W3C//DTD SVG 1.1//EN" "http://www.w3.org/Graphics/SVG/1.1/DTD/svg11.dtd">
<svg version="1.1" id="Layer_1" xmlns="http://www.w3.org/2000/svg" xmlns:xlink="http://www.w3.org/1999/xlink" x="0px" y="0px"
	 width="35px" height="35px" viewBox="0 0 35 35" enable-background="new 0 0 35 35" xml:space="preserve">
<g>
	
		<radialGradient id="SVGID_1_" cx="2164.2383" cy="33.2412" r="26.7028" fx="2166.269" fy="37.3308" gradientTransform="matrix(0.9803 -0.1974 0.1974 0.9803 -2111.5833 408.4058)" gradientUnits="userSpaceOnUse">
		<stop  offset="0" style="stop-color:#FFF100"/>
		<stop  offset="0.143" style="stop-color:#FFEE01"/>
		<stop  offset="0.2395" style="stop-color:#FEE504"/>
		<stop  offset="0.3223" style="stop-color:#FCD609"/>
		<stop  offset="0.3974" style="stop-color:#FAC110"/>
		<stop  offset="0.4672" style="stop-color:#F7A519"/>
		<stop  offset="0.5323" style="stop-color:#F48324"/>
		<stop  offset="0.5495" style="stop-color:#F37927"/>
		<stop  offset="0.7143" style="stop-color:#FFF100"/>
	</radialGradient>
	<circle fill="url(#SVGID_1_)" cx="17.764" cy="18.313" r="13.76"/>
	<linearGradient id="SVGID_2_" gradientUnits="userSpaceOnUse" x1="17.2246" y1="6.2402" x2="17.8032" y2="18.9696">
		<stop  offset="0" style="stop-color:#FFF4CB"/>
		<stop  offset="1" style="stop-color:#FFF100"/>
	</linearGradient>
	<path fill="url(#SVGID_2_)" d="M27.031,12.032c-0.206-3.925-4.635-6.885-9.894-6.608c-5.257,0.275-9.353,3.682-9.146,7.607
		c0.206,3.926,4.636,6.884,9.893,6.609C23.143,19.363,27.237,15.958,27.031,12.032z"/>
	<linearGradient id="SVGID_3_" gradientUnits="userSpaceOnUse" x1="17.6631" y1="22.5" x2="16.4335" y2="15.2424">
		<stop  offset="0" style="stop-color:#FFF100"/>
		<stop  offset="0.2176" style="stop-color:#FEDC0B"/>
		<stop  offset="0.5385" style="stop-color:#FCB61F"/>
		<stop  offset="0.8077" style="stop-color:#DC5A26"/>
		<stop  offset="1" style="stop-color:#DC5A26"/>
	</linearGradient>
	<path fill="url(#SVGID_3_)" d="M9.196,25.152c1.966-3.369,2.386-0.349,5.03-2.483c3.533-2.854,5.267,1.848,8.291,0
		c2.446-1.495,4.077-0.235,4.35,1.53c0,0-0.73-1.476-3.458,1.051c-3.38,3.133-3.957-2.194-8.479,0.832
		C12.851,27.473,11.508,23.248,9.196,25.152L9.196,25.152z"/>
	<linearGradient id="SVGID_4_" gradientUnits="userSpaceOnUse" x1="19.9727" y1="38.1221" x2="16.6031" y2="14.7801">
		<stop  offset="0" style="stop-color:#FFF100"/>
		<stop  offset="0.2176" style="stop-color:#FEDC0B"/>
		<stop  offset="0.5385" style="stop-color:#FCB61F"/>
		<stop  offset="0.8077" style="stop-color:#DC5A26"/>
		<stop  offset="1" style="stop-color:#DC5A26"/>
	</linearGradient>
	<path fill="url(#SVGID_4_)" d="M9.196,25.152c1.966-3.369,2.386-1.092,5.03-3.227c3.533-2.854,5.267,1.849,8.291,0
		c2.446-1.494,4.077,0.508,4.35,2.273c0,0-0.865-1.902-3.752,0.344c-3.415,2.656-3.273-2.229-8.301,0.711
		C12.854,26.401,11.508,23.248,9.196,25.152L9.196,25.152z"/>
	<radialGradient id="SVGID_5_" cx="18.6631" cy="31.0117" r="11.7019" gradientUnits="userSpaceOnUse">
		<stop  offset="0" style="stop-color:#C83829"/>
		<stop  offset="1" style="stop-color:#000000"/>
	</radialGradient>
	<path fill="url(#SVGID_5_)" d="M9.196,25.152c1.966-3.369,2.386-0.72,5.03-2.855c3.533-2.854,5.267,1.849,8.291,0
		c2.446-1.495,4.077,0.137,4.35,1.902c0,0-0.865-1.53-3.752,0.715c-3.415,2.656-3.273-2.229-8.301,0.711
		C12.854,26.772,11.508,23.248,9.196,25.152L9.196,25.152z"/>
	<g>
		<g>
			
				<linearGradient id="SVGID_6_" gradientUnits="userSpaceOnUse" x1="637.6406" y1="-666.5488" x2="637.3593" y2="-675.4769" gradientTransform="matrix(0.8752 -0.4838 0.4838 0.8752 -220.7057 912.4636)">
				<stop  offset="0" style="stop-color:#FFF7AB"/>
				<stop  offset="0.1291" style="stop-color:#FFED96"/>
				<stop  offset="0.3962" style="stop-color:#FDD45F"/>
				<stop  offset="0.6813" style="stop-color:#FCB61F"/>
				<stop  offset="1" style="stop-color:#DC5A26"/>
			</linearGradient>
			<path fill="url(#SVGID_6_)" d="M7.365,18.144c1.534,2.538,4.166,3.866,6.415,3.04c2.661-0.979,3.778-4.598,2.498-8.087
				c-0.643-1.746-1.764-3.128-3.057-3.951C10.814,14.045,8.031,17.378,7.365,18.144z"/>
		</g>
		<g>
			
				<radialGradient id="SVGID_7_" cx="637.6514" cy="-672.5591" r="5.0406" gradientTransform="matrix(0.8752 -0.4838 0.4838 0.8752 -220.7057 912.4636)" gradientUnits="userSpaceOnUse">
				<stop  offset="0" style="stop-color:#FFFFFF"/>
				<stop  offset="0.3734" style="stop-color:#FDFEFF"/>
				<stop  offset="0.5079" style="stop-color:#F6FCFE"/>
				<stop  offset="0.6038" style="stop-color:#EBF8FC"/>
				<stop  offset="0.6813" style="stop-color:#DAF2FA"/>
				<stop  offset="0.7477" style="stop-color:#C4EAF7"/>
				<stop  offset="0.8064" style="stop-color:#A8E0F3"/>
				<stop  offset="0.8583" style="stop-color:#89D5EE"/>
				<stop  offset="0.8791" style="stop-color:#7AD0EC"/>
			</radialGradient>
			<path fill="url(#SVGID_7_)" d="M7.912,18.484c1.32,2.033,3.551,3.049,5.498,2.322c2.36-0.881,3.41-3.986,2.344-6.937
				c-0.485-1.342-1.325-2.42-2.319-3.114C11.336,14.252,8.818,17.389,7.912,18.484z"/>
		</g>
		<g>
			
				<linearGradient id="SVGID_8_" gradientUnits="userSpaceOnUse" x1="637.3379" y1="-672.2905" x2="647.6596" y2="-690.7504" gradientTransform="matrix(0.8752 -0.4838 0.4838 0.8752 -220.7057 912.4636)">
				<stop  offset="0" style="stop-color:#FFFFFF"/>
				<stop  offset="0.2964" style="stop-color:#FDFEFF"/>
				<stop  offset="0.4031" style="stop-color:#F6FCFE"/>
				<stop  offset="0.4792" style="stop-color:#EBF8FC"/>
				<stop  offset="0.5408" style="stop-color:#DAF2FA"/>
				<stop  offset="0.5935" style="stop-color:#C4EAF7"/>
				<stop  offset="0.6401" style="stop-color:#A8E0F3"/>
				<stop  offset="0.6813" style="stop-color:#89D5EE"/>
				<stop  offset="0.6978" style="stop-color:#7AD0EC"/>
			</linearGradient>
			<path fill="url(#SVGID_8_)" d="M9.612,16.338c0.942,0.486,2.079,0.499,3.019-0.074c1.468-0.891,1.898-2.86,0.964-4.397
				c-0.136-0.224-0.296-0.423-0.469-0.603C11.937,13.189,10.649,14.977,9.612,16.338z"/>
		</g>
		<g>
			
				<ellipse transform="matrix(0.999 0.0456 -0.0456 0.999 0.7889 -0.6672)" fill="#231F20" cx="15.029" cy="16.97" rx="1.109" ry="1.621"/>
			
				<ellipse transform="matrix(-0.989 -0.148 0.148 -0.989 26.877 35.2386)" fill="#FFFFFF" cx="14.75" cy="16.619" rx="0.483" ry="0.69"/>
		</g>
		
			<linearGradient id="SVGID_9_" gradientUnits="userSpaceOnUse" x1="630.1797" y1="-674.2378" x2="640.0051" y2="-666.4809" gradientTransform="matrix(0.8752 -0.4838 0.4838 0.8752 -220.7057 912.4636)">
			<stop  offset="0" style="stop-color:#FFF100"/>
			<stop  offset="0.2753" style="stop-color:#FEDC0B"/>
			<stop  offset="0.6813" style="stop-color:#FCB61F"/>
			<stop  offset="1" style="stop-color:#DC5A26"/>
		</linearGradient>
		<path fill="url(#SVGID_9_)" d="M8.408,19.158c0,0,3.238-2.693,7.819-2.155c0,0-0.23,3.237-2.912,3.944
			C10.404,21.785,8.408,19.158,8.408,19.158z"/>
		
			<linearGradient id="SVGID_10_" gradientUnits="userSpaceOnUse" x1="2795.9785" y1="-303.6582" x2="2803.6812" y2="-307.2097" gradientTransform="matrix(-0.9477 0.3192 0.3192 0.9477 2767.3875 -585.6357)">
			<stop  offset="0" style="stop-color:#FFF100"/>
			<stop  offset="0.2753" style="stop-color:#FEDC0B"/>
			<stop  offset="0.6813" style="stop-color:#FCB61F"/>
			<stop  offset="1" style="stop-color:#DC5A26"/>
		</linearGradient>
		<path fill="url(#SVGID_10_)" d="M15.779,16.958c0,0-3.641-0.6-7.561,1.935c0,0,0.283,0.439,0.447,0.534
			C8.666,19.427,10.555,17.238,15.779,16.958z"/>
	</g>
	<g>
		<g>
			
				<linearGradient id="SVGID_11_" gradientUnits="userSpaceOnUse" x1="-253.8691" y1="782.6953" x2="-254.1872" y2="774.6356" gradientTransform="matrix(0.9196 0.3929 -0.3929 0.9196 561.3445 -599.4738)">
				<stop  offset="0" style="stop-color:#FFF7AB"/>
				<stop  offset="0.1291" style="stop-color:#FFED96"/>
				<stop  offset="0.3962" style="stop-color:#FDD45F"/>
				<stop  offset="0.6813" style="stop-color:#FCB61F"/>
				<stop  offset="1" style="stop-color:#DC5A26"/>
			</linearGradient>
			<path fill="url(#SVGID_11_)" d="M21.405,8.551c-1.628,0.788-3.027,2.515-3.629,4.745c-0.95,3.53,0.459,6.979,3.151,7.705
				c2.383,0.643,4.971-1.065,6.193-3.915C25.016,15.175,22.698,11.049,21.405,8.551z"/>
		</g>
		<g>
			
				<radialGradient id="SVGID_12_" cx="-254.1006" cy="777.1592" r="4.9509" gradientTransform="matrix(0.9196 0.3929 -0.3929 0.9196 561.3445 -599.4738)" gradientUnits="userSpaceOnUse">
				<stop  offset="0" style="stop-color:#FFFFFF"/>
				<stop  offset="0.3734" style="stop-color:#FDFEFF"/>
				<stop  offset="0.5079" style="stop-color:#F6FCFE"/>
				<stop  offset="0.6038" style="stop-color:#EBF8FC"/>
				<stop  offset="0.6813" style="stop-color:#DAF2FA"/>
				<stop  offset="0.7477" style="stop-color:#C4EAF7"/>
				<stop  offset="0.8064" style="stop-color:#A8E0F3"/>
				<stop  offset="0.8583" style="stop-color:#89D5EE"/>
				<stop  offset="0.8791" style="stop-color:#7AD0EC"/>
			</radialGradient>
			<path fill="url(#SVGID_12_)" d="M21.228,10.16c-1.297,0.698-2.377,2.078-2.834,3.844c-0.773,2.992,0.531,5.959,2.915,6.627
				c2.078,0.582,4.293-0.779,5.337-3.125C24.726,15.699,22.585,12.41,21.228,10.16z"/>
		</g>
		<g>
			
				<linearGradient id="SVGID_13_" gradientUnits="userSpaceOnUse" x1="-253.8125" y1="774.0146" x2="-241.5618" y2="752.1049" gradientTransform="matrix(0.9196 0.3929 -0.3929 0.9196 561.3445 -599.4738)">
				<stop  offset="0" style="stop-color:#FFFFFF"/>
				<stop  offset="0.2964" style="stop-color:#FDFEFF"/>
				<stop  offset="0.4031" style="stop-color:#F6FCFE"/>
				<stop  offset="0.4792" style="stop-color:#EBF8FC"/>
				<stop  offset="0.5408" style="stop-color:#DAF2FA"/>
				<stop  offset="0.5935" style="stop-color:#C4EAF7"/>
				<stop  offset="0.6401" style="stop-color:#A8E0F3"/>
				<stop  offset="0.6813" style="stop-color:#89D5EE"/>
				<stop  offset="0.6978" style="stop-color:#7AD0EC"/>
			</linearGradient>
			<path fill="url(#SVGID_13_)" d="M21.461,10.544c-0.479,0.312-0.889,0.754-1.163,1.312c-0.782,1.588-0.188,3.479,1.327,4.226
				c1.108,0.546,2.403,0.324,3.323-0.457C23.662,14.018,22.405,12.089,21.461,10.544z"/>
		</g>
		<g>
			
				<ellipse transform="matrix(0.9998 0.0178 -0.0178 0.9998 0.2971 -0.3389)" fill="#231F20" cx="19.225" cy="16.558" rx="1.031" ry="1.507"/>
			
				<linearGradient id="SVGID_14_" gradientUnits="userSpaceOnUse" x1="1530.4023" y1="245.3535" x2="1531.5715" y2="244.0211" gradientTransform="matrix(-0.9927 -0.1206 -0.1206 0.9927 1568.225 -42.0052)">
				<stop  offset="0" style="stop-color:#231F20"/>
				<stop  offset="0.3762" style="stop-color:#363335"/>
				<stop  offset="1" style="stop-color:#5C5D60"/>
			</linearGradient>
			<path fill="url(#SVGID_14_)" d="M18.483,16.408c-0.058,0.477,0.165,0.895,0.497,0.936c0.333,0.04,0.65-0.313,0.707-0.789
				c0.059-0.476-0.164-0.895-0.497-0.935C18.857,15.58,18.542,15.933,18.483,16.408z"/>
			<ellipse fill="#FFFFFF" cx="19.28" cy="16.193" rx="0.389" ry="0.556"/>
		</g>
		
			<linearGradient id="SVGID_15_" gradientUnits="userSpaceOnUse" x1="-245.8857" y1="776.2949" x2="-257.7868" y2="783.11" gradientTransform="matrix(0.9196 0.3929 -0.3929 0.9196 561.3445 -599.4738)">
			<stop  offset="0" style="stop-color:#FFF100"/>
			<stop  offset="0.2753" style="stop-color:#FEDC0B"/>
			<stop  offset="0.6813" style="stop-color:#FCB61F"/>
			<stop  offset="1" style="stop-color:#DC5A26"/>
		</linearGradient>
		<path fill="url(#SVGID_15_)" d="M26.113,18.49c0,0-3.436-2.312-7.865-1.331c0,0,0.547,3.144,3.242,3.571
			C24.423,21.26,26.113,18.49,26.113,18.49z"/>
		
			<linearGradient id="SVGID_16_" gradientUnits="userSpaceOnUse" x1="-1673.5947" y1="355.9541" x2="-1666.0164" y2="352.4599" gradientTransform="matrix(0.9751 0.2218 -0.2218 0.9751 1724.881 43.8457)">
			<stop  offset="0" style="stop-color:#FFF100"/>
			<stop  offset="0.2753" style="stop-color:#FEDC0B"/>
			<stop  offset="0.6813" style="stop-color:#FCB61F"/>
			<stop  offset="1" style="stop-color:#DC5A26"/>
		</linearGradient>
		<path fill="url(#SVGID_16_)" d="M18.681,17.07c0,0,3.504-0.948,7.593,1.143c0,0-0.232,0.459-0.384,0.566
			C25.89,18.779,23.822,16.825,18.681,17.07z"/>
	</g>
	<g>
		
			<radialGradient id="SVGID_17_" cx="-125.1704" cy="660.541" r="8.6128" gradientTransform="matrix(0.9504 0.311 -0.311 0.9504 330.1138 -572.2363)" gradientUnits="userSpaceOnUse">
			<stop  offset="0" style="stop-color:#FFFFFF"/>
			<stop  offset="0.1171" style="stop-color:#B2EAF7"/>
			<stop  offset="0.2259" style="stop-color:#73D9F0"/>
			<stop  offset="0.3241" style="stop-color:#41CBEB"/>
			<stop  offset="0.4096" style="stop-color:#1EC1E7"/>
			<stop  offset="0.4791" style="stop-color:#08BBE5"/>
			<stop  offset="0.5241" style="stop-color:#00B9E4"/>
			<stop  offset="0.5827" style="stop-color:#00B0D9"/>
			<stop  offset="0.685" style="stop-color:#0097BC"/>
			<stop  offset="0.8189" style="stop-color:#006F8E"/>
			<stop  offset="0.9775" style="stop-color:#00384E"/>
			<stop  offset="1" style="stop-color:#003044"/>
		</radialGradient>
		<path fill="url(#SVGID_17_)" d="M7.764,7.609c0,0-0.761,0.824-1.662,2.295C5.068,11.589,2.417,8.635,7.764,7.609z"/>
		
			<radialGradient id="SVGID_18_" cx="-125.8979" cy="654.6611" r="3.0763" gradientTransform="matrix(0.9504 0.311 -0.311 0.9504 330.1138 -572.2363)" gradientUnits="userSpaceOnUse">
			<stop  offset="0" style="stop-color:#FFFFFF"/>
			<stop  offset="0.1171" style="stop-color:#B2EAF7"/>
			<stop  offset="0.2259" style="stop-color:#73D9F0"/>
			<stop  offset="0.3241" style="stop-color:#41CBEB"/>
			<stop  offset="0.4096" style="stop-color:#1EC1E7"/>
			<stop  offset="0.4791" style="stop-color:#08BBE5"/>
			<stop  offset="0.5241" style="stop-color:#00B9E4"/>
			<stop  offset="0.5827" style="stop-color:#00B0D9"/>
			<stop  offset="0.685" style="stop-color:#0097BC"/>
			<stop  offset="0.8189" style="stop-color:#006F8E"/>
			<stop  offset="0.9775" style="stop-color:#00384E"/>
			<stop  offset="1" style="stop-color:#003044"/>
		</radialGradient>
		<path fill="url(#SVGID_18_)" d="M7.764,7.609c0,0-0.815,0.583-1.719,2.055C5.013,11.348,2.51,8.671,7.764,7.609z"/>
		
			<radialGradient id="SVGID_19_" cx="-129.0093" cy="651.8145" r="5.1904" gradientTransform="matrix(0.9504 0.311 -0.311 0.9504 330.1138 -572.2363)" gradientUnits="userSpaceOnUse">
			<stop  offset="0" style="stop-color:#FFFFFF"/>
			<stop  offset="0.1171" style="stop-color:#B2EAF7"/>
			<stop  offset="0.2259" style="stop-color:#73D9F0"/>
			<stop  offset="0.3241" style="stop-color:#41CBEB"/>
			<stop  offset="0.4096" style="stop-color:#1EC1E7"/>
			<stop  offset="0.4791" style="stop-color:#08BBE5"/>
			<stop  offset="0.5241" style="stop-color:#00B9E4"/>
			<stop  offset="0.5827" style="stop-color:#00B0D9"/>
			<stop  offset="0.685" style="stop-color:#0097BC"/>
			<stop  offset="0.8189" style="stop-color:#006F8E"/>
			<stop  offset="0.9775" style="stop-color:#00384E"/>
			<stop  offset="1" style="stop-color:#003044"/>
		</radialGradient>
		<path fill="url(#SVGID_19_)" d="M7.099,7.885c0,0-1.566,0.404-2.094,1.061c-0.528,0.656-0.011,1.167,0.43,0.343
			C6.028,8.176,7.099,7.885,7.099,7.885z"/>
	</g>
	<g>
		
			<radialGradient id="SVGID_20_" cx="466.0811" cy="-264.728" r="12.3575" gradientTransform="matrix(0.9727 -0.2322 0.2322 0.9727 -384.844 393.8217)" gradientUnits="userSpaceOnUse">
			<stop  offset="0" style="stop-color:#FFFFFF"/>
			<stop  offset="0.1171" style="stop-color:#B2EAF7"/>
			<stop  offset="0.2259" style="stop-color:#73D9F0"/>
			<stop  offset="0.3241" style="stop-color:#41CBEB"/>
			<stop  offset="0.4096" style="stop-color:#1EC1E7"/>
			<stop  offset="0.4791" style="stop-color:#08BBE5"/>
			<stop  offset="0.5241" style="stop-color:#00B9E4"/>
			<stop  offset="0.5827" style="stop-color:#00B0D9"/>
			<stop  offset="0.685" style="stop-color:#0097BC"/>
			<stop  offset="0.8189" style="stop-color:#006F8E"/>
			<stop  offset="0.9775" style="stop-color:#00384E"/>
			<stop  offset="1" style="stop-color:#003044"/>
		</radialGradient>
		<path fill="url(#SVGID_20_)" d="M2.749,15.567c0,0-0.311,1.579-0.309,4.054C2.44,22.456-3.017,20.834,2.749,15.567z"/>
		
			<radialGradient id="SVGID_21_" cx="465.0371" cy="-273.1646" r="4.4198" gradientTransform="matrix(0.9727 -0.2322 0.2322 0.9727 -384.844 393.8217)" gradientUnits="userSpaceOnUse">
			<stop  offset="0" style="stop-color:#FFFFFF"/>
			<stop  offset="0.1171" style="stop-color:#B2EAF7"/>
			<stop  offset="0.2259" style="stop-color:#73D9F0"/>
			<stop  offset="0.3241" style="stop-color:#41CBEB"/>
			<stop  offset="0.4096" style="stop-color:#1EC1E7"/>
			<stop  offset="0.4791" style="stop-color:#08BBE5"/>
			<stop  offset="0.5241" style="stop-color:#00B9E4"/>
			<stop  offset="0.5827" style="stop-color:#00B0D9"/>
			<stop  offset="0.685" style="stop-color:#0097BC"/>
			<stop  offset="0.8189" style="stop-color:#006F8E"/>
			<stop  offset="0.9775" style="stop-color:#00384E"/>
			<stop  offset="1" style="stop-color:#003044"/>
		</radialGradient>
		<path fill="url(#SVGID_21_)" d="M2.749,15.567c0,0-0.559,1.325-0.558,3.801C2.192,22.203-2.875,20.808,2.749,15.567z"/>
		
			<radialGradient id="SVGID_22_" cx="460.5723" cy="-277.2471" r="7.4448" gradientTransform="matrix(0.9727 -0.2322 0.2322 0.9727 -384.844 393.8217)" gradientUnits="userSpaceOnUse">
			<stop  offset="0" style="stop-color:#FFFFFF"/>
			<stop  offset="0.1171" style="stop-color:#B2EAF7"/>
			<stop  offset="0.2259" style="stop-color:#73D9F0"/>
			<stop  offset="0.3241" style="stop-color:#41CBEB"/>
			<stop  offset="0.4096" style="stop-color:#1EC1E7"/>
			<stop  offset="0.4791" style="stop-color:#08BBE5"/>
			<stop  offset="0.5241" style="stop-color:#00B9E4"/>
			<stop  offset="0.5827" style="stop-color:#00B0D9"/>
			<stop  offset="0.685" style="stop-color:#0097BC"/>
			<stop  offset="0.8189" style="stop-color:#006F8E"/>
			<stop  offset="0.9775" style="stop-color:#00384E"/>
			<stop  offset="1" style="stop-color:#003044"/>
		</radialGradient>
		<path fill="url(#SVGID_22_)" d="M2.143,16.404c0,0-1.61,1.67-1.764,2.869s0.863,1.435,0.783,0.096
			C1.054,17.562,2.143,16.404,2.143,16.404z"/>
	</g>
	<g>
		
			<radialGradient id="SVGID_23_" cx="3454.833" cy="-258.7627" r="7.9949" gradientTransform="matrix(-0.9767 0.2144 0.2144 0.9767 3461.2368 -468.863)" gradientUnits="userSpaceOnUse">
			<stop  offset="0" style="stop-color:#FFFFFF"/>
			<stop  offset="0.1171" style="stop-color:#B2EAF7"/>
			<stop  offset="0.2259" style="stop-color:#73D9F0"/>
			<stop  offset="0.3241" style="stop-color:#41CBEB"/>
			<stop  offset="0.4096" style="stop-color:#1EC1E7"/>
			<stop  offset="0.4791" style="stop-color:#08BBE5"/>
			<stop  offset="0.5241" style="stop-color:#00B9E4"/>
			<stop  offset="0.5827" style="stop-color:#00B0D9"/>
			<stop  offset="0.685" style="stop-color:#0097BC"/>
			<stop  offset="0.8189" style="stop-color:#006F8E"/>
			<stop  offset="0.9775" style="stop-color:#00384E"/>
			<stop  offset="1" style="stop-color:#003044"/>
		</radialGradient>
		<path fill="url(#SVGID_23_)" d="M30.216,10.531c0,0,0.626,0.832,1.323,2.274C32.337,14.458,35.059,11.975,30.216,10.531z"/>
		
			<radialGradient id="SVGID_24_" cx="3454.1562" cy="-264.2202" r="2.841" gradientTransform="matrix(-0.9767 0.2144 0.2144 0.9767 3461.2368 -468.863)" gradientUnits="userSpaceOnUse">
			<stop  offset="0" style="stop-color:#FFFFFF"/>
			<stop  offset="0.1171" style="stop-color:#B2EAF7"/>
			<stop  offset="0.2259" style="stop-color:#73D9F0"/>
			<stop  offset="0.3241" style="stop-color:#41CBEB"/>
			<stop  offset="0.4096" style="stop-color:#1EC1E7"/>
			<stop  offset="0.4791" style="stop-color:#08BBE5"/>
			<stop  offset="0.5241" style="stop-color:#00B9E4"/>
			<stop  offset="0.5827" style="stop-color:#00B0D9"/>
			<stop  offset="0.685" style="stop-color:#0097BC"/>
			<stop  offset="0.8189" style="stop-color:#006F8E"/>
			<stop  offset="0.9775" style="stop-color:#00384E"/>
			<stop  offset="1" style="stop-color:#003044"/>
		</radialGradient>
		<path fill="url(#SVGID_24_)" d="M30.216,10.531c0,0,0.7,0.614,1.396,2.057C32.41,14.241,34.969,12,30.216,10.531z"/>
		
			<radialGradient id="SVGID_25_" cx="3451.2676" cy="-266.8623" r="4.8155" gradientTransform="matrix(-0.9767 0.2144 0.2144 0.9767 3461.2368 -468.863)" gradientUnits="userSpaceOnUse">
			<stop  offset="0" style="stop-color:#FFFFFF"/>
			<stop  offset="0.1171" style="stop-color:#B2EAF7"/>
			<stop  offset="0.2259" style="stop-color:#73D9F0"/>
			<stop  offset="0.3241" style="stop-color:#41CBEB"/>
			<stop  offset="0.4096" style="stop-color:#1EC1E7"/>
			<stop  offset="0.4791" style="stop-color:#08BBE5"/>
			<stop  offset="0.5241" style="stop-color:#00B9E4"/>
			<stop  offset="0.5827" style="stop-color:#00B0D9"/>
			<stop  offset="0.685" style="stop-color:#0097BC"/>
			<stop  offset="0.8189" style="stop-color:#006F8E"/>
			<stop  offset="0.9775" style="stop-color:#00384E"/>
			<stop  offset="1" style="stop-color:#003044"/>
		</radialGradient>
		<path fill="url(#SVGID_25_)" d="M30.806,10.848c0,0,1.408,0.52,1.834,1.175c0.428,0.656-0.098,1.08-0.428,0.278
			C31.767,11.216,30.806,10.848,30.806,10.848z"/>
	</g>
	<g>
		
			<radialGradient id="SVGID_26_" cx="4009.0361" cy="660.7227" r="10.5299" gradientTransform="matrix(-0.9605 -0.2782 -0.2782 0.9605 4063.4104 509.3792)" gradientUnits="userSpaceOnUse">
			<stop  offset="0" style="stop-color:#FFFFFF"/>
			<stop  offset="0.1171" style="stop-color:#B2EAF7"/>
			<stop  offset="0.2259" style="stop-color:#73D9F0"/>
			<stop  offset="0.3241" style="stop-color:#41CBEB"/>
			<stop  offset="0.4096" style="stop-color:#1EC1E7"/>
			<stop  offset="0.4791" style="stop-color:#08BBE5"/>
			<stop  offset="0.5241" style="stop-color:#00B9E4"/>
			<stop  offset="0.5827" style="stop-color:#00B0D9"/>
			<stop  offset="0.685" style="stop-color:#0097BC"/>
			<stop  offset="0.8189" style="stop-color:#006F8E"/>
			<stop  offset="0.9775" style="stop-color:#00384E"/>
			<stop  offset="1" style="stop-color:#003044"/>
		</radialGradient>
		<path fill="url(#SVGID_26_)" d="M33.004,18.016c0,0,0.2,1.356,0.099,3.463C32.986,23.893,37.697,22.732,33.004,18.016z"/>
		
			<radialGradient id="SVGID_27_" cx="4008.1465" cy="653.5322" r="3.7481" gradientTransform="matrix(-0.9605 -0.2782 -0.2782 0.9605 4063.4104 509.3792)" gradientUnits="userSpaceOnUse">
			<stop  offset="0" style="stop-color:#FFFFFF"/>
			<stop  offset="0.1171" style="stop-color:#B2EAF7"/>
			<stop  offset="0.2259" style="stop-color:#73D9F0"/>
			<stop  offset="0.3241" style="stop-color:#41CBEB"/>
			<stop  offset="0.4096" style="stop-color:#1EC1E7"/>
			<stop  offset="0.4791" style="stop-color:#08BBE5"/>
			<stop  offset="0.5241" style="stop-color:#00B9E4"/>
			<stop  offset="0.5827" style="stop-color:#00B0D9"/>
			<stop  offset="0.685" style="stop-color:#0097BC"/>
			<stop  offset="0.8189" style="stop-color:#006F8E"/>
			<stop  offset="0.9775" style="stop-color:#00384E"/>
			<stop  offset="1" style="stop-color:#003044"/>
		</radialGradient>
		<path fill="url(#SVGID_27_)" d="M33.004,18.016c0,0,0.422,1.15,0.32,3.258C33.208,23.687,37.579,22.705,33.004,18.016z"/>
		
			<radialGradient id="SVGID_28_" cx="4004.3438" cy="650.0547" r="6.3443" gradientTransform="matrix(-0.9605 -0.2782 -0.2782 0.9605 4063.4104 509.3792)" gradientUnits="userSpaceOnUse">
			<stop  offset="0" style="stop-color:#FFFFFF"/>
			<stop  offset="0.1171" style="stop-color:#B2EAF7"/>
			<stop  offset="0.2259" style="stop-color:#73D9F0"/>
			<stop  offset="0.3241" style="stop-color:#41CBEB"/>
			<stop  offset="0.4096" style="stop-color:#1EC1E7"/>
			<stop  offset="0.4791" style="stop-color:#08BBE5"/>
			<stop  offset="0.5241" style="stop-color:#00B9E4"/>
			<stop  offset="0.5827" style="stop-color:#00B0D9"/>
			<stop  offset="0.685" style="stop-color:#0097BC"/>
			<stop  offset="0.8189" style="stop-color:#006F8E"/>
			<stop  offset="0.9775" style="stop-color:#00384E"/>
			<stop  offset="1" style="stop-color:#003044"/>
		</radialGradient>
		<path fill="url(#SVGID_28_)" d="M33.484,18.752c0,0,1.304,1.488,1.385,2.515c0.082,1.026-0.792,1.187-0.67,0.05
			C34.365,19.783,33.484,18.752,33.484,18.752z"/>
	</g>
</g>
</svg>
