<?xml version="1.0" encoding="utf-8"?>
<!-- Generator: Adobe Illustrator 15.1.0, SVG Export Plug-In . SVG Version: 6.00 Build 0)  -->
<!DOCTYPE svg PUBLIC "-//W3C//DTD SVG 1.1//EN" "http://www.w3.org/Graphics/SVG/1.1/DTD/svg11.dtd">
<svg version="1.1" id="Layer_1" xmlns="http://www.w3.org/2000/svg" xmlns:xlink="http://www.w3.org/1999/xlink" x="0px" y="0px"
	 width="35px" height="35px" viewBox="0 0 35 35" enable-background="new 0 0 35 35" xml:space="preserve">
<g>
	<g>
		
			<radialGradient id="SVGID_1_" cx="3534.8076" cy="-816.3364" r="3.9794" gradientTransform="matrix(-0.9198 0.3924 0.3924 0.9198 3604.3054 -627.3299)" gradientUnits="userSpaceOnUse">
			<stop  offset="0" style="stop-color:#FFFFFF"/>
			<stop  offset="0.1775" style="stop-color:#F9F9FA"/>
			<stop  offset="0.4101" style="stop-color:#E9E9EA"/>
			<stop  offset="0.6723" style="stop-color:#CECFD0"/>
			<stop  offset="0.7527" style="stop-color:#C4C5C7"/>
			<stop  offset="0.9216" style="stop-color:#7D7E80"/>
			<stop  offset="1" style="stop-color:#616264"/>
		</radialGradient>
		<path fill="url(#SVGID_1_)" d="M34.328,14.173c-0.283-3.082,0.716-4.643,0.657-6.907c-0.056-2.127-3.97-0.534-3.005,3.94
			c0.434,2.013-1.72,2.16-1.72,2.16l2.985,1.609L34.328,14.173z"/>
		
			<linearGradient id="SVGID_2_" gradientUnits="userSpaceOnUse" x1="300.3018" y1="626.5928" x2="299.3488" y2="624.3981" gradientTransform="matrix(0.9065 0.4223 -0.4223 0.9065 22.8593 -675.6352)">
			<stop  offset="0" style="stop-color:#FFFFFF"/>
			<stop  offset="0.2619" style="stop-color:#FCFCFC"/>
			<stop  offset="0.431" style="stop-color:#F4F4F4"/>
			<stop  offset="0.574" style="stop-color:#E5E5E6"/>
			<stop  offset="0.7015" style="stop-color:#D0D1D2"/>
			<stop  offset="0.7582" style="stop-color:#C4C5C7"/>
			<stop  offset="0.8239" style="stop-color:#B3B4B7"/>
			<stop  offset="0.9525" style="stop-color:#88898C"/>
			<stop  offset="1" style="stop-color:#77787B"/>
		</linearGradient>
		<path fill="url(#SVGID_2_)" d="M32.694,18.635c-0.496,0.217-1.139,0.219-1.871,0.276c-1.029,0.08-2.056-0.033-2.699-0.376
			c-0.304-0.16-0.327-0.41-0.348-0.913c-0.012-0.271,0.075-0.697,0.432-0.833c0.763-0.292,3.838-0.37,4.825,0.417
			c0.134,0.106,0.194,0.467,0.189,0.707C33.217,18.168,32.974,18.512,32.694,18.635z"/>
		
			<linearGradient id="SVGID_3_" gradientUnits="userSpaceOnUse" x1="158.041" y1="777.6094" x2="156.1379" y2="774.4651" gradientTransform="matrix(0.8134 0.4162 -0.3521 0.8357 176.3267 -697.6838)">
			<stop  offset="0" style="stop-color:#FFFFFF"/>
			<stop  offset="0.2619" style="stop-color:#FCFCFC"/>
			<stop  offset="0.431" style="stop-color:#F4F4F4"/>
			<stop  offset="0.574" style="stop-color:#E5E5E6"/>
			<stop  offset="0.7015" style="stop-color:#D0D1D2"/>
			<stop  offset="0.7582" style="stop-color:#C4C5C7"/>
			<stop  offset="0.8239" style="stop-color:#B3B4B7"/>
			<stop  offset="0.9525" style="stop-color:#88898C"/>
			<stop  offset="1" style="stop-color:#77787B"/>
		</linearGradient>
		<path fill="url(#SVGID_3_)" d="M33.726,16.891c-1.445,0.634-4.293,0.757-5.651,0.079c-0.464-0.232-0.519-0.845-0.475-1.262
			c0.034-0.318-0.067-0.896,0.364-1.063c0.925-0.357,4.679-0.491,5.899,0.428c0.166,0.125,0.247,0.551,0.245,0.836
			C34.107,16.212,34.064,16.743,33.726,16.891z"/>
		
			<linearGradient id="SVGID_4_" gradientUnits="userSpaceOnUse" x1="2861.9229" y1="-143.1216" x2="2861.5349" y2="-146.4196" gradientTransform="matrix(-0.9901 0.1406 0.1406 0.9901 2884.9333 -245.2892)">
			<stop  offset="0" style="stop-color:#FFFFFF"/>
			<stop  offset="0.2619" style="stop-color:#FCFCFC"/>
			<stop  offset="0.431" style="stop-color:#F4F4F4"/>
			<stop  offset="0.574" style="stop-color:#E5E5E6"/>
			<stop  offset="0.7015" style="stop-color:#D0D1D2"/>
			<stop  offset="0.7582" style="stop-color:#C4C5C7"/>
			<stop  offset="0.8239" style="stop-color:#B3B4B7"/>
			<stop  offset="0.9525" style="stop-color:#88898C"/>
			<stop  offset="1" style="stop-color:#77787B"/>
		</linearGradient>
		<path fill="url(#SVGID_4_)" d="M34.507,14.886c-0.596,0.308-1.622,0.384-3.116,0.361c-1.262-0.019-2.942-0.063-3.498-0.55
			c-0.453-0.398-0.373-0.896-0.265-1.388c0.082-0.376,0.287-1.122,0.818-1.284c0.563-0.172,1.718,0.013,2.939,0.17
			c1.34,0.172,2.752,0.354,3.338,0.964c0.216,0.225,0.303,0.526,0.27,0.81C34.955,14.292,34.786,14.742,34.507,14.886z"/>
		
			<linearGradient id="SVGID_5_" gradientUnits="userSpaceOnUse" x1="-128.228" y1="-83.1953" x2="-127.0446" y2="-82.4916" gradientTransform="matrix(0.9952 -0.0976 0.0976 0.9952 168.6892 86.2427)">
			<stop  offset="0" style="stop-color:#FFFFFF"/>
			<stop  offset="0.2619" style="stop-color:#FCFCFC"/>
			<stop  offset="0.431" style="stop-color:#F4F4F4"/>
			<stop  offset="0.574" style="stop-color:#E5E5E6"/>
			<stop  offset="0.7015" style="stop-color:#D0D1D2"/>
			<stop  offset="0.7582" style="stop-color:#C4C5C7"/>
			<stop  offset="0.8239" style="stop-color:#B3B4B7"/>
			<stop  offset="0.9525" style="stop-color:#88898C"/>
			<stop  offset="1" style="stop-color:#77787B"/>
		</linearGradient>
		<path fill="url(#SVGID_5_)" d="M34.11,16.053c0,0-0.042-0.994,0.796-1.77c0,0-0.761,0.712-1.412,0.859c0,0,0.6,0.745,0.453,1.231
			c-0.146,0.485-1.248,0.843-1.248,0.843s0.393,0.045,0.386,0.544c-0.006,0.5-0.319,0.697-0.319,0.697s0.442-0.015,0.586-0.806
			C33.496,16.861,34.051,16.863,34.11,16.053L34.11,16.053z"/>
	</g>
	
		<radialGradient id="SVGID_6_" cx="2302.5566" cy="-88.3906" r="18.5876" fx="2303.9702" fy="-85.5439" gradientTransform="matrix(0.9594 -0.282 0.282 0.9594 -2166.3511 748.3188)" gradientUnits="userSpaceOnUse">
		<stop  offset="0" style="stop-color:#FFF100"/>
		<stop  offset="0.143" style="stop-color:#FFEE01"/>
		<stop  offset="0.2395" style="stop-color:#FEE504"/>
		<stop  offset="0.3223" style="stop-color:#FCD609"/>
		<stop  offset="0.3974" style="stop-color:#FAC110"/>
		<stop  offset="0.4672" style="stop-color:#F7A519"/>
		<stop  offset="0.5323" style="stop-color:#F48324"/>
		<stop  offset="0.5495" style="stop-color:#F37927"/>
		<stop  offset="0.7143" style="stop-color:#FFF100"/>
	</radialGradient>
	<circle fill="url(#SVGID_6_)" cx="18.915" cy="17.359" r="9.578"/>
	
		<linearGradient id="SVGID_7_" gradientUnits="userSpaceOnUse" x1="2156.2471" y1="681.625" x2="2156.2471" y2="689.7917" gradientTransform="matrix(0.9999 0.0169 -0.0169 0.9999 -2125.4624 -707.8446)">
		<stop  offset="0" style="stop-color:#FFF4CB"/>
		<stop  offset="1" style="stop-color:#FFF100"/>
	</linearGradient>
	<path fill="url(#SVGID_7_)" d="M25.527,13.589c0.047-2.736-2.886-5.004-6.551-5.066c-3.664-0.062-6.673,2.106-6.719,4.842
		c-0.046,2.736,2.887,5.004,6.551,5.066C22.474,18.492,25.482,16.325,25.527,13.589z"/>
	
		<linearGradient id="SVGID_8_" gradientUnits="userSpaceOnUse" x1="2304.6875" y1="-79.4189" x2="2303.5479" y2="-85.2161" gradientTransform="matrix(0.9594 -0.282 0.282 0.9594 -2166.3511 748.3188)">
		<stop  offset="0" style="stop-color:#FFF100"/>
		<stop  offset="0.2176" style="stop-color:#FEDC0B"/>
		<stop  offset="0.5385" style="stop-color:#FCB61F"/>
		<stop  offset="0.8077" style="stop-color:#DC5A26"/>
		<stop  offset="1" style="stop-color:#DC5A26"/>
	</linearGradient>
	<path fill="url(#SVGID_8_)" d="M11.857,18.561c0,0,10.228-1.905,13.537-7.21c0,0,1.775,3.924,1.402,7.4
		c-0.241,2.25-1.382,4.974-3.538,5.791C16.675,27.038,11.857,18.561,11.857,18.561z"/>
	<linearGradient id="SVGID_9_" gradientUnits="userSpaceOnUse" x1="23.3975" y1="24.0205" x2="18.7815" y2="15.2502">
		<stop  offset="0" style="stop-color:#FFFFFF"/>
		<stop  offset="0.6037" style="stop-color:#FFFFFF"/>
		<stop  offset="0.6471" style="stop-color:#FFFFFF"/>
		<stop  offset="0.7122" style="stop-color:#FCFCFC"/>
		<stop  offset="0.7684" style="stop-color:#F1F1F1"/>
		<stop  offset="0.8214" style="stop-color:#DFDFE0"/>
		<stop  offset="0.8724" style="stop-color:#C6C7C8"/>
		<stop  offset="0.922" style="stop-color:#A6A6A8"/>
		<stop  offset="0.9698" style="stop-color:#7F8082"/>
		<stop  offset="1" style="stop-color:#626366"/>
	</linearGradient>
	<path fill="url(#SVGID_9_)" d="M11.857,18.561c0,0,10.997-0.914,13.537-7.21c0,0,1.573,3.709,1.2,7.186
		c-0.241,2.25-1.498,4.63-3.631,5.509C17.081,26.468,11.857,18.561,11.857,18.561z"/>
	
		<linearGradient id="SVGID_10_" gradientUnits="userSpaceOnUse" x1="-12.1074" y1="-365.7036" x2="-11.2354" y2="-369.602" gradientTransform="matrix(0.9654 -0.2607 0.2607 0.9654 122.9614 369.8185)">
		<stop  offset="0" style="stop-color:#FFF100"/>
		<stop  offset="0.2753" style="stop-color:#FEDC0B"/>
		<stop  offset="0.6813" style="stop-color:#FCB61F"/>
		<stop  offset="1" style="stop-color:#DC5A26"/>
	</linearGradient>
	<path fill="url(#SVGID_10_)" d="M14.027,17.254c0,0-1.183-5.803,3.405-5.269C17.433,11.985,14.651,12.287,14.027,17.254z"/>
	
		<linearGradient id="SVGID_11_" gradientUnits="userSpaceOnUse" x1="154.2666" y1="352.0781" x2="149.3935" y2="349.2569" gradientTransform="matrix(0.9717 0.2361 -0.2361 0.9717 -41.8433 -362.5858)">
		<stop  offset="0" style="stop-color:#FFF100"/>
		<stop  offset="0.2753" style="stop-color:#FEDC0B"/>
		<stop  offset="0.6813" style="stop-color:#FCB61F"/>
		<stop  offset="1" style="stop-color:#DC5A26"/>
	</linearGradient>
	<path fill="url(#SVGID_11_)" d="M23.138,12.351c0,0-2.646-3.529-4.683-0.623C18.455,11.728,19.967,10.173,23.138,12.351z"/>
	
		<linearGradient id="SVGID_12_" gradientUnits="userSpaceOnUse" x1="2299.7822" y1="-81.813" x2="2308.9985" y2="-83.3288" gradientTransform="matrix(0.9594 -0.282 0.282 0.9594 -2166.3511 748.3188)">
		<stop  offset="0" style="stop-color:#A6A8AB"/>
		<stop  offset="0.522" style="stop-color:#DBDCDD"/>
		<stop  offset="0.7342" style="stop-color:#C6C7C9"/>
		<stop  offset="1" style="stop-color:#A6A8AB"/>
	</linearGradient>
	<path fill="url(#SVGID_12_)" d="M15,22.002c0,0,8.367-0.055,11.557-6.297L26.5,15.479c-3.659,6.641-11.844,6.266-11.844,6.266
		L15,22.002z"/>
	<g>
		
			<radialGradient id="SVGID_13_" cx="221.8496" cy="-366.02" r="4.6072" gradientTransform="matrix(0.9854 -0.17 0.17 0.9854 -152.9629 416.9286)" gradientUnits="userSpaceOnUse">
			<stop  offset="0" style="stop-color:#FFFFFF"/>
			<stop  offset="0.1775" style="stop-color:#F9F9FA"/>
			<stop  offset="0.4101" style="stop-color:#E9E9EA"/>
			<stop  offset="0.6723" style="stop-color:#CECFD0"/>
			<stop  offset="0.7527" style="stop-color:#C4C5C7"/>
			<stop  offset="0.9216" style="stop-color:#7D7E80"/>
			<stop  offset="1" style="stop-color:#616264"/>
		</radialGradient>
		<path fill="url(#SVGID_13_)" d="M5.195,24.813c-1.662-3.175-3.613-4.062-4.98-6.302c-1.285-2.102,3.522-3.014,5.397,1.941
			c0.844,2.229,3.029,1.019,3.029,1.019l-1.89,3.441L5.195,24.813z"/>
		
			<linearGradient id="SVGID_14_" gradientUnits="userSpaceOnUse" x1="2849.0293" y1="-1536.1211" x2="2847.9253" y2="-1538.6633" gradientTransform="matrix(-0.5318 0.8469 0.8469 0.5318 2828.1255 -1568.5734)">
			<stop  offset="0" style="stop-color:#FFFFFF"/>
			<stop  offset="0.2619" style="stop-color:#FCFCFC"/>
			<stop  offset="0.431" style="stop-color:#F4F4F4"/>
			<stop  offset="0.574" style="stop-color:#E5E5E6"/>
			<stop  offset="0.7015" style="stop-color:#D0D1D2"/>
			<stop  offset="0.7582" style="stop-color:#C4C5C7"/>
			<stop  offset="0.8239" style="stop-color:#B3B4B7"/>
			<stop  offset="0.9525" style="stop-color:#88898C"/>
			<stop  offset="1" style="stop-color:#77787B"/>
		</linearGradient>
		<path fill="url(#SVGID_14_)" d="M9.589,28.124c0.618-0.103,1.245-0.503,1.993-0.908c1.051-0.568,1.978-1.324,2.389-2.062
			c0.192-0.348,0.059-0.604-0.237-1.106c-0.159-0.271-0.511-0.63-0.943-0.539c-0.925,0.195-3.963,2.054-4.429,3.438
			c-0.062,0.188,0.104,0.576,0.261,0.808C8.788,28,9.241,28.181,9.589,28.124z"/>
		
			<linearGradient id="SVGID_15_" gradientUnits="userSpaceOnUse" x1="3041.8613" y1="-1716.75" x2="3039.6589" y2="-1720.3889" gradientTransform="matrix(-0.4569 0.7912 0.7495 0.5105 2687.2898 -1503.7438)">
			<stop  offset="0" style="stop-color:#FFFFFF"/>
			<stop  offset="0.2619" style="stop-color:#FCFCFC"/>
			<stop  offset="0.431" style="stop-color:#F4F4F4"/>
			<stop  offset="0.574" style="stop-color:#E5E5E6"/>
			<stop  offset="0.7015" style="stop-color:#D0D1D2"/>
			<stop  offset="0.7582" style="stop-color:#C4C5C7"/>
			<stop  offset="0.8239" style="stop-color:#B3B4B7"/>
			<stop  offset="0.9525" style="stop-color:#88898C"/>
			<stop  offset="1" style="stop-color:#77787B"/>
		</linearGradient>
		<path fill="url(#SVGID_15_)" d="M7.49,27.077c1.803-0.292,4.649-1.963,5.544-3.477c0.305-0.518-0.027-1.147-0.333-1.525
			c-0.233-0.288-0.497-0.913-1.022-0.804c-1.124,0.234-4.856,2.463-5.465,4.124c-0.083,0.226,0.105,0.691,0.286,0.968
			C6.692,26.657,7.068,27.146,7.49,27.077z"/>
		
			<linearGradient id="SVGID_16_" gradientUnits="userSpaceOnUse" x1="-454.1782" y1="-565.8979" x2="-454.6274" y2="-569.7165" gradientTransform="matrix(0.9077 -0.4196 0.4196 0.9077 658.5636 347.066)">
			<stop  offset="0" style="stop-color:#FFFFFF"/>
			<stop  offset="0.2619" style="stop-color:#FCFCFC"/>
			<stop  offset="0.431" style="stop-color:#F4F4F4"/>
			<stop  offset="0.574" style="stop-color:#E5E5E6"/>
			<stop  offset="0.7015" style="stop-color:#D0D1D2"/>
			<stop  offset="0.7582" style="stop-color:#C4C5C7"/>
			<stop  offset="0.8239" style="stop-color:#B3B4B7"/>
			<stop  offset="0.9525" style="stop-color:#88898C"/>
			<stop  offset="1" style="stop-color:#77787B"/>
		</linearGradient>
		<path fill="url(#SVGID_16_)" d="M5.471,25.619c0.772-0.075,1.818-0.646,3.257-1.607c1.214-0.812,2.819-1.91,3.054-2.733
			c0.191-0.673-0.2-1.106-0.614-1.517c-0.317-0.312-0.985-0.91-1.604-0.732c-0.656,0.186-1.662,1.092-2.751,2.013
			c-1.193,1.011-2.452,2.074-2.638,3.036c-0.068,0.354,0.036,0.701,0.247,0.956C4.661,25.323,5.108,25.654,5.471,25.619z"/>
		
			<linearGradient id="SVGID_17_" gradientUnits="userSpaceOnUse" x1="3166.7236" y1="-648.9556" x2="3168.0918" y2="-648.1421" gradientTransform="matrix(-0.8887 0.4585 0.4585 0.8887 3119.4165 -849.6428)">
			<stop  offset="0" style="stop-color:#FFFFFF"/>
			<stop  offset="0.2619" style="stop-color:#FCFCFC"/>
			<stop  offset="0.431" style="stop-color:#F4F4F4"/>
			<stop  offset="0.574" style="stop-color:#E5E5E6"/>
			<stop  offset="0.7015" style="stop-color:#D0D1D2"/>
			<stop  offset="0.7582" style="stop-color:#C4C5C7"/>
			<stop  offset="0.8239" style="stop-color:#B3B4B7"/>
			<stop  offset="0.9525" style="stop-color:#88898C"/>
			<stop  offset="1" style="stop-color:#77787B"/>
		</linearGradient>
		<path fill="url(#SVGID_17_)" d="M6.59,26.504c0,0-0.584-0.992-1.888-1.219c0,0,1.188,0.214,1.914-0.053
			c0,0-0.114,1.102,0.333,1.481c0.448,0.38,1.744,0.035,1.744,0.035s-0.354,0.29-0.033,0.771c0.32,0.482,0.749,0.477,0.749,0.477
			s-0.44,0.263-1.077-0.415S7.156,27.254,6.59,26.504L6.59,26.504z"/>
	</g>
</g>
</svg>
