<?xml version="1.0" encoding="utf-8"?>
<!-- Generator: Adobe Illustrator 15.1.0, SVG Export Plug-In . SVG Version: 6.00 Build 0)  -->
<!DOCTYPE svg PUBLIC "-//W3C//DTD SVG 1.1//EN" "http://www.w3.org/Graphics/SVG/1.1/DTD/svg11.dtd">
<svg version="1.1" id="Layer_1" xmlns="http://www.w3.org/2000/svg" xmlns:xlink="http://www.w3.org/1999/xlink" x="0px" y="0px"
	 width="35px" height="35px" viewBox="0 0 35 35" enable-background="new 0 0 35 35" xml:space="preserve">
<g>
	
		<radialGradient id="SVGID_1_" cx="1487.7002" cy="-307.6597" r="33.5456" fx="1490.2513" fy="-302.5221" gradientTransform="matrix(0.9414 -0.3373 0.3373 0.9414 -1281.2661 803.6483)" gradientUnits="userSpaceOnUse">
		<stop  offset="0" style="stop-color:#FFF100"/>
		<stop  offset="0.143" style="stop-color:#FFEE01"/>
		<stop  offset="0.2395" style="stop-color:#FEE504"/>
		<stop  offset="0.3223" style="stop-color:#FCD609"/>
		<stop  offset="0.3974" style="stop-color:#FAC110"/>
		<stop  offset="0.4672" style="stop-color:#F7A519"/>
		<stop  offset="0.5323" style="stop-color:#F48324"/>
		<stop  offset="0.5495" style="stop-color:#F37927"/>
		<stop  offset="0.7143" style="stop-color:#FFF100"/>
	</radialGradient>
	<circle fill="url(#SVGID_1_)" cx="17.71" cy="17.693" r="17.286"/>
	
		<linearGradient id="SVGID_2_" gradientUnits="userSpaceOnUse" x1="1488.2188" y1="-314.2651" x2="1488.2188" y2="-299.5257" gradientTransform="matrix(0.9414 -0.3373 0.3373 0.9414 -1281.2661 803.6483)">
		<stop  offset="0" style="stop-color:#FFF4CB"/>
		<stop  offset="1" style="stop-color:#FFF100"/>
	</linearGradient>
	<path fill="url(#SVGID_2_)" d="M27.002,7.38c-1.666-4.649-8.063-6.609-14.29-4.377c-6.227,2.23-9.924,7.809-8.258,12.458
		s8.064,6.609,14.292,4.377C24.972,17.606,28.668,12.029,27.002,7.38z"/>
	<linearGradient id="SVGID_3_" gradientUnits="userSpaceOnUse" x1="20.4775" y1="26.918" x2="22.1496" y2="31.8226">
		<stop  offset="0" style="stop-color:#EC2024"/>
		<stop  offset="0.168" style="stop-color:#CB1619"/>
		<stop  offset="0.5134" style="stop-color:#7D0000"/>
		<stop  offset="1" style="stop-color:#3D0000"/>
	</linearGradient>
	<path fill="url(#SVGID_3_)" d="M24.298,25.145c-1.092,1.264-4.331,2.611-6.687,2.037c-1.668-0.406-3.537,0.248-4.701-0.258
		c0.488,0.387,1.799,0.869,2.605,1.654c1.803,1.754,3.164,2.33,6.354,1.344c2.538-0.785,3.303-2.137,3.763-4.205
		c0.217-0.973,0.784-2.669,0.989-2.979C26.018,23.646,25.061,24.26,24.298,25.145z"/>
	<linearGradient id="SVGID_4_" gradientUnits="userSpaceOnUse" x1="19.2285" y1="23.0127" x2="21.1234" y2="29.4216">
		<stop  offset="0" style="stop-color:#EC2024"/>
		<stop  offset="0.168" style="stop-color:#CB1619"/>
		<stop  offset="0.5134" style="stop-color:#7D0000"/>
		<stop  offset="1" style="stop-color:#3D0000"/>
	</linearGradient>
	<path fill="url(#SVGID_4_)" d="M17.521,27.805c2.418,0.189,5.87-1.168,6.963-2.433c0.763-0.884,1.011-0.996,1.533-1.663
		c0.308-0.37,0.585-0.943,0.604-0.972c-0.15,0.145-0.797,1.258-2.724,0.22c-2.585-1.392-3.842,1.395-3.842,1.395
		s-3.011-1.589-4.51,1.092c-1.17,2.092-2.637,1.48-2.637,1.48l0,0C14.504,27.695,15.273,27.631,17.521,27.805z"/>
	
		<linearGradient id="SVGID_5_" gradientUnits="userSpaceOnUse" x1="749.4102" y1="-249.5811" x2="752.6732" y2="-264.6132" gradientTransform="matrix(0.9518 -0.3068 0.3068 0.9518 -612.2931 488.9536)">
		<stop  offset="0" style="stop-color:#FFF100"/>
		<stop  offset="0.2753" style="stop-color:#FEDC0B"/>
		<stop  offset="0.6813" style="stop-color:#FCB61F"/>
		<stop  offset="1" style="stop-color:#DC5A26"/>
	</linearGradient>
	<path fill="url(#SVGID_5_)" d="M17.414,13.054c0.471,4.263,3.575,7.378,6.934,6.957c3.357-0.421,5.698-4.218,5.228-8.481
		S26,4.151,22.641,4.573C19.283,4.993,16.942,8.791,17.414,13.054z"/>
	
		<radialGradient id="SVGID_6_" cx="1002.79" cy="-163.6377" r="12.0187" gradientTransform="matrix(-1.1045 0.1384 0.1182 1.0693 1149.4624 54.275)" gradientUnits="userSpaceOnUse">
		<stop  offset="0" style="stop-color:#FFFFFF"/>
		<stop  offset="0.3734" style="stop-color:#FDFEFF"/>
		<stop  offset="0.5079" style="stop-color:#F6FCFE"/>
		<stop  offset="0.6038" style="stop-color:#EBF8FC"/>
		<stop  offset="0.6813" style="stop-color:#DAF2FA"/>
		<stop  offset="0.7477" style="stop-color:#C4EAF7"/>
		<stop  offset="0.8064" style="stop-color:#A8E0F3"/>
		<stop  offset="0.8583" style="stop-color:#89D5EE"/>
		<stop  offset="0.8791" style="stop-color:#7AD0EC"/>
	</radialGradient>
	<path fill="url(#SVGID_6_)" d="M18.011,13.996c0.419,3.791,3.18,6.561,6.167,6.188c2.985-0.375,5.067-3.752,4.648-7.543
		c-0.419-3.791-3.18-6.561-6.166-6.187C19.673,6.828,17.593,10.205,18.011,13.996z"/>
	
		<linearGradient id="SVGID_7_" gradientUnits="userSpaceOnUse" x1="750.6875" y1="-258.4756" x2="755.5946" y2="-267.2517" gradientTransform="matrix(0.9518 -0.3068 0.3068 0.9518 -612.2931 488.9536)">
		<stop  offset="0" style="stop-color:#FFFFFF"/>
		<stop  offset="0.2964" style="stop-color:#FDFEFF"/>
		<stop  offset="0.4031" style="stop-color:#F6FCFE"/>
		<stop  offset="0.4792" style="stop-color:#EBF8FC"/>
		<stop  offset="0.5408" style="stop-color:#DAF2FA"/>
		<stop  offset="0.5935" style="stop-color:#C4EAF7"/>
		<stop  offset="0.6401" style="stop-color:#A8E0F3"/>
		<stop  offset="0.6813" style="stop-color:#89D5EE"/>
		<stop  offset="0.6978" style="stop-color:#7AD0EC"/>
	</linearGradient>
	<path fill="url(#SVGID_7_)" d="M26.83,9.455c-0.635-1.973-2.733-3.062-4.688-2.431c-1.953,0.63-3.021,2.74-2.387,4.714
		c0.636,1.973,2.735,3.061,4.688,2.431C26.397,13.539,27.466,11.428,26.83,9.455z"/>
	<g>
		<path fill="#231F20" d="M21.055,15.273c-0.061-1.75,0.897-3.2,2.139-3.238c1.243-0.037,2.301,1.351,2.363,3.102
			c0.062,1.75-0.896,3.2-2.139,3.238S21.118,17.023,21.055,15.273z"/>
		
			<linearGradient id="SVGID_8_" gradientUnits="userSpaceOnUse" x1="33.7568" y1="-206.3281" x2="36.2301" y2="-209.1465" gradientTransform="matrix(0.9908 -0.1355 0.1355 0.9908 17.4686 225.0284)">
			<stop  offset="0" style="stop-color:#231F20"/>
			<stop  offset="0.3762" style="stop-color:#363335"/>
			<stop  offset="1" style="stop-color:#5C5D60"/>
		</linearGradient>
		<path fill="url(#SVGID_8_)" d="M24.919,14.869c0.145,0.999-0.329,1.886-1.053,1.982c-0.725,0.094-1.429-0.64-1.572-1.639
			c-0.144-1,0.328-1.888,1.054-1.982C24.073,13.135,24.776,13.87,24.919,14.869z"/>
		
			<ellipse transform="matrix(0.9999 -0.0152 0.0152 0.9999 -0.2173 0.3547)" fill="#FFFFFF" cx="23.171" cy="14.438" rx="0.849" ry="1.17"/>
	</g>
	
		<linearGradient id="SVGID_9_" gradientUnits="userSpaceOnUse" x1="779.0664" y1="-247.4028" x2="774.5992" y2="-271.4834" gradientTransform="matrix(0.9384 -0.3457 0.3457 0.9384 -626.5796 530.7736)">
		<stop  offset="0" style="stop-color:#FFF100"/>
		<stop  offset="0.2753" style="stop-color:#FEDC0B"/>
		<stop  offset="0.6813" style="stop-color:#FCB61F"/>
		<stop  offset="1" style="stop-color:#DC5A26"/>
	</linearGradient>
	<path fill="url(#SVGID_9_)" d="M15.95,13.237c1.832,3.799,1.039,7.992-1.771,9.365c-2.812,1.373-6.575-0.593-8.407-4.391
		c-1.832-3.799-1.039-7.992,1.771-9.365C10.354,7.473,14.118,9.439,15.95,13.237z"/>
	
		<radialGradient id="SVGID_10_" cx="1282.8867" cy="-115.937" r="11.6847" gradientTransform="matrix(0.9508 -0.4646 0.4727 0.9799 -1150.4453 729.7296)" gradientUnits="userSpaceOnUse">
		<stop  offset="0" style="stop-color:#FFFFFF"/>
		<stop  offset="0.3734" style="stop-color:#FDFEFF"/>
		<stop  offset="0.5079" style="stop-color:#F6FCFE"/>
		<stop  offset="0.6038" style="stop-color:#EBF8FC"/>
		<stop  offset="0.6813" style="stop-color:#DAF2FA"/>
		<stop  offset="0.7477" style="stop-color:#C4EAF7"/>
		<stop  offset="0.8064" style="stop-color:#A8E0F3"/>
		<stop  offset="0.8583" style="stop-color:#89D5EE"/>
		<stop  offset="0.8791" style="stop-color:#7AD0EC"/>
	</radialGradient>
	<path fill="url(#SVGID_10_)" d="M15.974,14.33c1.63,3.378,0.924,7.106-1.575,8.328c-2.499,1.221-5.847-0.527-7.476-3.906
		c-1.63-3.377-0.924-7.105,1.575-8.327C10.998,9.203,14.346,10.951,15.974,14.33z"/>
	
		<linearGradient id="SVGID_11_" gradientUnits="userSpaceOnUse" x1="483.4023" y1="-276.7881" x2="488.1758" y2="-285.3253" gradientTransform="matrix(-0.967 0.2547 0.2547 0.967 549.5025 160.1674)">
		<stop  offset="0" style="stop-color:#FFFFFF"/>
		<stop  offset="0.2964" style="stop-color:#FDFEFF"/>
		<stop  offset="0.4031" style="stop-color:#F6FCFE"/>
		<stop  offset="0.4792" style="stop-color:#EBF8FC"/>
		<stop  offset="0.5408" style="stop-color:#DAF2FA"/>
		<stop  offset="0.5935" style="stop-color:#C4EAF7"/>
		<stop  offset="0.6401" style="stop-color:#A8E0F3"/>
		<stop  offset="0.6813" style="stop-color:#89D5EE"/>
		<stop  offset="0.6978" style="stop-color:#7AD0EC"/>
	</linearGradient>
	<path fill="url(#SVGID_11_)" d="M6.823,15.07c-0.526-1.973,0.534-3.958,2.368-4.435c1.833-0.478,3.745,0.734,4.271,2.707
		c0.524,1.973-0.535,3.958-2.368,4.437C9.261,18.255,7.349,17.043,6.823,15.07z"/>
	<g>
		<path fill="#231F20" d="M10.158,19.216c-0.684-1.648-0.349-3.355,0.747-3.811c1.096-0.457,2.538,0.51,3.221,2.158
			c0.684,1.648,0.349,3.355-0.747,3.811C12.283,21.83,10.841,20.863,10.158,19.216z"/>
		
			<linearGradient id="SVGID_12_" gradientUnits="userSpaceOnUse" x1="902.0996" y1="-266.2285" x2="904.5961" y2="-269.0734" gradientTransform="matrix(0.879 -0.4767 0.4767 0.879 -653.9807 683.3874)">
			<stop  offset="0" style="stop-color:#231F20"/>
			<stop  offset="0.3762" style="stop-color:#363335"/>
			<stop  offset="1" style="stop-color:#5C5D60"/>
		</linearGradient>
		<path fill="url(#SVGID_12_)" d="M13.462,17.524c0.486,0.903,0.384,1.908-0.229,2.245c-0.613,0.335-1.505-0.127-1.99-1.031
			c-0.487-0.905-0.385-1.911,0.229-2.247C12.084,16.158,12.976,16.619,13.462,17.524z"/>
		
			<ellipse transform="matrix(0.9294 -0.3689 0.3689 0.9294 -5.7034 5.5833)" fill="#FFFFFF" cx="11.748" cy="17.705" rx="0.811" ry="1.191"/>
	</g>
	<g>
		<linearGradient id="SVGID_13_" gradientUnits="userSpaceOnUse" x1="7.1611" y1="9.1406" x2="11.539" y2="16.5033">
			<stop  offset="0" style="stop-color:#EBDFED"/>
			<stop  offset="0.1553" style="stop-color:#E4CAE1"/>
			<stop  offset="0.4747" style="stop-color:#D194C1"/>
			<stop  offset="0.5348" style="stop-color:#CD89BB"/>
			<stop  offset="1" style="stop-color:#6B146E"/>
		</linearGradient>
		<path fill="url(#SVGID_13_)" d="M8.498,10.425c-2.25,1.1-3.045,4.229-1.994,7.306c2.606-2.324,6.045-3.933,8.977-4.294
			C13.734,10.654,10.767,9.316,8.498,10.425z"/>
	</g>
	<g>
		<linearGradient id="SVGID_14_" gradientUnits="userSpaceOnUse" x1="22.8516" y1="6.0815" x2="23.3487" y2="12.5426">
			<stop  offset="0" style="stop-color:#EBDFED"/>
			<stop  offset="0.1553" style="stop-color:#E4CAE1"/>
			<stop  offset="0.4747" style="stop-color:#D194C1"/>
			<stop  offset="0.5348" style="stop-color:#CD89BB"/>
			<stop  offset="1" style="stop-color:#6B146E"/>
		</linearGradient>
		<path fill="url(#SVGID_14_)" d="M22.66,6.454c-2.638,0.33-4.567,3.003-4.695,6.234c2.852-1.597,6.07-2.036,10.723-0.9
			C27.979,8.443,25.417,6.108,22.66,6.454z"/>
	</g>
	<path d="M6.871,17.493c0,0-3.845,1.867-6.871-1.463c0,0,3.406,3.431,8.616-0.004L6.871,17.493z"/>
	<path d="M8.027,16.515c0,0-4.142,1.77-7.158-1.89c0,0,3.645,3.852,10.649-0.2L8.027,16.515z"/>
	<path d="M28.869,12.09c0,0,4.269,0.216,5.754-4.031c0,0-1.795,4.489-7.935,3.362L28.869,12.09z"/>
	<path d="M27.422,11.641c0,0,4.505,0.011,5.852-4.536c0,0-1.851,4.97-9.882,3.975L27.422,11.641z"/>
	<radialGradient id="SVGID_15_" cx="21.1592" cy="30.416" r="5.1019" gradientUnits="userSpaceOnUse">
		<stop  offset="0" style="stop-color:#C83829"/>
		<stop  offset="1" style="stop-color:#000000"/>
	</radialGradient>
	<path fill="url(#SVGID_15_)" d="M16.565,27.758c0,0,1.392,0.084,2.72-0.82c0.698-0.474,1.577-0.777,2.508-0.715
		c1.581,0.104,2.217-0.396,2.217-0.396S21.024,28.32,16.565,27.758z"/>
	<linearGradient id="SVGID_16_" gradientUnits="userSpaceOnUse" x1="19.6357" y1="23.6553" x2="20.73" y2="28.1417">
		<stop  offset="0" style="stop-color:#F79F82"/>
		<stop  offset="0.0137" style="stop-color:#F6997E"/>
		<stop  offset="0.1699" style="stop-color:#F1584D"/>
		<stop  offset="0.2836" style="stop-color:#ED2F2F"/>
		<stop  offset="0.3422" style="stop-color:#EC2024"/>
		<stop  offset="0.4157" style="stop-color:#CB1619"/>
		<stop  offset="0.5668" style="stop-color:#7D0000"/>
		<stop  offset="1" style="stop-color:#3D0000"/>
	</linearGradient>
	<path fill="url(#SVGID_16_)" d="M14.669,27.123c0,0,0.895-0.566,1.445-1.622c0.718-1.376,2.303-1.556,4.157-0.657
		c0,0,0.752-1.523,1.884-1.824c1.347-0.359,1.975,0.986,3.32,0.747c0,0-1.157,2.407-3.177,2.199
		c-2.128-0.219-2.342,0.032-3.641,0.972C17.644,27.674,15.207,27.363,14.669,27.123z"/>
	<linearGradient id="SVGID_17_" gradientUnits="userSpaceOnUse" x1="20.3213" y1="26.0762" x2="21.699" y2="31.7248">
		<stop  offset="0" style="stop-color:#F79F82"/>
		<stop  offset="0.2881" style="stop-color:#EF4741"/>
		<stop  offset="0.4332" style="stop-color:#EC2024"/>
		<stop  offset="0.5136" style="stop-color:#CB1619"/>
		<stop  offset="0.6791" style="stop-color:#7D0000"/>
		<stop  offset="1" style="stop-color:#3D0000"/>
	</linearGradient>
	<path fill="url(#SVGID_17_)" d="M15.381,27.984c0,0,5.909,1.811,10.036-3.177c0,0-0.387,3.712-3.118,4.722
		s-4.605,0.635-5.818-0.625C15.708,28.104,15.381,27.984,15.381,27.984z"/>
</g>
</svg>
