<?xml version="1.0" encoding="utf-8"?>
<!-- Generator: Adobe Illustrator 15.1.0, SVG Export Plug-In . SVG Version: 6.00 Build 0)  -->
<!DOCTYPE svg PUBLIC "-//W3C//DTD SVG 1.1//EN" "http://www.w3.org/Graphics/SVG/1.1/DTD/svg11.dtd">
<svg version="1.1" id="Layer_1" xmlns="http://www.w3.org/2000/svg" xmlns:xlink="http://www.w3.org/1999/xlink" x="0px" y="0px"
	 width="35px" height="35px" viewBox="0 0 35 35" enable-background="new 0 0 35 35" xml:space="preserve">
<g>
	
		<radialGradient id="SVGID_1_" cx="144.7549" cy="-677.3843" r="78.2467" fx="150.7054" fy="-665.4007" gradientTransform="matrix(0.4152 -0.126 0.126 0.4152 40.7501 311.2855)" gradientUnits="userSpaceOnUse">
		<stop  offset="0" style="stop-color:#FFF100"/>
		<stop  offset="0.143" style="stop-color:#FFEE01"/>
		<stop  offset="0.2395" style="stop-color:#FEE504"/>
		<stop  offset="0.3223" style="stop-color:#FCD609"/>
		<stop  offset="0.3974" style="stop-color:#FAC110"/>
		<stop  offset="0.4672" style="stop-color:#F7A519"/>
		<stop  offset="0.5323" style="stop-color:#F48324"/>
		<stop  offset="0.5495" style="stop-color:#F37927"/>
		<stop  offset="0.7143" style="stop-color:#FFF100"/>
	</radialGradient>
	<circle fill="url(#SVGID_1_)" cx="17.5" cy="17.5" r="17.496"/>
	
		<linearGradient id="SVGID_2_" gradientUnits="userSpaceOnUse" x1="163.0352" y1="-681.6084" x2="163.0352" y2="-666.6893" gradientTransform="matrix(0.9569 -0.2904 0.2904 0.9569 56.0063 704.8125)">
		<stop  offset="0" style="stop-color:#FFF4CB"/>
		<stop  offset="1" style="stop-color:#FFF100"/>
	</linearGradient>
	<path fill="url(#SVGID_2_)" d="M27.409,7.54c-1.452-4.784-7.821-7.084-14.228-5.14c-6.405,1.943-10.422,7.397-8.97,12.18
		c1.452,4.783,7.822,7.083,14.227,5.14C24.846,17.776,28.861,12.322,27.409,7.54z"/>
	
		<linearGradient id="SVGID_3_" gradientUnits="userSpaceOnUse" x1="160.5537" y1="-658.9116" x2="152.0515" y2="-661.962" gradientTransform="matrix(0.9569 -0.2904 0.2904 0.9569 56.0063 704.8125)">
		<stop  offset="0" style="stop-color:#FFF100"/>
		<stop  offset="0.2753" style="stop-color:#FEDC0B"/>
		<stop  offset="0.6813" style="stop-color:#FCB61F"/>
		<stop  offset="1" style="stop-color:#DC5A26"/>
	</linearGradient>
	<path fill="url(#SVGID_3_)" d="M20.775,25.65c-2.532-0.243-5.773,0.869-8.395,3.886c0,0,6.274-3.718,13.259-2.351
		C25.64,27.186,23.627,25.923,20.775,25.65z"/>
	<path fill="#231F20" d="M21.072,25.303c-2.531-0.241-6.495,0.693-8.688,4.287c0,0,5.999-5.277,13.259-2.35
		C25.644,27.24,23.926,25.578,21.072,25.303z"/>
	
		<linearGradient id="SVGID_4_" gradientUnits="userSpaceOnUse" x1="247.7744" y1="-862.5449" x2="243.9503" y2="-883.1592" gradientTransform="matrix(0.9237 -0.383 0.383 0.9237 119.542 921.6504)">
		<stop  offset="0" style="stop-color:#FFF100"/>
		<stop  offset="0.2753" style="stop-color:#FEDC0B"/>
		<stop  offset="0.6813" style="stop-color:#FCB61F"/>
		<stop  offset="1" style="stop-color:#DC5A26"/>
	</linearGradient>
	<path fill="url(#SVGID_4_)" d="M15.357,17.041c1.689,3.15,0.945,5.96-1.457,7.247c-2.402,1.288-5.719-0.222-7.406-3.372
		c-1.689-3.149-0.835-7.073,1.566-8.362L15.357,17.041z"/>
	
		<radialGradient id="SVGID_5_" cx="794.6973" cy="-850.9707" r="23.2304" gradientTransform="matrix(0.3824 -0.205 0.205 0.3824 -115.6557 510.7252)" gradientUnits="userSpaceOnUse">
		<stop  offset="0" style="stop-color:#FFFFFF"/>
		<stop  offset="0.3734" style="stop-color:#FDFEFF"/>
		<stop  offset="0.5079" style="stop-color:#F6FCFE"/>
		<stop  offset="0.6038" style="stop-color:#EBF8FC"/>
		<stop  offset="0.6813" style="stop-color:#DAF2FA"/>
		<stop  offset="0.7477" style="stop-color:#C4EAF7"/>
		<stop  offset="0.8064" style="stop-color:#A8E0F3"/>
		<stop  offset="0.8583" style="stop-color:#89D5EE"/>
		<stop  offset="0.8791" style="stop-color:#7AD0EC"/>
	</radialGradient>
	<path fill="url(#SVGID_5_)" d="M15.103,18.399c0.993,2.396,1.126,4.782-1.01,5.928c-2.137,1.146-5.085-0.198-6.587-2.999
		c-1.501-2.802-1.129-5.652,1.007-6.797L15.103,18.399z"/>
	<g>
		
			<linearGradient id="SVGID_6_" gradientUnits="userSpaceOnUse" x1="242.9844" y1="-873.0371" x2="249.6877" y2="-885.0258" gradientTransform="matrix(0.9237 -0.383 0.383 0.9237 119.542 921.6499)">
			<stop  offset="0" style="stop-color:#FFFFFF"/>
			<stop  offset="0.2964" style="stop-color:#FDFEFF"/>
			<stop  offset="0.4031" style="stop-color:#F6FCFE"/>
			<stop  offset="0.4792" style="stop-color:#EBF8FC"/>
			<stop  offset="0.5408" style="stop-color:#DAF2FA"/>
			<stop  offset="0.5935" style="stop-color:#C4EAF7"/>
			<stop  offset="0.6401" style="stop-color:#A8E0F3"/>
			<stop  offset="0.6813" style="stop-color:#89D5EE"/>
			<stop  offset="0.6978" style="stop-color:#7AD0EC"/>
		</linearGradient>
		<path fill="url(#SVGID_6_)" d="M13.179,17.271l-4.538-2.664c-1.173,0.696-1.753,2.174-1.317,3.596
			c0.508,1.653,2.198,2.603,3.776,2.118C12.416,19.916,13.238,18.643,13.179,17.271z"/>
	</g>
	
		<ellipse transform="matrix(-0.9266 0.376 -0.376 -0.9266 30.9759 33.8302)" fill="#231F20" cx="12.187" cy="19.938" rx="1.725" ry="2.52"/>
	
		<ellipse transform="matrix(0.8835 -0.4684 0.4684 0.8835 -7.5837 8.0613)" fill="#FFFFFF" cx="12.415" cy="19.277" rx="0.751" ry="1.075"/>
	
		<linearGradient id="SVGID_7_" gradientUnits="userSpaceOnUse" x1="4864.9883" y1="-284.3789" x2="4861.1641" y2="-304.9924" gradientTransform="matrix(-0.9906 0.1367 0.1367 0.9906 4879.2651 -354.0815)">
		<stop  offset="0" style="stop-color:#FFF100"/>
		<stop  offset="0.2753" style="stop-color:#FEDC0B"/>
		<stop  offset="0.6813" style="stop-color:#FCB61F"/>
		<stop  offset="1" style="stop-color:#DC5A26"/>
	</linearGradient>
	<path fill="url(#SVGID_7_)" d="M16.863,16.793c0.137,3.572,2.199,5.618,4.923,5.515c2.725-0.104,4.821-3.083,4.684-6.654
		c-0.135-3.571-2.856-6.525-5.578-6.421L16.863,16.793z"/>
	
		<radialGradient id="SVGID_8_" cx="5368.748" cy="189.3076" r="23.2237" gradientTransform="matrix(-0.4336 0.0166 0.0166 0.4336 2345.6411 -150.3394)" gradientUnits="userSpaceOnUse">
		<stop  offset="0" style="stop-color:#FFFFFF"/>
		<stop  offset="0.3734" style="stop-color:#FDFEFF"/>
		<stop  offset="0.5079" style="stop-color:#F6FCFE"/>
		<stop  offset="0.6038" style="stop-color:#EBF8FC"/>
		<stop  offset="0.6813" style="stop-color:#DAF2FA"/>
		<stop  offset="0.7477" style="stop-color:#C4EAF7"/>
		<stop  offset="0.8064" style="stop-color:#A8E0F3"/>
		<stop  offset="0.8583" style="stop-color:#89D5EE"/>
		<stop  offset="0.8791" style="stop-color:#7AD0EC"/>
	</radialGradient>
	<path fill="url(#SVGID_8_)" d="M17.771,17.835c0.355,2.571,1.446,4.695,3.869,4.603c2.421-0.092,4.287-2.742,4.165-5.917
		c-0.121-3.176-1.884-5.447-4.306-5.354L17.771,17.835z"/>
	<g>
		
			<linearGradient id="SVGID_9_" gradientUnits="userSpaceOnUse" x1="4860.1982" y1="-294.8726" x2="4866.9009" y2="-306.8598" gradientTransform="matrix(-0.9906 0.1367 0.1367 0.9906 4879.2651 -354.0815)">
			<stop  offset="0" style="stop-color:#FFFFFF"/>
			<stop  offset="0.2964" style="stop-color:#FDFEFF"/>
			<stop  offset="0.4031" style="stop-color:#F6FCFE"/>
			<stop  offset="0.4792" style="stop-color:#EBF8FC"/>
			<stop  offset="0.5408" style="stop-color:#DAF2FA"/>
			<stop  offset="0.5935" style="stop-color:#C4EAF7"/>
			<stop  offset="0.6401" style="stop-color:#A8E0F3"/>
			<stop  offset="0.6813" style="stop-color:#89D5EE"/>
			<stop  offset="0.6978" style="stop-color:#7AD0EC"/>
		</linearGradient>
		<path fill="url(#SVGID_9_)" d="M18.859,15.888l2.568-4.593c1.363,0.005,2.612,0.989,2.955,2.436
			c0.398,1.684-0.58,3.357-2.186,3.737C20.855,17.786,19.503,17.102,18.859,15.888z"/>
	</g>
	
		<ellipse transform="matrix(0.9895 -0.1445 0.1445 0.9895 -2.3353 3.2301)" fill="#231F20" cx="21.064" cy="17.688" rx="1.725" ry="2.52"/>
	
		<ellipse transform="matrix(-0.9991 0.0416 -0.0416 -0.9991 41.768 33.597)" fill="#FFFFFF" cx="20.534" cy="17.233" rx="0.751" ry="1.074"/>
	<path d="M25.665,25.891c0,0,0.411,1.399-1.538,1.588C24.127,27.479,26.928,28.234,25.665,25.891z"/>
	<path d="M13.835,29.636c0,0-1.605,0.445-1.712-1.271C12.123,28.365,11.112,30.891,13.835,29.636z"/>
</g>
</svg>
