<?xml version="1.0" encoding="utf-8"?>
<!-- Generator: Adobe Illustrator 15.1.0, SVG Export Plug-In . SVG Version: 6.00 Build 0)  -->
<!DOCTYPE svg PUBLIC "-//W3C//DTD SVG 1.1//EN" "http://www.w3.org/Graphics/SVG/1.1/DTD/svg11.dtd">
<svg version="1.1" id="Layer_1" xmlns="http://www.w3.org/2000/svg" xmlns:xlink="http://www.w3.org/1999/xlink" x="0px" y="0px"
	 width="35px" height="35px" viewBox="0 0 35 35" enable-background="new 0 0 35 35" xml:space="preserve">
<g>
	
		<radialGradient id="SVGID_1_" cx="1455.3936" cy="11.689" r="33.9611" fx="1457.9762" fy="16.8901" gradientTransform="matrix(-1 0 0 1 1473.1641 0)" gradientUnits="userSpaceOnUse">
		<stop  offset="0" style="stop-color:#FFF100"/>
		<stop  offset="0.143" style="stop-color:#FFEE01"/>
		<stop  offset="0.2395" style="stop-color:#FEE504"/>
		<stop  offset="0.3223" style="stop-color:#FCD609"/>
		<stop  offset="0.3974" style="stop-color:#FAC110"/>
		<stop  offset="0.4672" style="stop-color:#F7A519"/>
		<stop  offset="0.5323" style="stop-color:#F48324"/>
		<stop  offset="0.5495" style="stop-color:#F37927"/>
		<stop  offset="0.7143" style="stop-color:#FFF100"/>
	</radialGradient>
	<circle fill="url(#SVGID_1_)" cx="17.5" cy="17.746" r="17.5"/>
	
		<linearGradient id="SVGID_2_" gradientUnits="userSpaceOnUse" x1="1455.918" y1="5.0005" x2="1455.918" y2="19.9226" gradientTransform="matrix(-1 0 0 1 1473.1641 0)">
		<stop  offset="0" style="stop-color:#FFF4CB"/>
		<stop  offset="1" style="stop-color:#FFF100"/>
	</linearGradient>
	<ellipse fill="url(#SVGID_2_)" cx="17.247" cy="11.091" rx="12.124" ry="9.053"/>
	
		<linearGradient id="SVGID_3_" gradientUnits="userSpaceOnUse" x1="1059.6729" y1="-136.1782" x2="1053.9517" y2="-137.5221" gradientTransform="matrix(-0.9553 0.2955 0.2955 0.9553 1072.4646 -153.1429)">
		<stop  offset="0" style="stop-color:#FFF100"/>
		<stop  offset="0.2753" style="stop-color:#FEDC0B"/>
		<stop  offset="0.6813" style="stop-color:#FCB61F"/>
		<stop  offset="1" style="stop-color:#DC5A26"/>
	</linearGradient>
	<path fill="url(#SVGID_3_)" d="M18.666,29.007c1.179-0.669,3.172-0.755,4.923,0.341c0,0-1.64-0.406-3.733,0.1
		c-0.973,0.236-1.83,0.529-3.124,1.373C16.731,30.82,17.337,29.762,18.666,29.007z"/>
	<path fill="#231F20" d="M18.635,28.616c1.357-0.81,3.222-0.796,5.031,0.759c0,0-4.006-1.696-6.925,1.476
		C16.741,30.851,17.323,29.399,18.635,28.616z"/>
	<linearGradient id="SVGID_4_" gradientUnits="userSpaceOnUse" x1="12.3013" y1="30.6543" x2="14.6131" y2="12.9528">
		<stop  offset="0" style="stop-color:#FFF100"/>
		<stop  offset="0.2753" style="stop-color:#FEDC0B"/>
		<stop  offset="0.6813" style="stop-color:#FCB61F"/>
		<stop  offset="1" style="stop-color:#DC5A26"/>
	</linearGradient>
	<path fill="url(#SVGID_4_)" d="M16.171,11.621c2.378,1.501,3.554,5.467,2.822,9.453c-0.776,4.228-3.476,7.031-6.117,6.697
		c-2.652-0.334-4.471-3.816-4.587-7.511c-0.032-0.993,0.155-1.704,0.351-2.22C10.302,13.695,15.708,11.329,16.171,11.621z"/>
	
		<radialGradient id="SVGID_5_" cx="-157.6177" cy="495.8408" r="11.6285" gradientTransform="matrix(0.9801 0.1985 -0.1985 0.9801 267.0039 -429.0294)" gradientUnits="userSpaceOnUse">
		<stop  offset="0" style="stop-color:#FFFFFF"/>
		<stop  offset="0.3316" style="stop-color:#FDFEFF"/>
		<stop  offset="0.4623" style="stop-color:#F6FBFD"/>
		<stop  offset="0.5576" style="stop-color:#EAF7FA"/>
		<stop  offset="0.6351" style="stop-color:#D9F0F6"/>
		<stop  offset="0.702" style="stop-color:#C3E7F0"/>
		<stop  offset="0.7033" style="stop-color:#C2E7F0"/>
		<stop  offset="1" style="stop-color:#288ECD"/>
	</radialGradient>
	<path fill="url(#SVGID_5_)" d="M15.883,14.358c1.979,1.211,2.992,4.435,2.412,7.725c-0.626,3.553-2.922,5.948-5.189,5.661
		c-2.274-0.289-3.798-3.252-3.854-6.35c-0.016-0.824,0.148-1.412,0.32-1.838C11.002,16.014,15.5,14.124,15.883,14.358z"/>
	<g>
		<linearGradient id="SVGID_6_" gradientUnits="userSpaceOnUse" x1="13.3931" y1="22.1973" x2="14.9139" y2="12.523">
			<stop  offset="0" style="stop-color:#FFFFFF"/>
			<stop  offset="0.3316" style="stop-color:#FDFEFF"/>
			<stop  offset="0.4623" style="stop-color:#F6FBFD"/>
			<stop  offset="0.5576" style="stop-color:#EAF7FA"/>
			<stop  offset="0.6351" style="stop-color:#D9F0F6"/>
			<stop  offset="0.702" style="stop-color:#C3E7F0"/>
			<stop  offset="0.7033" style="stop-color:#C2E7F0"/>
			<stop  offset="1" style="stop-color:#288ECD"/>
		</linearGradient>
		<path fill="url(#SVGID_6_)" d="M10.881,17.475c-0.003,0.01-0.005,0.02-0.007,0.03c-0.497,2.136,0.448,4.259,2.063,4.845
			c1.596,0.58,3.38-0.511,4.037-2.531c0.696-2.142-0.116-4.534-1.875-5.232c-0.033-0.013-0.065-0.023-0.097-0.035
			C13.945,14.964,12.2,15.964,10.881,17.475z"/>
	</g>
	
		<linearGradient id="SVGID_7_" gradientUnits="userSpaceOnUse" x1="-293.6982" y1="684.7129" x2="-298.4779" y2="676.4281" gradientTransform="matrix(0.9233 0.384 -0.384 0.9233 548.0055 -492.5147)">
		<stop  offset="0" style="stop-color:#FFF58A"/>
		<stop  offset="0.1634" style="stop-color:#FEE975"/>
		<stop  offset="0.4992" style="stop-color:#FDC93F"/>
		<stop  offset="0.6813" style="stop-color:#FCB61F"/>
		<stop  offset="1" style="stop-color:#DC5A26"/>
	</linearGradient>
	<path fill="url(#SVGID_7_)" d="M17.68,24.587c0,0-3.977-1.505-8.131,0.46c0,0,1.314,3.572,4.048,3.394
		C16.365,28.26,17.68,24.587,17.68,24.587z"/>
	<linearGradient id="SVGID_8_" gradientUnits="userSpaceOnUse" x1="28.5107" y1="28.4326" x2="21.9054" y2="12.976">
		<stop  offset="0" style="stop-color:#FFF100"/>
		<stop  offset="0.2753" style="stop-color:#FEDC0B"/>
		<stop  offset="0.6813" style="stop-color:#FCB61F"/>
		<stop  offset="1" style="stop-color:#DC5A26"/>
	</linearGradient>
	<path fill="url(#SVGID_8_)" d="M21.271,11.244c-2.104,1.541-2.762,5.496-1.504,9.403c1.346,4.185,4.384,6.637,6.832,5.898
		c2.365-0.711,3.45-4.278,3.008-7.748c-0.117-0.922-0.381-1.563-0.626-2.023C26.916,12.896,21.67,10.951,21.271,11.244z"/>
	
		<radialGradient id="SVGID_9_" cx="3021.7725" cy="-176.5156" r="11.0474" gradientTransform="matrix(-0.9687 0.2483 0.2483 0.9687 2995.5923 -554.7433)" gradientUnits="userSpaceOnUse">
		<stop  offset="0" style="stop-color:#FFFFFF"/>
		<stop  offset="0.3316" style="stop-color:#FDFEFF"/>
		<stop  offset="0.4623" style="stop-color:#F6FBFD"/>
		<stop  offset="0.5576" style="stop-color:#EAF7FA"/>
		<stop  offset="0.6351" style="stop-color:#D9F0F6"/>
		<stop  offset="0.702" style="stop-color:#C3E7F0"/>
		<stop  offset="0.7033" style="stop-color:#C2E7F0"/>
		<stop  offset="1" style="stop-color:#288ECD"/>
	</radialGradient>
	<path fill="url(#SVGID_9_)" d="M21.906,13.819c-1.748,1.291-2.322,4.536-1.307,7.763c1.104,3.512,3.68,5.602,5.782,4.969
		c2.04-0.613,2.958-3.67,2.556-6.605c-0.107-0.773-0.337-1.309-0.549-1.69C26.62,15.069,22.236,13.575,21.906,13.819z"/>
	<g>
		<linearGradient id="SVGID_10_" gradientUnits="userSpaceOnUse" x1="25.8896" y1="20.9941" x2="20.6477" y2="10.7243">
			<stop  offset="0" style="stop-color:#FFFFFF"/>
			<stop  offset="0.3316" style="stop-color:#FDFEFF"/>
			<stop  offset="0.4623" style="stop-color:#F6FBFD"/>
			<stop  offset="0.5576" style="stop-color:#EAF7FA"/>
			<stop  offset="0.6351" style="stop-color:#D9F0F6"/>
			<stop  offset="0.702" style="stop-color:#C3E7F0"/>
			<stop  offset="0.7033" style="stop-color:#C2E7F0"/>
			<stop  offset="1" style="stop-color:#288ECD"/>
		</linearGradient>
		<path fill="url(#SVGID_10_)" d="M26.934,16.418c0.003,0.01,0.008,0.019,0.011,0.027c0.744,1.958,0.206,4.057-1.183,4.793
			c-1.406,0.745-3.26-0.126-4.171-2.052c-0.966-2.039-0.495-4.421,1.086-5.198c0.028-0.015,0.058-0.026,0.087-0.04
			C23.804,14.275,25.539,15.101,26.934,16.418z"/>
	</g>
	<path fill="#231F20" d="M22.809,22.387c-0.578-1.543-0.326-3.114,0.577-3.442c0.894-0.325,2.034,0.713,2.534,2.255
		c0.48,1.477,0.195,2.894-0.623,3.221C24.471,24.75,23.363,23.866,22.809,22.387z"/>
	
		<linearGradient id="SVGID_11_" gradientUnits="userSpaceOnUse" x1="-1222.0078" y1="-592.3901" x2="-1219.7924" y2="-594.9148" gradientTransform="matrix(0.9025 -0.4307 0.4307 0.9025 1382.2316 30.7968)">
		<stop  offset="0" style="stop-color:#231F20"/>
		<stop  offset="0.3762" style="stop-color:#363335"/>
		<stop  offset="1" style="stop-color:#5C5D60"/>
	</linearGradient>
	<path fill="url(#SVGID_11_)" d="M25.412,21.113c0.357,0.832,0.264,1.695-0.205,1.946c-0.47,0.253-1.155-0.197-1.538-1.024
		c-0.392-0.848-0.314-1.762,0.181-2.02C24.342,19.76,25.045,20.26,25.412,21.113z"/>
	<path fill="#FFFFFF" d="M24.867,22.176c0.186,0.564,0.071,1.111-0.252,1.229c-0.326,0.118-0.746-0.239-0.941-0.805
		c-0.199-0.576-0.088-1.144,0.248-1.263C24.256,21.223,24.682,21.601,24.867,22.176z"/>
	
		<linearGradient id="SVGID_12_" gradientUnits="userSpaceOnUse" x1="2695.6719" y1="-589.0474" x2="2690.8333" y2="-597.4344" gradientTransform="matrix(-0.9025 0.4307 0.4307 0.9025 2711.7126 -603.7593)">
		<stop  offset="0" style="stop-color:#FFF58A"/>
		<stop  offset="0.1634" style="stop-color:#FEE975"/>
		<stop  offset="0.4992" style="stop-color:#FDC93F"/>
		<stop  offset="0.6813" style="stop-color:#FCB61F"/>
		<stop  offset="1" style="stop-color:#DC5A26"/>
	</linearGradient>
	<path fill="url(#SVGID_12_)" d="M21.55,24.031c0,0,3.606-1.994,7.661-0.592c0,0-0.643,3.643-3.186,3.882
		C23.352,27.572,21.55,24.031,21.55,24.031z"/>
	<linearGradient id="SVGID_13_" gradientUnits="userSpaceOnUse" x1="27.5605" y1="28.8379" x2="20.9575" y2="13.3868">
		<stop  offset="0" style="stop-color:#FFF100"/>
		<stop  offset="0.2753" style="stop-color:#FEDC0B"/>
		<stop  offset="0.6813" style="stop-color:#FCB61F"/>
		<stop  offset="1" style="stop-color:#DC5A26"/>
	</linearGradient>
	<path fill="url(#SVGID_13_)" d="M21.55,24.031c0,0,3.606-1.994,7.661-0.592c0,0-0.67,3.055-3.232,3.28
		C23.284,26.958,21.55,24.031,21.55,24.031z"/>
	<g>
		<path fill="#231F20" d="M16.185,23.14c0.372-1.601-0.11-3.146-1.093-3.386c-0.987-0.24-2.038,0.943-2.33,2.574
			c-0.28,1.558,0.244,2.941,1.155,3.15C14.823,25.688,15.832,24.668,16.185,23.14z"/>
		
			<linearGradient id="SVGID_14_" gradientUnits="userSpaceOnUse" x1="1767.4629" y1="681.3232" x2="1769.7858" y2="678.6763" gradientTransform="matrix(-0.9233 -0.384 -0.384 0.9233 1908.2247 73.2016)">
			<stop  offset="0" style="stop-color:#231F20"/>
			<stop  offset="0.3762" style="stop-color:#363335"/>
			<stop  offset="1" style="stop-color:#5C5D60"/>
		</linearGradient>
		<path fill="url(#SVGID_14_)" d="M13.291,22.181c-0.25,0.887-0.017,1.743,0.515,1.933c0.529,0.189,1.173-0.347,1.447-1.217
			c0.281-0.895,0.068-1.801-0.484-2.006C14.212,20.684,13.548,21.271,13.291,22.181z"/>
		<path fill="#FFFFFF" d="M14.153,23.232c-0.107,0.594,0.094,1.129,0.451,1.206c0.354,0.077,0.738-0.33,0.856-0.919
			c0.121-0.6-0.076-1.158-0.442-1.238C14.652,22.199,14.264,22.629,14.153,23.232z"/>
		<linearGradient id="SVGID_15_" gradientUnits="userSpaceOnUse" x1="13.7998" y1="20.4658" x2="14.2638" y2="22.1075">
			<stop  offset="0" style="stop-color:#C5C7C9"/>
			<stop  offset="0.2418" style="stop-color:#B0B2B4"/>
			<stop  offset="0.7389" style="stop-color:#7B7C7F"/>
			<stop  offset="1" style="stop-color:#5C5D60"/>
		</linearGradient>
		<path fill="url(#SVGID_15_)" d="M14.458,21.85c-0.198,0.253-0.514,0.337-0.704,0.188c-0.189-0.149-0.182-0.475,0.016-0.729
			c0.2-0.254,0.516-0.338,0.704-0.188C14.665,21.27,14.658,21.596,14.458,21.85z"/>
	</g>
	<linearGradient id="SVGID_16_" gradientUnits="userSpaceOnUse" x1="37.5664" y1="27.9141" x2="23.1485" y2="23.0806">
		<stop  offset="0" style="stop-color:#FFF100"/>
		<stop  offset="0.2753" style="stop-color:#FEDC0B"/>
		<stop  offset="0.6813" style="stop-color:#FCB61F"/>
		<stop  offset="1" style="stop-color:#DC5A26"/>
	</linearGradient>
	<path fill="url(#SVGID_16_)" d="M28.792,23.318c0,0-4.228-0.652-6.836,1.018l-0.471-0.652
		C21.485,23.684,25.086,22.17,28.792,23.318z"/>
	<linearGradient id="SVGID_17_" gradientUnits="userSpaceOnUse" x1="12.8423" y1="30.7256" x2="15.1542" y2="13.0229">
		<stop  offset="0" style="stop-color:#FFF100"/>
		<stop  offset="0.2753" style="stop-color:#FEDC0B"/>
		<stop  offset="0.6813" style="stop-color:#FCB61F"/>
		<stop  offset="1" style="stop-color:#DC5A26"/>
	</linearGradient>
	<path fill="url(#SVGID_17_)" d="M17.68,24.587c0,0-3.977-1.505-8.131,0.46c0,0,1.246,2.983,4.004,2.799
		C16.348,27.66,17.68,24.587,17.68,24.587z"/>
	<linearGradient id="SVGID_18_" gradientUnits="userSpaceOnUse" x1="5.918" y1="28.374" x2="13.5603" y2="24.8504">
		<stop  offset="0" style="stop-color:#FFF100"/>
		<stop  offset="0.2753" style="stop-color:#FEDC0B"/>
		<stop  offset="0.6813" style="stop-color:#FCB61F"/>
		<stop  offset="1" style="stop-color:#DC5A26"/>
	</linearGradient>
	<path fill="url(#SVGID_18_)" d="M9.956,24.861c0,0,3.189-1.775,7.697-0.629c0,0-0.125,0.361-0.25,0.504
		C17.402,24.736,14.979,23.464,9.956,24.861z"/>
</g>
</svg>
