<?xml version="1.0" encoding="utf-8"?>
<!-- Generator: Adobe Illustrator 15.1.0, SVG Export Plug-In . SVG Version: 6.00 Build 0)  -->
<!DOCTYPE svg PUBLIC "-//W3C//DTD SVG 1.1//EN" "http://www.w3.org/Graphics/SVG/1.1/DTD/svg11.dtd">
<svg version="1.1" id="Layer_1" xmlns="http://www.w3.org/2000/svg" xmlns:xlink="http://www.w3.org/1999/xlink" x="0px" y="0px"
	 width="35px" height="35px" viewBox="0 0 35 35" enable-background="new 0 0 35 35" xml:space="preserve">
<g>
	
		<linearGradient id="SVGID_1_" gradientUnits="userSpaceOnUse" x1="2771.4951" y1="17.3696" x2="2774.4573" y2="12.0151" gradientTransform="matrix(-1 0 0 1 2793.6953 0)">
		<stop  offset="0" style="stop-color:#000000"/>
		<stop  offset="0.076" style="stop-color:#3E3E3E"/>
		<stop  offset="0.1558" style="stop-color:#787878"/>
		<stop  offset="0.2331" style="stop-color:#A8A8A8"/>
		<stop  offset="0.3058" style="stop-color:#CECECE"/>
		<stop  offset="0.3729" style="stop-color:#E9E9E9"/>
		<stop  offset="0.4324" style="stop-color:#F9F9F9"/>
		<stop  offset="0.478" style="stop-color:#FFFFFF"/>
		<stop  offset="0.548" style="stop-color:#FBFBFB"/>
		<stop  offset="0.6141" style="stop-color:#F0F0F0"/>
		<stop  offset="0.6787" style="stop-color:#DDDDDD"/>
		<stop  offset="0.7424" style="stop-color:#C2C2C2"/>
		<stop  offset="0.8054" style="stop-color:#9F9F9F"/>
		<stop  offset="0.868" style="stop-color:#757575"/>
		<stop  offset="0.9302" style="stop-color:#424242"/>
		<stop  offset="0.9905" style="stop-color:#0A0A0A"/>
		<stop  offset="1" style="stop-color:#000000"/>
	</linearGradient>
	<path fill="url(#SVGID_1_)" d="M15.044,10.17c4.894-1.191,9.876,1.437,11.382,5.953l-2.49-0.232c0,0-0.395-2.353-2.255-3.791
		c-2.618-2.023-5.193-1.938-7.973-0.896L15.044,10.17z"/>
	
		<linearGradient id="SVGID_2_" gradientUnits="userSpaceOnUse" x1="2819.6455" y1="353.8496" x2="2815.8132" y2="362.6359" gradientTransform="matrix(-0.9855 -0.1698 -0.1698 0.9855 2865.4141 146.6369)">
		<stop  offset="0" style="stop-color:#ACA6A4"/>
		<stop  offset="0.2024" style="stop-color:#8E8988"/>
		<stop  offset="0.6399" style="stop-color:#43403F"/>
		<stop  offset="1" style="stop-color:#000000"/>
	</linearGradient>
	<path fill="url(#SVGID_2_)" d="M29.133,25.084c0,0,2.07-2.116,0.577-6.037c-1.688-4.43-5.899-3.842-5.899-3.842L29.133,25.084z"/>
	<path fill="#FFFFFF" d="M28.477,25.131c0,0,2.157-1.764,1.088-5.401c-1.543-5.243-5.754-4.524-5.754-4.524L28.477,25.131z"/>
	<path d="M28.66,24.769c0,0,1.629-1.767,0.496-5.191c-1.57-4.751-5.365-4.111-5.365-4.111L28.66,24.769z"/>
	
		<radialGradient id="SVGID_3_" cx="272.5088" cy="20.0928" r="21.492" fx="274.1432" fy="23.3843" gradientTransform="matrix(1 0 0 1 -254.5957 0)" gradientUnits="userSpaceOnUse">
		<stop  offset="0" style="stop-color:#FFF100"/>
		<stop  offset="0.143" style="stop-color:#FFEE01"/>
		<stop  offset="0.2395" style="stop-color:#FEE504"/>
		<stop  offset="0.3223" style="stop-color:#FCD609"/>
		<stop  offset="0.3974" style="stop-color:#FAC110"/>
		<stop  offset="0.4672" style="stop-color:#F7A519"/>
		<stop  offset="0.5323" style="stop-color:#F48324"/>
		<stop  offset="0.5495" style="stop-color:#F37927"/>
		<stop  offset="0.7143" style="stop-color:#FFF100"/>
	</radialGradient>
	<circle fill="url(#SVGID_3_)" cx="18.084" cy="23.926" r="11.075"/>
	
		<linearGradient id="SVGID_4_" gradientUnits="userSpaceOnUse" x1="668.7041" y1="-327.5566" x2="668.7041" y2="-318.1133" gradientTransform="matrix(1.1582 -0.2169 0.1841 0.9829 -696.8993 482.6102)">
		<stop  offset="0" style="stop-color:#FFF4CB"/>
		<stop  offset="1" style="stop-color:#FFF100"/>
	</linearGradient>
	<path fill="url(#SVGID_4_)" d="M25.644,18.242c-0.583-3.11-4.851-5.188-8.932-4.423c-4.083,0.765-6.919,3.905-6.337,7.015
		c0.583,3.109,4.364,5.011,8.446,4.246C22.902,24.316,26.226,21.352,25.644,18.242z"/>
	
		<linearGradient id="SVGID_5_" gradientUnits="userSpaceOnUse" x1="2783.8818" y1="20.6357" x2="2781.0212" y2="10.9097" gradientTransform="matrix(-1 0 0 1 2793.6953 0)">
		<stop  offset="0" style="stop-color:#000000"/>
		<stop  offset="0.0034" style="stop-color:#040404"/>
		<stop  offset="0.0589" style="stop-color:#3C3C3C"/>
		<stop  offset="0.116" style="stop-color:#6E6E6E"/>
		<stop  offset="0.1736" style="stop-color:#989797"/>
		<stop  offset="0.2318" style="stop-color:#BABABA"/>
		<stop  offset="0.2906" style="stop-color:#D5D4D4"/>
		<stop  offset="0.3506" style="stop-color:#E8E7E7"/>
		<stop  offset="0.4122" style="stop-color:#F3F2F2"/>
		<stop  offset="0.478" style="stop-color:#F7F6F6"/>
		<stop  offset="0.549" style="stop-color:#F3F2F2"/>
		<stop  offset="0.6162" style="stop-color:#E8E7E7"/>
		<stop  offset="0.6817" style="stop-color:#D5D4D4"/>
		<stop  offset="0.7464" style="stop-color:#BAB9B9"/>
		<stop  offset="0.8104" style="stop-color:#979797"/>
		<stop  offset="0.8739" style="stop-color:#6D6C6C"/>
		<stop  offset="0.9369" style="stop-color:#3B3A3A"/>
		<stop  offset="0.9983" style="stop-color:#020202"/>
		<stop  offset="1" style="stop-color:#000000"/>
	</linearGradient>
	<path fill="url(#SVGID_5_)" d="M9.87,18.531c0,0-0.637-6.569,6.001-8.484c0,0-7.872,0.723-8.112,8.859L9.87,18.531z"/>
	<path d="M10.349,19.081c0,0-1.226-6.839,5.083-8.566c6.04-1.653,9.666,2.59,10.683,5.514l0.127-0.572c0,0-3.273-7.181-10.896-5.287
		c-6.861,1.705-5.633,9.101-5.633,9.101L10.349,19.081z"/>
	<g>
		<path d="M19.629,0.971C17.752,1.833,16.583,0,16.583,0s-0.356,2.38,1.451,5.612c-0.207-0.004-0.423,0.026-0.64,0.095
			c-0.822,0.26-1.331,0.974-1.134,1.594c0.196,0.62,1.022,0.912,1.845,0.651c0.822-0.26,1.33-0.974,1.135-1.594
			c-0.043-0.134-0.115-0.252-0.209-0.354c-0.402-0.698-1.537-2.509-1.798-4.292C18.457,2.093,19.629,0.971,19.629,0.971z"/>
	</g>
	<g>
		<path d="M12.942,8.47c-1.287-0.748-0.694-2.198-0.694-2.198s-1.55,0.779-2.704,3.186C9.462,9.334,9.354,9.219,9.224,9.12
			C8.729,8.743,8.097,8.741,7.813,9.114C7.529,9.487,7.7,10.095,8.195,10.471c0.495,0.377,1.126,0.379,1.41,0.006
			c0.061-0.081,0.101-0.172,0.121-0.27c0.245-0.526,0.84-1.948,1.783-2.842C11.794,8.246,12.942,8.47,12.942,8.47z"/>
	</g>
	<g>
		<path d="M25.55,5.24c-1.269,0.777-2.263-0.435-2.263-0.435s-0.053,1.734,1.516,3.894c-0.146,0.014-0.3,0.054-0.449,0.122
			c-0.566,0.257-0.869,0.811-0.676,1.238c0.193,0.427,0.81,0.566,1.376,0.309c0.567-0.256,0.869-0.811,0.676-1.237
			c-0.042-0.092-0.104-0.171-0.18-0.236c-0.347-0.465-1.313-1.665-1.652-2.919C24.807,6.145,25.55,5.24,25.55,5.24z"/>
	</g>
	
		<linearGradient id="SVGID_6_" gradientUnits="userSpaceOnUse" x1="4204.668" y1="-910.8389" x2="4203.7427" y2="-915.5465" gradientTransform="matrix(-1.01 0.5511 0.4151 0.7607 4647.0415 -1593.9512)">
		<stop  offset="0" style="stop-color:#FFF100"/>
		<stop  offset="0.2176" style="stop-color:#FEDC0B"/>
		<stop  offset="0.5385" style="stop-color:#FCB61F"/>
		<stop  offset="0.8077" style="stop-color:#DC5A26"/>
		<stop  offset="1" style="stop-color:#DC5A26"/>
	</linearGradient>
	<path fill="url(#SVGID_6_)" d="M27.656,22.4c0,0-8.132,5.285-13.363,4.807c0,0,0.948,2.902,3.134,4.299
		c1.415,0.904,3.716,1.486,5.661,0.566C29.026,29.264,27.656,22.4,27.656,22.4z"/>
	
		<linearGradient id="SVGID_7_" gradientUnits="userSpaceOnUse" x1="2769.7559" y1="31.8008" x2="2772.5171" y2="25.2921" gradientTransform="matrix(-1 0 0 1 2793.6953 0)">
		<stop  offset="0" style="stop-color:#FFFFFF"/>
		<stop  offset="0.6037" style="stop-color:#FFFFFF"/>
		<stop  offset="0.6471" style="stop-color:#FFFFFF"/>
		<stop  offset="0.7122" style="stop-color:#FCFCFC"/>
		<stop  offset="0.7684" style="stop-color:#F1F1F1"/>
		<stop  offset="0.8214" style="stop-color:#DFDFE0"/>
		<stop  offset="0.8724" style="stop-color:#C6C7C8"/>
		<stop  offset="0.922" style="stop-color:#A6A6A8"/>
		<stop  offset="0.9698" style="stop-color:#7F8082"/>
		<stop  offset="1" style="stop-color:#626366"/>
	</linearGradient>
	<path fill="url(#SVGID_7_)" d="M27.656,22.4c0,0-8.113,6.212-13.363,4.807c0,0,0.969,2.68,3.155,4.076
		c1.416,0.904,3.605,1.256,5.567,0.379C28.43,29.242,27.656,22.4,27.656,22.4z"/>
	
		<linearGradient id="SVGID_8_" gradientUnits="userSpaceOnUse" x1="4200.7715" y1="-912.8096" x2="4208.1802" y2="-914.0281" gradientTransform="matrix(-1.01 0.5511 0.4151 0.7607 4647.0415 -1593.9512)">
		<stop  offset="0" style="stop-color:#A6A8AB"/>
		<stop  offset="0.522" style="stop-color:#DBDCDD"/>
		<stop  offset="0.7342" style="stop-color:#C6C7C9"/>
		<stop  offset="1" style="stop-color:#A6A8AB"/>
	</linearGradient>
	<path fill="url(#SVGID_8_)" d="M27.392,26.017c0,0-5.974,4.599-11.432,3.997l-0.118-0.143c6.057,0.309,11.576-4.096,11.576-4.096
		L27.392,26.017z"/>
	<g>
		
			<linearGradient id="SVGID_9_" gradientUnits="userSpaceOnUse" x1="2740.4902" y1="-692.6445" x2="2738.4133" y2="-703.8399" gradientTransform="matrix(-0.8344 0.2114 0.2456 0.9694 2481.199 118.9721)">
			<stop  offset="0" style="stop-color:#FFF100"/>
			<stop  offset="0.2753" style="stop-color:#FEDC0B"/>
			<stop  offset="0.6813" style="stop-color:#FCB61F"/>
			<stop  offset="1" style="stop-color:#DC5A26"/>
		</linearGradient>
		<path fill="url(#SVGID_9_)" d="M21.526,19.809c0.317,1.932,1.61,3.359,2.888,3.188c1.278-0.17,2.057-1.875,1.739-3.807
			c-0.317-1.933-1.61-3.36-2.888-3.189C21.988,16.172,21.209,17.877,21.526,19.809z"/>
		
			<radialGradient id="SVGID_10_" cx="3283.9902" cy="-436.8589" r="5.9096" gradientTransform="matrix(-0.8546 0.1145 0.1619 0.9855 2900.7678 76.5213)" gradientUnits="userSpaceOnUse">
			<stop  offset="0" style="stop-color:#FFFFFF"/>
			<stop  offset="0.3734" style="stop-color:#FDFEFF"/>
			<stop  offset="0.5079" style="stop-color:#F6FCFE"/>
			<stop  offset="0.6038" style="stop-color:#EBF8FC"/>
			<stop  offset="0.6813" style="stop-color:#DAF2FA"/>
			<stop  offset="0.7477" style="stop-color:#C4EAF7"/>
			<stop  offset="0.8064" style="stop-color:#A8E0F3"/>
			<stop  offset="0.8583" style="stop-color:#89D5EE"/>
			<stop  offset="0.8791" style="stop-color:#7AD0EC"/>
		</radialGradient>
		<path fill="url(#SVGID_10_)" d="M21.786,20.238c0.282,1.719,1.433,2.988,2.568,2.836s1.829-1.669,1.546-3.387
			c-0.281-1.718-1.432-2.988-2.568-2.835C22.196,17.004,21.504,18.521,21.786,20.238z"/>
		
			<linearGradient id="SVGID_11_" gradientUnits="userSpaceOnUse" x1="-1428.6855" y1="-898.6802" x2="-1426.4585" y2="-902.6631" gradientTransform="matrix(0.8072 -0.3027 0.3239 0.9448 1467.9301 436.279)">
			<stop  offset="0" style="stop-color:#FFFFFF"/>
			<stop  offset="0.2964" style="stop-color:#FDFEFF"/>
			<stop  offset="0.4031" style="stop-color:#F6FCFE"/>
			<stop  offset="0.4792" style="stop-color:#EBF8FC"/>
			<stop  offset="0.5408" style="stop-color:#DAF2FA"/>
			<stop  offset="0.5935" style="stop-color:#C4EAF7"/>
			<stop  offset="0.6401" style="stop-color:#A8E0F3"/>
			<stop  offset="0.6813" style="stop-color:#89D5EE"/>
			<stop  offset="0.6978" style="stop-color:#7AD0EC"/>
		</linearGradient>
		<path fill="url(#SVGID_11_)" d="M25.031,18.234c-0.307-0.897-1.148-1.401-1.879-1.127s-1.074,1.223-0.768,2.12
			c0.309,0.896,1.149,1.401,1.881,1.127C24.996,20.08,25.34,19.131,25.031,18.234z"/>
		<path fill="#231F20" d="M24.533,20.313c-0.191-0.738-0.701-1.245-1.135-1.13c-0.436,0.113-0.633,0.805-0.439,1.545
			c0.192,0.738,0.701,1.244,1.136,1.131C24.529,21.744,24.727,21.053,24.533,20.313z"/>
		<path fill="#FFFFFF" d="M23.112,20.346c0.054,0.32,0.255,0.559,0.449,0.531s0.308-0.309,0.255-0.629
			c-0.055-0.32-0.256-0.559-0.449-0.531C23.173,19.743,23.059,20.024,23.112,20.346z"/>
	</g>
	<g>
		
			<linearGradient id="SVGID_12_" gradientUnits="userSpaceOnUse" x1="-824.9878" y1="-881.3086" x2="-827.7863" y2="-896.3939" gradientTransform="matrix(0.9338 -0.3578 0.3578 0.9338 1107.9512 557.4709)">
			<stop  offset="0" style="stop-color:#FFF100"/>
			<stop  offset="0.2753" style="stop-color:#FEDC0B"/>
			<stop  offset="0.6813" style="stop-color:#FCB61F"/>
			<stop  offset="1" style="stop-color:#DC5A26"/>
		</linearGradient>
		<path fill="url(#SVGID_12_)" d="M20.307,19.643c1.184,2.361,0.685,5.006-1.115,5.91c-1.801,0.902-4.22-0.279-5.404-2.64
			s-0.685-5.006,1.116-5.91C16.703,16.101,19.123,17.282,20.307,19.643z"/>
		
			<radialGradient id="SVGID_13_" cx="-245.3647" cy="-978.6074" r="7.9609" gradientTransform="matrix(0.8938 -0.4484 0.4484 0.8938 677.5493 788.6757)" gradientUnits="userSpaceOnUse">
			<stop  offset="0" style="stop-color:#FFFFFF"/>
			<stop  offset="0.3734" style="stop-color:#FDFEFF"/>
			<stop  offset="0.5079" style="stop-color:#F6FCFE"/>
			<stop  offset="0.6038" style="stop-color:#EBF8FC"/>
			<stop  offset="0.6813" style="stop-color:#DAF2FA"/>
			<stop  offset="0.7477" style="stop-color:#C4EAF7"/>
			<stop  offset="0.8064" style="stop-color:#A8E0F3"/>
			<stop  offset="0.8583" style="stop-color:#89D5EE"/>
			<stop  offset="0.8791" style="stop-color:#7AD0EC"/>
		</radialGradient>
		<path fill="url(#SVGID_13_)" d="M20.324,20.328c1.053,2.101,0.609,4.453-0.992,5.256c-1.6,0.803-3.752-0.248-4.805-2.348
			c-1.053-2.099-0.609-4.451,0.992-5.255C17.12,17.179,19.271,18.229,20.324,20.328z"/>
		
			<linearGradient id="SVGID_14_" gradientUnits="userSpaceOnUse" x1="2139.1582" y1="-749.4326" x2="2142.1582" y2="-754.798" gradientTransform="matrix(-0.9636 0.2673 0.2673 0.9636 2279.1167 171.5948)">
			<stop  offset="0" style="stop-color:#FFFFFF"/>
			<stop  offset="0.2964" style="stop-color:#FDFEFF"/>
			<stop  offset="0.4031" style="stop-color:#F6FCFE"/>
			<stop  offset="0.4792" style="stop-color:#EBF8FC"/>
			<stop  offset="0.5408" style="stop-color:#DAF2FA"/>
			<stop  offset="0.5935" style="stop-color:#C4EAF7"/>
			<stop  offset="0.6401" style="stop-color:#A8E0F3"/>
			<stop  offset="0.6813" style="stop-color:#89D5EE"/>
			<stop  offset="0.6978" style="stop-color:#7AD0EC"/>
		</linearGradient>
		<path fill="url(#SVGID_14_)" d="M14.454,20.924c-0.341-1.23,0.334-2.494,1.51-2.82c1.175-0.326,2.405,0.408,2.747,1.641
			s-0.335,2.494-1.51,2.82C16.026,22.891,14.796,22.156,14.454,20.924z"/>
		
			<ellipse transform="matrix(-0.9366 0.3503 -0.3503 -0.9366 42.6968 36.8848)" fill="#231F20" cx="18.013" cy="22.304" rx="1.274" ry="1.862"/>
		
			<ellipse transform="matrix(0.8956 -0.4449 0.4449 0.8956 -7.8088 10.3739)" fill="#FFFFFF" cx="18.194" cy="21.821" rx="0.555" ry="0.793"/>
	</g>
	<g>
		<path d="M9.87,18.531c0,0,2.234-0.8,3.68,4.43c1.169,4.229-0.39,7-1.981,7.617c0,0,2.413-2.693,1.102-7.385
			C11.558,19.209,9.87,18.531,9.87,18.531z"/>
		
			<linearGradient id="SVGID_15_" gradientUnits="userSpaceOnUse" x1="2822.25" y1="193.0762" x2="2818.7805" y2="206.1659" gradientTransform="matrix(-0.9956 -0.0939 -0.0939 0.9956 2836.2217 90.8181)">
			<stop  offset="0" style="stop-color:#000000"/>
			<stop  offset="0.0448" style="stop-color:#121211"/>
			<stop  offset="0.2557" style="stop-color:#656160"/>
			<stop  offset="0.4051" style="stop-color:#989391"/>
			<stop  offset="0.478" style="stop-color:#ACA6A4"/>
			<stop  offset="0.5837" style="stop-color:#8E8988"/>
			<stop  offset="0.812" style="stop-color:#43403F"/>
			<stop  offset="1" style="stop-color:#000000"/>
		</linearGradient>
		<path fill="url(#SVGID_15_)" d="M5.611,25.455c0.393,2.533,0.838,4.766,2.479,5.396c0.578,0.223,2.322,0.174,2.904,0.078
			c1.603-0.264,2.946-2.74,2.254-6.689c-0.586-3.348-1.788-5.006-3.378-5.709c-0.931-0.411-2.845,0.295-3.382,0.809
			C4.85,20.905,5.081,22.033,5.611,25.455z"/>
		
			<linearGradient id="SVGID_16_" gradientUnits="userSpaceOnUse" x1="2822.9229" y1="192.9082" x2="2820.5496" y2="205.7329" gradientTransform="matrix(-0.9956 -0.0939 -0.0939 0.9956 2836.2217 90.8181)">
			<stop  offset="0" style="stop-color:#000000"/>
			<stop  offset="0.0402" style="stop-color:#262626"/>
			<stop  offset="0.1068" style="stop-color:#5F5F5F"/>
			<stop  offset="0.1736" style="stop-color:#909090"/>
			<stop  offset="0.2391" style="stop-color:#B8B8B8"/>
			<stop  offset="0.3032" style="stop-color:#D7D7D7"/>
			<stop  offset="0.3653" style="stop-color:#EDEDED"/>
			<stop  offset="0.4245" style="stop-color:#FAFAFA"/>
			<stop  offset="0.478" style="stop-color:#FFFFFF"/>
			<stop  offset="0.5223" style="stop-color:#F6F6F6"/>
			<stop  offset="0.5947" style="stop-color:#DEDEDE"/>
			<stop  offset="0.686" style="stop-color:#B6B6B6"/>
			<stop  offset="0.7928" style="stop-color:#7F7F7F"/>
			<stop  offset="0.9112" style="stop-color:#393939"/>
			<stop  offset="1" style="stop-color:#000000"/>
		</linearGradient>
		<path fill="url(#SVGID_16_)" d="M5.101,25.441c0.511,3.301,2.351,5.756,4.108,5.482c1.758-0.271,2.769-3.168,2.258-6.469
			c-0.511-3.3-2.351-5.754-4.108-5.482C5.601,19.245,4.59,22.141,5.101,25.441z"/>
		<ellipse transform="matrix(-0.9882 0.1529 -0.1529 -0.9882 19.7169 48.5798)" cx="7.991" cy="25.048" rx="3.15" ry="5.912"/>
		
			<linearGradient id="SVGID_17_" gradientUnits="userSpaceOnUse" x1="2823.8252" y1="196.2559" x2="2821.406" y2="203.2794" gradientTransform="matrix(-0.9956 -0.0939 -0.0939 0.9956 2836.2217 90.8181)">
			<stop  offset="0" style="stop-color:#000000"/>
			<stop  offset="0.0197" style="stop-color:#0D0C0C"/>
			<stop  offset="0.1012" style="stop-color:#3D3B3A"/>
			<stop  offset="0.1823" style="stop-color:#656160"/>
			<stop  offset="0.2615" style="stop-color:#847F7E"/>
			<stop  offset="0.3384" style="stop-color:#9A9593"/>
			<stop  offset="0.4118" style="stop-color:#A7A2A0"/>
			<stop  offset="0.478" style="stop-color:#ACA6A4"/>
			<stop  offset="0.5372" style="stop-color:#A39D9B"/>
			<stop  offset="0.6337" style="stop-color:#8B8684"/>
			<stop  offset="0.7556" style="stop-color:#63605E"/>
			<stop  offset="0.8967" style="stop-color:#2C2B2A"/>
			<stop  offset="1" style="stop-color:#000000"/>
		</linearGradient>
		<path fill="url(#SVGID_17_)" d="M5.497,25.213c-0.364-2.102,0.169-3.949,1.19-4.126s2.145,1.384,2.508,3.485
			c0.364,2.103-0.168,3.949-1.19,4.126C6.985,28.875,5.861,27.314,5.497,25.213z"/>
		
			<radialGradient id="SVGID_18_" cx="2822.3457" cy="197.2998" r="4.9893" gradientTransform="matrix(-0.9956 -0.0939 -0.0939 0.9956 2836.2217 90.8181)" gradientUnits="userSpaceOnUse">
			<stop  offset="0" style="stop-color:#ACA6A4"/>
			<stop  offset="0.6507" style="stop-color:#393736"/>
			<stop  offset="1" style="stop-color:#000000"/>
		</radialGradient>
		<path fill="url(#SVGID_18_)" d="M5.329,25.268c-0.34-1.961,0.158-3.686,1.11-3.851c0.954-0.165,2.001,1.292,2.341,3.253
			c0.34,1.962-0.158,3.686-1.111,3.851S5.668,27.229,5.329,25.268z"/>
		
			<linearGradient id="SVGID_19_" gradientUnits="userSpaceOnUse" x1="2818.8467" y1="199.6396" x2="2824.6565" y2="193.7861" gradientTransform="matrix(-0.9956 -0.0939 -0.0939 0.9956 2836.2217 90.8181)">
			<stop  offset="0" style="stop-color:#000000"/>
			<stop  offset="0.0506" style="stop-color:#222222"/>
			<stop  offset="0.1695" style="stop-color:#6C6B6B"/>
			<stop  offset="0.276" style="stop-color:#A7A6A6"/>
			<stop  offset="0.3661" style="stop-color:#D2D0D0"/>
			<stop  offset="0.4363" style="stop-color:#ECEAEA"/>
			<stop  offset="0.478" style="stop-color:#F6F4F4"/>
			<stop  offset="0.5235" style="stop-color:#EDEBEB"/>
			<stop  offset="0.5978" style="stop-color:#D5D3D3"/>
			<stop  offset="0.6916" style="stop-color:#ADABAB"/>
			<stop  offset="0.8012" style="stop-color:#767575"/>
			<stop  offset="0.9227" style="stop-color:#303030"/>
			<stop  offset="1" style="stop-color:#000000"/>
		</linearGradient>
		<path fill="url(#SVGID_19_)" d="M8.61,19.9l-0.979,1.177c0,0,1.695,1.253,1.855,4.175l1.487,0.031
			C10.973,25.283,10.563,21.538,8.61,19.9z"/>
	</g>
	<g>
		
			<linearGradient id="SVGID_20_" gradientUnits="userSpaceOnUse" x1="156.6855" y1="-200.2012" x2="158.5963" y2="-197.8924" gradientTransform="matrix(0.9534 -0.3016 0.3016 0.9534 -72.443 244.723)">
			<stop  offset="0" style="stop-color:#B0B0B2"/>
			<stop  offset="0.1105" style="stop-color:#A7A7A9"/>
			<stop  offset="0.2909" style="stop-color:#8F8F91"/>
			<stop  offset="0.5186" style="stop-color:#686869"/>
			<stop  offset="0.7821" style="stop-color:#323232"/>
			<stop  offset="1" style="stop-color:#000000"/>
		</linearGradient>
		<path fill="url(#SVGID_20_)" d="M18.345,7.346c-0.646,0.204-1.3-0.041-1.461-0.547c-0.06-0.19-0.042-0.391,0.039-0.578
			c-0.353,0.272-0.529,0.676-0.413,1.044c0.16,0.507,0.814,0.752,1.46,0.547c0.403-0.127,0.708-0.4,0.842-0.709
			C18.68,7.205,18.521,7.29,18.345,7.346z"/>
	</g>
</g>
</svg>
