<?xml version="1.0" encoding="utf-8"?>
<!-- Generator: Adobe Illustrator 15.1.0, SVG Export Plug-In . SVG Version: 6.00 Build 0)  -->
<!DOCTYPE svg PUBLIC "-//W3C//DTD SVG 1.1//EN" "http://www.w3.org/Graphics/SVG/1.1/DTD/svg11.dtd">
<svg version="1.1" id="Layer_1" xmlns="http://www.w3.org/2000/svg" xmlns:xlink="http://www.w3.org/1999/xlink" x="0px" y="0px"
	 width="35px" height="35px" viewBox="0 0 35 35" enable-background="new 0 0 35 35" xml:space="preserve">
<g>
	<polygon points="0.394,7.784 7.695,6 7.208,6.764 0.998,9.729 	"/>
	
		<radialGradient id="SVGID_1_" cx="2348.7539" cy="-936.4502" r="78.2502" fx="2354.7046" fy="-924.4661" gradientTransform="matrix(-0.4231 0 0 -0.4231 1012.1001 -384.9505)" gradientUnits="userSpaceOnUse">
		<stop  offset="0" style="stop-color:#FFF100"/>
		<stop  offset="0.143" style="stop-color:#FFEE01"/>
		<stop  offset="0.2395" style="stop-color:#FEE504"/>
		<stop  offset="0.3223" style="stop-color:#FCD609"/>
		<stop  offset="0.3974" style="stop-color:#FAC110"/>
		<stop  offset="0.4672" style="stop-color:#F7A519"/>
		<stop  offset="0.5323" style="stop-color:#F48324"/>
		<stop  offset="0.5495" style="stop-color:#F37927"/>
		<stop  offset="0.7143" style="stop-color:#FFF100"/>
	</radialGradient>
	<circle fill="url(#SVGID_1_)" cx="17.938" cy="17.167" r="17.062"/>
	
		<linearGradient id="SVGID_2_" gradientUnits="userSpaceOnUse" x1="2750.6025" y1="-373.2417" x2="2750.6025" y2="-387.7891" gradientTransform="matrix(-1 0 0 -1 2768.293 -368.5)">
		<stop  offset="0" style="stop-color:#FFF4CB"/>
		<stop  offset="1" style="stop-color:#FFF100"/>
	</linearGradient>
	<ellipse fill="url(#SVGID_2_)" cx="17.691" cy="10.679" rx="11.819" ry="8.825"/>
	
		<linearGradient id="SVGID_3_" gradientUnits="userSpaceOnUse" x1="288.5254" y1="-396.0889" x2="291.7293" y2="-391.0267" gradientTransform="matrix(1 0 0 -1 -280 -368.5)">
		<stop  offset="0" style="stop-color:#FFF68E"/>
		<stop  offset="0.125" style="stop-color:#FEEA79"/>
		<stop  offset="0.382" style="stop-color:#FDCB43"/>
		<stop  offset="0.5385" style="stop-color:#FCB61F"/>
		<stop  offset="0.8077" style="stop-color:#DC5A26"/>
		<stop  offset="1" style="stop-color:#DC5A26"/>
	</linearGradient>
	<path fill="url(#SVGID_3_)" d="M5.456,17.989c0,0,8.206,6.612,13.545,7.29c0,0-1.091,2.801-3.34,3.621
		c-1.455,0.533-4.438,0.604-6.347-0.748C3.555,24.061,5.456,17.989,5.456,17.989z"/>
	
		<linearGradient id="SVGID_4_" gradientUnits="userSpaceOnUse" x1="290.8223" y1="-393.2021" x2="292.232" y2="-390.1265" gradientTransform="matrix(1 0 0 -1 -280 -368.5)">
		<stop  offset="0" style="stop-color:#FFFFFF"/>
		<stop  offset="0.1845" style="stop-color:#FCFCFC"/>
		<stop  offset="0.3439" style="stop-color:#F1F1F1"/>
		<stop  offset="0.494" style="stop-color:#DFDFE0"/>
		<stop  offset="0.6384" style="stop-color:#C6C7C8"/>
		<stop  offset="0.7789" style="stop-color:#A6A6A8"/>
		<stop  offset="0.9144" style="stop-color:#7F8082"/>
		<stop  offset="1" style="stop-color:#626366"/>
	</linearGradient>
	<path fill="url(#SVGID_4_)" d="M5.456,17.989c0,0,8.173,7.464,13.545,7.29c0,0-1.03,2.265-3.279,3.086
		c-1.457,0.531-3.693,0.387-5.68-0.842C4.562,24.135,5.456,17.989,5.456,17.989z"/>
	
		<linearGradient id="SVGID_5_" gradientUnits="userSpaceOnUse" x1="2491.0918" y1="-888.1548" x2="2499.2329" y2="-886.8159" gradientTransform="matrix(0.9384 0.6658 0.3998 -0.5635 -1974.9501 -2136.5251)">
		<stop  offset="0" style="stop-color:#A6A8AB"/>
		<stop  offset="0.522" style="stop-color:#DBDCDD"/>
		<stop  offset="0.7342" style="stop-color:#C6C7C9"/>
		<stop  offset="1" style="stop-color:#A6A8AB"/>
	</linearGradient>
	<path fill="url(#SVGID_5_)" d="M5.67,21.381c0,0,6.016,5.52,11.587,6.131l0.149-0.166c-6.347-0.509-11.827-6.393-11.827-6.393
		L5.67,21.381z"/>
	<path d="M7.49,6.729c0,0,2.814-3.423,8.897-2.142C16.387,4.588,9.914,0.495,7.49,6.729z"/>
	<path d="M26.228,12.905c0,0-4.5-1.326-7.252-7.273C18.976,5.632,19.306,13.541,26.228,12.905z"/>
	<path d="M32.804,16.688l-18.242-4.969c0,0-2.001,7.842,5.557,10.736C28.28,25.582,32.804,16.688,32.804,16.688z"/>
	<path d="M13.097,11.333L0.455,7.729c0,0-2.369,7.028,3.699,9.021C10.942,18.98,13.097,11.333,13.097,11.333z"/>
	<path d="M14.562,11.719l-1.464-0.386l-1.938,2.466c0,0,2.424-2.185,3.814,1.125L14.562,11.719z"/>
	
		<linearGradient id="SVGID_6_" gradientUnits="userSpaceOnUse" x1="2723.7852" y1="-449.9404" x2="2728.8179" y2="-450.7232" gradientTransform="matrix(-0.9978 -0.0661 0.0661 -0.9978 2771.54 -251.2362)">
		<stop  offset="0" style="stop-color:#000000"/>
		<stop  offset="0.0032" style="stop-color:#010101"/>
		<stop  offset="0.2537" style="stop-color:#353637"/>
		<stop  offset="0.4871" style="stop-color:#5E5F61"/>
		<stop  offset="0.6966" style="stop-color:#7C7D80"/>
		<stop  offset="0.8746" style="stop-color:#8E8F92"/>
		<stop  offset="1" style="stop-color:#949699"/>
	</linearGradient>
	<path fill="url(#SVGID_6_)" d="M22.974,14.642l0.947,7.776c0,0-1.66,0.539-4.34-0.693l-1.07-8.353L22.974,14.642z"/>
	
		<linearGradient id="SVGID_7_" gradientUnits="userSpaceOnUse" x1="2739.1787" y1="-446.5278" x2="2744.2783" y2="-446.5278" gradientTransform="matrix(-0.9978 -0.0661 0.0661 -0.9978 2771.54 -251.2362)">
		<stop  offset="0" style="stop-color:#000000"/>
		<stop  offset="0.0032" style="stop-color:#010101"/>
		<stop  offset="0.2537" style="stop-color:#353637"/>
		<stop  offset="0.4871" style="stop-color:#5E5F61"/>
		<stop  offset="0.6966" style="stop-color:#7C7D80"/>
		<stop  offset="0.8746" style="stop-color:#8E8F92"/>
		<stop  offset="1" style="stop-color:#949699"/>
	</linearGradient>
	<path fill="url(#SVGID_7_)" d="M8.634,16.22l-0.575-5.79L3.99,9.176l0.708,7.395C4.698,16.571,6.91,17.331,8.634,16.22z"/>
	
		<linearGradient id="SVGID_8_" gradientUnits="userSpaceOnUse" x1="2717.7832" y1="-448.1328" x2="2721.2056" y2="-456.9915" gradientTransform="matrix(-0.9978 -0.0661 0.0661 -0.9978 2771.54 -251.2362)">
		<stop  offset="0" style="stop-color:#000000"/>
		<stop  offset="0.0032" style="stop-color:#010101"/>
		<stop  offset="0.2537" style="stop-color:#353637"/>
		<stop  offset="0.4871" style="stop-color:#5E5F61"/>
		<stop  offset="0.6966" style="stop-color:#7C7D80"/>
		<stop  offset="0.8746" style="stop-color:#8E8F92"/>
		<stop  offset="1" style="stop-color:#949699"/>
	</linearGradient>
	<path fill="url(#SVGID_8_)" d="M30.034,16.741c-1.15,3.911-4.072,5.345-4.072,5.345c3.762-1.261,5.211-4.999,5.211-4.999
		L30.034,16.741z"/>
	<polygon points="29.948,16.056 34.45,12.942 34.604,13.798 32.804,16.688 	"/>
</g>
</svg>
