<?xml version="1.0" encoding="utf-8"?>
<!-- Generator: Adobe Illustrator 15.1.0, SVG Export Plug-In . SVG Version: 6.00 Build 0)  -->
<!DOCTYPE svg PUBLIC "-//W3C//DTD SVG 1.1//EN" "http://www.w3.org/Graphics/SVG/1.1/DTD/svg11.dtd">
<svg version="1.1" id="Layer_1" xmlns="http://www.w3.org/2000/svg" xmlns:xlink="http://www.w3.org/1999/xlink" x="0px" y="0px"
	 width="25px" height="25px" viewBox="0 0 25 25" enable-background="new 0 0 25 25" xml:space="preserve">
<path fill-rule="evenodd" clip-rule="evenodd" fill="#FFFFFF" d="M6.861,7.669c0.353-0.345,0.771-0.517,1.257-0.517
	c0.494,0,0.913,0.172,1.258,0.517c0.344,0.353,0.516,0.771,0.516,1.258c0,0.495-0.172,0.914-0.516,1.258
	c-0.345,0.344-0.764,0.516-1.258,0.516c-0.486,0-0.905-0.172-1.257-0.516C6.517,9.841,6.344,9.422,6.344,8.927
	C6.344,8.441,6.517,8.022,6.861,7.669z M12.488,1.684c2.922,0,5.421,1.037,7.495,3.111c2.074,2.075,3.111,4.573,3.111,7.495
	c0,2.921-1.037,5.42-3.111,7.495s-4.573,3.111-7.495,3.111s-5.42-1.037-7.494-3.111c-2.074-2.065-3.112-4.563-3.112-7.495
	c0-2.922,1.038-5.42,3.112-7.495C7.068,2.721,9.566,1.684,12.488,1.684z M5.974,5.776c-1.801,1.8-2.701,3.972-2.701,6.515
	c0,2.551,0.9,4.723,2.701,6.515c1.792,1.801,3.964,2.7,6.515,2.7c2.543,0,4.715-0.899,6.515-2.7
	c1.801-1.792,2.701-3.964,2.701-6.515c0-2.542-0.9-4.714-2.701-6.515c-1.8-1.801-3.972-2.701-6.515-2.701
	C9.938,3.075,7.765,3.975,5.974,5.776z M18.104,10.186c-0.345,0.344-0.765,0.516-1.26,0.516c-0.484,0-0.904-0.172-1.257-0.516
	c-0.344-0.344-0.516-0.764-0.516-1.258c0-0.486,0.172-0.905,0.516-1.258c0.353-0.345,0.772-0.517,1.257-0.517
	c0.495,0,0.915,0.172,1.26,0.517c0.344,0.353,0.516,0.771,0.516,1.258C18.619,9.422,18.447,9.841,18.104,10.186z M15.229,16.488
	c1.104-0.698,1.857-1.695,2.265-2.992c0.062-0.187,0.176-0.322,0.345-0.411c0.176-0.088,0.352-0.102,0.529-0.04
	c0.185,0.062,0.321,0.178,0.41,0.345c0.088,0.167,0.102,0.345,0.039,0.529c-0.494,1.571-1.403,2.795-2.728,3.668
	c-1.165,0.768-2.445,1.152-3.84,1.152l-0.238-0.014c-1.465-0.053-2.728-0.517-3.787-1.39c-1.051-0.865-1.749-2.022-2.093-3.471
	c-0.035-0.184-0.004-0.357,0.093-0.515c0.096-0.168,0.238-0.274,0.423-0.318c0.186-0.044,0.361-0.018,0.53,0.079
	c0.167,0.105,0.269,0.252,0.304,0.437c0.3,1.245,0.922,2.203,1.867,2.874c0.794,0.573,1.699,0.878,2.715,0.914
	C13.204,17.381,14.259,17.098,15.229,16.488z"/>
</svg>
