<?xml version="1.0" encoding="utf-8"?>
<!-- Generator: Adobe Illustrator 15.1.0, SVG Export Plug-In . SVG Version: 6.00 Build 0)  -->
<!DOCTYPE svg PUBLIC "-//W3C//DTD SVG 1.1//EN" "http://www.w3.org/Graphics/SVG/1.1/DTD/svg11.dtd">
<svg version="1.1" id="Layer_1" xmlns="http://www.w3.org/2000/svg" xmlns:xlink="http://www.w3.org/1999/xlink" x="0px" y="0px"
	 width="32px" height="32px" viewBox="0 0 32 32" enable-background="new 0 0 32 32" xml:space="preserve">
<path fill="#FFFFFF" d="M16,1C7.716,1,1,7.716,1,16s6.716,15,15,15s15-6.716,15-15S24.284,1,16,1z M27.406,16
	c0,2.469-0.797,4.751-2.135,6.62L9.38,6.729c1.869-1.338,4.151-2.135,6.62-2.135C22.289,4.594,27.406,9.711,27.406,16z M4.594,16
	c0-2.469,0.797-4.751,2.135-6.62L22.62,25.271c-1.869,1.338-4.151,2.135-6.62,2.135C9.711,27.406,4.594,22.29,4.594,16z"/>
</svg>
