<?xml version="1.0" encoding="utf-8"?>
<!-- Generator: Adobe Illustrator 15.1.0, SVG Export Plug-In . SVG Version: 6.00 Build 0)  -->
<!DOCTYPE svg PUBLIC "-//W3C//DTD SVG 1.1//EN" "http://www.w3.org/Graphics/SVG/1.1/DTD/svg11.dtd">
<svg version="1.1" id="Layer_1" xmlns="http://www.w3.org/2000/svg" xmlns:xlink="http://www.w3.org/1999/xlink" x="0px" y="0px"
	 width="100px" height="100px" viewBox="0 0 100 100" enable-background="new 0 0 100 100" xml:space="preserve">
<path fill-rule="evenodd" clip-rule="evenodd" fill="#FFFFFF" d="M28.727,34.022c1.332-1.298,2.913-1.948,4.744-1.948
	c1.864,0,3.445,0.649,4.744,1.948c1.298,1.332,1.947,2.913,1.947,4.744c0,1.864-0.649,3.446-1.947,4.744
	c-1.299,1.298-2.88,1.948-4.744,1.948c-1.831,0-3.413-0.649-4.744-1.948c-1.298-1.298-1.948-2.879-1.948-4.744
	C26.779,36.935,27.428,35.354,28.727,34.022z M49.95,11.45c11.02,0,20.441,3.912,28.265,11.735
	C86.038,31.009,89.95,40.43,89.95,51.45c0,11.02-3.912,20.441-11.735,28.265S60.97,91.45,49.95,91.45
	c-11.02,0-20.441-3.912-28.265-11.735C13.862,71.925,9.95,62.503,9.95,51.45c0-11.02,3.912-20.441,11.735-28.265
	C29.509,15.362,38.93,11.45,49.95,11.45z M25.381,26.881c-6.792,6.792-10.188,14.981-10.188,24.569
	c0,9.621,3.396,17.811,10.188,24.569c6.758,6.791,14.948,10.187,24.569,10.187c9.588,0,17.777-3.396,24.569-10.187
	c6.791-6.759,10.187-14.948,10.187-24.569c0-9.588-3.396-17.778-10.187-24.569c-6.792-6.792-14.981-10.188-24.569-10.188
	C40.329,16.693,32.139,20.089,25.381,26.881z M71.124,43.51c-1.299,1.298-2.88,1.948-4.744,1.948c-1.832,0-3.413-0.649-4.744-1.948
	c-1.299-1.298-1.947-2.879-1.947-4.744c0-1.832,0.648-3.413,1.947-4.744c1.331-1.298,2.912-1.948,4.744-1.948
	c1.864,0,3.445,0.649,4.744,1.948c1.298,1.332,1.946,2.913,1.946,4.744C73.07,40.63,72.422,42.212,71.124,43.51z M60.287,67.28
	c4.161-2.63,7.008-6.392,8.539-11.286c0.233-0.699,0.666-1.215,1.299-1.548c0.665-0.333,1.331-0.383,1.998-0.15
	c0.698,0.233,1.214,0.667,1.548,1.299c0.332,0.633,0.382,1.299,0.148,1.997c-1.863,5.927-5.293,10.538-10.286,13.833
	c-4.395,2.896-9.223,4.345-14.482,4.345l-0.898-0.05c-5.526-0.2-10.287-1.948-14.282-5.243c-3.962-3.263-6.592-7.625-7.89-13.084
	c-0.133-0.699-0.017-1.349,0.35-1.947c0.366-0.633,0.899-1.032,1.598-1.199c0.7-0.166,1.365-0.065,1.998,0.3
	c0.633,0.4,1.016,0.949,1.148,1.648c1.132,4.694,3.479,8.306,7.042,10.836c2.997,2.164,6.409,3.312,10.237,3.446
	C52.647,70.643,56.625,69.577,60.287,67.28z"/>
</svg>
