<?xml version="1.0" encoding="utf-8"?>
<!-- Generator: Adobe Illustrator 15.1.0, SVG Export Plug-In . SVG Version: 6.00 Build 0)  -->
<!DOCTYPE svg PUBLIC "-//W3C//DTD SVG 1.1//EN" "http://www.w3.org/Graphics/SVG/1.1/DTD/svg11.dtd">
<svg version="1.1" id="Capa_3" xmlns="http://www.w3.org/2000/svg" xmlns:xlink="http://www.w3.org/1999/xlink" x="0px" y="0px"
	 width="198.085px" height="195.902px" viewBox="0 0 198.085 195.902" enable-background="new 0 0 198.085 195.902"
	 xml:space="preserve">
<g>
	<path fill="#FFFFFF" d="M96.275,180.92l-0.352-0.015c-2.709-0.112-5.165-1.551-6.584-3.872l-15.711-25.56H36.127
		c-14.351,0-26.026-11.679-26.026-26.033V54.501c0-14.35,11.675-26.021,26.026-26.021h126c14.353,0,26.026,11.672,26.026,26.021
		v70.939c0,14.354-11.675,26.033-26.026,26.033h-40.975l-18.209,25.979C101.419,179.624,98.926,180.92,96.275,180.92z
		 M96.273,176.524l0.002,0.986v-1.012L96.273,176.524z M36.127,35.297c-10.592,0-19.209,8.614-19.209,19.205v70.939
		c0,10.596,8.617,19.216,19.209,19.216H77.44l17.708,28.813c0.234,0.383,0.637,0.613,1.078,0.627l0.123,0.004
		c0.404-0.024,0.778-0.229,1.012-0.563l20.247-28.881h44.519c10.593,0,19.211-8.62,19.211-19.216V54.502
		c0-10.59-8.618-19.205-19.211-19.205H36.127z"/>
</g>
</svg>
