<?xml version="1.0" encoding="utf-8"?>
<!-- Generator: Adobe Illustrator 16.0.0, SVG Export Plug-In . SVG Version: 6.00 Build 0)  -->
<!DOCTYPE svg PUBLIC "-//W3C//DTD SVG 1.1//EN" "http://www.w3.org/Graphics/SVG/1.1/DTD/svg11.dtd">
<svg version="1.1" id="Capa_3" xmlns="http://www.w3.org/2000/svg" xmlns:xlink="http://www.w3.org/1999/xlink" x="0px" y="0px"
	 width="198.085px" height="195.903px" viewBox="0 0 198.085 195.903" enable-background="new 0 0 198.085 195.903"
	 xml:space="preserve">
<path fill="#CFCFCF" d="M125.23,106.95c10.061-8.183,16.503-20.641,16.503-34.59c0-24.588-20.001-44.59-44.589-44.59
	c-24.589,0-44.592,20.002-44.592,44.59c0,13.95,6.445,26.407,16.504,34.59c-21.816,7.548-39.118,23.601-46.231,39.728l14.864,7.432
	c17.643-28.312,33.834-37.152,59.455-37.152c24.72,0,41.593,7.991,59.454,37.152l14.863-7.432
	C166.918,139.246,157.244,118.033,125.23,106.95z M97.145,102.087c-16.396,0-29.728-13.336-29.728-29.728
	c0-16.391,13.332-29.727,29.728-29.727c16.394,0,29.727,13.336,29.727,29.727C126.871,88.751,113.538,102.087,97.145,102.087z"/>
</svg>
